<svg width="388" height="438" viewBox="0 0 388 438" fill="none" xmlns="http://www.w3.org/2000/svg">
<circle opacity="0.2" cx="193.955" cy="187.623" r="147.576" fill="#83B9FF"/>
<circle opacity="0.2" cx="340.971" cy="205.032" r="47.0291" fill="#83B9FF"/>
<circle opacity="0.2" cx="207.431" cy="390.825" r="47.0291" fill="#83B9FF"/>
<path d="M192.309 358.518C174.343 358.567 156.546 355.044 139.954 348.153C123.362 341.262 108.305 331.14 95.6596 318.378C95.5788 318.297 95.5335 318.187 95.5337 318.072C95.5339 317.958 95.5796 317.848 95.6608 317.767C95.7419 317.686 95.8519 317.641 95.9664 317.641C96.0809 317.641 96.1907 317.687 96.2716 317.768C114.254 335.816 136.957 348.432 161.78 354.172C186.602 359.911 212.539 358.541 236.619 350.218C260.698 341.895 281.946 326.957 297.927 307.115C313.907 287.273 323.975 263.33 326.975 238.031C326.988 237.917 327.046 237.813 327.136 237.742C327.226 237.671 327.34 237.639 327.454 237.652C327.567 237.666 327.671 237.724 327.742 237.814C327.813 237.903 327.845 238.018 327.832 238.131C323.916 271.317 307.951 301.91 282.969 324.102C257.986 346.294 225.725 358.541 192.309 358.518Z" fill="#83B9FF"/>
<path d="M322.76 184.984C320.321 176.402 317.036 168.084 312.955 160.151C312.908 160.05 312.902 159.935 312.938 159.83C312.974 159.724 313.05 159.637 313.149 159.586C313.248 159.535 313.362 159.525 313.469 159.556C313.575 159.588 313.666 159.66 313.721 159.757C317.829 167.737 321.135 176.105 323.59 184.738C323.622 184.848 323.61 184.967 323.555 185.068C323.5 185.168 323.407 185.243 323.297 185.276C323.187 185.308 323.069 185.296 322.968 185.241C322.867 185.186 322.792 185.094 322.76 184.984Z" fill="#83B9FF"/>
<path d="M109.968 251.759C109.964 247.675 108.34 243.76 105.452 240.873C102.565 237.985 98.6498 236.361 94.5663 236.357H60.4101V215.766H95.2814C97.0272 215.765 98.701 215.07 99.9355 213.836C101.17 212.601 101.864 210.928 101.866 209.182V185.749C101.864 184.004 101.169 182.331 99.9346 181.097C98.7002 179.863 97.0268 179.169 95.2814 179.167H14.6819C12.9385 179.172 11.268 179.867 10.0361 181.101C8.8042 182.334 8.11118 184.006 8.10876 185.749V209.182C8.11058 210.928 8.8049 212.601 10.0394 213.836C11.2738 215.07 12.9476 215.765 14.6934 215.766H49.551V236.357H15.4016C11.3183 236.362 7.4037 237.986 4.51638 240.873C1.62907 243.761 0.00485238 247.675 0 251.759V303.168C0.00485238 307.252 1.62907 311.166 4.51638 314.054C7.4037 316.941 11.3183 318.565 15.4016 318.57H94.5663C98.6496 318.565 102.564 316.941 105.452 314.054C108.339 311.166 109.963 307.252 109.968 303.168V251.759ZM60.4101 287.276V278.207C61.7527 279.846 63.5439 281.057 65.5646 281.693C65.6734 281.728 65.7917 281.719 65.8936 281.667C65.9955 281.615 66.0725 281.525 66.1077 281.416C66.143 281.307 66.1336 281.189 66.0816 281.087C66.0296 280.985 65.9392 280.908 65.8304 280.873C61.1343 279.355 57.7698 274.705 58.5467 267.195C58.5592 267.081 58.526 266.967 58.4544 266.878C58.3829 266.789 58.2788 266.731 58.1651 266.719C58.0515 266.707 57.9375 266.74 57.8483 266.811C57.7591 266.883 57.702 266.987 57.6896 267.101C56.7728 275.734 52.2669 276.14 52.134 273.408C51.9369 269.266 51.7283 266.413 51.8269 264.547C52.0171 261.006 53.3143 260.919 57.8477 260.624C63.9579 260.223 64.3223 260.2 66.2269 263.161C66.9145 264.24 66.6853 269.195 70.0017 269.23C82.1075 269.36 104.839 268.847 109.106 268.517V293.586C105.966 293.506 69.2064 293.114 60.4101 292.935V289.577C60.677 288.833 60.677 288.02 60.4101 287.276ZM50.4128 317.706V293.068C51.0683 292.995 54.9553 292.516 56.4588 292.355C57.6208 292.271 58.7154 291.778 59.5483 290.964V317.706H50.4128ZM56.3717 291.498C51.6779 292 49.2668 292.454 46.9314 292.431C43.5302 292.406 43.3743 286.829 47.6029 286.506C50.9307 286.254 53.2272 286.048 56.5895 285.935C60.9372 285.791 60.7516 291.028 56.3671 291.498H56.3717ZM50.988 264.236C50.9229 266.259 50.9665 268.284 51.1187 270.302C49.2785 270.421 47.4324 270.416 45.5929 270.286C42.2834 269.97 42.3269 264.22 46.5601 264.197L50.988 264.236ZM46.1544 271.554C47.8688 271.517 49.457 271.384 51.176 271.325C51.2104 271.989 51.247 272.7 51.2814 273.449C51.4166 276.234 55.2212 277.203 57.3137 272.411C57.7273 272.823 58.0066 273.35 58.1149 273.923C58.2233 274.497 58.1556 275.09 57.9208 275.624C57.686 276.158 57.2951 276.609 56.7993 276.917C56.3036 277.225 55.7263 277.376 55.1433 277.35C50.3532 277.602 47.6785 277.948 45.1941 277.795C41.6096 277.575 41.6279 271.652 46.1544 271.554ZM58.8355 275.636C59.0473 276.103 59.2884 276.556 59.5575 276.992V280.478C59.4003 279.818 59.0514 279.22 58.5546 278.758C58.0579 278.296 57.4355 277.991 56.7659 277.882C57.2611 277.694 57.7054 277.394 58.0632 277.004C58.4211 276.614 58.6824 276.145 58.8264 275.636H58.8355ZM46.2507 278.941C49.6885 278.778 52.0561 278.633 55.5512 278.62C60.0777 278.601 59.7592 284.045 55.2006 284.4C50.4769 284.769 47.8665 285.172 45.4233 285.087C41.8708 284.961 41.8502 279.149 46.2415 278.941H46.2507ZM59.5575 281.998V286.004C59.11 285.647 58.5959 285.381 58.0451 285.224C57.4943 285.067 56.9177 285.02 56.3488 285.087C57.1186 284.925 57.827 284.549 58.3929 284.003C58.9588 283.456 59.3593 282.762 59.5483 281.998H59.5575ZM94.5755 237.219C98.4304 237.223 102.126 238.756 104.852 241.482C107.578 244.208 109.111 247.904 109.115 251.759V267.653C105.162 267.981 82.2107 268.499 70.02 268.368C67.5196 268.343 67.8106 264.013 66.9626 262.693C65.1428 259.87 64.288 259.436 60.4192 259.608V237.219H94.5755ZM14.6911 214.987V214.902C13.1715 214.902 11.7141 214.299 10.6396 213.224C9.56502 212.15 8.96135 210.692 8.96135 209.173V185.749C8.96135 184.23 9.56502 182.772 10.6396 181.698C11.7141 180.623 13.1715 180.02 14.6911 180.02H95.2814C96.801 180.02 98.2584 180.623 99.333 181.698C100.408 182.772 101.011 184.23 101.011 185.749V209.182C101.011 210.701 100.408 212.159 99.333 213.233C98.2584 214.308 96.801 214.912 95.2814 214.912H59.9861C59.9295 214.912 59.8734 214.923 59.8212 214.944C59.7689 214.966 59.7214 214.998 59.6814 215.038C59.6414 215.078 59.6096 215.125 59.588 215.178C59.5663 215.23 59.5552 215.286 59.5552 215.342V259.659C58.9982 259.691 58.3886 259.732 57.7217 259.776C53.1378 260.076 51.5335 260.511 51.0912 263.383L50.4311 263.372V215.336C50.4305 215.221 50.3846 215.111 50.3034 215.031C50.2223 214.95 50.1124 214.905 49.9979 214.905C15.6331 214.905 15.4933 214.875 14.6819 214.989L14.6911 214.987ZM0.866339 303.166V251.759C0.869979 247.904 2.40271 244.208 5.12818 241.482C7.85364 238.756 11.5492 237.223 15.4039 237.219H49.5533V263.346C49.0262 263.346 46.5738 263.324 46.5738 263.324C45.6565 263.289 44.7549 263.569 44.019 264.118C43.283 264.666 42.7569 265.45 42.5282 266.339C42.2996 267.228 42.382 268.169 42.7619 269.004C43.1418 269.84 43.7963 270.52 44.6165 270.933C43.8192 271.176 43.1175 271.662 42.6089 272.323C42.1003 272.984 41.81 273.786 41.7782 274.62C41.7465 275.453 41.9749 276.275 42.4317 276.973C42.8886 277.67 43.5513 278.208 44.3278 278.512C40.8028 280.162 41.3643 285.791 45.3935 285.935C45.6227 285.935 45.8702 285.949 46.1109 285.949C42.4163 287.366 42.8518 292.896 46.5692 293.263C46.7343 293.315 49.2026 293.439 49.5694 293.457V317.697H15.4199C11.5629 317.699 7.86256 316.17 5.13197 313.446C2.40138 310.722 0.863853 307.025 0.857172 303.168L0.866339 303.166ZM94.5755 317.704H60.4101V293.797C69.2087 293.975 105.985 294.37 109.106 294.45V303.159C109.104 307.015 107.571 310.713 104.845 313.44C102.119 316.167 98.4224 317.702 94.5663 317.706L94.5755 317.704Z" fill="#83B9FF"/>
<path d="M28.0208 195.656L23.987 195.071L22.181 191.404C22.1395 191.339 22.0824 191.286 22.0149 191.249C21.9474 191.212 21.8717 191.193 21.7948 191.193C21.7178 191.193 21.6421 191.212 21.5746 191.249C21.5072 191.286 21.45 191.339 21.4086 191.404L19.6049 195.071L15.5688 195.656C15.4899 195.669 15.4161 195.703 15.3557 195.756C15.2954 195.808 15.2508 195.876 15.227 195.953C15.2032 196.029 15.2012 196.111 15.2211 196.188C15.2409 196.266 15.282 196.336 15.3396 196.391L18.2504 199.245L17.5628 203.263C17.5482 203.342 17.5563 203.424 17.5862 203.5C17.6161 203.575 17.6666 203.64 17.732 203.688C17.7973 203.736 17.8747 203.764 17.9555 203.77C18.0362 203.776 18.117 203.759 18.1885 203.721L21.7982 201.826L25.4057 203.721C25.4772 203.759 25.558 203.776 25.6387 203.77C25.7194 203.764 25.7969 203.736 25.8622 203.688C25.9275 203.64 25.978 203.575 26.0079 203.5C26.0379 203.424 26.046 203.342 26.0314 203.263L25.3438 199.245L28.2637 196.398C28.3237 196.342 28.3664 196.27 28.3868 196.191C28.4072 196.111 28.4045 196.028 28.379 195.95C28.3534 195.872 28.3062 195.803 28.2427 195.75C28.1793 195.698 28.1022 195.666 28.0208 195.656Z" fill="#83B9FF"/>
<path d="M44.6138 195.656L40.5777 195.071L38.774 191.404C38.7325 191.339 38.6754 191.286 38.6079 191.249C38.5405 191.212 38.4647 191.193 38.3878 191.193C38.3109 191.193 38.2351 191.212 38.1677 191.249C38.1002 191.286 38.0431 191.339 38.0016 191.404L36.1979 195.071L32.1618 195.656C32.0829 195.669 32.0091 195.703 31.9488 195.756C31.8884 195.808 31.8438 195.876 31.82 195.953C31.7962 196.029 31.7942 196.111 31.8141 196.188C31.834 196.266 31.875 196.336 31.9327 196.391L34.8434 199.245L34.1558 203.263C34.1451 203.325 34.1481 203.388 34.1646 203.449C34.1811 203.51 34.2107 203.566 34.2513 203.614C34.292 203.662 34.3427 203.701 34.3998 203.727C34.4569 203.754 34.5192 203.767 34.5821 203.767C35.9066 203.232 37.1813 202.581 38.3912 201.821L41.9987 203.716C42.0702 203.754 42.151 203.771 42.2317 203.766C42.3125 203.76 42.3899 203.731 42.4552 203.683C42.5205 203.635 42.571 203.57 42.6009 203.495C42.6309 203.42 42.639 203.338 42.6244 203.258L41.9368 199.24L44.8567 196.394C44.9153 196.338 44.9567 196.266 44.9763 196.187C44.9959 196.108 44.9929 196.025 44.9675 195.948C44.9421 195.871 44.8954 195.803 44.8328 195.751C44.7702 195.699 44.6943 195.666 44.6138 195.656Z" fill="#83B9FF"/>
<path d="M61.2075 195.656L57.1715 195.071L55.3677 191.404C55.3263 191.339 55.2692 191.286 55.2017 191.249C55.1342 191.212 55.0585 191.193 54.9816 191.193C54.9046 191.193 54.8289 191.212 54.7614 191.249C54.6939 191.286 54.6368 191.339 54.5954 191.404L52.7893 195.071L48.7556 195.656C48.6767 195.669 48.6029 195.703 48.5425 195.756C48.4821 195.808 48.4376 195.876 48.4138 195.953C48.39 196.029 48.3879 196.111 48.4078 196.188C48.4277 196.266 48.4688 196.336 48.5264 196.391L51.4371 199.245L50.7381 203.256C50.727 203.318 50.7296 203.381 50.7459 203.442C50.7621 203.503 50.7915 203.559 50.8319 203.607C50.8724 203.655 50.9229 203.694 50.98 203.72C51.0371 203.747 51.0992 203.76 51.1621 203.76C52.49 203.232 53.7654 202.581 54.9712 201.814L58.581 203.71C58.6525 203.747 58.7333 203.764 58.814 203.759C58.8947 203.753 58.9722 203.724 59.0375 203.676C59.1028 203.629 59.1533 203.563 59.1832 203.488C59.2132 203.413 59.2213 203.331 59.2067 203.251L58.5306 199.245L61.4504 196.398C61.5095 196.342 61.5514 196.27 61.5712 196.191C61.5911 196.111 61.5882 196.028 61.5628 195.951C61.5374 195.873 61.4906 195.804 61.4277 195.752C61.3648 195.7 61.2885 195.666 61.2075 195.656Z" fill="#83B9FF"/>
<path d="M77.7987 195.657L73.765 195.072L71.9612 191.405C71.9199 191.34 71.8627 191.286 71.795 191.249C71.7273 191.211 71.6512 191.192 71.5739 191.192C71.4966 191.192 71.4206 191.211 71.3528 191.249C71.2851 191.286 71.2279 191.34 71.1866 191.405L69.3828 195.072L65.3468 195.657C65.2683 195.67 65.1952 195.705 65.1354 195.758C65.0755 195.81 65.0313 195.878 65.0076 195.955C64.984 196.031 64.9817 196.112 65.0011 196.189C65.0205 196.266 65.0608 196.337 65.1176 196.392L68.0283 199.246L67.3408 203.263C67.3297 203.325 67.3323 203.389 67.3485 203.45C67.3648 203.51 67.3941 203.567 67.4346 203.615C67.4751 203.663 67.5256 203.702 67.5827 203.728C67.6397 203.754 67.7019 203.768 67.7648 203.768C69.0893 203.232 70.364 202.581 71.5739 201.822L75.1814 203.717C75.2529 203.755 75.3337 203.772 75.4144 203.766C75.4951 203.76 75.5726 203.732 75.6379 203.684C75.7032 203.636 75.7537 203.571 75.7836 203.496C75.8136 203.421 75.8217 203.338 75.8071 203.259L75.1195 199.241L78.0394 196.395C78.0979 196.338 78.1394 196.267 78.1591 196.188C78.1788 196.11 78.1759 196.027 78.1508 195.95C78.1257 195.873 78.0793 195.805 78.017 195.753C77.9547 195.701 77.8791 195.667 77.7987 195.657Z" fill="#83B9FF"/>
<path d="M94.3916 195.656L90.3579 195.071L88.5519 191.404C88.5104 191.339 88.4533 191.286 88.3858 191.249C88.3183 191.212 88.2426 191.193 88.1657 191.193C88.0887 191.193 88.013 191.212 87.9455 191.249C87.878 191.286 87.8209 191.339 87.7795 191.404L85.9758 195.071L81.942 195.656C81.8621 195.667 81.787 195.7 81.7252 195.752C81.6633 195.804 81.6172 195.872 81.5922 195.949C81.5671 196.025 81.564 196.107 81.5833 196.186C81.6026 196.264 81.6435 196.335 81.7014 196.391L84.6213 199.245L83.9337 203.263C83.9191 203.342 83.9272 203.424 83.9571 203.5C83.987 203.575 84.0375 203.64 84.1028 203.688C84.1682 203.736 84.2456 203.764 84.3264 203.77C84.4071 203.776 84.4879 203.759 84.5594 203.721L88.1691 201.826L91.7766 203.721C91.8481 203.759 91.9289 203.776 92.0096 203.77C92.0903 203.764 92.1678 203.736 92.2331 203.688C92.2984 203.64 92.3489 203.575 92.3788 203.5C92.4088 203.424 92.4169 203.342 92.4023 203.263L91.7147 199.245L94.6346 196.398C94.6945 196.342 94.7372 196.27 94.7577 196.191C94.7781 196.111 94.7754 196.028 94.7499 195.95C94.7243 195.872 94.6771 195.803 94.6136 195.75C94.5501 195.698 94.4731 195.666 94.3916 195.656Z" fill="#83B9FF"/>
<path d="M336.31 230.276C315.11 248.825 293.797 267.405 271.506 285.177C266.918 288.853 261.112 290.665 255.247 290.252C249.382 289.838 243.888 287.23 239.86 282.947C227.057 269.296 210.523 249.485 201.028 229.91L201.667 254.853L186.183 280.293C195.727 300.003 209.474 321.614 225.833 344.425C216.453 360.723 200.565 368.382 181.829 370.981C166.478 347.309 153.342 322.274 142.584 296.192C141.092 292.485 140.409 288.502 140.581 284.51C140.753 280.518 141.776 276.608 143.581 273.043L177.834 205.565C194.004 203.577 209.911 199.843 225.276 194.429C226.601 193.965 227.849 193.307 228.98 192.476C234.971 195.126 248.562 204.891 260.48 240.537L306.279 195.845C313.767 198.611 320.441 203.213 325.688 209.229C330.935 215.245 334.587 222.482 336.31 230.276Z" fill="#B49B92"/>
<path d="M353.664 89.6323H274.492C270.409 89.6372 266.495 91.2614 263.607 94.1487C260.72 97.036 259.096 100.951 259.091 105.034V144.986C259.096 149.069 260.721 152.983 263.608 155.87C266.495 158.757 270.41 160.381 274.492 160.386H353.664C357.747 160.381 361.662 158.758 364.549 155.871C367.436 152.984 369.061 149.069 369.066 144.986V105.034C369.061 100.951 367.437 97.036 364.549 94.1487C361.662 91.2614 357.747 89.6372 353.664 89.6323ZM310.805 98.463C310.721 97.0145 314.729 98.0826 315.811 105.756C316.629 111.575 316.659 112.726 316.886 114.497C317.47 119.026 317.312 120.012 317.429 120.257C320.314 126.653 315.46 135.821 308.61 134.975C308.497 134.963 308.385 134.995 308.296 135.066C308.207 135.136 308.15 135.238 308.135 135.35C308.121 135.462 308.152 135.575 308.22 135.665C308.289 135.755 308.39 135.814 308.502 135.83C316.047 136.747 321.337 126.954 318.245 119.975C318.227 119.711 318.162 118.797 318.032 117.348C319.707 118.363 321.682 118.768 323.622 118.494C322.881 118.694 322.228 119.136 321.767 119.75C321.306 120.364 321.064 121.115 321.079 121.882C321.095 122.65 321.366 123.39 321.851 123.985C322.336 124.58 323.006 124.996 323.755 125.166C322.947 125.223 322.185 125.56 321.599 126.12C321.014 126.68 320.643 127.427 320.551 128.231C320.458 129.035 320.65 129.847 321.093 130.525C321.536 131.203 322.202 131.705 322.975 131.943C322.275 132.26 321.694 132.792 321.316 133.462C320.939 134.131 320.785 134.904 320.876 135.667C320.967 136.43 321.299 137.145 321.824 137.706C322.348 138.268 323.038 138.648 323.794 138.791C320.397 140.054 320.959 145.284 325.781 145.8L326.743 145.905C315.178 146.364 262.57 147.443 260.17 147.51C260.032 146.803 259.966 146.085 259.971 145.365C259.911 142.965 259.953 136.928 259.953 117.979C263.643 118.208 288.491 119.741 296.545 119.652C299.692 119.615 305.55 119.551 307.546 115.661C309.387 112.093 310.925 100.464 310.808 98.463H310.805ZM325.872 144.95C321.454 144.478 321.346 139.236 325.655 139.387C329.127 139.513 329.704 139.458 332.53 139.669C336.752 139.99 336.612 145.569 333.2 145.594C330.746 145.542 328.299 145.327 325.875 144.95H325.872ZM325.414 138.2C320.803 138.04 320.347 132.601 324.813 132.441C328.226 132.317 330.681 132.342 334.119 132.356C338.515 132.374 338.748 138.173 335.214 138.457C332.821 138.649 329.892 138.349 325.416 138.2H325.414ZM325.125 131.48C320.656 131.48 319.996 126.31 324.277 125.98C327.816 125.705 335.966 125.441 336.195 125.441C340.254 125.441 340.699 130.848 337.355 131.256C335.019 131.54 329.759 131.448 325.127 131.48H325.125ZM325.923 124.559C321.497 124.935 320.383 119.81 324.646 119.138C327.445 118.701 333.454 117.953 334.1 117.953C337.838 117.953 338.583 123.023 335.365 123.683C333.08 124.135 330.52 124.167 325.925 124.559H325.923ZM368.202 144.986C368.197 148.841 366.664 152.537 363.938 155.262C361.212 157.988 357.516 159.52 353.662 159.524H274.492C271.226 159.519 268.056 158.417 265.492 156.395C262.927 154.372 261.117 151.547 260.351 148.372C262.817 148.307 267.883 148.202 274.249 148.069C351.986 146.465 325.24 146.465 333.2 146.465C337.059 146.435 337.783 141.136 334.538 139.36C334.788 139.36 335.038 139.335 335.285 139.316C339.039 139.014 339.569 134.045 336.66 132.186C336.954 132.166 337.222 132.14 337.46 132.111C341.934 131.567 341.331 124.394 335.984 124.582L335.001 124.618C335.18 124.586 335.359 124.554 335.537 124.517C339.949 123.626 338.79 116.521 333.491 117.126C320.557 117.896 318.408 118.306 317.78 114.747C317.468 111.754 317.108 108.788 316.666 105.634C315.33 96.1597 309.79 95.8319 309.946 98.5157C310.056 100.418 308.52 111.889 306.781 115.267C305.021 118.705 299.499 118.758 296.536 118.79C288.475 118.879 263.439 117.335 259.953 117.117V105.034C259.956 101.179 261.489 97.4834 264.214 94.7575C266.94 92.0316 270.635 90.4983 274.49 90.4941H353.662C357.517 90.4983 361.212 92.0316 363.938 94.7574C366.664 97.4832 368.197 101.179 368.202 105.034V144.986Z" fill="#83B9FF"/>
<path d="M81.4038 348.448H76.341C75.7701 348.448 75.2048 348.335 74.6776 348.116C74.1505 347.897 73.6718 347.576 73.2691 347.172C72.8663 346.767 72.5475 346.287 72.3309 345.759C72.1144 345.23 72.0043 344.665 72.007 344.094V339.051C72.007 338.937 71.9616 338.828 71.8808 338.747C71.8 338.666 71.6904 338.621 71.5761 338.621C71.4618 338.621 71.3522 338.666 71.2714 338.747C71.1906 338.828 71.1452 338.937 71.1452 339.051V344.094C71.147 344.664 71.0362 345.23 70.8192 345.758C70.6021 346.286 70.2831 346.766 69.8803 347.17C69.4775 347.575 68.9989 347.896 68.4719 348.115C67.9449 348.334 67.3798 348.448 66.8089 348.448H61.7392C61.625 348.448 61.5154 348.494 61.4346 348.574C61.3537 348.655 61.3083 348.765 61.3083 348.879C61.3083 348.993 61.3537 349.103 61.4346 349.184C61.5154 349.265 61.625 349.31 61.7392 349.31H66.802C67.3715 349.31 67.9354 349.422 68.4615 349.64C68.9876 349.857 69.4656 350.177 69.8681 350.58C70.2707 350.982 70.5898 351.46 70.8074 351.987C71.025 352.513 71.1367 353.077 71.136 353.646V358.709C71.144 358.818 71.193 358.92 71.2731 358.995C71.3533 359.069 71.4586 359.111 71.5681 359.111C71.6775 359.111 71.7829 359.069 71.863 358.995C71.9432 358.92 71.9921 358.818 72.0001 358.709V353.646C71.9998 353.077 72.1117 352.513 72.3294 351.987C72.5471 351.461 72.8663 350.984 73.2688 350.581C73.6713 350.179 74.1492 349.859 74.6752 349.642C75.2011 349.424 75.7649 349.312 76.3341 349.312H81.3992C81.5138 349.313 81.6239 349.268 81.7054 349.187C81.7868 349.107 81.8329 348.997 81.8335 348.883C81.8341 348.768 81.7892 348.658 81.7086 348.576C81.628 348.495 81.5184 348.449 81.4038 348.448ZM71.5738 351.565C71.0454 350.363 70.0853 349.403 68.8831 348.875C70.0851 348.347 71.0453 347.388 71.5738 346.186C72.0996 347.389 73.0585 348.349 74.2599 348.877C73.0609 349.404 72.1026 350.36 71.5738 351.558V351.565Z" fill="#83B9FF"/>
<path d="M300.611 61.6727H289.555V50.6097C289.547 50.5005 289.498 50.3985 289.418 50.3239C289.338 50.2494 289.232 50.208 289.123 50.208C289.013 50.208 288.908 50.2494 288.828 50.3239C288.748 50.3985 288.699 50.5005 288.691 50.6097V61.675H277.63C277.521 61.683 277.419 61.7319 277.344 61.8121C277.27 61.8922 277.228 61.9976 277.228 62.107C277.228 62.2165 277.27 62.3219 277.344 62.402C277.419 62.4821 277.521 62.5311 277.63 62.5391H288.693V73.5998C288.701 73.709 288.75 73.811 288.83 73.8856C288.91 73.9601 289.016 74.0015 289.125 74.0015C289.234 74.0015 289.34 73.9601 289.42 73.8856C289.5 73.811 289.549 73.709 289.557 73.5998V62.5368H300.62C300.729 62.5277 300.831 62.4777 300.905 62.3968C300.978 62.3158 301.019 62.21 301.018 62.1005C301.016 61.991 300.974 61.886 300.898 61.8067C300.823 61.7273 300.72 61.6794 300.611 61.6727Z" fill="#83B9FF"/>
<path d="M86.6159 34.5414C86.609 33.4823 86.2893 32.4488 85.697 31.5708C85.1047 30.6927 84.2661 30.0093 83.2867 29.6062C82.3072 29.2032 81.2305 29.0985 80.1918 29.3054C79.153 29.5122 78.1986 30.0214 77.4482 30.7689L76.4833 31.7361L75.5161 30.7735C75.0241 30.2441 74.4303 29.8196 73.7702 29.5253C73.1102 29.231 72.3975 29.073 71.6749 29.0608C70.9523 29.0486 70.2346 29.1825 69.565 29.4544C68.8954 29.7263 68.2876 30.1306 67.7781 30.6431C67.2685 31.1556 66.8677 31.7657 66.5996 32.4369C66.3316 33.108 66.2018 33.8264 66.2182 34.5489C66.2345 35.2714 66.3966 35.9832 66.6946 36.6416C66.9927 37.3 67.4207 37.8914 67.9529 38.3803L76.2106 46.6037C76.2505 46.644 76.2979 46.676 76.3502 46.6979C76.4026 46.7197 76.4587 46.731 76.5154 46.731C76.5721 46.731 76.6283 46.7197 76.6806 46.6979C76.7329 46.676 76.7804 46.644 76.8202 46.6037L85.0551 38.3322C85.5527 37.8347 85.9469 37.2436 86.2148 36.593C86.4827 35.9423 86.619 35.245 86.6159 34.5414Z" fill="#83B9FF"/>
<path d="M34.8231 38.385C34.6168 17.987 52.4478 0.318703 75.9146 0.0803447C108.494 -0.295528 128.741 32.5567 111.51 57.8731L118.125 74.8332C118.155 74.9114 118.162 74.997 118.145 75.0792C118.128 75.1615 118.087 75.2368 118.027 75.296C117.967 75.3552 117.891 75.3957 117.809 75.4124C117.727 75.4291 117.641 75.4214 117.563 75.3901L100.514 68.6336C73.5792 86.4394 35.1371 69.3257 34.8231 38.385ZM76.3822 0.942101C65.6257 0.84031 55.2316 4.82545 47.3002 12.0922C43.4592 15.5187 40.4263 19.7546 38.4202 24.4948C36.414 29.2349 35.4845 34.3611 35.6987 39.5038C35.9129 44.6465 37.2654 49.6777 39.6588 54.2346C42.0522 58.7915 45.4268 62.7606 49.5394 65.8558C56.7313 71.422 65.4827 74.6018 74.5703 74.9507C83.6579 75.2996 92.6274 72.8001 100.225 67.8016C100.275 67.7672 100.314 67.7397 100.734 67.8772C101.774 68.2187 105.166 69.5595 116.963 74.235C112.505 62.8029 111.107 59.3238 110.729 58.2031C110.532 57.6232 110.607 57.6714 110.671 57.5774C127.579 33.0494 108.265 0.942101 76.3822 0.942101Z" fill="#83B9FF"/>
<path d="M350.563 353.085L334.82 350.793L327.779 336.526C327.738 336.46 327.681 336.407 327.613 336.369C327.545 336.332 327.469 336.312 327.392 336.312C327.315 336.312 327.238 336.332 327.171 336.369C327.103 336.407 327.046 336.46 327.005 336.526L319.964 350.793L304.221 353.085C304.142 353.098 304.068 353.132 304.008 353.185C303.947 353.237 303.903 353.306 303.879 353.382C303.855 353.458 303.853 353.54 303.873 353.617C303.893 353.695 303.934 353.765 303.991 353.82L315.382 364.925L312.694 380.606C312.679 380.686 312.687 380.768 312.717 380.843C312.747 380.918 312.798 380.983 312.863 381.031C312.928 381.079 313.006 381.108 313.087 381.114C313.167 381.119 313.248 381.102 313.32 381.064L327.401 373.662L341.482 381.064C341.554 381.102 341.635 381.119 341.716 381.114C341.796 381.108 341.874 381.079 341.939 381.031C342.004 380.983 342.055 380.918 342.085 380.843C342.115 380.768 342.123 380.686 342.108 380.606L339.42 364.925L350.811 353.82C350.869 353.764 350.909 353.692 350.928 353.613C350.947 353.534 350.944 353.452 350.918 353.375C350.892 353.298 350.845 353.23 350.782 353.179C350.719 353.127 350.643 353.095 350.563 353.085ZM338.645 364.466C338.416 364.696 338.294 363.522 341.102 379.891C326.507 372.215 327.49 372.632 327.192 372.786L313.67 379.891L316.251 364.847C316.308 364.528 317.09 365.404 305.199 353.814C321.68 351.416 320.482 351.673 320.626 351.382L327.38 337.697L334.135 351.382C334.279 351.673 333.117 351.423 349.564 353.814L338.645 364.466Z" fill="#83B9FF"/>
<path d="M62.6558 179.463C70.2831 156.179 84.0478 135.383 102.5 119.264C120.953 103.145 143.411 92.3002 167.508 87.8714C167.621 87.8507 167.737 87.8755 167.831 87.9404C167.925 88.0053 167.989 88.105 168.01 88.2174C168.031 88.3299 168.006 88.446 167.941 88.5401C167.876 88.6342 167.776 88.6987 167.664 88.7194C143.717 93.1178 121.399 103.893 103.061 119.91C84.7232 135.927 71.0442 156.593 63.4648 179.731C63.4182 179.823 63.3401 179.895 63.2446 179.935C63.1492 179.974 63.0427 179.978 62.9447 179.946C62.8467 179.913 62.7636 179.846 62.7106 179.758C62.6576 179.669 62.6381 179.565 62.6558 179.463Z" fill="#83B9FF"/>
<path d="M385.441 186.502C373.175 180.412 338.544 181.771 319.299 185.037C319.226 185.058 319.214 185.037 319.07 185.184C318.611 185.628 316.959 187.583 309.084 196.559C308.222 196.169 307.344 195.795 306.448 195.436C306.357 195.399 306.194 195.436 305.74 195.816C304.312 197.026 297.533 203.78 260.681 239.749C249.391 206.334 236.761 195.745 229.816 192.385C231.803 190.776 233.336 188.676 234.263 186.292C235.189 183.909 235.478 181.325 235.099 178.796C233.016 164.657 227.788 135.564 222.913 126.653C217.696 117.13 204.788 117.316 201.273 115.205C195.224 111.568 192.334 103.578 191.965 96.6177C191.954 96.5077 191.901 96.4063 191.817 96.3345C191.733 96.2627 191.624 96.2259 191.514 96.2318C191.403 96.2377 191.299 96.2858 191.223 96.3661C191.148 96.4465 191.105 96.5529 191.106 96.6635C191.479 103.917 194.525 112.155 200.828 115.943C203.147 116.917 205.567 117.632 208.043 118.075C207.41 119.674 206.362 121.076 205.006 122.136C203.566 123.054 202.022 123.8 200.406 124.357C185.96 129.342 171.913 119.729 175.049 121.758C173.697 121.054 172.548 120.016 171.712 118.741C173.781 118.014 175.887 117.395 178.021 116.89C179.928 116.276 181.574 115.041 182.696 113.381C183.818 111.722 184.351 109.734 184.209 107.736L186.538 103.23C186.576 103.149 186.588 103.059 186.572 102.971C186.556 102.884 186.514 102.803 186.451 102.741C186.387 102.678 186.306 102.637 186.218 102.622C186.131 102.608 186.041 102.62 185.96 102.659C185.118 103.251 184.226 103.768 183.295 104.206C178.406 106.471 174.927 105.283 173.509 100.081C172.594 95.2993 172.564 90.3906 173.419 85.5982C173.958 82.4124 175.28 77.8286 178.512 77.8493C181.287 77.8493 184.551 81.2871 186.119 84.7456C186.158 84.8266 186.222 84.8933 186.301 84.9366C186.38 84.9799 186.47 84.9976 186.56 84.9873C186.649 84.977 186.733 84.9392 186.801 84.879C186.868 84.8189 186.914 84.7395 186.935 84.6516C187.59 81.3994 189.169 79.0983 190.932 79.0983C191.161 79.0983 198.066 79.0571 198.825 79.0983C206.927 78.9815 216.193 75.2365 216.193 64.971C216.193 55.0837 209.155 43.5898 200.076 43.5898C190.221 43.5898 182.429 53.0669 181.315 61.9251C181.038 64.1578 181.323 66.4244 182.144 68.5189C179.414 68.9122 176.877 70.1522 174.889 72.0642C172.901 73.9761 171.563 76.4636 171.063 79.1763C171.036 79.2872 171.054 79.4043 171.113 79.5021C171.171 79.6 171.266 79.6707 171.377 79.6988C171.377 79.6988 171.835 79.6782 172.154 79.6553C171.735 84.5377 171.647 89.4429 171.89 94.3372C172.12 102.95 175.328 108.52 183.148 105.21C183.976 110.053 182.546 114.449 177.746 116.074C174.237 117.27 162.161 118.482 156.067 133.391C154.211 137.929 153.03 143.391 151.057 147.83C150.124 144.901 149.732 143.599 149.524 143.017C149.35 142.534 149.363 142.506 148.724 142.385L143.668 141.076C142.098 138.814 139.938 137.027 137.422 135.908L148.832 120.233C148.971 120.054 149.072 119.847 149.129 119.626C149.185 119.406 149.195 119.176 149.158 118.951C149.122 118.726 149.039 118.512 148.916 118.32C148.793 118.129 148.631 117.965 148.442 117.838C148.253 117.712 148.039 117.626 147.815 117.586C147.591 117.546 147.361 117.552 147.139 117.605C146.918 117.658 146.71 117.756 146.528 117.892C146.345 118.029 146.194 118.202 146.081 118.4L135.724 135.337C134.222 134.94 132.655 134.858 131.12 135.096L130.235 130.3C130.22 130.218 130.181 130.142 130.124 130.081C130.066 130.021 129.993 129.978 129.912 129.958L123.621 128.425C123.352 128.358 123.022 128.507 123.142 129.073C123.286 129.761 123.799 131.48 125.126 136.281C112.184 132.931 108.675 131.966 107.657 131.782C106.933 131.649 107.075 132.028 107.199 132.39C107.843 134.436 111.54 144.7 129.091 195.988C129.208 196.325 126.671 195.529 169.321 207.17C169.805 207.23 169.903 206.984 169.651 206.024C169.358 204.892 168.579 202.772 167.373 198.986C168.29 199.444 169.207 199.87 170.123 200.285C171.017 202.52 173.103 206.833 175.441 206.313C175.993 206.249 176.541 206.18 177.086 206.111C173.396 213.383 143.203 272.856 143.203 272.856C141.369 276.477 140.331 280.448 140.156 284.503C139.981 288.558 140.675 292.603 142.19 296.369C152.946 322.478 166.099 347.534 181.48 371.216C181.661 371.495 181.915 371.41 182.433 371.335C184.135 371.09 185.795 370.806 187.414 370.482C190.414 375.215 191.539 376.572 192.387 386.961C193.999 400.96 197.234 414.725 202.027 427.977L204.857 435.256C204.884 435.325 204.927 435.386 204.985 435.434C205.042 435.481 205.11 435.513 205.183 435.525C205.256 435.538 205.331 435.532 205.401 435.507C205.471 435.483 205.533 435.44 205.581 435.384C214.616 425.091 222.198 391.281 223.983 371.848C223.983 371.555 224.508 372.458 214.921 358.163C219.467 354.36 223.295 349.773 226.225 344.62C226.264 344.549 226.283 344.469 226.279 344.388C226.275 344.307 226.248 344.228 226.202 344.162C208.488 319.473 195.557 298.58 186.685 280.305L208.63 244.271C217.74 258.167 228.09 271.207 239.554 283.234C243.673 287.568 249.264 290.205 255.229 290.626C261.193 291.047 267.099 289.221 271.785 285.507C293.3 268.346 313.872 250.485 336.605 230.596C336.665 230.543 336.71 230.475 336.734 230.399C336.758 230.323 336.76 230.242 336.74 230.165C335.575 225.463 333.793 220.937 331.441 216.702C334.68 214.489 338.247 212.801 342.012 211.699C355.18 206.639 367.669 199.967 379.196 191.835C383.417 188.833 384.909 187.767 385.427 187.311C385.815 186.971 385.698 186.639 385.441 186.502ZM208.735 118.661C209.184 118.891 209.543 119.264 209.755 119.722C209.966 120.179 210.019 120.694 209.904 121.185C209.788 121.676 209.512 122.114 209.119 122.429C208.725 122.744 208.238 122.918 207.734 122.924C207.097 122.946 206.466 122.804 205.9 122.514C207.122 121.458 208.088 120.138 208.726 118.654L208.735 118.661ZM205.093 123.11C205.199 123.443 205.226 123.797 205.169 124.143C205.113 124.489 204.977 124.816 204.771 125.099C204.564 125.382 204.294 125.613 203.982 125.772C203.671 125.931 203.326 126.015 202.976 126.016C202.609 126.016 202.248 125.925 201.926 125.751C201.603 125.577 201.329 125.325 201.128 125.019C202.503 124.502 203.827 123.861 205.084 123.103L205.093 123.11ZM200.202 125.338C200.244 125.868 200.094 126.396 199.779 126.825C199.464 127.255 199.004 127.556 198.485 127.674C197.966 127.792 197.422 127.72 196.952 127.469C196.482 127.219 196.118 126.808 195.926 126.312C197.371 126.096 198.798 125.768 200.193 125.331L200.202 125.338ZM194.8 126.445C194.738 126.963 194.488 127.441 194.096 127.787C193.704 128.133 193.198 128.322 192.676 128.319C192.181 128.318 191.702 128.147 191.319 127.835C190.935 127.523 190.671 127.089 190.569 126.605C191.979 126.639 193.389 126.583 194.791 126.438L194.8 126.445ZM185.259 126.034C186.689 126.289 188.132 126.465 189.582 126.559C189.453 127.021 189.177 127.428 188.796 127.718C188.414 128.007 187.948 128.164 187.469 128.163C186.895 128.162 186.343 127.939 185.93 127.541C185.517 127.143 185.273 126.601 185.25 126.027L185.259 126.034ZM180.153 124.749C181.547 125.193 182.963 125.566 184.395 125.867C184.182 126.353 183.802 126.747 183.324 126.978C182.846 127.208 182.301 127.261 181.788 127.125C181.274 126.989 180.827 126.674 180.525 126.237C180.224 125.8 180.088 125.27 180.144 124.742L180.153 124.749ZM175.189 122.777C176.515 123.399 177.872 123.953 179.254 124.437C178.976 124.883 178.55 125.216 178.05 125.378C177.55 125.54 177.008 125.52 176.522 125.321C176.035 125.123 175.635 124.758 175.391 124.293C175.147 123.827 175.075 123.291 175.189 122.777ZM170.976 119.175C171.796 120.47 172.922 121.543 174.256 122.298C174.051 122.565 173.788 122.781 173.487 122.929C173.186 123.078 172.854 123.156 172.518 123.156C172.065 123.139 171.626 122.989 171.256 122.726C170.886 122.463 170.601 122.097 170.436 121.674C170.271 121.251 170.234 120.789 170.328 120.345C170.422 119.901 170.644 119.494 170.967 119.175H170.976ZM136.9 136.614C139.015 137.505 140.871 138.915 142.297 140.714L135.243 138.88L136.9 136.614ZM135.252 136.091C134.413 137.466 133.877 138.282 133.788 138.514L131.647 137.957L131.273 135.933C132.597 135.722 133.949 135.776 135.252 136.091ZM124.127 129.424L129.431 130.717L130.726 137.716L126.089 136.515L124.127 129.424ZM168.73 206.12L129.82 195.479L108.15 132.779L148.694 143.274L155.682 165.196C155.641 169.436 155.352 172.108 154.295 172.718C154.074 172.811 153.832 172.845 153.594 172.816C153.355 172.786 153.129 172.695 152.936 172.551C147.391 167.516 141.384 163.015 134.995 159.106C133.448 158.302 128.876 155.928 127.89 157.349C127.203 158.332 128.612 160.436 132.075 163.603C133.464 164.882 134.764 166.161 135.958 167.428C134.271 166.633 132.252 165.735 130.952 165.162C127.813 163.787 125.851 163.541 125.28 164.454C125.159 164.677 125.123 164.937 125.179 165.184C125.234 165.432 125.376 165.652 125.58 165.803C127.824 167.729 131.551 170.415 134.14 172.519C132.589 172.113 128.686 171.162 128.06 172.649C127.978 172.89 127.984 173.153 128.078 173.389C128.173 173.626 128.348 173.821 128.573 173.94C131.61 175.789 137.241 178.503 140.033 180.309C144.267 182.702 148.269 185.484 151.988 188.619C153.419 190.181 155.011 191.588 156.736 192.816C159.797 194.898 162.991 196.778 166.296 198.445L168.73 206.12ZM141.227 177.114C135.351 172.746 137.867 174.219 130.819 168.843C129.144 167.561 127.411 166.239 126.139 165.148C126.027 165.052 125.993 164.937 126.011 164.919C126.029 164.9 126.664 164.231 130.595 165.957C132.47 166.784 135.848 168.295 137.53 169.166C140.712 172.751 143.536 176.64 145.96 180.776C144.449 179.498 142.792 178.267 141.225 177.103L141.227 177.114ZM148.229 184.029C148.496 184.394 148.77 184.76 149.049 185.126C146.925 183.6 144.546 182.122 142.604 180.914C139.939 179.164 137.177 177.567 134.331 176.131C132.431 175.125 130.469 174.084 129.023 173.202C128.897 173.126 128.842 173.016 128.855 172.984C128.869 172.952 129.392 172.198 133.558 173.259C133.978 173.367 134.748 173.566 135.658 173.807C139.572 177.258 144.878 180.467 148.227 184.017L148.229 184.029ZM170.628 199.566C165.382 197.226 160.39 194.353 155.73 190.994C153.911 189.465 152.247 187.761 150.761 185.906C148.401 182.874 146.218 179.708 144.225 176.424C140.924 171.489 137.038 166.971 132.653 162.968C128.846 159.487 128.436 158.066 128.592 157.844C128.604 157.831 128.618 157.821 128.633 157.814C128.846 157.711 129.967 157.461 134.592 159.877C140.926 163.752 146.879 168.217 152.373 173.213C152.399 173.24 152.429 173.263 152.462 173.282C152.787 173.514 153.168 173.654 153.566 173.687C153.964 173.72 154.363 173.645 154.722 173.47C157.014 172.15 156.36 165.542 156.61 163.259C156.644 162.034 156.888 160.824 157.332 159.682C157.461 159.705 158.201 160.081 160.083 165.196C161.568 169.239 164.176 176.326 167.593 178.652C169.422 179.712 171.579 180.054 173.646 179.61C176.496 186.706 177.628 194.376 176.949 201.993C174.797 201.299 172.685 200.485 170.625 199.554L170.628 199.566ZM176.745 205.282C177.224 204.463 177.55 203.565 177.707 202.63C179.041 196.121 176.983 184.929 174.304 178.959C173.67 177.3 172.667 175.806 171.37 174.593L203.787 169.299C203.844 169.29 203.899 169.269 203.948 169.238C203.997 169.207 204.039 169.167 204.072 169.12C204.105 169.072 204.128 169.018 204.14 168.962C204.151 168.905 204.151 168.846 204.14 168.79L200.553 150.851C200.531 150.739 200.464 150.64 200.369 150.577C200.274 150.513 200.158 150.49 200.045 150.513C199.933 150.535 199.835 150.602 199.771 150.697C199.708 150.792 199.685 150.909 199.707 151.021L203.207 168.519L173.385 173.378C172.649 172.058 169.385 166.193 168.849 165.219C164.135 156.682 164.889 144.78 164.898 144.661C164.903 144.548 164.864 144.438 164.789 144.354C164.714 144.27 164.61 144.219 164.497 144.211C164.385 144.203 164.274 144.24 164.188 144.312C164.103 144.385 164.049 144.489 164.038 144.601C164.038 144.722 163.255 156.872 168.093 165.636C168.599 166.553 171.531 171.824 172.482 173.525L169.644 173.983C168.553 174.116 167.758 175.216 167.275 177.254C162.177 172.413 159.922 158.46 157.245 158.806C156.328 158.916 156.069 160.353 155.804 162.725L151.442 149.052C155.959 139.738 155.778 126.321 169.649 119.64C169.449 120.116 169.369 120.635 169.415 121.149C169.462 121.664 169.634 122.159 169.916 122.592C170.198 123.025 170.582 123.383 171.034 123.633C171.486 123.883 171.993 124.019 172.509 124.029C173.14 124.029 173.755 123.833 174.269 123.467C174.307 124.038 174.501 124.587 174.83 125.054C175.16 125.521 175.611 125.888 176.136 126.115C176.661 126.342 177.238 126.419 177.804 126.339C178.37 126.259 178.903 126.024 179.344 125.661C179.477 126.202 179.752 126.698 180.141 127.097C180.53 127.496 181.019 127.784 181.556 127.931C182.094 128.077 182.661 128.078 183.199 127.932C183.737 127.786 184.226 127.499 184.615 127.1C184.824 127.622 185.172 128.076 185.621 128.413C186.07 128.75 186.604 128.957 187.163 129.012C187.722 129.066 188.286 128.965 188.792 128.721C189.297 128.476 189.726 128.097 190.031 127.625C190.307 128.124 190.719 128.535 191.219 128.809C191.719 129.084 192.287 129.211 192.856 129.175C193.426 129.14 193.973 128.943 194.436 128.609C194.898 128.274 195.256 127.815 195.467 127.286C195.812 127.775 196.292 128.154 196.848 128.375C197.404 128.597 198.013 128.651 198.6 128.532C199.186 128.413 199.726 128.125 200.151 127.704C200.577 127.284 200.871 126.748 200.998 126.163C201.466 126.549 202.038 126.79 202.643 126.853C203.247 126.916 203.856 126.799 204.395 126.518C204.933 126.236 205.376 125.802 205.669 125.269C205.961 124.737 206.091 124.13 206.04 123.525C206.588 123.703 207.162 123.791 207.738 123.786C208.33 123.779 208.908 123.604 209.404 123.281C209.9 122.958 210.295 122.501 210.542 121.963C210.788 121.425 210.877 120.828 210.798 120.242C210.719 119.655 210.475 119.103 210.094 118.65C212.564 119.178 214.902 120.196 216.972 121.643C219.042 123.09 220.801 124.937 222.145 127.075C226.958 135.88 232.161 164.845 234.235 178.931C234.71 182.114 234.062 185.362 232.4 188.118C230.739 190.874 228.17 192.965 225.134 194.031C209.459 199.522 193.233 203.291 176.742 205.27L176.745 205.282ZM219.312 366.276L223.112 371.94C221.306 391.345 213.773 423.888 205.398 434.28L202.914 427.887C209.171 418.096 215.244 389.244 219.31 366.265L219.312 366.276ZM335.84 230.137C313.193 249.951 292.688 267.75 271.251 284.85C266.735 288.428 261.043 290.188 255.294 289.783C249.546 289.378 244.157 286.838 240.187 282.661C228.58 270.504 218.129 257.294 208.969 243.201C206.2 238.902 203.702 234.434 201.49 229.823C201.098 229.2 200.61 229.571 200.61 229.92C200.61 229.92 200.61 229.92 201.245 254.745C189.396 274.206 186.524 278.81 185.905 279.988C185.676 280.447 185.763 280.387 185.809 280.479C194.679 298.794 207.612 319.721 225.34 344.448C221.967 350.316 217.402 355.412 211.939 359.408L193.574 331.006C193.508 330.923 193.414 330.866 193.309 330.849C193.203 330.831 193.096 330.852 193.006 330.909C192.915 330.966 192.85 331.054 192.821 331.157C192.792 331.26 192.803 331.369 192.85 331.465L211.236 359.907C202.484 365.693 192.488 369.324 182.064 370.505C166.774 346.938 153.695 322.009 142.994 296.034C141.524 292.383 140.852 288.46 141.021 284.528C141.19 280.596 142.197 276.746 143.975 273.234C143.975 273.234 177.606 206.964 178.026 205.976C194.179 203.98 210.069 200.246 225.42 194.837C226.704 194.386 227.919 193.759 229.03 192.974C234.572 195.516 248.199 205.169 260.069 240.675C260.093 240.745 260.133 240.807 260.187 240.856C260.241 240.905 260.306 240.94 260.378 240.957C260.449 240.974 260.523 240.973 260.593 240.953C260.663 240.933 260.728 240.896 260.78 240.845L306.377 196.341C311.431 198.322 316.137 201.095 320.319 204.557L295.892 227.387C295.828 227.446 295.784 227.523 295.764 227.607C295.745 227.692 295.752 227.78 295.783 227.861C295.815 227.941 295.87 228.011 295.942 228.059C296.014 228.108 296.098 228.134 296.185 228.134C296.449 228.134 294.714 229.667 320.979 205.121C328.41 211.71 333.604 220.451 335.837 230.128L335.84 230.137ZM378.875 191.019C367.835 187.485 338.384 189.018 315.112 190.992L319.604 185.869C338.821 182.631 372.21 181.553 384.41 186.978L378.875 191.019Z" fill="white" fill-opacity="0.5"/>
<path d="M213.548 205.921C213.501 205.889 213.461 205.848 213.43 205.801C213.399 205.754 213.378 205.7 213.367 205.645C213.357 205.589 213.357 205.532 213.369 205.477C213.38 205.421 213.403 205.368 213.435 205.322C213.466 205.275 213.507 205.235 213.555 205.204C213.602 205.173 213.655 205.151 213.711 205.141C213.766 205.13 213.824 205.131 213.879 205.142C213.934 205.154 213.987 205.176 214.034 205.208C217.324 207.617 221.074 209.323 225.052 210.221C229.029 211.118 233.149 211.187 237.155 210.425C237.267 210.402 237.383 210.425 237.478 210.488C237.574 210.552 237.64 210.651 237.662 210.763C237.685 210.875 237.662 210.991 237.598 211.086C237.535 211.182 237.436 211.248 237.324 211.27C233.206 212.055 228.971 211.985 224.881 211.064C220.791 210.144 216.933 208.394 213.548 205.921Z" fill="black"/>
<path d="M197.915 78.4789C196.708 78.2728 195.478 78.2312 194.26 78.3551C193.514 75.9156 191.985 73.7896 189.91 72.3058C187.835 70.8219 185.329 70.0627 182.779 70.1455C180.197 69.9966 177.649 70.7988 175.618 72.4006C173.587 74.0023 172.213 76.2927 171.755 78.8387L171.375 78.8524C170.176 78.9143 169.028 80.0167 168.224 81.8755C165.673 87.7725 167.935 97.1373 172.489 97.5109H172.523C172.582 97.5108 172.641 97.4985 172.695 97.4748C172.749 97.4512 172.797 97.4166 172.837 97.3733C173.403 96.766 171.556 94.0226 173.032 79.4781C173.061 79.4101 173.074 79.3362 173.07 79.2622C173.067 79.1882 173.046 79.1161 173.009 79.0516C172.973 78.9871 172.922 78.9318 172.861 78.8901C172.8 78.8484 172.73 78.8214 172.656 78.8112C173.117 76.5073 174.396 74.448 176.257 73.0133C178.117 71.5785 180.434 70.8652 182.779 71.0049C185.102 70.8996 187.394 71.5623 189.303 72.8904C191.211 74.2186 192.628 76.1383 193.336 78.3528H190.966C185.805 78.3528 183.996 89.959 187.778 95.1571C186.042 96.8366 183.977 98.1396 181.714 98.9845C181.447 98.5969 181.064 98.3038 180.62 98.1475C180.177 97.9912 179.695 97.9798 179.244 98.1148C178.793 98.2498 178.397 98.5244 178.112 98.899C177.827 99.2736 177.669 99.7288 177.659 100.199C177.667 100.501 177.736 100.797 177.863 101.07C177.991 101.344 178.173 101.588 178.398 101.788C178.624 101.987 178.888 102.138 179.175 102.231C179.462 102.324 179.765 102.357 180.065 102.328C180.365 102.299 180.655 102.208 180.919 102.062C181.182 101.915 181.412 101.716 181.595 101.476C181.778 101.237 181.91 100.962 181.982 100.669C182.054 100.377 182.065 100.072 182.014 99.7753C182.038 99.7716 182.062 99.7654 182.085 99.7569C184.392 98.8398 186.511 97.5059 188.335 95.8217C188.666 96.1987 189.07 96.5039 189.524 96.7183C189.977 96.9328 190.47 97.052 190.971 97.0685C197.711 97.0685 197.345 97.1143 197.92 96.947C203.739 95.2419 203.741 80.1817 197.915 78.4789ZM172.017 96.5391C168.826 95.4733 166.622 87.768 169.021 82.217C169.681 80.6928 170.58 79.7577 171.418 79.7142L172.152 79.6867C171.476 85.2812 171.428 90.9339 172.01 96.5391H172.017ZM190.973 96.248V96.209C188.619 96.209 186.63 92.3128 186.63 87.7129C186.63 83.1131 188.619 79.2169 190.973 79.2169H194.869C190.916 82.5264 190.836 92.7987 194.856 96.209C192.321 96.209 191.358 96.2159 190.966 96.248H190.973ZM197.684 96.1197C193.558 97.3344 190.826 86.6426 194.397 81.0916C195.165 79.893 196.315 78.9029 197.681 79.3062C199.545 79.8517 201.433 82.9137 201.433 87.7129C201.433 92.5122 199.54 95.5742 197.677 96.1197H197.684Z" fill="#83B9FF"/>
<path d="M259.531 104.227C258.167 104.227 237.038 89.2559 201.837 86.8082C201.725 86.7978 201.621 86.744 201.548 86.6582C201.476 86.5725 201.439 86.4616 201.447 86.3493C201.455 86.237 201.506 86.1323 201.59 86.0574C201.674 85.9825 201.784 85.9435 201.897 85.9487C222.253 87.318 242.034 93.2903 259.747 103.415C259.833 103.461 259.901 103.534 259.94 103.623C259.979 103.713 259.986 103.812 259.961 103.907C259.936 104.001 259.88 104.083 259.802 104.142C259.724 104.2 259.628 104.23 259.531 104.227Z" fill="#83B9FF"/>
</svg>
