<svg width="413" height="321" viewBox="0 0 413 321" fill="none" xmlns="http://www.w3.org/2000/svg">
<path d="M137.301 223.966H114.712C108.15 223.982 101.75 221.929 96.4217 218.099C96.3439 218.043 96.247 218.021 96.1524 218.036C96.0579 218.051 95.9733 218.104 95.9173 218.182C95.8614 218.259 95.8386 218.356 95.8541 218.451C95.8696 218.546 95.922 218.63 95.9998 218.686C101.451 222.603 107.999 224.704 114.712 224.689H137.301C137.393 224.682 137.478 224.641 137.54 224.574C137.603 224.507 137.637 224.419 137.637 224.327C137.637 224.236 137.603 224.147 137.54 224.08C137.478 224.013 137.393 223.972 137.301 223.966Z" fill="#FFD740"/>
<path d="M154.67 223.965H147.446C147.355 223.972 147.269 224.013 147.207 224.08C147.145 224.147 147.11 224.235 147.11 224.327C147.11 224.418 147.145 224.507 147.207 224.574C147.269 224.641 147.355 224.682 147.446 224.688H154.67C154.762 224.682 154.847 224.641 154.909 224.574C154.972 224.507 155.006 224.418 155.006 224.327C155.006 224.235 154.972 224.147 154.909 224.08C154.847 224.013 154.762 223.972 154.67 223.965Z" fill="#FFD740"/>
<path d="M107.102 63.4717C108.147 63.4721 109.169 63.1624 110.039 62.5819C110.908 62.0014 111.586 61.176 111.986 60.2103C112.387 59.2445 112.492 58.1817 112.288 57.1563C112.084 56.1309 111.581 55.189 110.842 54.4496C110.103 53.7102 109.161 53.2067 108.136 53.0026C107.11 52.7985 106.047 52.903 105.082 53.303C104.116 53.703 103.29 54.3805 102.709 55.2497C102.128 56.1189 101.818 57.1409 101.818 58.1863C101.82 59.5871 102.378 60.93 103.368 61.9207C104.358 62.9114 105.701 63.4692 107.102 63.4717Z" fill="#FFD740"/>
<path d="M121.988 63.4717C123.033 63.4717 124.055 63.1617 124.924 62.581C125.793 62.0002 126.471 61.1747 126.871 60.2089C127.271 59.2432 127.376 58.1804 127.172 57.1552C126.968 56.1299 126.464 55.1881 125.725 54.4489C124.986 53.7098 124.044 53.2064 123.019 53.0024C121.994 52.7985 120.931 52.9032 119.965 53.3032C118.999 53.7032 118.174 54.3807 117.593 55.2499C117.012 56.1191 116.702 57.1409 116.702 58.1863C116.704 59.5876 117.261 60.9311 118.252 61.922C119.243 62.9128 120.587 63.4702 121.988 63.4717ZM121.988 53.6239C122.891 53.6239 123.773 53.8916 124.524 54.3932C125.274 54.8949 125.859 55.6078 126.205 56.442C126.55 57.2761 126.641 58.1939 126.464 59.0794C126.288 59.9648 125.853 60.7781 125.215 61.4164C124.576 62.0546 123.763 62.4892 122.877 62.6651C121.992 62.841 121.074 62.7503 120.24 62.4046C119.406 62.0588 118.693 61.4735 118.192 60.7226C117.69 59.9718 117.423 59.0891 117.423 58.1863C117.425 56.9764 117.906 55.8165 118.762 54.9612C119.618 54.1058 120.778 53.6249 121.988 53.6239Z" fill="#FFD740"/>
<path d="M136.908 63.4717C137.954 63.4721 138.976 63.1624 139.845 62.5819C140.715 62.0014 141.392 61.176 141.793 60.2103C142.193 59.2445 142.298 58.1817 142.094 57.1563C141.891 56.1309 141.387 55.189 140.648 54.4496C139.909 53.7102 138.967 53.2067 137.942 53.0026C136.917 52.7985 135.854 52.903 134.888 53.303C133.922 53.703 133.096 54.3805 132.516 55.2497C131.935 56.1189 131.625 57.1409 131.625 58.1863C131.626 59.5873 132.183 60.9305 133.174 61.9213C134.164 62.9121 135.507 63.4697 136.908 63.4717ZM136.908 53.6239C137.811 53.6235 138.694 53.8909 139.445 54.3923C140.196 54.8937 140.781 55.6065 141.127 56.4406C141.472 57.2747 141.563 58.1926 141.387 59.0782C141.211 59.9638 140.776 60.7772 140.138 61.4157C139.499 62.0541 138.686 62.4889 137.8 62.6649C136.915 62.841 135.997 62.7504 135.163 62.4047C134.328 62.059 133.616 61.4737 133.114 60.7228C132.613 59.9719 132.345 59.0892 132.346 58.1863C132.347 56.9767 132.829 55.8172 133.684 54.9619C134.539 54.1066 135.699 53.6254 136.908 53.6239Z" fill="#FFD740"/>
<path d="M193.04 161.653L193.268 184.313C193.302 184.682 193.455 185.029 193.703 185.303C193.952 185.577 194.283 185.763 194.647 185.832L228.636 193.578H228.657C228.842 193.633 229.037 193.648 229.229 193.621C229.42 193.594 229.604 193.527 229.766 193.422C229.929 193.318 230.068 193.18 230.172 193.017C230.276 192.854 230.344 192.671 230.371 192.479V167.519C230.354 167.131 230.2 166.761 229.937 166.474C229.674 166.188 229.319 166.003 228.933 165.952L194.58 160.506C194.401 160.459 194.215 160.452 194.033 160.487C193.852 160.522 193.681 160.598 193.533 160.708C193.385 160.818 193.264 160.96 193.179 161.124C193.093 161.287 193.046 161.468 193.04 161.653ZM193.893 161.342C194.21 161.068 192.217 160.933 228.822 166.664C229.037 166.69 229.236 166.789 229.387 166.944C229.537 167.099 229.63 167.302 229.65 167.517V192.479C229.65 192.671 229.311 192.995 228.797 192.876L194.808 185.13C194.603 185.094 194.414 184.996 194.268 184.848C194.121 184.7 194.024 184.511 193.989 184.305C193.738 160.08 193.69 161.516 193.893 161.342Z" fill="#FFD740"/>
<path d="M366.494 122.066H339.528V68.9434C339.519 60.4172 336.127 52.243 330.097 46.2147C324.068 40.1865 315.893 36.7969 307.367 36.7898H114.712C106.188 36.7994 98.0155 40.19 91.9882 46.2176C85.961 52.2451 82.571 60.4174 82.5618 68.9415V122.064H55.5939C55.4983 122.064 55.4066 122.102 55.339 122.17C55.2714 122.237 55.2334 122.329 55.2334 122.425V183.535C55.2339 183.63 55.2721 183.722 55.3396 183.789C55.4071 183.857 55.4985 183.895 55.5939 183.895H82.5618V192.226C82.5618 192.322 82.5998 192.414 82.6674 192.481C82.735 192.549 82.8268 192.587 82.9224 192.587C83.018 192.587 83.1097 192.549 83.1773 192.481C83.2449 192.414 83.2829 192.322 83.2829 192.226V183.895H139.188C139.236 183.895 139.282 183.886 139.326 183.868C139.37 183.85 139.41 183.823 139.443 183.79C139.477 183.756 139.503 183.717 139.521 183.673C139.539 183.629 139.549 183.582 139.549 183.535V122.427C139.549 122.379 139.539 122.332 139.521 122.289C139.503 122.245 139.477 122.205 139.443 122.172C139.41 122.138 139.37 122.112 139.326 122.093C139.282 122.075 139.236 122.066 139.188 122.066H97.7526V108.534H190.366C190.462 108.534 190.554 108.496 190.621 108.429C190.689 108.361 190.727 108.269 190.727 108.174V95.1979L193.696 100.614C193.745 100.69 193.821 100.745 193.91 100.768C193.998 100.79 194.092 100.778 194.172 100.735C194.252 100.691 194.312 100.618 194.341 100.532C194.369 100.445 194.364 100.351 194.326 100.268L191.047 94.2792H210.436L206.907 100.086C206.856 100.168 206.84 100.266 206.862 100.36C206.883 100.454 206.942 100.535 207.023 100.586C207.105 100.637 207.203 100.653 207.297 100.631C207.391 100.61 207.472 100.551 207.523 100.47L210.683 95.2592V122.066H169.246C169.198 122.066 169.151 122.075 169.108 122.093C169.064 122.112 169.024 122.138 168.991 122.172C168.957 122.205 168.931 122.245 168.913 122.289C168.894 122.332 168.885 122.379 168.885 122.427V183.533C168.885 183.629 168.923 183.721 168.991 183.789C169.058 183.856 169.15 183.895 169.246 183.895H189.231L189.287 188.663L165.009 204.74C163.212 205.856 164.242 208.456 166.513 209.095C207.423 220.629 204.886 219.994 205.795 219.994C206.546 220.013 207.282 219.785 207.891 219.346C235.208 198.467 234.109 199.119 234.073 198.914L234.126 198.879V183.895H252.842C252.938 183.895 253.029 183.856 253.097 183.789C253.165 183.721 253.202 183.629 253.202 183.533V122.427C253.202 122.379 253.193 122.332 253.175 122.289C253.157 122.245 253.13 122.205 253.097 122.172C253.063 122.138 253.024 122.112 252.98 122.093C252.936 122.075 252.889 122.066 252.842 122.066H211.404V95.2707L214.333 100.614C214.382 100.69 214.459 100.745 214.547 100.768C214.635 100.79 214.729 100.778 214.809 100.735C214.889 100.691 214.949 100.618 214.978 100.532C215.007 100.445 215.002 100.351 214.964 100.268L211.684 94.2792H232.692L229.163 100.086C229.112 100.168 229.096 100.266 229.118 100.36C229.139 100.454 229.197 100.535 229.279 100.586C229.361 100.637 229.459 100.653 229.553 100.631C229.647 100.61 229.728 100.551 229.779 100.47L232.828 95.4567V108.183C232.828 108.279 232.866 108.37 232.934 108.438C233.001 108.506 233.093 108.544 233.188 108.544H324.335V122.076H282.897C282.802 122.076 282.71 122.114 282.643 122.181C282.575 122.249 282.537 122.341 282.537 122.436V183.535C282.537 183.63 282.575 183.722 282.643 183.79C282.71 183.857 282.802 183.895 282.897 183.895H338.807V192.537C338.797 200.871 335.481 208.861 329.587 214.754C323.692 220.646 315.701 223.959 307.367 223.966H156.04C155.949 223.972 155.863 224.013 155.801 224.08C155.738 224.147 155.704 224.236 155.704 224.327C155.704 224.419 155.738 224.507 155.801 224.574C155.863 224.641 155.949 224.682 156.04 224.689H307.367C315.891 224.678 324.063 221.288 330.09 215.26C336.117 209.233 339.508 201.061 339.518 192.537V183.895H366.484C366.58 183.895 366.671 183.857 366.739 183.79C366.807 183.722 366.845 183.63 366.845 183.535V122.427C366.845 122.333 366.808 122.242 366.742 122.175C366.677 122.108 366.588 122.069 366.494 122.066ZM192.658 156.628L230.178 162.42C231.02 162.522 231.804 162.907 232.399 163.513C232.993 164.119 233.365 164.909 233.451 165.753V198.436L190.011 188.577L189.651 158.673C189.632 157.137 191.103 156.381 192.658 156.628ZM204.74 219.127L166.708 208.409C165.099 207.954 164.142 206.107 165.402 205.34L189.724 189.231L232.905 199.05L207.45 218.765C207.054 219.025 206.603 219.192 206.133 219.254C205.663 219.316 205.185 219.271 204.734 219.121L204.74 219.127ZM252.493 183.178H234.22V165.757C234.132 164.734 233.693 163.773 232.979 163.035C232.265 162.297 231.318 161.828 230.298 161.707L192.779 155.915C192.341 155.79 191.881 155.766 191.433 155.844C190.985 155.922 190.56 156.101 190.191 156.367C189.822 156.633 189.518 156.979 189.302 157.379C189.086 157.78 188.963 158.224 188.943 158.678L189.231 183.172H169.606V122.787H252.481L252.493 183.178ZM114.712 37.5128H307.367C315.699 37.5219 323.688 40.836 329.58 46.728C335.473 52.62 338.787 60.6087 338.797 68.9415V75.4312H253.202V49.9995C253.202 49.9039 253.165 49.8122 253.097 49.7446C253.029 49.6769 252.938 49.639 252.842 49.639H169.246C169.15 49.639 169.058 49.6769 168.991 49.7446C168.923 49.8122 168.885 49.9039 168.885 49.9995V75.4312H83.2829V68.9415C83.2921 60.6089 86.6062 52.6202 92.4983 46.7281C98.3903 40.8361 106.379 37.5219 114.712 37.5128ZM169.606 93.5581V50.3639H252.481V93.5581H169.606ZM138.828 183.172H55.9564V122.787H138.828V183.172ZM97.3921 107.803C97.2959 107.803 97.2037 107.842 97.1358 107.91C97.0678 107.978 97.0296 108.07 97.0296 108.166V122.058H83.2829V76.1523H168.885V93.9168C168.885 94.0124 168.923 94.1041 168.991 94.1717C169.058 94.2393 169.15 94.2773 169.246 94.2773H189.806L186.278 100.084C186.227 100.166 186.21 100.265 186.232 100.358C186.254 100.452 186.312 100.533 186.394 100.584C186.475 100.635 186.574 100.651 186.667 100.629C186.761 100.608 186.842 100.55 186.893 100.468L189.998 95.3283V107.811L97.3921 107.803ZM324.696 107.803H233.549V95.0674L236.589 100.616C236.638 100.692 236.715 100.747 236.803 100.77C236.891 100.792 236.985 100.78 237.065 100.736C237.145 100.693 237.205 100.62 237.234 100.534C237.263 100.447 237.258 100.353 237.22 100.27L233.94 94.2811H252.842C252.889 94.2811 252.936 94.2718 252.98 94.2537C253.024 94.2356 253.063 94.209 253.097 94.1755C253.13 94.1421 253.157 94.1023 253.175 94.0586C253.193 94.0148 253.202 93.968 253.202 93.9206V76.1523H338.807V122.066H325.056V108.174C325.056 108.078 325.018 107.986 324.951 107.918C324.883 107.85 324.791 107.812 324.696 107.811V107.803ZM366.133 183.172H283.258V122.787H366.133V183.172Z" fill="#FFD740"/>
<path d="M187.016 71.5593L203.423 63.7482C203.509 63.707 203.576 63.6331 203.608 63.5429C203.64 63.4526 203.635 63.3533 203.593 63.2668C203.552 63.1804 203.478 63.1138 203.388 63.0818C203.298 63.0498 203.198 63.055 203.112 63.0962L186.044 71.2256C185.983 71.2552 185.932 71.3013 185.896 71.3586C185.86 71.4159 185.841 71.4822 185.841 71.5498C185.841 71.6173 185.86 71.6836 185.896 71.7409C185.932 71.7982 185.983 71.8442 186.044 71.8739C203.988 80.8472 203.29 80.5537 203.482 80.5537C203.563 80.5527 203.641 80.5246 203.704 80.4739C203.767 80.4233 203.811 80.353 203.83 80.2743C203.849 80.1956 203.84 80.113 203.806 80.0396C203.772 79.9661 203.715 79.9061 203.643 79.8691L187.016 71.5593Z" fill="#FFD740"/>
<path d="M236.046 71.1813L218.786 63.1573C218.699 63.1169 218.6 63.1126 218.51 63.1453C218.42 63.178 218.347 63.2451 218.307 63.3319C218.266 63.4186 218.262 63.5178 218.294 63.6077C218.327 63.6976 218.394 63.7709 218.481 63.8113L235.081 71.5246L218.677 79.9322C218.596 79.9781 218.536 80.0536 218.509 80.1428C218.483 80.232 218.492 80.328 218.534 80.4108C218.577 80.4935 218.65 80.5566 218.738 80.5868C218.826 80.617 218.922 80.6119 219.006 80.5727C237.55 71.1046 236.267 71.8295 236.267 71.5016C236.264 71.4328 236.242 71.3661 236.203 71.3094C236.164 71.2527 236.109 71.2083 236.046 71.1813Z" fill="#FFD740"/>
<path d="M216.59 56.167L204.6 87.4979C204.566 87.5871 204.568 87.6864 204.607 87.7738C204.646 87.8612 204.718 87.9296 204.807 87.9639C204.896 87.9982 204.996 87.9957 205.083 87.9568C205.17 87.918 205.239 87.846 205.273 87.7568L217.263 56.424C217.293 56.3357 217.287 56.2394 217.248 56.1551C217.208 56.0708 217.137 56.0052 217.05 55.972C216.963 55.9387 216.867 55.9405 216.781 55.9768C216.695 56.0132 216.627 56.0814 216.59 56.167Z" fill="#FFD740"/>
<path d="M72.3726 133.751C70.9552 133.777 69.6048 134.359 68.6118 135.371C67.6188 136.383 67.0625 137.744 67.0625 139.162C67.0625 140.579 67.6188 141.941 68.6118 142.952C69.6048 143.964 70.9552 144.546 72.3726 144.573H121.861C122.58 144.586 123.295 144.456 123.963 144.191C124.632 143.925 125.24 143.528 125.754 143.024C126.267 142.521 126.675 141.92 126.953 141.256C127.232 140.593 127.375 139.881 127.375 139.162C127.375 138.442 127.232 137.73 126.953 137.067C126.675 136.404 126.267 135.803 125.754 135.299C125.24 134.795 124.632 134.399 123.963 134.133C123.295 133.867 122.58 133.737 121.861 133.751H72.3726ZM126.552 139.163C126.55 140.406 126.055 141.598 125.176 142.477C124.296 143.356 123.104 143.85 121.861 143.852H72.3726C71.1452 143.827 69.9764 143.322 69.1171 142.445C68.2578 141.568 67.7766 140.389 67.7766 139.162C67.7766 137.934 68.2578 136.755 69.1171 135.878C69.9764 135.002 71.1452 134.497 72.3726 134.472H121.861C123.105 134.473 124.297 134.968 125.176 135.847C126.056 136.727 126.55 137.919 126.552 139.163Z" fill="#FFD740"/>
<path d="M186.187 133.751C185.468 133.737 184.754 133.867 184.085 134.133C183.417 134.399 182.808 134.795 182.295 135.299C181.782 135.803 181.374 136.404 181.095 137.067C180.817 137.73 180.674 138.442 180.674 139.162C180.674 139.881 180.817 140.593 181.095 141.256C181.374 141.92 181.782 142.521 182.295 143.024C182.808 143.528 183.417 143.925 184.085 144.191C184.754 144.456 185.468 144.586 186.187 144.573H235.676C236.395 144.586 237.11 144.456 237.778 144.191C238.446 143.925 239.055 143.528 239.568 143.024C240.082 142.521 240.49 141.92 240.768 141.256C241.046 140.593 241.19 139.881 241.19 139.162C241.19 138.442 241.046 137.73 240.768 137.067C240.49 136.404 240.082 135.803 239.568 135.299C239.055 134.795 238.446 134.399 237.778 134.133C237.11 133.867 236.395 133.737 235.676 133.751H186.187Z" fill="#FFD740"/>
<path d="M102.179 151.816H72.3726C70.9552 151.843 69.6048 152.425 68.6118 153.437C67.6188 154.448 67.0625 155.809 67.0625 157.227C67.0625 158.645 67.6188 160.006 68.6118 161.018C69.6048 162.03 70.9552 162.612 72.3726 162.638H102.179C102.898 162.652 103.613 162.522 104.281 162.256C104.949 161.99 105.558 161.594 106.071 161.09C106.585 160.586 106.993 159.985 107.271 159.322C107.549 158.659 107.693 157.946 107.693 157.227C107.693 156.508 107.549 155.796 107.271 155.133C106.993 154.469 106.585 153.868 106.071 153.364C105.558 152.861 104.949 152.464 104.281 152.198C103.613 151.933 102.898 151.803 102.179 151.816Z" fill="#FFD740"/>
<path d="M301.454 141.15H330.436C331.871 141.15 333.248 140.58 334.263 139.565C335.278 138.55 335.848 137.173 335.848 135.738C335.848 134.303 335.278 132.926 334.263 131.911C333.248 130.896 331.871 130.326 330.436 130.326H301.454C300.019 130.326 298.642 130.896 297.627 131.911C296.612 132.926 296.042 134.303 296.042 135.738C296.042 137.173 296.612 138.55 297.627 139.565C298.642 140.58 300.019 141.15 301.454 141.15Z" fill="#FFD740"/>
<path d="M344.132 148.391H301.454C300.735 148.378 300.02 148.508 299.352 148.774C298.684 149.039 298.075 149.436 297.562 149.94C297.048 150.443 296.64 151.045 296.362 151.708C296.084 152.371 295.94 153.083 295.94 153.802C295.94 154.522 296.084 155.234 296.362 155.897C296.64 156.56 297.048 157.161 297.562 157.665C298.075 158.169 298.684 158.565 299.352 158.831C300.02 159.097 300.735 159.227 301.454 159.213H344.132C345.55 159.187 346.9 158.605 347.893 157.593C348.886 156.581 349.443 155.22 349.443 153.802C349.443 152.385 348.886 151.024 347.893 150.012C346.9 149 345.55 148.418 344.132 148.391ZM348.821 153.801C348.82 155.045 348.326 156.237 347.447 157.117C346.568 157.996 345.376 158.491 344.132 158.492H301.454C300.83 158.505 300.21 158.393 299.63 158.163C299.05 157.933 298.522 157.589 298.076 157.153C297.63 156.716 297.276 156.195 297.035 155.619C296.793 155.044 296.668 154.426 296.668 153.802C296.668 153.178 296.793 152.561 297.035 151.985C297.276 151.41 297.63 150.889 298.076 150.452C298.522 150.015 299.05 149.672 299.63 149.442C300.21 149.212 300.83 149.1 301.454 149.112H344.132C345.376 149.114 346.567 149.608 347.446 150.487C348.325 151.367 348.82 152.558 348.821 153.801Z" fill="#FFD740"/>
<path d="M347.793 107.533L354.053 101.311L360.276 107.569C360.343 107.637 360.435 107.675 360.531 107.676C360.626 107.676 360.718 107.638 360.786 107.571C360.854 107.504 360.892 107.412 360.893 107.316C360.893 107.221 360.855 107.129 360.788 107.061L354.565 100.801L360.824 94.578C360.886 94.5095 360.92 94.4198 360.917 94.3275C360.915 94.2352 360.877 94.1473 360.812 94.0819C360.747 94.0165 360.659 93.9786 360.567 93.976C360.475 93.9734 360.385 94.0063 360.316 94.0679L354.057 100.289L347.831 94.0334C347.763 93.9715 347.673 93.9383 347.581 93.9405C347.489 93.9428 347.401 93.9804 347.335 94.0455C347.27 94.1107 347.232 94.1985 347.229 94.2908C347.227 94.383 347.26 94.4728 347.321 94.5416L353.543 100.803L347.283 107.024C347.221 107.093 347.188 107.183 347.191 107.275C347.194 107.368 347.232 107.455 347.297 107.52C347.362 107.586 347.45 107.623 347.543 107.625C347.635 107.628 347.725 107.595 347.793 107.533Z" fill="#FFD740"/>
<path d="M67.96 106.885C67.9952 106.934 68.0422 106.974 68.0967 107C68.1512 107.026 68.2114 107.039 68.2718 107.036C68.3322 107.033 68.391 107.015 68.4427 106.984C68.4945 106.952 68.5375 106.908 68.5679 106.856L75.2917 95.1116C75.3393 95.0284 75.3518 94.9298 75.3266 94.8373C75.3015 94.7449 75.2406 94.6663 75.1574 94.6187C75.0743 94.5711 74.9756 94.5586 74.8832 94.5837C74.7908 94.6089 74.7121 94.6698 74.6646 94.7529L68.2189 106.008L62.7935 98.368C62.7365 98.2942 62.6532 98.2455 62.561 98.2318C62.4688 98.2182 62.3749 98.2408 62.2991 98.2948C62.2232 98.3489 62.1711 98.4303 62.1539 98.5218C62.1367 98.6134 62.1556 98.7081 62.2066 98.786L67.96 106.885Z" fill="#FFD740"/>
<path d="M205.916 19.2611C206.144 19.2611 205.663 19.7272 211.694 12.9651C216.105 16.8908 215.865 16.7853 216.145 16.6913C216.425 16.5973 216.124 17.5965 219.607 0.898354C219.62 0.836388 219.617 0.772031 219.597 0.711839C219.577 0.651646 219.542 0.597763 219.494 0.555673C219.447 0.513583 219.389 0.484788 219.327 0.472218C219.265 0.459648 219.201 0.46375 219.141 0.48411L204.086 5.45309C204.026 5.47303 203.972 5.50845 203.93 5.55581C203.887 5.60316 203.858 5.6608 203.845 5.72294C203.832 5.78508 203.836 5.84955 203.856 5.90989C203.875 5.97024 203.911 6.02434 203.958 6.06678L208.058 9.71057L202.548 15.8878C202.517 15.9231 202.492 15.9642 202.477 16.009C202.461 16.0537 202.455 16.101 202.458 16.1483C202.461 16.1955 202.473 16.2417 202.494 16.2842C202.514 16.3267 202.543 16.3647 202.579 16.396C205.916 19.3839 205.724 19.2611 205.916 19.2611ZM208.837 9.93112C208.9 9.85952 208.933 9.76569 208.927 9.67012C208.922 9.57455 208.879 9.48498 208.808 9.42098L204.905 5.94404L218.775 1.36438L215.813 15.671L211.913 12.1922C211.877 12.1602 211.836 12.1356 211.791 12.1198C211.747 12.1039 211.699 12.0971 211.652 12.0998C211.604 12.1025 211.558 12.1146 211.515 12.1354C211.472 12.1562 211.434 12.1853 211.403 12.221L205.895 18.3962L203.334 16.1141L208.837 9.93112Z" fill="#FFD740"/>
<path d="M245.658 245.644C245.064 245.644 244.483 245.819 243.989 246.149C243.495 246.479 243.11 246.948 242.882 247.497C242.654 248.045 242.595 248.649 242.71 249.232C242.826 249.815 243.112 250.35 243.532 250.77C243.952 251.191 244.487 251.477 245.069 251.593C245.652 251.709 246.256 251.649 246.805 251.422C247.354 251.195 247.823 250.81 248.153 250.316C248.483 249.822 248.659 249.241 248.659 248.647C248.658 247.851 248.342 247.088 247.779 246.525C247.217 245.963 246.454 245.646 245.658 245.644ZM245.658 250.928C245.206 250.928 244.765 250.794 244.389 250.544C244.014 250.293 243.721 249.937 243.548 249.52C243.375 249.103 243.33 248.644 243.418 248.201C243.506 247.758 243.723 247.351 244.042 247.032C244.362 246.712 244.768 246.495 245.211 246.407C245.654 246.319 246.113 246.364 246.53 246.537C246.947 246.71 247.304 247.003 247.554 247.379C247.805 247.754 247.939 248.196 247.938 248.647C247.938 249.252 247.697 249.832 247.27 250.259C246.842 250.687 246.263 250.927 245.658 250.928Z" fill="#FFD740"/>
<path d="M153.522 319.989H101.609C72.2171 319.964 80.4291 284.825 81.1694 281.877C77.9091 273.318 77.8113 253.346 78.5593 243.964C79.3298 238.775 80.5529 233.662 82.2146 228.685L82.7592 226.493C86.7766 228.591 91.0181 230.228 95.4032 231.372C101.886 236.617 106.613 243.716 108.952 251.72L127.047 228.801C134.806 230.657 141.623 235.276 146.224 241.794L141.963 247.627C145.274 248.263 148.226 250.117 150.236 252.823C151.284 254.128 152.178 255.549 152.902 257.057L154.235 260.296C155.048 262.596 155.489 265.01 155.543 267.448C155.543 267.448 123.113 287.891 122.319 288.304L152.561 274.363L153.328 277.612C156.615 291.539 156.682 306.033 153.522 319.989Z" fill="#B49B92"/>
<path d="M388.297 319.626H303.191C304.754 314.991 305.399 286.021 303.046 272.942C303.007 272.53 302.842 272.14 302.574 271.824C302.307 271.509 301.949 271.283 301.549 271.177C301.149 271.071 300.726 271.091 300.337 271.233C299.948 271.375 299.613 271.633 299.375 271.971C293.952 278.4 287.308 293.677 284.842 302.002C262.962 303.249 241.989 300.199 228.076 297.783C220.978 291.913 214.218 285.648 207.828 279.015L186.446 255.235C183.191 251.609 178.816 249.178 174.017 248.331C174.056 247.927 173.99 247.52 173.826 247.148C173.662 246.777 173.405 246.455 173.079 246.212C173.342 245.843 173.485 245.402 173.49 244.95C173.495 244.497 173.362 244.053 173.108 243.678C172.462 242.944 171.665 242.358 170.771 241.961C169.877 241.564 168.908 241.364 167.93 241.377C174.347 237.879 177.059 234.059 177.097 232.977C177.113 232.532 176.752 232.158 176.092 232.515C171.17 235.195 166.072 237.537 160.832 239.526C161.448 238.452 162.131 236.866 161.348 236.097C161.296 236.045 161.233 236.004 161.163 235.979C161.094 235.953 161.019 235.943 160.946 235.95C159.089 235.969 147.588 245.853 145.164 248.262C144.344 247.876 143.484 247.581 142.6 247.382L146.526 242.012C146.698 241.778 146.543 241.646 146.426 241.45C145.759 240.541 145.061 239.675 144.334 238.853C151.307 229.128 157.219 225.553 156.329 224.086C155.979 223.511 154.947 223.841 153.386 224.351C150.482 225.344 148.959 225.991 147.335 226.376C147.824 224.307 149.028 219.236 149.174 218.623C150.749 216.482 154.235 211.956 156.119 209.749C157.777 207.806 158.36 206.558 157.898 205.934C157.758 205.78 157.57 205.678 157.365 205.643C157.159 205.608 156.948 205.643 156.765 205.743C154.776 206.782 152.929 208.071 151.267 209.578C151.768 207.683 151.922 205.713 151.719 203.764C151.477 202.981 150.812 202.674 149.922 203.541C147.103 206.283 145.036 216.636 132.84 228.562C132.363 229.03 131.928 229.456 131.542 229.853C130.154 229.31 128.733 228.858 127.287 228.499C127.186 228.476 127.08 228.478 126.98 228.504C126.88 228.531 126.788 228.581 126.711 228.651L109.068 250.987C108.45 249.141 107.736 247.328 106.929 245.556C102.035 234.991 94.8818 231.017 93.1462 228.793C91.4604 226.624 91.8785 223.779 91.9686 220.688C99.214 220.552 98.9686 211.586 96.6078 204.646C95.5424 201.191 93.7063 198.023 91.238 195.381C86.0312 189.298 67.0739 189.447 62.5326 205.07C61.8134 207.563 58.7986 220.122 69.0147 227.061C61.9517 231.154 55.8472 236.712 51.1122 243.362C44.3711 253.449 43.5887 268.709 53.9466 276.785C60.5937 281.963 72.6393 282.661 79.4071 276.647C79.729 278.428 80.1914 280.18 80.7899 281.888C80.1685 284.443 76.145 302.537 84.0942 312.916C86.779 316.365 90.6049 318.745 94.8856 319.628H24.6371C24.5458 319.635 24.4604 319.676 24.398 319.743C24.3357 319.81 24.301 319.898 24.301 319.99C24.301 320.081 24.3357 320.17 24.398 320.237C24.4604 320.304 24.5458 320.345 24.6371 320.351C345.471 320.351 384.03 320.622 388.249 320.328C389.064 320.269 388.577 319.626 388.297 319.626ZM160.888 236.677C161.258 237.229 160.428 238.915 159.678 239.998C156.408 241.151 153.284 242.684 150.371 244.564C154.58 240.988 159.868 236.824 160.888 236.677ZM158.813 241.124C164.717 238.839 170.494 236.24 176.121 233.34C176.133 233.333 176.148 233.33 176.162 233.332C176.176 233.334 176.189 233.341 176.199 233.35C176.209 233.36 176.216 233.373 176.219 233.387C176.221 233.401 176.219 233.415 176.213 233.428C175.555 234.73 172.774 238.171 166.415 241.367C165.543 241.409 164.678 241.537 163.832 241.751C163.739 241.775 163.659 241.834 163.61 241.917C163.562 241.999 163.547 242.097 163.571 242.19C163.595 242.283 163.654 242.363 163.737 242.412C163.819 242.46 163.917 242.475 164.01 242.451C168.665 241.273 174.033 243.249 172.494 245.799C170.009 244.447 167.09 244.134 164.375 244.929C164.287 244.956 164.212 245.016 164.167 245.097C164.122 245.177 164.11 245.272 164.132 245.361C164.155 245.451 164.211 245.528 164.289 245.578C164.367 245.627 164.46 245.645 164.551 245.627C170.548 244.114 175.716 247.458 172.122 249.921C170.297 248.131 166.835 248.093 164.233 248.663C164.186 248.673 164.142 248.692 164.104 248.719C164.065 248.746 164.031 248.781 164.006 248.821C163.98 248.861 163.963 248.906 163.955 248.952C163.946 248.999 163.947 249.047 163.957 249.093C163.968 249.14 163.987 249.183 164.014 249.222C164.041 249.261 164.076 249.294 164.116 249.32C164.156 249.346 164.2 249.363 164.247 249.371C164.294 249.38 164.342 249.379 164.388 249.368C165.567 248.99 166.817 248.879 168.044 249.045C169.272 249.211 170.447 249.649 171.484 250.327C171.713 250.498 171.898 250.721 172.023 250.977C172.149 251.234 172.211 251.517 172.205 251.802C172.013 254.029 167.771 257.135 164.217 255.668C165.605 254.827 167.064 254.112 168.578 253.53C168.674 253.526 168.764 253.485 168.829 253.414C168.894 253.344 168.928 253.251 168.925 253.155C168.921 253.059 168.879 252.969 168.809 252.904C168.738 252.839 168.645 252.805 168.55 252.809C163.302 254.759 158.701 258.13 155.259 262.546C153.917 257.105 150.9 251.386 145.876 248.653C149.783 245.504 154.145 242.965 158.813 241.124ZM157.047 206.402C157.344 206.274 157.386 206.372 157.279 206.723C156.861 208.079 155.342 209.225 149.592 216.843C150.183 214.35 150.666 212.284 151.006 210.76C152.823 209.053 154.854 207.589 157.047 206.402ZM133.343 229.071C139.634 223.021 144.666 215.787 148.148 207.783C148.703 206.448 149.451 205.203 150.369 204.086C150.885 203.545 150.987 203.648 151.086 204.231C151.525 206.817 149.552 213.711 145.952 229.092C145.932 229.184 145.949 229.281 145.999 229.361C146.05 229.442 146.13 229.499 146.222 229.521C146.314 229.542 146.411 229.527 146.492 229.477C146.573 229.428 146.631 229.349 146.654 229.257C146.82 228.546 146.985 227.846 147.147 227.157C149.585 226.652 154.638 224.472 155.672 224.497C155.171 225.97 149.838 229.995 143.835 238.305C140.619 234.774 136.669 231.989 132.263 230.145C132.589 229.805 132.95 229.452 133.343 229.071ZM127.185 229.211C134.683 231.064 141.278 235.526 145.787 241.797L141.722 247.359L115.412 265.66C114.086 263.695 112.871 261.854 111.768 260.137C110.975 257.026 110.174 254.245 109.363 251.793L127.185 229.211ZM80.6844 202.619C81.2847 202.964 82.6501 203.691 82.794 203.002C83.9926 196.907 85.8049 195.126 87.1128 194.706C93.7867 192.566 103.74 219.758 91.9821 219.963C90.113 219.826 88.2821 219.364 86.572 218.598C86.4916 218.564 86.4017 218.561 86.3191 218.588C86.2364 218.616 86.1665 218.672 86.1223 218.747C86.0781 218.822 86.0626 218.911 86.0786 218.997C86.0946 219.082 86.1411 219.159 86.2095 219.213L91.1785 223.175C91.0519 227.513 91.9955 228.846 93.944 230.572C90.2144 229.517 86.6024 228.083 83.1641 226.294C84.2271 222.246 84.323 218.006 83.4441 213.914C83.1751 212.395 82.6894 210.922 82.0019 209.54C80.8819 207.033 81.043 207.066 80.7534 206.997C76.4154 205.961 77.7291 200.929 80.6844 202.619ZM78.92 243.993C79.3707 238.328 81.3307 234.076 82.9896 227.03C86.8919 229.021 90.9964 230.587 95.2327 231.702C104.277 239.475 107.315 246.377 110.498 258.167C104.912 249.372 102.045 243.784 100.102 240.403C97.0028 234.989 93.0733 233.129 86.6199 231.067C86.0446 230.875 85.5901 230.737 85.2775 230.613C85.1896 230.579 85.0923 230.582 85.0062 230.62C84.9202 230.657 84.8522 230.727 84.8167 230.814C84.7812 230.901 84.7811 230.998 84.8163 231.085C84.8515 231.172 84.9192 231.242 85.0052 231.28C85.3216 231.41 85.7953 231.562 86.3955 231.754C92.707 233.769 96.4908 235.553 99.4691 240.767C104.211 249.558 109.396 258.104 115.003 266.37C115.174 266.621 115.387 266.523 115.578 266.418L142.044 248.007C144.404 248.596 146.589 249.738 148.42 251.338C150.251 252.939 151.675 254.952 152.574 257.212C154.137 260.339 155.025 263.76 155.181 267.252C120.313 289.391 124.044 287.243 119.472 289.22C109.672 293.456 101.813 289.861 95.7505 278.958C94.6267 276.935 84.4126 260.465 83.9772 259.765C83.952 259.724 83.9192 259.69 83.8805 259.662C83.8418 259.634 83.798 259.615 83.7517 259.604C83.7054 259.593 83.6575 259.592 83.6106 259.6C83.5638 259.608 83.5189 259.624 83.4786 259.65C83.4383 259.675 83.4034 259.708 83.3758 259.746C83.3482 259.785 83.3285 259.829 83.3178 259.875C83.3071 259.921 83.3057 259.969 83.3135 260.016C83.3214 260.063 83.3384 260.108 83.3635 260.148C93.2267 275.98 96.1264 281.021 96.1532 281.067C91.2396 281.634 86.2826 281.723 81.3518 281.334C78.2814 272.612 78.1913 253.16 78.92 243.993ZM101.607 319.626C93.9996 319.626 88.3018 317.216 84.6715 312.479C76.9179 302.359 80.8877 284.558 81.4937 282.065C86.524 282.451 91.5801 282.34 96.5886 281.733C102.739 291.149 110.602 293.581 119.765 289.88L152.317 274.871C156.201 289.501 156.516 304.85 153.234 319.626H101.607ZM210.141 319.626H153.976C155.4 313.611 156.14 307.453 156.182 301.271C157.467 300.121 155.963 301.225 170.228 291.594C176.278 292.03 185.445 292.879 195.036 294.471C196.87 295.43 207.199 300.704 210.599 302.526C209.158 306.725 208.239 311.087 207.864 315.511C207.796 316.344 207.974 317.179 208.378 317.911C208.782 318.643 209.393 319.24 210.135 319.626H210.141ZM165.021 290.551C168.665 285.515 172.019 280.417 172.989 278.931C177.101 284.218 183.761 288.495 193.032 293.42C183.478 291.928 172.93 290.94 165.021 290.551ZM211.186 302.014C194.616 293.176 180.012 287.153 173.256 278.089C173.221 278.042 173.175 278.005 173.123 277.98C173.07 277.954 173.012 277.942 172.954 277.944C172.896 277.947 172.839 277.963 172.788 277.992C172.738 278.02 172.695 278.061 172.663 278.11C169.33 283.263 160.669 296.055 156.189 300.284C156.15 290.117 154.676 280.007 151.813 270.251C156.055 267.551 155.909 267.727 155.909 267.447C155.901 266.103 155.756 264.764 155.478 263.449C157.658 260.515 160.374 258.022 163.483 256.1C164.439 256.56 165.494 256.78 166.555 256.74C167.615 256.7 168.65 256.402 169.57 255.872C171.595 254.79 173.808 252.42 172.565 250.452C173.106 250.108 173.535 249.614 173.8 249.031C178.473 249.838 182.736 252.198 185.902 255.728L207.31 279.528C213.336 285.561 226.018 298.395 233.449 302.244C226.141 304.161 218.453 304.081 211.186 302.014ZM259.059 316.608C254.99 313.173 244.469 304.881 234.627 302.008C232.747 301.104 230.966 300.008 229.313 298.736C247.612 302.15 266.237 303.49 284.836 302.731C286.816 310.279 286.992 312.371 284.836 319.632H259.272C259.461 319.422 259.606 319.175 259.698 318.908C259.79 318.64 259.827 318.357 259.807 318.075C259.787 317.793 259.711 317.518 259.582 317.265C259.454 317.013 259.276 316.79 259.059 316.608Z" fill="#FFD740"/>
<path opacity="0.2" d="M201.304 13.466C203.613 9.46577 209.387 9.46577 211.696 13.466L376.804 299.465C379.114 303.465 376.227 308.465 371.608 308.465H41.3919C36.7732 308.465 33.8864 303.465 36.1956 299.465L201.304 13.466Z" fill="#FFD740"/>
</svg>
