<svg width="275" height="275" viewBox="0 0 275 275" fill="none" xmlns="http://www.w3.org/2000/svg">
<circle cx="137.5" cy="137.5" r="137.5" fill="black"/>
<circle cx="137.5" cy="137.5" r="137.5" fill="#1B0000"/>
<path d="M129.95 90.415H106.889V107.056C108.409 107.394 109.676 107.816 110.69 108.323C111.704 108.774 112.351 109.112 112.633 109.337V119.305C105.931 116.996 98.9482 115.841 91.6836 115.841C86.7279 115.841 81.3498 116.855 75.5493 118.882C69.7489 120.91 66.7642 124.063 66.5952 128.343C66.5952 132.848 72.987 135.101 85.7705 135.101C86.8405 135.101 88.6707 135.045 91.2612 134.932C93.8517 134.763 95.5412 134.651 96.3296 134.594V142.366C92.2749 142.478 87.6007 142.704 82.3071 143.042C77.0135 143.323 72.2549 144.337 68.0312 146.083C63.8639 147.828 61.7803 150.672 61.7803 154.614C61.7803 157.881 63.695 160.556 67.5244 162.639C71.4102 164.667 75.7746 165.68 80.6177 165.68C90.3602 165.68 98.9201 163.456 106.297 159.007C113.731 154.502 119.982 148.617 125.05 141.352V162.724C119.081 166.497 113.309 168.975 107.733 170.157C102.158 171.34 96.4704 171.931 90.6699 171.931C84.9821 171.931 78.5622 171.086 71.4102 169.397C64.3145 167.651 58.2043 165.173 53.0796 161.963C48.0112 158.697 45.4771 154.924 45.4771 150.644C45.4771 146.308 47.1102 142.873 50.3765 140.338C53.6991 137.804 57.5003 135.523 61.7803 133.496C59.5277 132.201 57.6411 131.131 56.1206 130.286C54.6564 129.441 53.4738 128.428 52.5728 127.245C51.6717 126.062 51.2212 124.514 51.2212 122.599C51.2212 118.882 52.7135 115.785 55.6982 113.307C58.7393 110.773 62.5124 108.858 67.0176 107.563C71.5228 106.268 76.1125 105.367 80.7866 104.86C85.4608 104.353 89.8534 104.1 93.9644 104.1V90.415H39.8174V80.2783H129.95V90.415ZM227.681 80.2783L227.512 90.415H128.088V80.2783H227.681ZM218.558 217.124L203.353 225.064V149.968C200.03 153.685 194.906 158.331 187.979 163.906C181.052 169.481 174.407 172.269 168.043 172.269C165.34 172.269 162.159 171.396 158.498 169.65C154.894 167.905 151.346 165.37 147.854 162.048C144.419 158.669 141.604 154.727 139.407 150.222C137.211 145.716 136.028 140.733 135.859 135.27C135.859 131.441 137.38 126.71 140.421 121.079C143.462 115.391 147.291 110.52 151.909 106.465C156.583 102.354 161.032 100.298 165.256 100.298C167.734 100.298 171.169 101.143 175.562 102.833C179.954 104.466 184.685 107.112 189.753 110.773C194.821 114.377 199.355 118.91 203.353 124.373V106.211H218.558V217.124ZM199.552 147.012C199.552 142.225 196.989 137.241 191.865 132.06C186.796 126.879 180.996 122.458 174.463 118.798C167.987 115.137 163.538 113.307 161.117 113.307C156.555 113.307 152.5 114.743 148.953 117.615C145.405 120.487 143.631 123.416 143.631 126.4C143.631 128.991 144.87 132.877 147.348 138.058C149.826 143.239 153.599 147.885 158.667 151.996C163.792 156.05 170.071 158.078 177.504 158.078C181.672 158.078 185.417 157.43 188.739 156.135C192.062 154.783 194.681 153.206 196.595 151.404C198.566 149.602 199.552 148.138 199.552 147.012Z" fill="white"/>
</svg>
