<svg width="478" height="440" viewBox="0 0 478 440" fill="none" xmlns="http://www.w3.org/2000/svg">
<g filter="url(#filter0_d_133_164)">
<path d="M6 6L23.8874 24.1685L35.0066 10.9551L48.3013 24.1685L62.8046 10.9551L79 27" stroke="#83B9FF" stroke-width="4"/>
</g>
<circle cx="385.405" cy="400.537" r="13.863" stroke="#FFB300" stroke-width="3"/>
<circle cx="393.855" cy="415.9" r="14.863" stroke="#FFB300"/>
<rect x="190.023" y="-0.836838" width="242.806" height="242.806" rx="23.179" transform="rotate(23.639 190.023 -0.836838)" stroke="white" stroke-width="2"/>
<rect x="208.303" y="40.0131" width="244.806" height="244.806" rx="24.179" transform="rotate(23.639 208.303 40.0131)" fill="#FFD740" stroke="white" stroke-width="4"/>
<mask id="mask0_133_164" style="mask-type:alpha" maskUnits="userSpaceOnUse" x="115" y="45" width="312" height="312">
<rect x="207.982" y="40.0131" width="244.806" height="244.806" rx="24.179" transform="rotate(23.639 207.982 40.0131)" fill="#FFD740" stroke="white" stroke-width="4"/>
</mask>
<g mask="url(#mask0_133_164)">
<path d="M116.305 115.787C145.283 131.826 211.899 154.281 246.544 115.787C289.85 67.6686 374.217 77.2922 412.711 89.1613" stroke="white"/>
<path d="M117.074 133.819C147.007 147.997 214.907 166.203 247.054 125.599C287.237 74.8439 372.043 79.1236 411.209 88.5395" stroke="white"/>
<path d="M113.462 152.097C143.394 166.276 211.295 184.482 243.441 143.877C283.624 93.1223 368.43 97.402 407.597 106.818" stroke="white"/>
<path d="M109.613 170.703C139.545 184.881 207.446 203.087 239.592 162.483C279.775 111.728 364.581 116.008 403.748 125.423" stroke="white"/>
<path d="M109.613 170.703C139.545 184.881 207.446 203.087 239.592 162.483C279.775 111.728 364.581 116.008 403.748 125.423" stroke="white"/>
<path d="M117.311 234.219C150.801 248.172 226.881 265.861 263.281 224.988C308.78 173.896 403.944 177.521 447.837 186.638" stroke="white"/>
<path d="M109.613 262.824C143.102 276.778 219.182 294.466 255.582 253.593C301.082 202.502 396.245 206.126 440.138 215.243" stroke="white"/>
<path d="M110.896 283.355C144.385 297.308 220.465 314.997 256.865 274.124C302.364 223.032 397.528 226.657 441.421 235.774" stroke="white"/>
<path d="M120.519 303.885C154.009 317.838 230.089 335.527 266.488 294.654C311.988 243.562 407.152 247.187 451.045 256.304" stroke="white"/>
<path d="M136.558 334.68C170.048 348.634 246.128 366.322 282.528 325.449C328.027 274.358 423.191 277.983 467.084 287.1" stroke="white"/>
<path d="M132.067 214.971C162 229.15 229.901 247.356 262.047 206.752C302.23 155.996 387.036 160.276 426.202 169.692" stroke="white"/>
<path d="M105.763 191.875C139.456 205.816 216.001 223.475 252.643 182.586C298.445 131.476 394.198 135.063 438.36 144.163" stroke="white"/>
</g>
<path d="M160.83 376.633L120.985 383.331C111.019 385.02 100.79 382.687 92.543 376.843C84.2959 370.998 78.7046 362.12 76.9962 352.158L40.6683 128.12L239.34 94.7789C239.445 94.7439 239.534 94.672 239.59 94.5765C239.646 94.481 239.665 94.3684 239.645 94.2596C239.624 94.1507 239.565 94.0531 239.478 93.9847C239.391 93.9162 239.282 93.8818 239.171 93.8876L40.5238 127.252L38.8857 117.135C37.1819 107.161 39.5087 96.92 45.3543 88.662C51.2 80.404 60.0859 74.8056 70.0583 73.0978L354.78 25.327C359.721 24.4664 364.783 24.5902 369.676 25.6912C374.569 26.7922 379.197 28.8489 383.293 31.7431C387.389 34.6372 390.873 38.3119 393.545 42.5562C396.218 46.8005 398.025 51.5308 398.865 56.4756L400.551 66.8102L264.369 89.6718C264.248 89.6718 264.132 89.72 264.046 89.8058C263.96 89.8917 263.912 90.0081 263.912 90.1295C263.912 90.2509 263.96 90.3673 264.046 90.4531C264.132 90.539 264.248 90.5872 264.369 90.5872C264.61 90.5872 264.947 90.5872 400.623 67.7016L417.077 169.266L417.631 166.857L399.635 56.2347C397.881 46.0474 392.152 36.9741 383.709 31.0107C375.265 25.0472 364.798 22.6822 354.611 24.4357L69.9137 72.2546C59.7164 74.0044 50.6292 79.7271 44.6454 88.1676C38.6616 96.6082 36.2697 107.077 37.9943 117.279L76.0567 352.327C77.8065 362.524 83.5292 371.611 91.9698 377.595C100.41 383.579 110.88 385.971 121.081 384.246L160.926 377.549C161.048 377.536 161.159 377.476 161.236 377.381C161.313 377.286 161.349 377.164 161.336 377.043C161.323 376.922 161.263 376.81 161.168 376.733C161.073 376.657 160.951 376.621 160.83 376.633V376.633Z" fill="#B49B92"/>
<path d="M437.77 291.403L418.281 171.193L417.727 173.602L436.879 291.643C438.561 301.609 436.221 311.835 430.372 320.077C424.524 328.32 415.644 333.905 405.682 335.608L175.043 374.224C174.94 374.259 174.853 374.329 174.797 374.422C174.741 374.515 174.72 374.624 174.738 374.731C174.755 374.838 174.81 374.936 174.892 375.006C174.974 375.076 175.079 375.115 175.187 375.116L405.85 336.379C416.035 334.623 425.11 328.906 431.091 320.478C437.073 312.049 439.474 301.596 437.77 291.403V291.403Z" fill="#FFD740"/>
<path d="M404.718 223.517L416.763 170.326L382.387 171.578L370.053 182.852C374.372 183.771 378.568 185.194 382.555 187.092C384.245 187.811 385.794 188.822 387.133 190.079C389.012 192.223 378.966 189.14 374.003 188.61C374.985 189.156 375.885 189.838 376.677 190.634C377.954 192.079 372.534 190.128 367.595 189.309C366.66 189.067 365.691 188.986 364.729 189.068C369.547 191.212 376.894 195.283 378.653 198.415C380.773 202.221 369.932 194.681 362.922 194.464C367.379 196.536 372.221 199.282 373.979 202.582C376.388 206.918 367.764 198.993 357.502 198.656C367.306 204.582 371.956 209.472 357.983 203.474C355.433 202.32 352.703 201.611 349.913 201.378L321.969 226.961C410.91 223.468 404.646 223.83 404.718 223.517Z" fill="#124CB9"/>
<path d="M426.953 133.01L406.597 222.649L457.668 168.639L478 79.1203L426.953 133.01Z" fill="#83B9FF"/>
<path d="M182.053 273.046C177.358 278.249 170.794 281.38 163.796 281.755C156.798 282.13 149.937 279.717 144.713 275.045L99.6167 234.502C105.126 219.99 115.845 208.052 129.681 201.016L159.673 227.973C180.03 176.565 201.735 172.566 208.721 166.592C222.621 177.553 229.342 181.648 247.554 185.045C243.025 229.708 245.41 281.574 238.376 310.988C236.707 317.909 233.346 324.307 228.595 329.61L196.507 365.359C182.297 359.244 170.46 348.676 162.781 335.247L193.207 301.52L200.603 252.304C259.286 186.972 240.038 208.388 182.053 273.046Z" fill="#E6E7E8"/>
<path d="M387.879 189.622C386.466 188.314 384.835 187.262 383.061 186.514C376.653 183.358 375.256 183.286 310.333 167.507L292.048 152.33C292.603 150.09 292.458 148.644 291.591 148.066C291.35 147.898 292.603 148.982 250.638 111.136C249.819 105.289 250.346 99.3316 252.179 93.7189C265.068 98.2479 268.44 86.9014 265.766 73.5555C266.421 73.1321 266.973 72.5683 267.383 71.9049C267.793 71.2415 268.05 70.4951 268.135 69.7201C268.22 68.945 268.132 68.1607 267.876 67.4241C267.621 66.6874 267.204 66.0169 266.657 65.4612C267.439 64.966 268.076 64.2731 268.503 63.4527C268.931 62.6324 269.134 61.7136 269.093 60.7894C269.051 59.8652 268.766 58.9684 268.267 58.1898C267.767 57.4111 267.071 56.7782 266.248 56.3551C266.822 55.6514 267.204 54.8116 267.359 53.9168C267.513 53.0219 267.433 52.1025 267.128 51.2473C266.823 50.3922 266.302 49.6302 265.616 49.0353C264.93 48.4404 264.102 48.0326 263.213 47.8513C263.501 47.0213 263.575 46.132 263.428 45.2658C263.281 44.3996 262.919 43.5842 262.374 42.8952C261.829 42.2061 261.119 41.6655 260.31 41.3233C259.501 40.9811 258.618 40.8484 257.744 40.9374C257.746 40.0625 257.53 39.2009 257.115 38.4309C256.699 37.6609 256.098 37.0068 255.366 36.5282C254.633 36.0495 253.793 35.7614 252.921 35.69C252.049 35.6186 251.173 35.7662 250.373 36.1194C250.114 35.2513 249.636 34.4644 248.985 33.8346C248.334 33.2047 247.532 32.7531 246.656 32.5232C245.78 32.2932 244.859 32.2928 243.983 32.5218C243.106 32.7508 242.304 33.2016 241.652 33.8308C241.119 33.0406 240.392 32.401 239.54 31.9738C238.689 31.5467 237.741 31.3465 236.789 31.3925C235.837 31.4385 234.914 31.7292 234.107 32.2365C233.3 32.7438 232.638 33.4506 232.184 34.2885C231.114 33.4633 229.767 33.0807 228.422 33.2196C227.077 33.3586 225.837 34.0086 224.957 35.0353C224.756 34.0212 224.315 33.0698 223.672 32.2601C223.029 31.4504 222.202 30.8056 221.26 30.3793C220.318 29.953 219.288 29.7575 218.255 29.8089C217.222 29.8604 216.216 30.1573 215.321 30.675C214.713 29.5539 213.801 28.6273 212.689 28.0022C211.577 27.3771 210.311 27.0788 209.037 27.1418C207.763 27.2047 206.533 27.6263 205.488 28.358C204.443 29.0896 203.627 30.1016 203.132 31.2773C202.039 30.7394 200.817 30.5227 199.606 30.6524C198.395 30.782 197.246 31.2527 196.292 32.0097C195.338 32.7667 194.619 33.7789 194.218 34.9286C193.817 36.0783 193.75 37.3183 194.026 38.5043C192.817 38.7449 191.702 39.3266 190.813 40.1806C189.924 41.0346 189.298 42.1252 189.009 43.3236C188.721 44.5219 188.781 45.7779 189.183 46.9431C189.585 48.1083 190.313 49.134 191.279 49.899C190.362 50.7343 189.705 51.8171 189.389 53.0171C189.073 54.217 189.111 55.4827 189.498 56.6617C189.885 57.8406 190.605 58.8825 191.571 59.6616C192.536 60.4407 193.707 60.9238 194.941 61.0527C194.787 62.265 194.98 63.4961 195.498 64.6029C196.016 65.7098 196.837 66.647 197.867 67.3055C198.896 67.964 200.091 68.3168 201.313 68.323C202.535 68.3291 203.734 67.9883 204.77 67.3402C205.202 68.1967 205.824 68.9434 206.587 69.5236C207.351 70.1038 208.237 70.5023 209.178 70.6887C208.98 72.0262 209.305 73.3887 210.086 74.4926C210.866 75.5965 212.043 76.3567 213.37 76.6149C213.092 77.4476 213.026 78.3368 213.18 79.2012C213.334 80.0655 213.702 80.8776 214.251 81.5629C214.8 82.2483 215.512 82.7851 216.322 83.1243C217.131 83.4635 218.013 83.5943 218.887 83.5047C218.887 84.3836 219.107 85.2485 219.527 86.0208C219.946 86.7931 220.552 87.4483 221.289 87.927C222.026 88.4057 222.871 88.6926 223.748 88.7617C224.624 88.8308 225.503 88.6799 226.307 88.3227C226.569 89.1923 227.053 89.9789 227.71 90.6058C228.367 91.2326 229.176 91.6783 230.057 91.8991C230.938 92.12 231.861 92.1086 232.737 91.866C233.612 91.6233 234.41 91.1578 235.051 90.5149C236.215 91.8142 237.757 92.7158 239.46 93.0926C234.329 102.247 224.861 110.462 220.693 119.254C209.853 142.116 214.069 149.704 208.359 166.206C199.253 172.735 179.451 177.818 159.529 227.106L130.066 200.775C129.974 200.693 129.854 200.647 129.729 200.647C129.605 200.647 129.485 200.693 129.392 200.775C126.253 202.37 123.262 204.24 120.454 206.364C105.254 194.319 104.049 193.982 91.7149 180.516C91.6654 180.458 91.6014 180.414 91.5295 180.388C91.4576 180.363 91.3803 180.357 91.3054 180.371C66.2034 183.72 37.1748 192.344 24.6961 198.366C24.6111 198.396 24.5374 198.451 24.4852 198.525C24.4331 198.598 24.405 198.686 24.405 198.776C24.405 198.866 24.4331 198.954 24.4852 199.027C24.5374 199.101 24.6111 199.156 24.6961 199.186C43.1137 206.206 62.8657 209.029 82.5125 207.448L103.206 226.046C101.79 228.516 100.535 231.075 99.4478 233.707C99.3303 233.976 99.3019 234.275 99.367 234.561C99.432 234.847 99.587 235.105 99.8092 235.297L144.376 275.334C149.686 280.096 156.667 282.557 163.789 282.178C170.911 281.798 177.592 278.61 182.366 273.311L200 253.677L192.773 301.28L162.901 334.572C162.735 334.751 162.631 334.979 162.605 335.223C162.578 335.466 162.632 335.711 162.757 335.921C164.314 338.524 166.011 341.041 167.84 343.461C152.085 362.733 140.281 373.67 140.16 374.345C137.607 389.401 138.835 423.682 143.653 439.388C143.678 439.471 143.727 439.545 143.793 439.602C143.858 439.659 143.939 439.695 144.025 439.708C144.11 439.721 144.198 439.709 144.277 439.673C144.357 439.638 144.424 439.581 144.472 439.509C156.999 418.695 161.528 405.783 168.201 383.041L187.714 361.36C190.32 362.937 193.023 364.345 195.808 365.576C196.016 365.662 196.244 365.682 196.464 365.635C196.683 365.587 196.883 365.475 197.037 365.311L228.932 329.802C233.734 324.447 237.128 317.981 238.809 310.988C245.795 281.742 243.627 229.274 247.988 185.093L252.565 176.83L258.635 181.961C259.575 182.804 262.008 181.696 263.333 180.371L280.822 193.669C284.863 196.621 289.622 198.434 294.602 198.921C295.156 198.921 350.323 200.631 357.79 203.883C360.433 205.26 363.28 206.204 366.222 206.678C366.921 206.678 367.041 206.413 367.162 206.22C367.836 204.895 363.018 201.402 359.308 199.186C367.836 200.197 373.762 205.377 374.894 204.004C375.28 203.594 374.894 202.871 374.605 202.245C372.328 199.107 369.273 196.617 365.74 195.018C371.04 196.247 376.966 199.836 378.797 199.836C379.544 199.836 380.002 199.258 379.327 198.077C377.52 194.849 372.1 191.814 367.402 189.646C371.136 190.272 375.135 191.429 376.605 191.429C377.641 191.429 377.858 190.778 377.279 190.104C376.955 189.745 376.6 189.414 376.219 189.116C379.929 189.766 384.94 191.067 386.915 191.067C388.313 191.139 388.505 190.344 387.879 189.622ZM290.049 147.898C287.279 148.572 283.256 153.125 281.425 155.341L280.533 154.547C280.533 154.282 281.593 151.029 280.076 150.066L254.323 126.819C252.688 122.194 251.526 117.416 250.854 112.557L290.049 147.898ZM240.11 93.7912C243.579 87.7205 245.41 80.1803 241.893 74.3263C241.868 74.2794 241.834 74.238 241.792 74.2048C241.751 74.1717 241.703 74.1474 241.652 74.1336C235.533 72.1101 238.038 65.0276 242.11 67.7979C243.555 68.8097 245.458 69.7492 245.892 68.0147C245.959 67.3152 246.265 66.6601 246.759 66.1598C247.256 66.9402 247.951 67.5753 248.772 68.0009C249.594 68.4265 250.514 68.6275 251.438 68.5834C252.362 68.5394 253.258 68.252 254.036 67.7503C254.813 67.2485 255.444 66.5502 255.865 65.7262C256.798 66.475 257.958 66.8831 259.153 66.8831C260.349 66.8831 261.509 66.475 262.442 65.7262C265.357 72.8087 267.862 86.8532 262.442 91.9844C259.551 94.6584 254.926 94.3934 248.662 91.1413C248.373 90.9726 247.795 91.1413 248.18 92.0085C248.566 92.8758 249.024 93.8394 250.3 96.6338C249.533 100.087 249.233 103.628 249.409 107.161C245.795 112.244 238.761 106.703 234.184 102.343C236.371 99.645 238.352 96.7863 240.11 93.7912ZM84.2951 207.738C88.4857 201.093 93.577 195.061 99.4237 189.814C105.839 195.839 112.613 201.471 119.708 206.678C113.232 211.724 107.793 217.973 103.688 225.082L84.2951 207.738ZM167.84 382.126C161.183 377.259 155.302 371.411 150.398 364.781C156.975 357.699 163.07 350.713 168.346 344.28C173.555 350.838 179.815 356.487 186.871 360.999L167.84 382.126ZM237.942 310.795C236.304 317.641 232.993 323.973 228.306 329.224L206.938 353.025C193.351 346.688 181.81 336.674 173.621 324.117C194.821 300.509 193.761 301.785 193.785 301.545L197.519 276.684L236.617 212.821C236.661 212.725 236.67 212.617 236.643 212.515C236.617 212.413 236.556 212.324 236.471 212.262C236.386 212.199 236.283 212.168 236.178 212.174C236.073 212.179 235.973 212.22 235.894 212.291L181.716 272.516C177.1 277.633 170.644 280.711 163.762 281.077C156.881 281.443 150.135 279.066 145.002 274.467L110.12 243.15C113.803 236.374 118.223 230.024 123.297 224.215C165.503 257.628 162.66 255.532 162.901 255.532C163.142 255.532 162.492 256.496 204.264 195.138C209.979 193.582 215.338 190.931 220.043 187.333C220.125 187.255 220.176 187.15 220.185 187.037C220.194 186.924 220.161 186.812 220.092 186.722C220.023 186.632 219.923 186.571 219.812 186.55C219.701 186.53 219.585 186.551 219.489 186.611C210.704 193.14 199.952 196.472 189.015 196.054C188.894 196.054 188.777 196.102 188.691 196.188C188.605 196.274 188.557 196.39 188.557 196.512C188.557 196.633 188.605 196.749 188.691 196.835C188.777 196.921 188.894 196.969 189.015 196.969C193.693 197.07 198.365 196.568 202.915 195.476L162.781 254.448L123.899 223.637C128.474 218.546 133.717 214.097 139.486 210.412L159.408 228.286C159.462 228.329 159.525 228.357 159.592 228.371C159.659 228.384 159.729 228.381 159.795 228.362C159.86 228.343 159.921 228.309 159.971 228.262C160.021 228.216 160.059 228.158 160.083 228.094C179.644 179.335 198.916 174.035 208.697 167.049C222.018 177.529 228.932 181.889 247.048 185.334C242.591 229.684 244.904 281.598 237.942 310.795ZM257.961 180.227L231.293 157.63C231.209 157.561 231.102 157.524 230.993 157.527C230.884 157.529 230.78 157.57 230.699 157.643C230.617 157.716 230.564 157.815 230.55 157.923C230.535 158.031 230.56 158.141 230.619 158.232C246.133 182.322 247.313 184.466 247.313 184.466C229.318 181.07 222.476 176.758 209.251 166.351C214.96 149.656 210.72 142.381 221.488 119.664C224.162 114.027 229.005 108.679 233.534 103.09C238.014 107.354 245.097 112.991 249.409 108.558C249.834 114.358 250.992 120.081 252.854 125.59L237.075 111.425C236.641 111.016 236.039 111.69 236.473 112.1L278.582 149.921C272.295 151.487 257.551 173 257.961 180.227ZM376.436 190.609C374.822 190.609 368.173 188.634 364.391 188.441C362.512 187.651 360.59 186.967 358.634 186.394C358.52 186.379 358.405 186.408 358.312 186.474C358.218 186.54 358.153 186.639 358.129 186.751C358.105 186.863 358.123 186.98 358.181 187.079C358.239 187.178 358.332 187.251 358.441 187.285C362.801 188.2 377.183 194.512 378.701 199.017C377.271 198.633 375.883 198.108 374.557 197.451C370.966 195.644 367.099 194.448 363.114 193.91C360.44 192.657 358.104 191.766 357.188 191.501C357.083 191.483 356.975 191.502 356.883 191.556C356.79 191.609 356.72 191.693 356.682 191.793C356.645 191.893 356.644 192.002 356.679 192.103C356.715 192.204 356.784 192.289 356.875 192.344C361.693 194.054 372.245 198.704 374.075 203.45C372.124 202.92 365.331 198.487 357.622 198.198L356.056 197.258C355.951 197.198 355.825 197.181 355.708 197.213C355.59 197.245 355.49 197.322 355.43 197.427C355.369 197.532 355.353 197.658 355.384 197.775C355.416 197.893 355.493 197.993 355.598 198.053C362.44 202.052 365.909 204.967 366.27 205.81C365.885 205.81 364.247 205.81 358.128 203.088C350.515 199.788 296.891 198.126 294.65 198.077C289.837 197.596 285.239 195.841 281.328 192.994L259.647 176.444C262.297 168.712 270.705 156.498 276.51 152.162L298.553 171.867C298.794 172.084 296.626 171.554 360.657 184.153C365.138 185.334 373.642 187.695 376.436 190.609ZM374.364 188.008C370.055 185.94 365.542 184.325 360.898 183.19L299.059 171.145L282.196 156.088C283.875 153.916 285.79 151.937 287.905 150.186L309.851 168.398C309.851 168.398 365.427 181.985 368.318 182.708C373.298 183.778 378.145 185.394 382.772 187.526C384.424 188.219 385.94 189.197 387.253 190.417C385.615 190.441 378.123 188.417 374.364 188.008Z" fill="#124CB9"/>
<path d="M306.768 69.0747C304.838 69.0715 302.95 68.5167 301.326 67.4757C299.701 66.4347 298.408 64.951 297.599 63.1995C296.79 61.4479 296.499 59.5016 296.76 57.59C297.02 55.6783 297.822 53.881 299.071 52.41C300.319 50.939 301.962 49.8556 303.806 49.2875C305.65 48.7195 307.617 48.6904 309.477 49.2038C311.337 49.7172 313.011 50.7516 314.303 52.1851C315.594 53.6187 316.448 55.3915 316.765 57.2946C317.007 58.7454 316.929 60.2315 316.538 61.6492C316.147 63.067 315.451 64.3823 314.499 65.5037C313.547 66.6251 312.363 67.5255 311.027 68.1422C309.692 68.759 308.239 69.0772 306.768 69.0747V69.0747ZM299.541 53.7534C298.687 54.9492 298.142 56.337 297.952 57.7939C297.763 59.2508 297.936 60.7319 298.455 62.1061C298.975 63.4804 299.825 64.7053 300.931 65.6726C302.037 66.6399 303.364 67.3196 304.795 67.6517C306.226 67.9838 307.717 67.9579 309.136 67.5765C310.555 67.195 311.858 66.4696 312.929 65.4646C314.001 64.4596 314.808 63.2059 315.28 61.8145C315.751 60.423 315.873 58.9368 315.633 57.4874C315.338 55.7416 314.531 54.1228 313.315 52.8363C312.098 51.5498 310.527 50.6535 308.801 50.2613C307.074 49.869 305.27 49.9984 303.617 50.633C301.964 51.2675 300.537 52.3788 299.517 53.8257L299.541 53.7534Z" fill="#0063D2"/>
<path d="M332.688 64.7867C330.759 64.7834 328.871 64.2286 327.246 63.1876C325.622 62.1467 324.329 60.663 323.52 58.9114C322.711 57.1599 322.42 55.2136 322.68 53.3019C322.941 51.3903 323.743 49.593 324.991 48.122C326.239 46.651 327.882 45.5675 329.726 44.9995C331.57 44.4314 333.538 44.4024 335.398 44.9158C337.257 45.4292 338.932 46.4636 340.223 47.8971C341.514 49.3306 342.369 51.1035 342.686 53.0066C342.932 54.458 342.857 55.9456 342.467 57.3652C342.078 58.7847 341.382 60.1019 340.43 61.2243C339.477 62.3466 338.291 63.2471 336.953 63.8625C335.616 64.4779 334.16 64.7933 332.688 64.7867V64.7867ZM325.461 49.4653C324.608 50.6611 324.062 52.0489 323.873 53.5058C323.684 54.9627 323.856 56.4439 324.376 57.8181C324.895 59.1923 325.746 60.4173 326.851 61.3846C327.957 62.3518 329.284 63.0316 330.716 63.3637C332.147 63.6958 333.638 63.6699 335.056 63.2884C336.475 62.9069 337.778 62.1816 338.85 61.1766C339.921 60.1715 340.729 58.9178 341.2 57.5264C341.672 56.135 341.793 54.6488 341.553 53.1993C341.269 51.448 340.471 49.8209 339.259 48.5252C338.047 47.2294 336.477 46.3236 334.748 45.9232C333.02 45.5228 331.212 45.6458 329.554 46.2766C327.895 46.9074 326.462 48.0174 325.437 49.4653H325.461Z" fill="#0063D2"/>
<path d="M369.041 48.6463C368.714 46.6723 367.809 44.8395 366.441 43.3796C365.072 41.9198 363.302 40.8984 361.353 40.4446C359.404 39.9909 357.365 40.1251 355.492 40.8303C353.62 41.5355 351.999 42.7801 350.833 44.4067C349.668 46.0333 349.011 47.9688 348.946 49.9686C348.881 51.9684 349.41 53.9427 350.466 55.6419C351.523 57.341 353.06 58.6887 354.882 59.5146C356.705 60.3405 358.731 60.6075 360.705 60.2818C362.018 60.0685 363.276 59.5977 364.406 58.8967C365.537 58.1957 366.517 57.2781 367.292 56.1969C368.066 55.1156 368.62 53.8919 368.92 52.5961C369.22 51.3003 369.261 49.958 369.041 48.6463V48.6463Z" fill="#FFD740"/>
<path d="M84.6084 261.748C84.2952 261.483 88.2219 260.158 25.9248 280.369C25.8508 280.397 25.7853 280.443 25.7344 280.503C25.6836 280.564 25.6492 280.636 25.6347 280.714C25.6201 280.791 25.6259 280.871 25.6514 280.946C25.6769 281.021 25.7213 281.088 25.7803 281.14L42.3302 295.811L20.36 319.901C20.317 319.944 20.2829 319.994 20.2596 320.05C20.2364 320.106 20.2244 320.166 20.2244 320.226C20.2244 320.287 20.2364 320.347 20.2596 320.403C20.2829 320.458 20.317 320.509 20.36 320.552C33.176 331.826 32.4051 331.272 32.5978 331.272C32.7905 331.272 31.4174 332.789 54.9053 306.941L71.407 321.612C71.4665 321.664 71.5384 321.699 71.6158 321.715C71.6932 321.731 71.7734 321.727 71.8485 321.702C71.9237 321.678 71.9913 321.635 72.0448 321.577C72.0983 321.519 72.1359 321.448 72.1538 321.371C85.6924 258.279 84.8975 262.037 84.6084 261.748ZM54.5439 306.098L32.5737 330.188L21.2995 320.263C44.956 294.221 43.3902 296.172 43.3661 295.739C43.342 295.305 44.3297 296.413 26.9607 280.996L62.4455 269.601L70.5398 319.733L55.1702 306.049C55.0794 305.976 54.9639 305.94 54.8475 305.949C54.7311 305.958 54.6225 306.011 54.5439 306.098V306.098Z" fill="#B49B92"/>
<path d="M321.367 314.866C321.126 314.866 321.15 314.866 285.809 303.881C285.733 303.843 285.669 303.785 285.625 303.712C285.58 303.64 285.556 303.557 285.556 303.472C285.556 303.387 285.58 303.303 285.625 303.231C285.669 303.159 285.733 303.1 285.809 303.062L315.609 282.345C315.707 282.3 315.818 282.292 315.922 282.321C316.026 282.351 316.116 282.416 316.176 282.505C316.237 282.594 316.264 282.702 316.252 282.81C316.241 282.917 316.193 283.017 316.115 283.091L287.207 303.279L321.487 313.999C321.544 314.007 321.599 314.026 321.648 314.055C321.698 314.084 321.741 314.123 321.776 314.169C321.811 314.215 321.836 314.267 321.85 314.322C321.865 314.378 321.868 314.436 321.86 314.493C321.852 314.55 321.833 314.605 321.804 314.654C321.775 314.704 321.737 314.747 321.691 314.782C321.645 314.817 321.593 314.842 321.537 314.856C321.481 314.871 321.423 314.874 321.367 314.866Z" fill="#0063D2"/>
<path d="M350.202 309.398L379.11 288.054L344.806 278.418C344.739 278.412 344.674 278.392 344.616 278.358C344.558 278.324 344.508 278.278 344.47 278.223C344.432 278.168 344.406 278.105 344.395 278.038C344.384 277.972 344.387 277.904 344.405 277.84C344.423 277.775 344.455 277.715 344.499 277.664C344.543 277.613 344.597 277.572 344.658 277.545C344.72 277.517 344.786 277.503 344.853 277.504C344.921 277.506 344.987 277.521 345.047 277.551C370.823 284.392 377.93 286.44 379.857 287.187C380.724 287.524 380.941 287.717 380.074 288.464C378.46 289.789 372.486 294.173 350.805 310.145C350.706 310.225 350.579 310.262 350.452 310.248C350.326 310.235 350.21 310.172 350.13 310.073C350.05 309.973 350.013 309.847 350.026 309.72C350.04 309.594 350.103 309.478 350.202 309.398V309.398Z" fill="#0063D2"/>
<path d="M326.016 327.947L338.952 264.879C338.975 264.762 339.044 264.658 339.143 264.59C339.242 264.523 339.364 264.497 339.482 264.518C339.602 264.547 339.706 264.62 339.773 264.723C339.84 264.826 339.865 264.951 339.843 265.072L326.907 328.14C326.873 328.249 326.799 328.342 326.701 328.4C326.602 328.458 326.485 328.476 326.373 328.452C326.261 328.428 326.162 328.363 326.096 328.269C326.03 328.176 326.001 328.061 326.016 327.947Z" fill="#0063D2"/>
<defs>
<filter id="filter0_d_133_164" x="0.574707" y="4.59686" width="83.833" height="31.8239" filterUnits="userSpaceOnUse" color-interpolation-filters="sRGB">
<feFlood flood-opacity="0" result="BackgroundImageFix"/>
<feColorMatrix in="SourceAlpha" type="matrix" values="0 0 0 0 0 0 0 0 0 0 0 0 0 0 0 0 0 0 127 0" result="hardAlpha"/>
<feOffset dy="4"/>
<feGaussianBlur stdDeviation="2"/>
<feComposite in2="hardAlpha" operator="out"/>
<feColorMatrix type="matrix" values="0 0 0 0 0 0 0 0 0 0 0 0 0 0 0 0 0 0 0.25 0"/>
<feBlend mode="normal" in2="BackgroundImageFix" result="effect1_dropShadow_133_164"/>
<feBlend mode="normal" in="SourceGraphic" in2="effect1_dropShadow_133_164" result="shape"/>
</filter>
</defs>
</svg>
