<svg width="18" height="12" viewBox="0 0 18 12" fill="none" xmlns="http://www.w3.org/2000/svg">
<path d="M5.12108 4.54545C5.12108 4.76422 5.14473 4.9416 5.18612 5.07168C5.23342 5.20176 5.29255 5.34367 5.37532 5.4974C5.40489 5.5447 5.41671 5.592 5.41671 5.63339C5.41671 5.69252 5.38124 5.75164 5.30437 5.81077L4.93187 6.0591C4.87866 6.09458 4.82544 6.11232 4.77814 6.11232C4.71901 6.11232 4.65989 6.08275 4.60076 6.02954C4.51798 5.94085 4.44703 5.84625 4.3879 5.75164C4.32878 5.65113 4.26965 5.53878 4.20461 5.40279C3.74342 5.94676 3.16397 6.21875 2.46627 6.21875C1.96961 6.21875 1.57345 6.07684 1.28373 5.79303C0.994009 5.50922 0.846191 5.13081 0.846191 4.65779C0.846191 4.15521 1.02357 3.74723 1.38425 3.43977C1.74492 3.13231 2.22385 2.97858 2.83286 2.97858C3.03389 2.97858 3.24084 2.99632 3.45961 3.02588C3.67838 3.05545 3.90306 3.10275 4.13957 3.15596V2.72433C4.13957 2.27497 4.04497 1.96159 3.86167 1.7783C3.67247 1.59501 3.35318 1.50632 2.8979 1.50632C2.69096 1.50632 2.4781 1.52997 2.25933 1.58318C2.04056 1.63639 1.8277 1.70143 1.62076 1.78421C1.52615 1.8256 1.4552 1.84925 1.41381 1.86108C1.37242 1.8729 1.34286 1.87882 1.31921 1.87882C1.23643 1.87882 1.19504 1.81969 1.19504 1.69552V1.4058C1.19504 1.3112 1.20687 1.24024 1.23643 1.19885C1.26599 1.15747 1.31921 1.11608 1.40199 1.07469C1.60893 0.968258 1.85726 0.879568 2.14699 0.808615C2.43671 0.73175 2.74417 0.696274 3.06937 0.696274C3.77298 0.696274 4.28739 0.855917 4.6185 1.1752C4.9437 1.49449 5.10925 1.97933 5.10925 2.62973V4.54545H5.12108ZM2.72052 5.44418C2.91564 5.44418 3.11667 5.40871 3.32953 5.33775C3.54239 5.2668 3.73159 5.13672 3.89124 4.95934C3.98584 4.847 4.05679 4.72283 4.09227 4.58093C4.12774 4.43902 4.15139 4.26755 4.15139 4.06652V3.81819C3.97993 3.7768 3.79663 3.74132 3.60742 3.71767C3.41822 3.69402 3.23492 3.68219 3.05163 3.68219C2.65548 3.68219 2.36576 3.75906 2.17064 3.9187C1.97552 4.07834 1.88092 4.30303 1.88092 4.59866C1.88092 4.87656 1.95187 5.08351 2.09969 5.22541C2.24159 5.37323 2.44853 5.44418 2.72052 5.44418ZM7.46842 6.08275C7.36199 6.08275 7.29104 6.06502 7.24374 6.02363C7.19644 5.98815 7.15505 5.90537 7.11957 5.79303L5.73009 1.2225C5.69461 1.10425 5.67687 1.02739 5.67687 0.985997C5.67687 0.891393 5.72417 0.838179 5.81878 0.838179H6.39822C6.51056 0.838179 6.58743 0.855917 6.62882 0.897306C6.67612 0.932782 6.7116 1.01556 6.74707 1.1279L7.74041 5.04212L8.66279 1.1279C8.69235 1.00965 8.72783 0.932782 8.77513 0.897306C8.82243 0.86183 8.90521 0.838179 9.01164 0.838179H9.48465C9.597 0.838179 9.67386 0.855917 9.72116 0.897306C9.76847 0.932782 9.80985 1.01556 9.8335 1.1279L10.7677 5.08942L11.7906 1.1279C11.8261 1.00965 11.8675 0.932782 11.9089 0.897306C11.9562 0.86183 12.033 0.838179 12.1395 0.838179H12.6893C12.7839 0.838179 12.8372 0.88548 12.8372 0.985997C12.8372 1.01556 12.8312 1.04512 12.8253 1.0806C12.8194 1.11608 12.8076 1.16338 12.7839 1.22842L11.359 5.79894C11.3235 5.9172 11.2821 5.99406 11.2348 6.02954C11.1875 6.06502 11.1106 6.08867 11.0101 6.08867H10.5016C10.3893 6.08867 10.3124 6.07093 10.2651 6.02954C10.2178 5.98815 10.1764 5.91129 10.1528 5.79303L9.23632 1.97933L8.32577 5.78712C8.2962 5.90537 8.26073 5.98224 8.21342 6.02363C8.16612 6.06502 8.08334 6.08275 7.97691 6.08275H7.46842ZM15.0662 6.2424C14.7588 6.2424 14.4513 6.20692 14.1557 6.13597C13.8601 6.06502 13.6295 5.98815 13.4757 5.89946C13.3811 5.84625 13.3161 5.78712 13.2924 5.7339C13.2688 5.68069 13.257 5.62156 13.257 5.56835V5.2668C13.257 5.14263 13.3043 5.08351 13.393 5.08351C13.4284 5.08351 13.4639 5.08942 13.4994 5.10124C13.5349 5.11307 13.5881 5.13672 13.6472 5.16037C13.8482 5.24906 14.067 5.32001 14.2976 5.36732C14.5341 5.41462 14.7647 5.43827 15.0012 5.43827C15.3737 5.43827 15.6634 5.37323 15.8645 5.24315C16.0655 5.11307 16.1719 4.92386 16.1719 4.68144C16.1719 4.51589 16.1187 4.37989 16.0123 4.26755C15.9059 4.15521 15.7048 4.05469 15.4151 3.96009L14.5578 3.69402C14.1261 3.55803 13.8068 3.35699 13.6117 3.09092C13.4166 2.83076 13.3161 2.54104 13.3161 2.23358C13.3161 1.98524 13.3693 1.76647 13.4757 1.57727C13.5822 1.38806 13.7241 1.22251 13.9014 1.09243C14.0788 0.956433 14.2799 0.855917 14.5164 0.784964C14.7529 0.714012 15.0012 0.684448 15.2614 0.684448C15.3914 0.684448 15.5274 0.690361 15.6575 0.708099C15.7935 0.725837 15.9177 0.749488 16.0418 0.773139C16.1601 0.802702 16.2724 0.832266 16.3789 0.867742C16.4853 0.903219 16.5681 0.938695 16.6272 0.974171C16.71 1.02147 16.7691 1.06877 16.8046 1.12199C16.8401 1.16929 16.8578 1.23433 16.8578 1.31711V1.59501C16.8578 1.71917 16.8105 1.78421 16.7218 1.78421C16.6745 1.78421 16.5976 1.76056 16.4971 1.71326C16.1601 1.55953 15.7817 1.48266 15.3619 1.48266C15.0249 1.48266 14.7588 1.53588 14.5755 1.64822C14.3922 1.76056 14.2976 1.93203 14.2976 2.17445C14.2976 2.34001 14.3567 2.48191 14.475 2.59425C14.5932 2.7066 14.812 2.81894 15.1254 2.91945L15.965 3.18553C16.3907 3.32152 16.6982 3.51072 16.8814 3.75315C17.0647 3.99557 17.1534 4.27346 17.1534 4.58093C17.1534 4.83517 17.1002 5.06577 16.9997 5.2668C16.8933 5.46783 16.7514 5.64521 16.5681 5.78712C16.3848 5.93494 16.166 6.04137 15.9118 6.11823C15.6457 6.20101 15.3678 6.2424 15.0662 6.2424Z" fill="#B2B5BA"/>
<path fill-rule="evenodd" clip-rule="evenodd" d="M16.1837 9.11593C14.2384 10.5527 11.4121 11.3155 8.98203 11.3155C5.57631 11.3155 2.50762 10.0561 0.189842 7.96295C0.00654843 7.79739 0.172104 7.57271 0.390874 7.70279C2.89786 9.15732 5.9902 10.0383 9.18897 10.0383C11.3471 10.0383 13.7181 9.58895 15.8999 8.66656C16.2251 8.51874 16.503 8.87942 16.1837 9.11593Z" fill="#FF9900"/>
<path fill-rule="evenodd" clip-rule="evenodd" d="M16.9937 8.19359C16.7454 7.8743 15.35 8.03985 14.7173 8.11672C14.5281 8.14037 14.4985 7.97482 14.67 7.85065C15.7816 7.07017 17.6086 7.29485 17.8215 7.55501C18.0343 7.82108 17.7623 9.64811 16.7217 10.5232C16.5621 10.6592 16.4083 10.5882 16.4793 10.4108C16.7158 9.82549 17.242 8.50696 16.9937 8.19359Z" fill="#FF9900"/>
</svg>
