<svg width="14" height="18" viewBox="0 0 14 18" fill="none" xmlns="http://www.w3.org/2000/svg">
<path d="M6.30152 0.128662H9.20665V13.4439C7.71859 13.7253 6.62313 13.8361 5.43785 13.8361C1.88962 13.8324 0.0426025 12.2472 0.0426025 9.20274C0.0426025 6.26942 2.00179 4.36569 5.03778 4.36569C5.5089 4.36569 5.86781 4.40277 6.30152 4.51384V0.128662ZM6.40332 6.91339C6.06307 6.80226 5.78269 6.76524 5.42373 6.76524C3.95437 6.76524 3.10565 7.66151 3.10565 9.23224C3.10565 10.7615 3.91702 11.6059 5.40508 11.6059C5.72658 11.6059 5.98831 11.5878 6.40332 11.5323V6.91339Z" fill="#2BA977"/>
<path d="M13.9574 4.72317V11.3899C13.9574 13.6858 13.7854 14.7899 13.2806 15.7418C12.8095 16.6569 12.1889 17.234 10.9064 17.8713L8.21069 16.601C9.49313 16.005 10.1138 15.4784 10.5101 14.6747C10.9251 13.8529 11.056 12.901 11.056 10.3973V4.72323H13.9574V4.72317ZM10.7632 0.128662H13.6683V3.08052H10.7632V0.128662Z" fill="#2BA977"/>
</svg>
