<svg width="18" height="18" viewBox="0 0 18 18" fill="none" xmlns="http://www.w3.org/2000/svg">
<path d="M16.4863 13.8436C15.519 13.8191 14.7693 13.9173 14.1406 14.1873C13.9592 14.2609 13.669 14.261 13.6448 14.4942C13.7415 14.5924 13.7536 14.752 13.8383 14.8869C13.9835 15.1323 14.2373 15.4638 14.467 15.6357C14.7209 15.832 14.9749 16.0283 15.2408 16.2002C15.7124 16.4948 16.2445 16.6666 16.7039 16.9611C16.97 17.1329 17.2359 17.3539 17.5019 17.538C17.6349 17.6361 17.7195 17.7958 17.8889 17.8571V17.8203C17.8041 17.7098 17.78 17.5503 17.6954 17.4275C17.5746 17.3048 17.4535 17.1943 17.3326 17.0716C16.982 16.593 16.5467 16.1756 16.0752 15.832C15.6883 15.562 14.8418 15.1938 14.6847 14.7396C14.6847 14.7396 14.6725 14.7274 14.6605 14.7151C14.9265 14.6906 15.2408 14.5924 15.4948 14.5187C15.9059 14.4082 16.2807 14.4328 16.7039 14.3223C16.8973 14.2732 17.0908 14.2119 17.2842 14.1505V14.0401C17.0667 13.8191 16.9095 13.5246 16.6798 13.3159C16.0631 12.7758 15.3859 12.2481 14.6847 11.8063C14.3098 11.5608 13.8261 11.4012 13.4271 11.1926C13.2822 11.1189 13.0402 11.0821 12.9557 10.9594C12.7379 10.6894 12.617 10.3335 12.4599 10.0144C12.1093 9.33926 11.7707 8.59063 11.4684 7.87883C11.2508 7.40011 11.1178 6.9214 10.8518 6.47964C9.60639 4.39313 8.25217 3.12897 6.17254 1.88928C5.72511 1.63158 5.19311 1.52111 4.62483 1.38615C4.32266 1.37381 4.02028 1.34933 3.71803 1.33698C3.52455 1.25106 3.33107 1.01791 3.16178 0.907435C2.47271 0.465541 0.695183 -0.491684 0.187366 0.772482C-0.139131 1.57021 0.671067 2.35565 0.949056 2.76079C1.15477 3.04304 1.42066 3.36212 1.56577 3.68126C1.65042 3.8898 1.67454 4.11088 1.75918 4.33176C1.95273 4.87164 2.13398 5.47318 2.388 5.97645C2.52101 6.23415 2.66605 6.50412 2.83535 6.73734C2.93209 6.8723 3.10132 6.93374 3.13766 7.15462C2.96844 7.40011 2.95627 7.76836 2.85946 8.07516C2.4242 9.46207 2.59357 11.1803 3.21015 12.199C3.40356 12.5057 3.86307 13.181 4.47972 12.9232C5.02389 12.7023 4.90296 12.0027 5.06002 11.389C5.09644 11.2416 5.07226 11.1435 5.14474 11.0453V11.0699C5.31404 11.4135 5.48326 11.745 5.64046 12.0886C6.01533 12.6899 6.66819 13.3159 7.21228 13.7333C7.50257 13.9541 7.73226 14.3346 8.09504 14.4696V14.4327H8.07078C7.99823 14.3223 7.88939 14.2732 7.79272 14.1872C7.57513 13.9664 7.33321 13.6964 7.16398 13.4509C6.65624 12.7635 6.20874 12.0026 5.80976 11.2171C5.61635 10.8367 5.44698 10.4194 5.28985 10.0389C5.21723 9.89148 5.21723 9.67068 5.09637 9.5971C4.91498 9.86707 4.64902 10.1003 4.516 10.4316C4.28638 10.9594 4.26213 11.6099 4.17748 12.2849C4.12911 12.2973 4.15322 12.2849 4.12904 12.3096C3.74222 12.2112 3.6092 11.8063 3.46402 11.4626C3.10125 10.5912 3.04078 9.19203 3.35526 8.18563C3.43991 7.92786 3.80268 7.11786 3.65757 6.87237C3.58502 6.63915 3.3431 6.50412 3.21015 6.32007C3.05301 6.08685 2.88365 5.79239 2.77489 5.53455C2.48467 4.84723 2.33956 4.08626 2.02522 3.39894C1.88011 3.0798 1.62631 2.74852 1.42066 2.45392C1.19098 2.12257 0.937033 1.88928 0.755645 1.49656C0.695252 1.3616 0.610535 1.14066 0.707275 0.993359C0.73146 0.89516 0.779761 0.858406 0.87657 0.833856C1.03377 0.698763 1.4812 0.87061 1.63826 0.944259C2.08568 1.12824 2.46048 1.30023 2.83535 1.55793C3.00458 1.68068 3.18596 1.9139 3.40356 1.97527H3.6575C4.04446 2.06113 4.47965 1.99982 4.84243 2.11023C5.48333 2.31883 6.06363 2.6257 6.58361 2.95712C8.16759 3.97579 9.47331 5.42408 10.3561 7.15462C10.5012 7.4368 10.5616 7.69471 10.6946 7.98916C10.9486 8.59063 11.2629 9.2043 11.5167 9.79342C11.7707 10.3702 12.0125 10.9594 12.3752 11.4381C12.5566 11.6957 13.282 11.8308 13.6085 11.9659C13.8504 12.0763 14.2252 12.1745 14.4428 12.3095C14.8539 12.5671 15.265 12.8618 15.652 13.144C15.8454 13.2913 16.4499 13.5982 16.4863 13.8436Z" fill="#0DA7D1"/>
<path d="M4.15312 3.17798C3.94762 3.17798 3.80258 3.20267 3.65747 3.23942V3.26397H3.68166C3.77846 3.46037 3.94762 3.59539 4.06848 3.76717C4.16529 3.9635 4.24986 4.15997 4.34667 4.35636C4.3587 4.34402 4.37079 4.33181 4.37079 4.33181C4.54015 4.20899 4.62473 4.01267 4.62473 3.71807C4.55218 3.63222 4.54008 3.54629 4.47962 3.46037C4.40713 3.33755 4.24986 3.27625 4.15312 3.17798Z" fill="#0DA7D1"/>
</svg>
