<svg width="17" height="17" viewBox="0 0 17 17" fill="none" xmlns="http://www.w3.org/2000/svg">
<path fill-rule="evenodd" clip-rule="evenodd" d="M9.46636 0C9.3501 0 9.24215 0.0257893 9.14251 0.0601731C9.35425 0.206307 9.47051 0.399722 9.52864 0.618923C9.5328 0.649009 9.54109 0.670501 9.54525 0.700586C9.54941 0.726375 9.55355 0.752163 9.55355 0.777952C9.57016 1.15618 9.45805 1.20346 9.37917 1.42696C9.25876 1.71493 9.29198 2.02439 9.43729 2.27368C9.44975 2.30377 9.46636 2.33815 9.48712 2.36824C9.32934 1.28083 10.2054 1.1175 10.3673 0.777952C10.3798 0.481385 10.1431 0.283673 9.95629 0.146134C9.77775 0.0343848 9.61583 0 9.46636 0ZM10.7867 0.244991C10.7701 0.343846 10.7825 0.318057 10.7784 0.369635C10.7742 0.404019 10.7742 0.447001 10.7701 0.481384C10.7618 0.515769 10.7535 0.550153 10.741 0.584539C10.7327 0.618923 10.7203 0.653308 10.7078 0.687692C10.6912 0.722078 10.6787 0.752163 10.6621 0.786548C10.6497 0.803747 10.6414 0.820932 10.6289 0.838125C10.6206 0.851019 10.6123 0.863914 10.604 0.876808C10.5832 0.906896 10.5625 0.936981 10.5417 0.962769C10.5168 0.988558 10.496 1.01864 10.467 1.04014V1.04444C10.4421 1.06593 10.4172 1.09172 10.3881 1.11321C10.3009 1.18198 10.2013 1.23355 10.1099 1.29803C10.0809 1.31951 10.0518 1.33671 10.0269 1.3625C9.99782 1.38399 9.9729 1.40548 9.94799 1.43127C9.91893 1.45705 9.89817 1.48284 9.87326 1.51293C9.8525 1.53872 9.82759 1.5688 9.81098 1.59889C9.79022 1.62898 9.76946 1.65906 9.75285 1.68915C9.73624 1.72353 9.72379 1.75362 9.70718 1.78801C9.69473 1.82239 9.68227 1.85248 9.67397 1.88686C9.66151 1.92554 9.65321 1.95993 9.6449 1.99431C9.64075 2.01151 9.64075 2.033 9.63661 2.05019C9.63244 2.06739 9.63244 2.08457 9.62831 2.10177C9.62831 2.13615 9.62415 2.17483 9.62415 2.20922C9.62415 2.23501 9.62415 2.26079 9.62831 2.28658C9.62831 2.32097 9.63247 2.35535 9.64076 2.39403C9.64492 2.42842 9.65322 2.4628 9.66152 2.49719C9.67398 2.53157 9.68228 2.56596 9.69474 2.60034C9.70304 2.62183 9.7155 2.64332 9.7238 2.66051L8.76886 2.27799C8.60693 2.23071 8.44916 2.18773 8.28724 2.14904C8.20005 2.12755 8.11286 2.10606 8.02567 2.08457C7.77655 2.033 7.52328 1.99431 7.27002 1.96853C7.26172 1.96853 7.25756 1.96422 7.24926 1.96422C7.00014 1.93843 6.75518 1.92554 6.50606 1.92554C6.32338 1.92554 6.14069 1.93413 5.96216 1.94703C5.70889 1.96423 5.45562 1.99861 5.20236 2.04159C5.14008 2.05018 5.0778 2.06308 5.01552 2.07597C4.88681 2.10176 4.76225 2.13185 4.64185 2.16193C4.57957 2.17913 4.51729 2.19632 4.45501 2.21351C4.39273 2.2393 4.3346 2.26939 4.27648 2.29517C4.2308 2.31666 4.18513 2.33815 4.13946 2.35965C4.13117 2.36395 4.12285 2.36395 4.1187 2.36824C4.07718 2.38972 4.03982 2.40692 4.00245 2.42841C3.98999 2.43271 3.98169 2.437 3.97339 2.4413C3.92771 2.46279 3.88204 2.48858 3.84468 2.51007C3.81561 2.52296 3.78655 2.54016 3.76164 2.55305C3.74918 2.56164 3.73257 2.57025 3.72427 2.57454C3.6869 2.59603 3.64954 2.61752 3.61632 2.63901C3.57895 2.6605 3.54574 2.68199 3.51667 2.70348C3.48761 2.72498 3.45855 2.74217 3.43363 2.76366C3.42948 2.76796 3.42534 2.76796 3.42118 2.77225C3.39627 2.78945 3.36721 2.81093 3.34229 2.83242C3.34229 2.83242 3.33813 2.83672 3.334 2.84101C3.31324 2.85821 3.29248 2.87539 3.27172 2.89259C3.26342 2.89689 3.2551 2.90548 3.2468 2.90978C3.22605 2.92698 3.20529 2.94847 3.18453 2.96566C3.18037 2.97425 3.17207 2.97855 3.16791 2.98286C3.143 3.00865 3.11809 3.03014 3.09318 3.05593C3.08902 3.05593 3.08902 3.06023 3.08488 3.06452C3.05997 3.08601 3.03506 3.11179 3.01015 3.13758C3.00599 3.14189 3.00599 3.14617 3.00185 3.14617C2.98109 3.16766 2.96033 3.18915 2.93957 3.21494C2.93127 3.22353 2.91881 3.23214 2.91051 3.24073C2.88975 3.26652 2.86484 3.29231 2.83992 3.3181C2.83576 3.32669 2.82747 3.33099 2.82331 3.33959C2.79009 3.37397 2.76103 3.40836 2.72782 3.44274C2.72366 3.44704 2.71952 3.45133 2.71536 3.45563C2.64893 3.5287 2.57834 3.60177 2.50361 3.66624C2.42888 3.73501 2.34999 3.79948 2.2711 3.85535C2.18806 3.91553 2.10918 3.9671 2.02199 4.01868C1.93895 4.06596 1.85176 4.10894 1.76042 4.14762C1.67323 4.18631 1.58188 4.22069 1.49054 4.25078C1.31616 4.28946 1.13763 4.36253 0.984006 4.37542C0.950791 4.37542 0.913423 4.38401 0.880208 4.38832C0.84284 4.3969 0.809625 4.40552 0.77641 4.41411C0.743195 4.427 0.709979 4.43989 0.676763 4.45279C0.643548 4.46568 0.610333 4.48287 0.577118 4.50007C0.548054 4.52156 0.514839 4.53875 0.485775 4.56024C0.456712 4.58173 0.427648 4.60752 0.402736 4.63331C0.373674 4.6548 0.34461 4.68488 0.319698 4.71067C0.294786 4.74076 0.269874 4.76655 0.249115 4.79663C0.228356 4.83102 0.203444 4.8611 0.186836 4.89549C0.166077 4.92558 0.145318 4.95996 0.128709 4.99434C0.112095 5.03303 0.0954941 5.06741 0.0830382 5.1061C0.0705823 5.14048 0.0581265 5.17916 0.0456706 5.21785C0.0373733 5.25223 0.0290563 5.28661 0.0249115 5.321C0.0249115 5.32531 0.0207532 5.32959 0.0207532 5.33389C0.0124558 5.37258 0.0124558 5.42415 0.00829729 5.44994C0.00413898 5.48003 0 5.50582 0 5.5359C0 5.5531 1.29253e-08 5.57459 0.00415833 5.59178C0.00831664 5.62187 0.0124556 5.64765 0.0207726 5.67344C0.02907 5.69923 0.037387 5.72502 0.049835 5.75081V5.75511C0.0622909 5.7809 0.0788994 5.80669 0.0955059 5.83248C0.11212 5.85827 0.128723 5.88406 0.149482 5.90984C0.170241 5.93133 0.195153 5.95712 0.220064 5.97861C0.244976 6.0044 0.269888 6.02589 0.29895 6.04738C0.398597 6.13764 0.423509 6.16773 0.552219 6.2365C0.572977 6.24939 0.593739 6.25799 0.61865 6.27088C0.622809 6.27088 0.626948 6.27519 0.631106 6.27519C0.631106 6.28377 0.631106 6.28808 0.635265 6.29668C0.639424 6.33106 0.647721 6.36545 0.656024 6.39983C0.664322 6.43851 0.676785 6.4729 0.689241 6.50299C0.701697 6.52877 0.71 6.55456 0.722456 6.58035C0.726615 6.58894 0.730754 6.59755 0.734912 6.60184C0.751527 6.63622 0.768127 6.66631 0.784734 6.6964C0.805495 6.72648 0.826254 6.75657 0.847013 6.78666C0.867772 6.81245 0.892684 6.84253 0.917596 6.86832C0.942507 6.89411 0.967419 6.9156 0.996484 6.94139C0.996484 6.94139 1.00064 6.9457 1.00478 6.9457C1.02969 6.96719 1.0546 6.98868 1.07952 7.00587C1.10858 7.02736 1.13764 7.04455 1.17086 7.06175C1.19992 7.07894 1.23314 7.09613 1.26635 7.10902C1.29126 7.12192 1.32033 7.13052 1.34939 7.13911C1.35355 7.14342 1.35769 7.14342 1.366 7.1477C1.38262 7.15201 1.40337 7.15629 1.41998 7.1606C1.40752 7.39269 1.40336 7.61189 1.43659 7.68926C1.47396 7.77522 1.65664 7.51304 1.83933 7.21217C1.81442 7.50874 1.79781 7.85688 1.83933 7.96004C1.885 8.06749 2.13412 7.73224 2.35002 7.3626C5.29373 6.65772 7.98003 8.76378 8.26236 11.738C8.20838 11.2739 7.65618 11.016 7.40291 11.0804C7.27835 11.3985 7.0666 11.8068 6.72615 12.0604C6.75521 11.7767 6.74276 11.4845 6.68463 11.2008C6.59329 11.5962 6.41475 11.9658 6.16979 12.2839C5.77535 12.314 5.38092 12.1163 5.17332 11.8197C5.15671 11.8068 5.15256 11.781 5.14011 11.7638C5.12765 11.7337 5.1152 11.7037 5.10689 11.6736C5.09444 11.6435 5.08613 11.6134 5.08198 11.5833C5.07782 11.5532 5.07782 11.5231 5.07782 11.4888C5.07782 11.4673 5.07782 11.4458 5.07782 11.4243C5.08198 11.3942 5.09028 11.3641 5.09858 11.334C5.10688 11.3039 5.1152 11.2739 5.12765 11.2438C5.14426 11.2137 5.15671 11.1836 5.17747 11.1535C5.24805 10.9472 5.24805 10.7796 5.11934 10.6807C5.09443 10.6635 5.06952 10.6506 5.04046 10.6377C5.02384 10.6334 5.00309 10.6248 4.98648 10.6205C4.97403 10.6162 4.96572 10.6119 4.95327 10.6076C4.9242 10.5991 4.89514 10.5904 4.86608 10.5862C4.83701 10.5776 4.80795 10.5733 4.77888 10.5733C4.74982 10.5689 4.7166 10.5647 4.68754 10.5647C4.66678 10.5647 4.64602 10.569 4.62526 10.569C4.59205 10.569 4.56298 10.5733 4.53392 10.5819C4.50486 10.5862 4.47579 10.5905 4.44673 10.5991C4.41767 10.6077 4.3886 10.6163 4.35954 10.6292C4.33048 10.642 4.30556 10.6549 4.2765 10.6678C4.25159 10.6807 4.22668 10.6979 4.19762 10.7108C3.23022 11.3641 3.80733 12.8942 4.46749 13.3369C4.21837 13.3842 3.96511 13.4401 3.89453 13.496C3.89037 13.5003 3.88623 13.5046 3.88623 13.5046C4.06476 13.6163 4.2516 13.7109 4.44674 13.7925C4.71246 13.8828 4.99479 13.9645 5.11935 13.9988V14.0031C5.46396 14.0762 5.81272 14.102 6.16563 14.0805C8.00494 13.9473 9.51209 12.4988 9.78611 10.5905C9.79441 10.6292 9.80273 10.6635 9.81103 10.7022C9.82348 10.7796 9.84009 10.8612 9.84839 10.9429V10.9472C9.85669 10.9859 9.86085 11.0246 9.86501 11.059V11.0762C9.86917 11.1149 9.8733 11.1535 9.8733 11.1879C9.87746 11.2352 9.8816 11.2825 9.8816 11.3298V11.3985C9.8816 11.42 9.88576 11.4458 9.88576 11.4673C9.88576 11.4931 9.8816 11.5189 9.8816 11.5447V11.6048C9.8816 11.6349 9.87744 11.6607 9.87744 11.6908C9.87744 11.708 9.87744 11.7252 9.87328 11.7467C9.87328 11.7768 9.86912 11.8068 9.86912 11.8412C9.86496 11.8541 9.86496 11.867 9.86496 11.8799C9.8608 11.9143 9.85666 11.9444 9.8525 11.9788C9.8525 11.9917 9.8525 12.0046 9.84835 12.0175C9.84418 12.0604 9.83589 12.0991 9.83173 12.1421V12.1464V12.1507C9.82344 12.1894 9.81512 12.2324 9.80682 12.2711V12.2839C9.79852 12.3226 9.79021 12.3613 9.78191 12.4C9.78191 12.4043 9.77775 12.4129 9.77775 12.4172C9.76945 12.4559 9.76114 12.4946 9.74869 12.5332V12.5461C9.73624 12.5891 9.72378 12.6278 9.71547 12.6665C9.71132 12.6708 9.71132 12.6751 9.71132 12.6751C9.69886 12.7181 9.68641 12.761 9.67395 12.804C9.65734 12.847 9.64489 12.8857 9.62828 12.9287C9.61167 12.9716 9.59922 13.0146 9.58261 13.0533C9.56599 13.0963 9.54939 13.135 9.53279 13.1779H9.52862C9.51201 13.2166 9.4954 13.2596 9.47464 13.2983C9.47049 13.3112 9.46635 13.3198 9.46219 13.3284C9.45803 13.3327 9.45803 13.337 9.45389 13.3413C9.18402 13.9043 8.78543 14.3986 8.2872 14.7854C8.25399 14.8069 8.22077 14.8327 8.18756 14.8585C8.17926 14.8671 8.1668 14.8714 8.15849 14.88C8.12943 14.9015 8.10036 14.923 8.06715 14.9445L8.07961 14.9702H8.08376C8.14189 14.9617 8.20002 14.953 8.25814 14.9445H8.2623C8.37025 14.9273 8.4782 14.9058 8.58615 14.8843C8.61521 14.88 8.64843 14.8714 8.67749 14.8628C8.69825 14.8585 8.71486 14.8542 8.73562 14.8499C8.76468 14.8456 8.79375 14.837 8.82281 14.8327C8.84772 14.8241 8.87264 14.8198 8.89755 14.8112C9.31274 14.7081 9.71548 14.5662 10.1016 14.3986C9.44145 15.3313 8.55709 16.0834 7.52326 16.5777C8.00073 16.5433 8.4782 16.4617 8.93907 16.3241C10.6123 15.8127 12.0198 14.6479 12.8626 13.0791C12.6924 14.0719 12.3104 15.0175 11.7458 15.8427C12.1485 15.5677 12.518 15.2496 12.8543 14.8886C13.7844 13.8828 14.3947 12.6063 14.6023 11.2352C14.7435 11.9143 14.785 12.6149 14.7227 13.3069C17.7204 8.97872 14.9718 4.49153 13.8217 3.30956C13.8176 3.30097 13.8134 3.29666 13.8134 3.28807C13.8093 3.29237 13.8093 3.29237 13.8093 3.29666C13.8093 3.29235 13.8093 3.29235 13.8051 3.28807C13.8051 3.33964 13.801 3.39122 13.7968 3.4428C13.7844 3.54165 13.7719 3.63621 13.7553 3.73077C13.7345 3.82533 13.7096 3.91988 13.6847 4.01444C13.6556 4.1047 13.6224 4.19926 13.5851 4.28952C13.5477 4.37548 13.5062 4.46574 13.4605 4.5517C13.4148 4.63336 13.365 4.71932 13.311 4.79669C13.2571 4.87835 13.1989 4.95572 13.1408 5.02878C13.0785 5.10615 13.0121 5.17492 12.9457 5.24369C12.9042 5.28237 12.8668 5.31676 12.8253 5.35114C12.792 5.38123 12.763 5.40702 12.7298 5.4371C12.655 5.49727 12.5803 5.55315 12.4973 5.60473C12.4184 5.6563 12.3353 5.70788 12.2523 5.75086C12.1651 5.79384 12.0779 5.83253 11.9907 5.87121C11.9035 5.90559 11.8122 5.93568 11.7208 5.96147C11.6295 5.98726 11.534 6.00875 11.4427 6.02594C11.3472 6.04314 11.2517 6.05173 11.1603 6.06032C11.0939 6.06463 11.0275 6.06891 10.961 6.06891C10.8656 6.06891 10.7701 6.06032 10.6787 6.05172C10.5832 6.04313 10.4877 6.03022 10.3964 6.00873C10.3009 5.99153 10.2096 5.96575 10.1182 5.93567H10.1141C10.2054 5.92708 10.2967 5.91847 10.3881 5.90128C10.4836 5.88408 10.5749 5.8626 10.6663 5.83681C10.7576 5.81102 10.8489 5.78093 10.9361 5.74655C11.0275 5.71216 11.1147 5.66919 11.1977 5.6262C11.2849 5.58322 11.3638 5.53594 11.4468 5.48437C11.5257 5.42849 11.6046 5.37262 11.6793 5.31244C11.7541 5.25227 11.8246 5.1878 11.8911 5.11903C11.9617 5.05456 12.0239 4.98149 12.0862 4.90842C12.1485 4.83106 12.2066 4.7537 12.2606 4.67633C12.2689 4.66343 12.2772 4.64624 12.2855 4.63335C12.327 4.56458 12.3685 4.49581 12.4059 4.42704C12.4516 4.34108 12.4931 4.25512 12.5305 4.16486C12.5678 4.0746 12.6011 3.98434 12.6301 3.88978C12.6592 3.79952 12.6799 3.70496 12.7007 3.61041C12.7173 3.51155 12.7339 3.41699 12.7422 3.32244C12.7505 3.22358 12.7588 3.12472 12.7588 3.03017C12.7588 2.9614 12.7547 2.89263 12.7505 2.82386C12.7422 2.725 12.7298 2.63045 12.7173 2.53589C12.7007 2.43703 12.68 2.34248 12.655 2.24792C12.626 2.15766 12.5969 2.0631 12.5637 1.97284C12.5305 1.88258 12.489 1.79232 12.4474 1.70636C12.4018 1.6204 12.3561 1.53444 12.3063 1.45277C12.2523 1.37111 12.1983 1.29375 12.1402 1.21638C12.0779 1.14331 12.0156 1.07024 11.9492 0.997178C11.916 0.962794 11.8786 0.92411 11.8413 0.889727C11.6544 0.739293 11.4593 0.597456 11.2641 0.468514C11.2351 0.451316 11.2102 0.438427 11.1811 0.425532C11.0441 0.335274 10.9154 0.287994 10.7867 0.245014L10.7867 0.244991Z" fill="#E0234E"/>
</svg>
