<svg width="18" height="18" viewBox="0 0 18 18" fill="none" xmlns="http://www.w3.org/2000/svg">
<path d="M8.27212 0.300748C8.71292 0.0484329 9.28708 0.0472932 9.7275 0.300748C11.9433 1.55276 14.1597 2.80281 16.3751 4.05559C16.7918 4.2903 17.0705 4.75403 17.0662 5.23415V12.7668C17.0693 13.2668 16.7631 13.7416 16.3235 13.971C14.115 15.2161 11.9077 16.4627 9.69958 17.7078C9.24966 17.9651 8.66398 17.9453 8.22811 17.6669C7.56601 17.2831 6.90278 16.9012 6.24062 16.5177C6.10531 16.4371 5.95278 16.3729 5.85724 16.2417C5.9417 16.1278 6.09271 16.1136 6.21542 16.0639C6.49179 15.9761 6.74563 15.835 6.99952 15.6981C7.06373 15.6542 7.14211 15.671 7.20366 15.7103C7.76983 16.0349 8.331 16.369 8.89907 16.6905C9.02026 16.7605 9.14297 16.6676 9.24655 16.6099C11.4137 15.385 13.5836 14.1648 15.7504 12.9395C15.8307 12.9009 15.8751 12.8157 15.8685 12.7278C15.8701 10.2429 15.8689 7.75762 15.8693 5.27278C15.8785 5.17299 15.8207 5.08125 15.7305 5.04041C13.5297 3.80099 11.33 2.55968 9.12961 1.31995C9.09148 1.29374 9.04632 1.27968 9.00006 1.27961C8.95379 1.27954 8.90859 1.29347 8.87039 1.31957C6.66996 2.55968 4.47068 3.80213 2.27025 5.04148C2.18034 5.08239 2.12 5.17261 2.1307 5.27278C2.13108 7.75762 2.1307 10.2429 2.1307 12.7281C2.12688 12.771 2.13631 12.8141 2.1577 12.8515C2.1791 12.8889 2.21144 12.9188 2.25037 12.9373C2.83756 13.2702 3.42552 13.6009 4.01309 13.9327C4.34411 14.1109 4.75053 14.2168 5.11523 14.0802C5.43707 13.9648 5.66267 13.6364 5.65652 13.2947C5.65956 10.8243 5.65501 8.35362 5.6588 5.88365C5.65076 5.77399 5.75479 5.68338 5.86142 5.6937C6.14355 5.6918 6.42607 5.6899 6.70821 5.69446C6.82597 5.6918 6.90702 5.80989 6.89246 5.92038C6.89132 8.40636 6.8955 10.8924 6.89056 13.3784C6.89132 14.0409 6.61912 14.7618 6.00628 15.086C5.2513 15.4771 4.31815 15.3942 3.57228 15.0192C2.92658 14.6969 2.31039 14.3165 1.67615 13.9713C1.23541 13.7432 0.930668 13.2664 0.93377 12.7668V5.23415C0.929148 4.74409 1.21895 4.27194 1.64861 4.04064C3.8567 2.79452 6.06441 1.54744 8.27212 0.300748Z" fill="#8CC84B"/>
<path d="M10.1984 5.51857C11.1614 5.45658 12.1924 5.48185 13.059 5.95628C13.73 6.31984 14.102 7.08286 14.1138 7.82828C14.095 7.92883 13.9899 7.98429 13.894 7.97739C13.6145 7.97701 13.3351 7.98119 13.0557 7.97549C12.9371 7.98005 12.8682 7.87077 12.8534 7.76598C12.7731 7.40932 12.5786 7.05608 12.2429 6.88405C11.7275 6.62603 11.13 6.63901 10.5681 6.6444C10.1579 6.66618 9.71674 6.7017 9.3692 6.94293C9.10238 7.12566 9.02134 7.49454 9.11656 7.79162C9.20635 8.00493 9.45258 8.07376 9.65405 8.1372C10.8146 8.44074 12.0445 8.41054 13.1829 8.81C13.6542 8.97285 14.1153 9.28943 14.2766 9.78291C14.4877 10.4443 14.3952 11.2349 13.9246 11.7659C13.543 12.2028 12.9872 12.4406 12.4329 12.5698C11.6954 12.7342 10.9301 12.7384 10.1812 12.6654C9.47702 12.5851 8.7442 12.4001 8.20057 11.9203C7.7357 11.5166 7.50865 10.8877 7.53119 10.2807C7.53657 10.1782 7.63864 10.1067 7.73684 10.1151C8.01822 10.1129 8.2996 10.1121 8.58097 10.1155C8.69336 10.1075 8.77668 10.2046 8.78244 10.3105C8.83436 10.6503 8.96207 11.007 9.25839 11.2085C9.83026 11.5774 10.5478 11.5522 11.2026 11.5625C11.7451 11.5384 12.3541 11.5311 12.7968 11.1726C13.0304 10.9681 13.0996 10.6259 13.0365 10.3315C12.9681 10.083 12.7081 9.96723 12.4849 9.8915C11.3392 9.52908 10.0956 9.66059 8.96093 9.25074C8.50031 9.08796 8.05488 8.78018 7.87791 8.30695C7.63098 7.63719 7.74412 6.80876 8.26401 6.29571C8.77092 5.78539 9.50267 5.58885 10.1984 5.51851V5.51857Z" fill="#8CC84B"/>
</svg>
