<svg width="18" height="18" viewBox="0 0 18 18" fill="none" xmlns="http://www.w3.org/2000/svg">
<path d="M17.5525 10.7604C17.4491 10.4465 17.1784 10.2278 16.8282 10.1754C16.6631 10.1507 16.4741 10.1612 16.2503 10.2074C15.8603 10.2881 15.571 10.3188 15.3598 10.3248C16.1569 8.97541 16.805 7.43665 17.178 5.98815C17.7813 3.64597 17.459 2.57896 17.0822 2.09633C16.0852 0.818859 14.6306 0.132591 12.8758 0.111592C11.9397 0.100114 11.1178 0.285455 10.6891 0.418738C10.29 0.348113 9.8608 0.308682 9.41048 0.30139C8.56632 0.287886 7.82047 0.472416 7.18316 0.851673C6.83034 0.732029 6.26406 0.563365 5.61012 0.455739C4.0721 0.202541 2.83249 0.399833 1.92578 1.04215C0.827844 1.81984 0.318871 3.17104 0.413003 5.0582C0.442899 5.65737 0.777142 7.4804 1.30342 9.2093C1.60588 10.2031 1.92841 11.0283 2.26204 11.6623C2.73519 12.5613 3.24147 13.0907 3.80983 13.2809C4.12839 13.3873 4.70718 13.4618 5.31594 12.9534C5.39311 13.0471 5.49606 13.1402 5.63268 13.2267C5.8062 13.3364 6.01836 13.4261 6.23026 13.4792C6.99389 13.6707 7.70917 13.6228 8.31941 13.3545C8.32318 13.4633 8.32608 13.5673 8.3285 13.6571C8.33254 13.8027 8.33658 13.9455 8.3419 14.0791C8.37806 14.9821 8.43933 15.6842 8.62086 16.1755C8.63083 16.2025 8.64423 16.2437 8.65837 16.2874C8.74893 16.5654 8.90036 17.0309 9.28564 17.3954C9.68459 17.7731 10.1672 17.8889 10.6091 17.8889C10.8308 17.8889 11.0423 17.8597 11.2278 17.8199C11.889 17.6777 12.64 17.4613 13.1832 16.6856C13.6968 15.9523 13.9465 14.8479 13.9917 13.1077C13.9976 13.0585 14.0029 13.0115 14.0081 12.9668L14.0189 12.8748L14.1399 12.8855L14.1711 12.8876C14.8445 12.9183 15.668 12.7751 16.1738 12.5396C16.5734 12.3536 17.854 11.6757 17.5525 10.7604Z" fill="black"/>
<path d="M16.401 10.9383C14.3985 11.3525 14.2608 10.6727 14.2608 10.6727C16.375 7.52676 17.2589 3.53345 16.4962 2.5561C14.4154 -0.109906 10.8134 1.15095 10.7532 1.18363L10.7339 1.18714C10.3383 1.10477 9.89556 1.05575 9.3979 1.04758C8.49186 1.03273 7.80452 1.28579 7.28296 1.6824C7.28296 1.6824 0.857339 -0.972063 1.15623 5.02084C1.21979 6.29574 2.97854 14.6676 5.07624 12.1389C5.84297 11.2142 6.58384 10.4324 6.58384 10.4324C6.95174 10.6775 7.39224 10.8025 7.85401 10.7576L7.8899 10.7271C7.87872 10.8419 7.88384 10.9542 7.90424 11.0871C7.36382 11.6926 7.52266 11.7989 6.44237 12.0219C5.34921 12.2478 5.99137 12.6499 6.41065 12.7551C6.91895 12.8825 8.09486 13.0631 8.88939 11.9477L8.85775 12.075C9.06944 12.2451 9.21812 13.1812 9.1932 14.0298C9.16829 14.8784 9.15166 15.461 9.31844 15.9161C9.48536 16.3712 9.65161 17.3951 11.0718 17.09C12.2584 16.835 12.8734 16.1742 12.959 15.0719C13.0196 14.2882 13.157 14.4041 13.1657 13.7034L13.2759 13.3718C13.4029 12.3095 13.2961 11.9668 14.0271 12.1262L14.2049 12.1419C14.7429 12.1664 15.4472 12.055 15.8605 11.8624C16.7506 11.4482 17.2785 10.7566 16.4008 10.9383H16.401Z" fill="#336791"/>
<path d="M7.65905 5.59096C7.4786 5.56577 7.31518 5.58907 7.2325 5.65186C7.18604 5.68717 7.17163 5.72809 7.16772 5.75625C7.15735 5.83085 7.20947 5.91336 7.24152 5.9559C7.33215 6.07635 7.46453 6.15913 7.59556 6.17736C7.61455 6.18006 7.63347 6.18128 7.65225 6.18128C7.87075 6.18128 8.06945 6.01066 8.08696 5.88473C8.10884 5.72701 7.88051 5.62188 7.65905 5.59103V5.59096ZM13.6372 5.59596C13.6199 5.47233 13.4006 5.43708 13.1924 5.46612C12.9844 5.49515 12.7829 5.58927 12.7997 5.71317C12.8132 5.80952 12.9867 5.97399 13.192 5.97399C13.2094 5.97399 13.2269 5.97285 13.2446 5.97035C13.3816 5.95131 13.4822 5.86401 13.53 5.8137C13.6028 5.737 13.6449 5.65152 13.6372 5.59596Z" fill="white"/>
<path d="M17.0673 10.8913C16.9909 10.6597 16.7452 10.5853 16.3369 10.6698C15.1245 10.9207 14.6904 10.7469 14.5478 10.6416C15.4901 9.20213 16.2654 7.46201 16.6836 5.8385C16.8817 5.06945 16.9911 4.35523 17 3.77308C17.0099 3.13414 16.9014 2.66461 16.6776 2.37778C15.7752 1.22151 14.4507 0.601274 12.8475 0.584259C11.7453 0.571836 10.8141 0.854675 10.6336 0.934213C10.2534 0.839416 9.83898 0.781214 9.38778 0.773787C8.56039 0.76035 7.84517 0.958993 7.25304 1.36391C6.99583 1.2679 6.33112 1.03907 5.5182 0.907746C4.11282 0.68088 2.99603 0.852785 2.19907 1.41894C1.24812 2.09454 0.809104 3.30219 0.894146 5.00828C0.922763 5.58227 1.24893 7.34804 1.76362 9.03907C2.44113 11.2648 3.17762 12.5248 3.9525 12.784C4.04319 12.8143 4.14776 12.8355 4.26311 12.8355C4.54577 12.8355 4.89234 12.7078 5.25291 12.2731C5.6927 11.744 6.14764 11.2278 6.61715 10.7251C6.92176 10.889 7.25641 10.9806 7.59867 10.9898C7.59934 10.9988 7.60022 11.0077 7.60102 11.0167C7.54211 11.0871 7.48442 11.1586 7.42798 11.231C7.19083 11.5329 7.14147 11.5958 6.37811 11.7534C6.16096 11.7983 5.58425 11.9175 5.57577 12.3229C5.56661 12.7658 6.25752 12.9518 6.33623 12.9715C6.61055 13.0404 6.87483 13.0744 7.12686 13.0744C7.7398 13.0744 8.27921 12.8724 8.71027 12.4815C8.69701 14.0605 8.76266 15.6164 8.95173 16.0905C9.1066 16.4786 9.48488 17.427 10.6798 17.427C10.8551 17.427 11.0481 17.4065 11.2604 17.3609C12.5075 17.0928 13.049 16.5401 13.2585 15.3216C13.3706 14.6703 13.563 13.1153 13.6535 12.2812C13.8444 12.3409 14.0903 12.3683 14.356 12.3682C14.9103 12.3682 15.5499 12.2501 15.951 12.0634C16.4016 11.8536 17.2148 11.3387 17.0673 10.8913ZM14.0975 5.25473C14.0934 5.50097 14.0596 5.72453 14.0238 5.95788C13.9852 6.20885 13.9453 6.46833 13.9353 6.78331C13.9254 7.08984 13.9636 7.40854 14.0005 7.71676C14.0751 8.3393 14.1516 8.98019 13.8553 9.61258C13.8061 9.52512 13.7622 9.43472 13.724 9.3419C13.6872 9.25236 13.6072 9.10855 13.4964 8.9095C13.0655 8.13464 12.0565 6.32012 12.5731 5.5797C12.7269 5.35932 13.1174 5.13272 14.0975 5.25473ZM12.9095 1.08289C14.3459 1.11469 15.4823 1.65357 16.2868 2.68446C16.9038 3.47518 16.2243 7.0731 14.2573 10.177C14.2376 10.1518 14.2177 10.1267 14.1977 10.1016L14.1728 10.0704C14.6811 9.22866 14.5817 8.39581 14.4932 7.65741C14.4568 7.35439 14.4225 7.06817 14.4313 6.79931C14.4403 6.51437 14.4779 6.26995 14.5142 6.03363C14.5589 5.74242 14.6043 5.44108 14.5918 5.08586C14.6011 5.04859 14.6049 5.00457 14.6 4.95231C14.568 4.61167 14.1802 3.59219 13.3897 2.66947C12.9573 2.16476 12.3267 1.59996 11.4657 1.21901C11.836 1.14204 12.3424 1.07027 12.9095 1.08289ZM4.87133 11.9549C4.47406 12.4339 4.19974 12.3421 4.10952 12.3119C3.5217 12.1153 2.83961 10.8695 2.23826 8.89384C1.7179 7.18437 1.41382 5.46539 1.38972 4.98337C1.31377 3.45891 1.68228 2.39649 2.4851 1.82554C3.79164 0.89647 5.93971 1.45256 6.80285 1.73459C6.79046 1.74688 6.77754 1.75836 6.76528 1.77085C5.34886 3.20524 5.38246 5.65593 5.38596 5.80576C5.38582 5.86355 5.39067 5.94539 5.39727 6.05794C5.42164 6.47015 5.46703 7.23731 5.34583 8.10608C5.23324 8.91342 5.48144 9.7036 6.02663 10.2741C6.08259 10.3325 6.1414 10.3881 6.20285 10.4407C5.96018 10.7013 5.43275 11.2777 4.87133 11.9549ZM6.38492 9.92979C5.9455 9.46998 5.74592 8.83043 5.83729 8.17495C5.96523 7.25723 5.91803 6.45793 5.89264 6.0285C5.88907 5.96841 5.88591 5.91575 5.88409 5.87422C6.091 5.69023 7.0499 5.17506 7.73374 5.33217C8.04576 5.40381 8.23591 5.6169 8.31496 5.9834C8.72408 7.8809 8.3691 8.67176 8.08387 9.30732C8.02509 9.43824 7.96954 9.56201 7.92214 9.69003L7.88537 9.78901C7.79232 10.0392 7.70573 10.2719 7.65206 10.4928C7.1849 10.4915 6.73047 10.2914 6.38492 9.92972V9.92979ZM6.45663 12.4888C6.32021 12.4546 6.19753 12.3953 6.12555 12.346C6.18568 12.3177 6.29267 12.2791 6.47824 12.2407C7.37627 12.0554 7.51497 11.9245 7.81784 11.5389C7.88726 11.4505 7.96597 11.3503 8.07498 11.2282L8.07512 11.2281C8.23746 11.0458 8.31173 11.0767 8.44639 11.1327C8.55554 11.178 8.66186 11.3152 8.70496 11.4661C8.72536 11.5374 8.74825 11.6727 8.67331 11.7781C8.04064 12.6664 7.11871 12.6549 6.45663 12.4888ZM11.1564 16.8743C10.0578 17.1104 9.66883 16.5483 9.41249 15.9057C9.24706 15.4908 9.16572 13.6201 9.22342 11.5542C9.22416 11.5268 9.22026 11.5002 9.21272 11.4752C9.20597 11.4259 9.19571 11.3771 9.18201 11.3293C9.09623 11.0287 8.88716 10.7772 8.63634 10.673C8.53669 10.6316 8.35381 10.5556 8.13404 10.612C8.1809 10.4184 8.26217 10.1997 8.35031 9.96287L8.38728 9.86328C8.42889 9.751 8.48114 9.63466 8.53635 9.5115C8.83484 8.84657 9.24362 7.9358 8.79996 5.87827C8.63378 5.1076 8.07882 4.73125 7.23756 4.81869C6.73323 4.87101 6.2718 5.07506 6.04165 5.19207C5.99216 5.21719 5.94691 5.24149 5.90463 5.26513C5.96886 4.48865 6.21153 3.03752 7.11932 2.11939C7.69091 1.54142 8.45212 1.25594 9.37957 1.27134C11.207 1.30132 12.3789 2.24173 13.0402 3.02543C13.6101 3.7007 13.9187 4.38096 14.0419 4.74786C13.1157 4.6534 12.4858 4.83671 12.1665 5.2945C11.4718 6.29028 12.5465 8.22296 13.063 9.15183C13.1578 9.32204 13.2395 9.46917 13.2652 9.53169C13.4334 9.94046 13.6512 10.2134 13.8102 10.4126C13.8589 10.4736 13.9062 10.5328 13.9421 10.5845C13.6616 10.6656 13.1578 10.853 13.2037 11.7895C13.1667 12.2595 12.9033 14.4597 12.7695 15.237C12.5929 16.264 12.2161 16.6465 11.1564 16.8744V16.8743ZM15.7421 11.6121C15.4553 11.7456 14.9752 11.8457 14.5193 11.8673C14.0156 11.8909 13.7592 11.8107 13.6989 11.7613C13.6706 11.1777 13.8872 11.1167 14.1165 11.0522C14.1525 11.042 14.1876 11.0321 14.2216 11.0202C14.2427 11.0374 14.2658 11.0545 14.2911 11.0713C14.6959 11.3392 15.4179 11.3681 16.4373 11.1571L16.4484 11.1549C16.3109 11.2838 16.0757 11.4567 15.7421 11.6121Z" fill="white"/>
</svg>
