<svg width="18" height="18" viewBox="0 0 18 18" fill="none" xmlns="http://www.w3.org/2000/svg">
<path d="M9.00007 10.5673C9.86568 10.5673 10.5674 9.86556 10.5674 8.99995C10.5674 8.13434 9.86568 7.43262 9.00007 7.43262C8.13446 7.43262 7.43274 8.13434 7.43274 8.99995C7.43274 9.86556 8.13446 10.5673 9.00007 10.5673Z" fill="#61DAFB"/>
<path d="M9.00003 12.211C13.6448 12.211 17.4101 10.7734 17.4101 8.99993C17.4101 7.22648 13.6448 5.78882 9.00003 5.78882C4.35528 5.78882 0.589966 7.22648 0.589966 8.99993C0.589966 10.7734 4.35528 12.211 9.00003 12.211Z" stroke="#61DAFB"/>
<path d="M6.21914 10.6055C8.54152 14.628 11.6692 17.17 13.2051 16.2833C14.7409 15.3966 14.1033 11.4169 11.781 7.39441C9.45858 3.37194 6.33087 0.829917 4.79502 1.71664C3.25917 2.60337 3.89677 6.58306 6.21914 10.6055Z" stroke="#61DAFB"/>
<path d="M6.21911 7.39436C3.89674 11.4168 3.25914 15.3965 4.79499 16.2832C6.33084 17.17 9.45856 14.6279 11.7809 10.6055C14.1033 6.583 14.7409 2.60331 13.2051 1.71659C11.6692 0.829861 8.54149 3.37189 6.21911 7.39436Z" stroke="#61DAFB"/>
</svg>
