<svg width="304" height="217" viewBox="0 0 304 217" fill="none" xmlns="http://www.w3.org/2000/svg">
<path d="M125.451 166.215C125.451 166.215 124.304 166.815 123.782 167.091C121.289 168.883 116.225 163.757 114.15 161.413C114.121 161.381 114.083 161.358 114.041 161.347C113.999 161.337 113.955 161.339 113.914 161.354C113.874 161.368 113.838 161.395 113.813 161.43C113.787 161.465 113.773 161.507 113.771 161.55C113.836 163.172 114.294 164.754 115.107 166.16C117.572 170.771 117.667 181.611 120.04 183.08C120.185 183.172 120.347 183.23 120.516 183.252C120.686 183.274 120.858 183.258 121.02 183.207C121.617 183.031 122.429 181.741 123.929 173.509C124.392 171.128 125.002 168.778 125.756 166.472C125.768 166.432 125.768 166.388 125.756 166.348C125.744 166.307 125.72 166.271 125.688 166.244C125.656 166.216 125.616 166.199 125.574 166.194C125.532 166.189 125.489 166.196 125.451 166.215Z" fill="#005CB2"/>
<path d="M187.312 110.424C186.705 110.304 186.079 110.311 185.475 110.443C184.87 110.576 184.299 110.831 183.797 111.194C183.296 111.557 182.874 112.019 182.559 112.552C182.243 113.085 182.041 113.676 181.964 114.291C181.961 114.346 181.979 114.399 182.014 114.442C182.049 114.484 182.099 114.511 182.153 114.518C182.208 114.525 182.263 114.511 182.307 114.479C182.352 114.447 182.383 114.4 182.393 114.346C182.514 113.414 182.951 112.552 183.631 111.904C184.311 111.256 185.193 110.862 186.13 110.787C187.066 110.712 188 110.961 188.774 111.492C189.549 112.024 190.118 112.805 190.385 113.706C190.403 113.758 190.441 113.801 190.491 113.826C190.54 113.852 190.597 113.857 190.651 113.841C190.704 113.826 190.749 113.79 190.777 113.742C190.805 113.694 190.813 113.637 190.8 113.583C190.572 112.783 190.124 112.063 189.507 111.505C188.891 110.947 188.13 110.572 187.312 110.424Z" fill="#005CB2"/>
<path d="M200.227 103.103C199.345 102.796 198.389 102.769 197.491 103.026C196.593 103.283 195.796 103.81 195.209 104.537C194.622 105.264 194.275 106.155 194.213 107.087C194.151 108.019 194.379 108.947 194.865 109.745C195.077 110.091 195.334 110.406 195.631 110.682C195.651 110.702 195.676 110.717 195.702 110.727C195.729 110.737 195.757 110.741 195.785 110.74C195.814 110.739 195.842 110.733 195.867 110.721C195.893 110.709 195.916 110.693 195.936 110.672C195.955 110.651 195.97 110.627 195.98 110.6C195.99 110.574 195.995 110.545 195.994 110.517C195.993 110.489 195.986 110.461 195.975 110.435C195.963 110.409 195.946 110.386 195.925 110.367C195.243 109.723 194.803 108.865 194.677 107.935C194.551 107.006 194.748 106.061 195.234 105.259C195.72 104.457 196.467 103.846 197.349 103.528C198.231 103.209 199.196 103.203 200.082 103.51C200.136 103.529 200.196 103.526 200.248 103.501C200.299 103.477 200.339 103.433 200.358 103.379C200.377 103.325 200.374 103.265 200.35 103.213C200.325 103.162 200.281 103.122 200.227 103.103Z" fill="#005CB2"/>
<path d="M208.976 96.8747C207.369 94.2598 204.145 93.5611 203.225 94.09C202.162 94.6993 197.008 97.9532 169.433 114.729C169.387 114.76 169.355 114.808 169.344 114.862C169.332 114.916 169.342 114.972 169.37 115.02C169.399 115.067 169.444 115.101 169.497 115.116C169.55 115.131 169.607 115.125 169.656 115.1L171.969 113.695C171.357 114.882 171.169 116.244 171.439 117.552C171.708 118.861 172.417 120.038 173.449 120.887C174.48 121.736 175.771 122.206 177.107 122.218C178.443 122.231 179.743 121.785 180.79 120.956C181.208 122.125 181.988 123.131 183.017 123.827C184.045 124.523 185.269 124.872 186.51 124.825C187.75 124.779 188.944 124.337 189.917 123.566C190.89 122.794 191.592 121.732 191.92 120.535C192.847 121.162 193.934 121.51 195.052 121.538C196.171 121.567 197.274 121.274 198.231 120.694C199.188 120.114 199.959 119.273 200.452 118.268C200.946 117.264 201.14 116.139 201.014 115.027C202.227 115.257 203.482 115.097 204.598 114.57C205.715 114.043 206.637 113.177 207.231 112.094C207.825 111.012 208.062 109.77 207.907 108.545C207.753 107.32 207.215 106.175 206.37 105.275C207.13 104.935 207.809 104.438 208.362 103.815C208.914 103.193 209.328 102.46 209.574 101.665C209.821 100.869 209.895 100.031 209.792 99.205C209.689 98.379 209.41 97.5845 208.976 96.8747ZM209.113 101.679C208.857 102.433 208.437 103.121 207.883 103.694C207.329 104.266 206.656 104.709 205.911 104.991C205.17 105.268 204.385 105.408 203.594 105.405C203.537 105.405 203.482 105.426 203.439 105.465C203.397 105.503 203.37 105.556 203.365 105.613C203.363 105.642 203.367 105.671 203.376 105.698C203.385 105.725 203.4 105.75 203.419 105.772C203.439 105.793 203.462 105.81 203.488 105.823C203.514 105.835 203.543 105.842 203.571 105.843C204.375 105.851 205.173 105.717 205.929 105.448C206.511 106.025 206.954 106.727 207.224 107.501C207.495 108.275 207.586 109.1 207.491 109.914C207.396 110.728 207.117 111.51 206.676 112.2C206.235 112.891 205.642 113.472 204.944 113.901C204.34 114.281 203.665 114.534 202.961 114.644C202.256 114.755 201.536 114.72 200.845 114.543C200.155 114.355 199.502 114.05 198.915 113.64C198.87 113.613 198.815 113.604 198.763 113.614C198.711 113.625 198.664 113.654 198.632 113.696C198.6 113.739 198.585 113.792 198.589 113.845C198.594 113.898 198.617 113.948 198.656 113.984C199.236 114.389 199.876 114.699 200.553 114.902C200.711 115.956 200.553 117.034 200.101 117.999C199.649 118.964 198.921 119.775 198.01 120.328C197.099 120.881 196.044 121.153 194.979 121.109C193.914 121.065 192.886 120.707 192.023 120.08C192.158 119.322 192.173 118.548 192.067 117.786C192.058 117.729 192.027 117.678 191.981 117.644C191.935 117.61 191.877 117.596 191.821 117.605C191.764 117.614 191.713 117.644 191.679 117.69C191.645 117.737 191.631 117.794 191.64 117.851C191.831 118.808 191.763 119.798 191.442 120.719C191.121 121.641 190.559 122.459 189.815 123.09C189.07 123.721 188.171 124.141 187.209 124.307C186.248 124.473 185.26 124.378 184.347 124.033C183.59 123.745 182.907 123.29 182.351 122.701C181.794 122.112 181.379 121.405 181.135 120.632C181.58 120.17 181.966 119.653 182.282 119.094C182.309 119.043 182.316 118.984 182.299 118.929C182.283 118.874 182.246 118.828 182.195 118.8C182.145 118.773 182.086 118.767 182.031 118.783C181.976 118.799 181.93 118.837 181.902 118.887C181.403 119.89 180.596 120.706 179.599 121.217C178.602 121.727 177.468 121.905 176.363 121.725C175.455 121.589 174.596 121.226 173.867 120.667C173.138 120.109 172.563 119.375 172.196 118.533C171.829 117.692 171.682 116.771 171.768 115.857C171.855 114.943 172.172 114.066 172.691 113.309C172.791 113.162 202.577 95.0389 203.263 94.6144C205.078 93.5003 210.783 96.7875 209.113 101.681V101.679Z" fill="#005CB2"/>
<path d="M201.228 84.2318C200.792 83.5227 200.211 82.9146 199.522 82.448C198.834 81.9814 198.053 81.667 197.233 81.5258C196.413 81.3847 195.573 81.42 194.768 81.6294C193.962 81.8388 193.211 82.2175 192.564 82.7402C192.271 81.9216 191.8 81.1785 191.184 80.5652C190.568 79.9518 189.823 79.4836 189.004 79.1946C188.184 78.9056 187.31 78.8031 186.445 78.8947C185.581 78.9862 184.748 79.2695 184.007 79.7238C182.766 80.4906 181.852 81.6892 181.441 83.089C180.509 82.468 179.418 82.128 178.298 82.1096C177.178 82.0911 176.076 82.395 175.124 82.985C174.172 83.575 173.409 84.4262 172.927 85.4374C172.445 86.4485 172.263 87.5769 172.405 88.6882C171.189 88.4382 169.925 88.5821 168.796 89.0992C167.667 89.6162 166.733 90.4794 166.128 91.5635C165.523 92.6475 165.28 93.8962 165.433 95.1281C165.586 96.36 166.127 97.5111 166.979 98.4145C165.766 98.9708 164.78 99.9253 164.185 101.119C163.59 102.314 163.421 103.675 163.707 104.979C163.992 106.282 164.715 107.448 165.756 108.284C166.796 109.119 168.091 109.574 169.425 109.572L167.159 110.948C167.11 110.979 167.075 111.027 167.062 111.084C167.049 111.14 167.058 111.199 167.089 111.248C167.119 111.297 167.168 111.332 167.224 111.345C167.28 111.358 167.339 111.348 167.388 111.318C182.623 102.059 201.266 90.5504 201.38 90.3576C201.903 89.4157 202.165 88.351 202.138 87.2739C202.112 86.1968 201.797 85.1465 201.228 84.2318ZM200.998 90.1454C200.932 90.2601 184.412 100.211 170.363 109.001C170.288 109.051 170.202 109.084 170.112 109.098C168.827 109.266 167.524 108.968 166.44 108.257C165.356 107.546 164.564 106.469 164.206 105.223C163.849 103.977 163.951 102.645 164.493 101.467C165.035 100.29 165.982 99.3463 167.161 98.808C167.856 98.5454 168.588 98.3962 169.331 98.3663C169.385 98.3623 169.436 98.3378 169.474 98.2977C169.511 98.2575 169.532 98.2048 169.532 98.15C169.532 98.0952 169.511 98.0425 169.474 98.0023C169.436 97.9622 169.385 97.9377 169.331 97.9337C168.687 97.9606 168.049 98.0693 167.433 98.2573C166.85 97.6802 166.407 96.9783 166.135 96.2045C165.864 95.4308 165.772 94.6054 165.866 93.7909C165.96 92.9763 166.239 92.1939 166.68 91.5027C167.121 90.8115 167.714 90.2297 168.413 89.8011C169.373 89.227 170.484 88.9542 171.601 89.0181C172.718 89.0819 173.79 89.4794 174.679 90.1591C174.725 90.1926 174.783 90.2062 174.84 90.1969C174.896 90.1877 174.947 90.1563 174.98 90.1098C175.014 90.0632 175.027 90.0053 175.018 89.9487C175.009 89.8921 174.978 89.8415 174.931 89.808C174.3 89.3672 173.603 89.0287 172.866 88.8052C172.699 87.7516 172.846 86.6721 173.291 85.7024C173.735 84.7326 174.457 83.9159 175.364 83.3548C176.271 82.7938 177.324 82.5134 178.39 82.549C179.457 82.5846 180.488 82.9345 181.356 83.5548C181.23 84.2506 181.216 84.9623 181.315 85.6626C181.328 85.7164 181.36 85.7633 181.406 85.7939C181.452 85.8245 181.508 85.8364 181.562 85.8272C181.617 85.818 181.666 85.7883 181.699 85.7443C181.732 85.7003 181.748 85.6452 181.742 85.5903C181.519 84.2431 181.814 82.8615 182.568 81.7231C183.322 80.5846 184.479 79.7736 185.806 79.453C187.134 79.1324 188.533 79.3258 189.724 79.9946C190.914 80.6633 191.807 81.7577 192.224 83.058C191.644 83.6118 191.163 84.2616 190.803 84.9787C190.709 85.1864 190.997 85.5524 191.291 84.9868C191.625 84.3423 192.074 83.7648 192.617 83.2829C193.207 82.7469 193.907 82.3477 194.669 82.1137C195.431 81.8798 196.235 81.8168 197.024 81.9294C197.813 82.0419 198.568 82.3272 199.234 82.7648C199.9 83.2025 200.461 83.7817 200.878 84.4613C201.395 85.3147 201.679 86.2894 201.7 87.2872C201.721 88.285 201.479 89.2707 200.998 90.1454Z" fill="#005CB2"/>
<path d="M178.091 92.8474C178.049 92.8126 177.995 92.7951 177.94 92.7984C177.885 92.8018 177.834 92.8257 177.796 92.8653C177.758 92.905 177.737 92.9575 177.736 93.0123C177.736 93.0671 177.756 93.1201 177.793 93.1606C178.474 93.8073 178.913 94.6687 179.035 95.6004C179.157 96.5321 178.956 97.4774 178.464 98.2781C177.972 99.0787 177.22 99.6859 176.333 99.998C175.447 100.31 174.48 100.308 173.595 99.9921C173.543 99.9774 173.486 99.9832 173.437 100.008C173.389 100.034 173.351 100.076 173.333 100.128C173.315 100.18 173.316 100.236 173.338 100.287C173.36 100.337 173.4 100.377 173.45 100.399C174.428 100.749 175.497 100.751 176.477 100.406C177.457 100.061 178.288 99.3901 178.832 98.5051C179.376 97.62 179.599 96.5749 179.464 95.5448C179.329 94.5148 178.844 93.5625 178.091 92.8474Z" fill="#005CB2"/>
<path d="M191.279 89.1461C191.15 90.0749 190.706 90.9316 190.022 91.5733C189.339 92.2149 188.455 92.6027 187.52 92.6721C186.585 92.7415 185.654 92.4882 184.883 91.9545C184.112 91.4208 183.547 90.639 183.283 89.7392C183.267 89.6842 183.229 89.6377 183.179 89.61C183.129 89.5824 183.07 89.5758 183.015 89.5918C182.96 89.6078 182.913 89.645 182.885 89.6952C182.858 89.7455 182.851 89.8046 182.867 89.8597C183.159 90.8547 183.783 91.7196 184.635 92.31C185.487 92.9004 186.516 93.1805 187.55 93.1037C188.584 93.0269 189.56 92.5978 190.316 91.8879C191.071 91.1781 191.561 90.2305 191.702 89.2034C191.702 89.1514 191.683 89.1012 191.648 89.0621C191.614 89.023 191.567 88.9976 191.515 88.9906C191.464 88.9836 191.411 88.9955 191.368 89.0241C191.324 89.0526 191.293 89.096 191.279 89.1461Z" fill="#005CB2"/>
<path d="M222.724 79.4518C208.42 54.8659 175.015 51.4846 157.007 73.3822C152.329 80.4774 147.068 87.1699 141.277 93.3901C141.258 93.4108 141.243 93.435 141.233 93.4616C141.222 93.4881 141.218 93.5163 141.219 93.5446C141.219 93.573 141.226 93.6009 141.238 93.6267C141.249 93.6526 141.266 93.6759 141.286 93.6953C141.307 93.7148 141.331 93.7299 141.358 93.74C141.384 93.7501 141.413 93.7548 141.441 93.754C141.469 93.7531 141.497 93.7467 141.523 93.735C141.549 93.7234 141.572 93.7068 141.592 93.6862C147.4 87.4601 152.675 80.7573 157.362 73.6484C157.372 73.6346 157.38 73.6196 157.385 73.6037C175.114 52.1271 208.124 55.2182 222.348 79.6641C236.537 104.053 223.686 135.641 196.981 141.676C188.066 142.794 179.237 144.52 170.556 146.839C170.503 146.857 170.459 146.894 170.433 146.942C170.407 146.991 170.401 147.048 170.415 147.102C170.43 147.155 170.465 147.201 170.512 147.229C170.56 147.258 170.617 147.267 170.671 147.255C179.263 144.836 188.038 143.116 196.908 142.111C196.938 142.117 196.969 142.117 196.999 142.111C224.083 136.055 237.05 104.079 222.724 79.4518Z" fill="#005CB2"/>
<path d="M175.997 48.1687C168.883 53.1024 155.891 61.0526 140.622 63.4747C139.452 63.6617 138.008 63.3909 137.119 64.186C134.309 66.6976 133.731 75.4613 126.793 75.6517C125.827 78.0865 124.957 80.4478 124.015 82.4603C124.345 82.0013 125.473 81.7718 127.12 81.7581C129.971 81.8201 132.808 82.1855 135.582 82.8481C140.196 83.8807 144.026 85.3459 145.534 86.5483C146.035 86.9476 146.281 87.3205 146.207 87.6383C147.778 84.2593 147.164 80.8264 146.132 77.2535C158.583 74.8497 175.834 66.0505 184.11 58.8117C183.452 54.6697 179.788 50.3063 175.997 48.1687Z" fill="#FFD740"/>
<path d="M153.99 152.814C153.979 152.788 153.963 152.764 153.943 152.744C153.923 152.724 153.899 152.709 153.873 152.698C153.847 152.687 153.819 152.682 153.791 152.682C153.763 152.682 153.735 152.688 153.709 152.699C143.995 156.659 134.47 161.512 124.771 166.573C125.55 165.12 125.522 162.522 124.656 159.028C123.397 154.387 121.576 149.917 119.233 145.718L153.679 124.805C153.728 124.775 153.763 124.726 153.777 124.67C153.79 124.614 153.78 124.554 153.75 124.505C153.719 124.456 153.671 124.421 153.614 124.408C153.558 124.394 153.499 124.404 153.45 124.435L119.031 145.331C118.373 144.129 117.725 143.013 117.056 141.918L152.998 120.069C153.047 120.038 153.082 119.99 153.095 119.933C153.108 119.877 153.099 119.818 153.068 119.769C153.038 119.72 152.989 119.685 152.933 119.671C152.877 119.658 152.817 119.668 152.768 119.698L116.83 141.55C114.387 137.473 111.459 133.707 108.11 130.334C105.406 127.734 103.091 126.403 101.426 126.461C110.719 119.604 118.217 114.257 125.316 108.562C125.358 108.525 125.384 108.473 125.389 108.418C125.394 108.362 125.377 108.307 125.342 108.263C125.306 108.22 125.256 108.191 125.201 108.184C125.145 108.177 125.089 108.191 125.044 108.224C115.38 115.984 100.758 126.257 100.238 126.812C96.9439 128.857 99.4692 139.29 106.029 150.659C111.919 160.871 118.784 167.888 122.598 167.888C123.109 167.9 123.61 167.747 124.026 167.452C152.694 152.47 154.277 153.512 153.99 152.814Z" fill="#005CB2"/>
<path d="M251.991 149.57C251.986 149.529 251.969 149.489 251.942 149.457C251.915 149.425 251.879 149.402 251.839 149.39C251.799 149.378 251.757 149.377 251.717 149.389C251.676 149.401 251.641 149.424 251.613 149.455C248.814 152.657 243.553 151.042 241.92 156.498C239.601 157.79 237.359 159.216 235.205 160.768C235.158 160.782 235.117 160.812 235.09 160.852C234.813 161.058 234.532 161.27 234.244 161.492C227.899 166.392 219.743 173.999 220.935 175.544C221.02 175.635 221.125 175.705 221.242 175.748C221.358 175.791 221.483 175.807 221.607 175.793C224.154 175.793 232.246 170.583 237.9 166.22C240.307 164.337 242.57 162.276 244.669 160.055C249.743 159.76 252.525 154.623 251.991 149.57ZM237.631 165.873C229.664 172.026 221.982 176.186 221.277 175.282C220.571 174.377 226.543 167.988 234.51 161.835C234.755 161.646 234.997 161.463 235.234 161.286L238.347 165.315C238.116 165.496 237.878 165.683 237.631 165.873ZM238.683 165.038L235.586 161.022C237.663 159.535 239.821 158.165 242.05 156.918L244.291 159.821C242.52 161.663 240.648 163.405 238.683 165.038Z" fill="#005CB2"/>
<path d="M246.523 64.9112L249.252 58.8095H244.357C244.321 58.8068 244.287 58.7959 244.256 58.7775C244.225 58.7591 244.199 58.7338 244.18 58.7036C244.161 58.6734 244.149 58.6391 244.146 58.6035C244.142 58.5679 244.147 58.5319 244.16 58.4985L247.028 52.0996C247.052 52.0473 247.095 52.0064 247.148 51.9859C247.202 51.9655 247.262 51.9672 247.314 51.9906C247.366 52.014 247.407 52.0573 247.428 52.1109C247.448 52.1645 247.446 52.224 247.423 52.2763L244.696 58.378H249.59C249.627 58.3792 249.663 58.3894 249.694 58.4079C249.726 58.4263 249.752 58.4523 249.772 58.4836C249.866 58.6293 250.014 58.1979 246.924 65.0879C246.9 65.141 246.857 65.1826 246.803 65.2036C246.749 65.2246 246.688 65.2232 246.635 65.1997C246.582 65.1763 246.54 65.1327 246.519 65.0786C246.499 65.0245 246.5 64.9643 246.523 64.9112Z" fill="#005CB2"/>
<path d="M145.526 210.059L139.939 210.223L139.775 204.635C139.77 204.58 139.744 204.529 139.703 204.493C139.662 204.457 139.608 204.437 139.553 204.439C139.498 204.44 139.446 204.463 139.407 204.502C139.368 204.54 139.345 204.593 139.343 204.648L139.507 210.235L133.919 210.399C133.865 210.404 133.814 210.429 133.777 210.47C133.74 210.511 133.72 210.564 133.721 210.619C133.722 210.674 133.744 210.726 133.782 210.766C133.82 210.805 133.871 210.829 133.926 210.832L139.52 210.668L139.684 216.256C139.685 216.312 139.708 216.365 139.749 216.404C139.789 216.444 139.843 216.465 139.899 216.465C139.958 216.465 140.013 216.441 140.054 216.399C140.094 216.357 140.117 216.301 140.116 216.243L139.952 210.655L145.54 210.491C145.595 210.486 145.645 210.46 145.682 210.418C145.718 210.377 145.737 210.323 145.735 210.268C145.734 210.213 145.711 210.161 145.672 210.122C145.633 210.083 145.581 210.06 145.526 210.059Z" fill="#005CB2"/>
<path d="M156.397 7.05487H152.719C151.868 7.05858 151.051 6.72618 150.444 6.13005C149.838 5.53393 149.492 4.72236 149.481 3.87206V0.221118C149.481 -0.0198305 149.047 -0.123094 149.048 0.221118V3.8755C149.057 4.72905 148.727 5.55122 148.13 6.16196C147.534 6.77271 146.72 7.12225 145.867 7.13404H142.218C142.163 7.13802 142.112 7.16254 142.075 7.20266C142.038 7.24278 142.017 7.29554 142.017 7.35032C142.017 7.40511 142.038 7.45786 142.075 7.49798C142.112 7.53811 142.163 7.56262 142.218 7.5666H145.89C146.739 7.56441 147.556 7.89753 148.162 8.49364C148.767 9.08975 149.114 9.90075 149.125 10.7506V14.4015C149.125 14.4587 149.148 14.5136 149.188 14.554C149.229 14.5945 149.284 14.6172 149.341 14.6172C149.398 14.6172 149.453 14.5945 149.493 14.554C149.534 14.5136 149.557 14.4587 149.557 14.4015V10.7471C149.548 9.89307 149.878 9.07044 150.475 8.45945C151.072 7.84846 151.886 7.49893 152.74 7.48743H156.391C156.446 7.48424 156.498 7.46043 156.536 7.4208C156.573 7.38116 156.595 7.32865 156.596 7.27382C156.596 7.219 156.576 7.16593 156.539 7.12531C156.503 7.08469 156.452 7.05952 156.397 7.05487ZM149.325 9.51025C149.137 9.00684 148.842 8.55071 148.459 8.17403C148.076 7.79736 147.615 7.50932 147.108 7.33024C147.611 7.14273 148.068 6.84704 148.444 6.46402C148.821 6.081 149.109 5.61999 149.288 5.11352C149.476 5.61693 149.771 6.07307 150.154 6.44974C150.537 6.82641 150.998 7.11445 151.505 7.29353C151.001 7.48104 150.545 7.77673 150.169 8.15975C149.792 8.54277 149.504 9.00378 149.325 9.51025Z" fill="#005CB2"/>
<path d="M64.0016 202.745L70.4269 199.001C70.4762 198.976 70.5332 198.971 70.5862 198.987C70.6392 199.002 70.6842 199.038 70.7121 199.086C70.7399 199.133 70.7484 199.19 70.736 199.244C70.7235 199.298 70.6909 199.345 70.6449 199.375C65.422 202.415 64.4364 203.01 64.2047 203.124C64.1551 203.145 64.0995 203.147 64.0487 203.129C63.9979 203.111 63.9556 203.075 63.9302 203.027C63.9047 202.98 63.8979 202.925 63.9111 202.872C63.9244 202.82 63.9566 202.775 64.0016 202.745Z" fill="#005CB2"/>
<path d="M39.091 162.818C39.0432 162.818 38.9966 162.802 38.9586 162.773C38.9206 162.744 38.8934 162.703 38.8812 162.657C38.869 162.611 38.8725 162.562 38.8911 162.518C38.9098 162.474 38.9426 162.437 38.9843 162.414L45.5599 158.678C45.6096 158.65 45.6686 158.642 45.7238 158.657C45.779 158.673 45.8259 158.709 45.8542 158.759C45.8825 158.809 45.8899 158.868 45.8747 158.923C45.8595 158.978 45.823 159.025 45.7733 159.053C38.8535 162.978 39.2057 162.818 39.091 162.818Z" fill="#005CB2"/>
<path d="M107.126 166.776C104.054 157.608 99.1924 149.142 92.8224 141.868C89.1645 137.875 86.3546 135.153 83.5378 136.483C81.8317 137.419 81.4083 138.745 81.6951 140.7C81.2085 140.089 80.53 139.659 79.7693 139.481C79.0087 139.303 78.2101 139.386 77.5027 139.718C76.7952 140.049 76.2202 140.61 75.8704 141.308C75.5207 142.007 75.4166 142.803 75.575 143.568C75.0175 143.113 74.3323 142.842 73.6141 142.793C72.896 142.745 72.1804 142.921 71.5666 143.297C70.9528 143.673 70.4711 144.23 70.1881 144.892C69.9052 145.554 69.835 146.287 69.9873 146.991C69.4612 146.562 68.8196 146.299 68.1439 146.235C67.4682 146.172 66.7888 146.31 66.1918 146.633C55.2114 152.721 63.5804 148.183 50.0368 155.874C49.987 155.902 49.9506 155.949 49.9356 156.005C49.9205 156.06 49.928 156.119 49.9565 156.169C49.9849 156.218 50.032 156.255 50.0873 156.27C50.1426 156.285 50.2016 156.277 50.2513 156.249L59.0001 151.279C57.2652 154.706 59.9306 164.059 65.7397 174.181L44.7876 186.548C44.7383 186.577 44.7026 186.624 44.6884 186.68C44.6742 186.735 44.6826 186.794 44.7118 186.844C44.741 186.893 44.7886 186.929 44.8442 186.943C44.8997 186.957 44.9586 186.949 45.0078 186.919L65.952 174.56C71.8036 184.634 78.5823 191.633 82.4134 191.826L74.6204 196.365C74.5744 196.395 74.5418 196.442 74.5293 196.496C74.5169 196.55 74.5254 196.607 74.5532 196.654C74.5811 196.702 74.6261 196.737 74.6791 196.753C74.7321 196.769 74.7891 196.764 74.8384 196.739L90.4553 187.662C90.9658 187.257 91.3532 186.718 91.5737 186.105C91.7943 185.492 91.8393 184.829 91.7037 184.192C92.2621 184.638 92.9447 184.901 93.6583 184.945C94.3718 184.989 95.0815 184.812 95.6904 184.437C96.2993 184.063 96.7778 183.509 97.0604 182.853C97.3431 182.196 97.4161 181.468 97.2696 180.768C97.7078 181.117 98.2223 181.357 98.7711 181.469C99.3199 181.581 99.8874 181.562 100.427 181.412C100.873 181.28 101.288 181.06 101.648 180.765C102.008 180.47 102.305 180.107 102.523 179.695C102.74 179.284 102.873 178.833 102.914 178.37C102.954 177.907 102.902 177.44 102.76 176.997C103.368 177.447 104.092 177.714 104.847 177.765C105.602 177.816 106.356 177.65 107.019 177.286C109.82 175.516 108.749 172.039 107.126 166.776ZM106.792 176.92C106.037 177.306 105.171 177.416 104.343 177.233C103.516 177.049 102.778 176.583 102.256 175.915C102.223 175.871 102.174 175.842 102.12 175.832C102.066 175.823 102.011 175.835 101.965 175.865C101.919 175.895 101.887 175.942 101.874 175.995C101.861 176.049 101.87 176.105 101.897 176.152C102.192 176.572 102.385 177.054 102.459 177.561C102.534 178.068 102.489 178.586 102.327 179.073C102.17 179.531 101.905 179.945 101.554 180.28C101.204 180.614 100.778 180.86 100.312 180.996C99.6864 181.171 99.0208 181.144 98.4114 180.917C97.8021 180.69 97.2805 180.276 96.9219 179.733C96.7131 179.396 96.3379 179.692 96.4802 179.927C96.9041 180.612 97.0386 181.437 96.8542 182.221C96.6698 183.005 96.1816 183.683 95.4969 184.107C94.8122 184.531 93.9872 184.666 93.2033 184.481C92.4194 184.297 91.7409 183.809 91.317 183.124C91.1047 182.909 90.7812 183.146 90.9189 183.375C91.2964 184.007 91.4314 184.755 91.2987 185.48C91.1659 186.204 90.7744 186.856 90.1972 187.313L84.7494 190.467C87.8921 184.249 76.649 161.341 66.3283 152.518C65.0123 151.417 63.056 150.011 61.351 149.919L66.3995 147.017C67.0841 146.654 67.8818 146.567 68.6287 146.774C69.3756 146.98 70.0149 147.465 70.4153 148.129C70.4505 148.178 70.5029 148.211 70.5619 148.223C70.6208 148.234 70.682 148.223 70.7329 148.191C70.7837 148.159 70.8205 148.109 70.8357 148.05C70.8508 147.992 70.8433 147.931 70.8146 147.878C70.3914 147.2 70.2524 146.383 70.4276 145.604C70.6028 144.825 71.0781 144.146 71.7505 143.715C72.4228 143.284 73.2381 143.135 74.0193 143.301C74.8006 143.467 75.4849 143.935 75.9238 144.602C76.0753 144.831 76.548 144.703 76.3828 144.425C76.1365 144.026 75.9874 143.575 75.9476 143.107C75.9077 142.64 75.9782 142.17 76.1533 141.735C76.3684 141.186 76.7388 140.712 77.2192 140.371C77.6995 140.03 78.269 139.836 78.8578 139.814C79.4465 139.792 80.029 139.942 80.5338 140.246C81.0386 140.549 81.4438 140.994 81.6997 141.525C81.725 141.568 81.8523 141.791 81.9292 141.917C82.1185 142.229 82.3813 142.02 82.3526 141.81C81.8363 139.543 81.7582 137.953 83.7294 136.871C86.272 135.677 89.0865 138.433 92.5022 142.16C98.8306 149.386 103.66 157.797 106.711 166.905C108.333 172.156 109.308 175.327 106.792 176.92Z" fill="#005CB2"/>
<path d="M34.272 193.331C34.2245 193.331 34.1783 193.315 34.1406 193.286C34.1029 193.257 34.0758 193.217 34.0634 193.171C34.051 193.125 34.0541 193.076 34.072 193.032C34.09 192.988 34.122 192.951 34.163 192.927L40.5883 189.183C40.6376 189.158 40.6946 189.153 40.7476 189.169C40.8006 189.184 40.8456 189.22 40.8735 189.268C40.9013 189.315 40.9099 189.372 40.8974 189.426C40.8849 189.48 40.8523 189.527 40.8063 189.557C34.0551 193.484 34.3867 193.331 34.272 193.331Z" fill="#005CB2"/>
<path d="M80.1611 85.2151C80.3437 81.6695 79.3234 78.1662 77.2657 75.2731C75.208 72.3799 72.2335 70.2665 68.8244 69.2755C65.4152 68.2844 61.7713 68.4738 58.4833 69.813C55.1952 71.1521 52.4559 73.5625 50.7092 76.6534C47.3049 76.238 41.692 75.8732 41.116 77.8627C40.4781 80.0668 46.5901 83.0695 48.6829 84.0585C48.6067 87.5361 49.6833 90.9411 51.745 93.7426C53.8067 96.5441 56.7375 98.5846 60.0804 99.546C63.4232 100.507 66.9903 100.335 70.2252 99.0571C73.4602 97.7788 76.1812 95.4659 77.9639 92.4791C89.666 93.8915 90.772 90.2899 80.1611 85.2151ZM64.7347 69.0888C67.3918 69.1466 69.9884 69.8939 72.2698 71.2572C74.5513 72.6206 76.4394 74.5533 77.7491 76.8659C79.0588 79.1786 79.7452 81.7919 79.7411 84.4497C79.7369 87.1074 79.0422 89.7185 77.7253 92.0271C67.8592 90.602 58.2354 87.8293 49.1235 83.7866C49.2837 79.7808 51.0085 75.9976 53.9274 73.2494C56.8463 70.5013 60.7265 69.0075 64.7347 69.0888ZM41.5325 77.9832C41.8767 76.7957 45.2947 76.4469 50.482 77.0653C49.4186 79.0844 48.8089 81.3113 48.6956 83.5904C47.0066 82.7815 41.0116 79.7846 41.5325 77.9832ZM53.3849 95.0194C50.5967 92.1347 49.0614 88.2652 49.1132 84.2536C58.1594 88.2473 67.7065 90.9928 77.4923 92.4149C76.267 94.4095 74.6012 96.097 72.6225 97.3479C70.6438 98.5989 68.405 99.38 66.0776 99.6315C63.7502 99.8829 61.3961 99.598 59.196 98.7985C56.9958 97.9991 55.0079 96.7063 53.3849 95.0194ZM87.0029 91.1401C86.6587 92.3082 83.4082 92.6834 78.1945 92.0833C79.2956 90.1138 79.9571 87.9293 80.1336 85.6798C84.7805 87.9252 87.3437 89.9549 87.0006 91.1378L87.0029 91.1401Z" fill="#005CB2"/>
<path d="M196.284 39.2054C193.115 40.8004 189.868 42.2338 186.555 43.5C186.953 42.8368 187.443 41.795 186.951 41.2971C186.179 40.5145 178.108 47.5514 177 48.5255C176.688 48.3138 176.364 48.1222 176.028 47.9518C175.381 47.8864 160.558 60.0887 140.587 63.2566C140.343 63.293 140.097 63.316 139.851 63.3255C138.589 63.0191 138.861 62.4936 138.474 61.4323C139.999 61.1833 142.337 60.6418 142.825 59.6126C144.106 56.9117 140.661 49.713 139.284 46.4522C137.518 42.27 127.622 44.2217 119.549 48.1354C112.789 51.4134 107.309 56.0672 108.952 59.647C109.796 61.4828 112.509 62.1999 116.425 61.6813C112.638 63.1824 109.237 65.5146 106.472 68.5059C95.38 81.2417 117.486 82.9352 130.48 67.4664C128.64 70.6189 127.099 73.9371 125.877 77.3774C124.102 81.9313 123.742 82.4557 123.709 82.6014C123.509 83.4998 125.086 84.3855 125.905 84.8043C125.341 86.0277 124.498 87.1012 123.442 87.9378C114.963 94.6763 114.541 104.217 120.818 111.534L121.163 111.27C115.045 104.156 115.405 94.8794 123.713 88.2774C124.34 87.7802 124.898 87.2014 125.372 86.5564C131.461 86.4732 137.457 88.0478 142.72 91.1114C142.32 91.754 141.869 92.4619 141.358 93.2536C139.804 92.5032 138.212 91.7696 136.581 91.0529C136.529 91.0345 136.473 91.0364 136.422 91.058C136.372 91.0797 136.332 91.1196 136.31 91.1698C136.288 91.2199 136.285 91.2765 136.303 91.3283C136.321 91.38 136.358 91.4231 136.407 91.4488C146.507 95.7436 155.934 101.474 164.397 108.463C166.424 110.177 168.063 112.303 169.204 114.7C170.345 117.096 170.962 119.709 171.015 122.362C171.173 129.857 170.953 138.185 170.304 148.665C164.989 149.878 159.443 149.604 154.275 147.872C154.422 141.102 154.16 134.52 153.909 127.689C156.289 120.885 156.203 121.183 156.203 121.067C156.202 121.032 156.191 120.998 156.172 120.968C156.154 120.938 156.128 120.913 156.097 120.896C156.046 120.87 153.6 119.961 153.547 119.94C153.154 119.769 137.103 112.78 127.9 109.881C125.146 109.015 122.852 105.652 122.191 101.514C122.18 101.459 122.148 101.41 122.102 101.379C122.056 101.347 122 101.334 121.944 101.343C121.889 101.351 121.839 101.381 121.806 101.425C121.772 101.47 121.756 101.526 121.763 101.581C122.451 105.878 124.861 109.383 127.77 110.294C136.583 113.07 151.71 119.613 153.254 120.285C153.415 129.05 154.057 138.24 153.835 148.001C153.834 148.015 153.834 148.03 153.835 148.045C153.643 156.49 153.161 156.716 153.53 156.859C154.196 157.115 154.845 157.34 155.468 157.528C155.532 161.02 154.427 162.881 155.376 165.151C155.941 166.443 156.755 167.61 157.772 168.587C161.946 172.794 165.345 185.156 168.328 183.221C168.849 182.877 169.256 181.413 168.328 173.099C167.938 167.982 167.995 162.841 168.499 157.734C169 157.587 169.51 157.418 170.017 157.229C170.056 157.215 170.09 157.189 170.114 157.156C170.139 157.123 170.154 157.083 170.157 157.042C171.244 142.448 171.64 131.749 171.442 122.352C171.388 119.637 170.756 116.965 169.589 114.513C168.422 112.061 166.745 109.886 164.672 108.133C157.668 102.31 149.97 97.3774 141.752 93.4486C142.71 91.9639 143.835 90.1889 144.696 88.6377C145.715 88.4851 146.291 88.173 146.411 87.7106C147.902 84.498 147.495 81.2624 146.404 77.421C159.382 74.8474 176.406 65.8325 184.248 58.9746C184.275 58.9504 184.296 58.9196 184.308 58.8851C184.321 58.8506 184.324 58.8135 184.319 58.7773C184.239 58.2779 184.124 57.7848 183.974 57.3018C185.195 56.0057 186.575 54.8688 188.081 53.9182C188.637 54.2213 189.261 54.3792 189.895 54.3771C191.995 54.3771 193.981 52.6733 194.114 51.3538C194.141 51.0425 194.063 50.7311 193.892 50.4692C194.138 50.3248 194.35 50.1289 194.513 49.895C194.676 49.6611 194.786 49.3947 194.837 49.1141C194.859 48.8644 194.817 48.6132 194.716 48.384C194.614 48.1548 194.456 47.9552 194.256 47.8038C194.427 47.5746 194.523 47.2987 194.532 47.0132C194.541 46.7276 194.462 46.4462 194.307 46.2067C193.901 45.7336 193.398 45.3541 192.832 45.0944C192.266 44.8347 191.65 44.701 191.027 44.7025C195.14 42.5523 196.897 40.1612 196.933 39.4773C196.948 39.1802 196.695 38.9667 196.284 39.2054ZM169.739 156.865C164.576 158.707 158.914 158.58 153.839 156.508C154.068 153.743 154.197 151.015 154.262 148.318C159.429 150.027 164.963 150.3 170.273 149.109C170.119 151.571 169.941 154.15 169.739 156.865ZM186.672 41.6367C186.955 42.0486 186.158 43.3887 185.869 43.7628C183.809 44.4359 181.839 45.3567 180.001 46.505C182.728 44.2378 186.041 41.7009 186.672 41.6367ZM131.393 66.8732C133.869 63.2234 135.103 58.2277 135.702 53.8757C135.707 53.8392 135.703 53.8019 135.69 53.7675C135.676 53.7331 135.654 53.7028 135.625 53.6795C132.735 51.3067 134.286 49.2507 135.842 50.8352C136.867 51.8793 138.283 51.4685 137.09 48.1297C137.782 47.8277 138.447 47.4688 139.079 47.0569C142.036 53.9732 143.064 57.3488 142.59 59.0033C142.119 60.6383 138.059 58.6442 136.54 57.856C136.501 57.836 136.457 57.8283 136.413 57.8339C136.37 57.8394 136.329 57.858 136.296 57.8872C136.264 57.9164 136.241 57.9548 136.23 57.9974C136.22 58.0399 136.223 58.0846 136.238 58.1256C136.643 59.297 137.235 60.3954 137.99 61.3784C138.355 62.2217 138.229 62.9055 138.87 63.3783C138.184 63.375 137.516 63.6029 136.975 64.0254C134.131 66.5645 133.613 74.9599 127.118 75.4188C128.233 72.4258 129.667 69.5609 131.393 66.8732ZM142.949 90.7489C137.707 87.6882 131.739 86.0939 125.67 86.133C126.456 84.8548 127.006 83.4456 127.293 81.9726C132.285 81.9726 142.035 84.218 145.262 86.6126C144.563 88.0305 143.791 89.4112 142.949 90.7489ZM142.482 77.5655C142.427 77.5712 142.376 77.5977 142.34 77.6396C142.304 77.6815 142.285 77.7357 142.287 77.791C142.29 77.8463 142.314 77.8986 142.353 77.9371C142.393 77.9756 142.446 77.9974 142.502 77.9981H142.521C143.575 77.9017 144.738 77.7354 145.978 77.5036C146.988 81.049 147.404 84.0539 146.251 86.9843C144.966 85.0063 137.95 83.1578 135.629 82.6381C132.744 81.9375 129.789 81.5713 126.82 81.5469C126.041 81.5344 125.264 81.6455 124.52 81.8762C125.323 80.076 126.075 78.0578 126.942 75.864C133.878 75.553 134.553 66.7699 137.268 64.3489C138.085 63.6158 139.495 63.8785 140.66 63.6892C152.103 61.8741 163.996 56.7384 176.012 48.4291C179.611 50.5024 183.166 54.563 183.877 58.7325C174.781 66.6322 155.019 76.4251 142.482 77.5655ZM190.118 44.6761C189.566 44.6905 189.017 44.7613 188.48 44.8872C188.428 44.9034 188.383 44.939 188.356 44.9868C188.329 45.0345 188.32 45.0909 188.333 45.1444C188.346 45.198 188.378 45.2447 188.424 45.2751C188.47 45.3055 188.526 45.3174 188.58 45.3083C191.526 44.613 194.943 45.9233 193.914 47.5376C193.144 47.0997 192.295 46.8181 191.416 46.7088C190.537 46.5995 189.645 46.6648 188.791 46.9008C188.763 46.9073 188.737 46.9192 188.714 46.9357C188.691 46.9523 188.672 46.9733 188.657 46.9974C188.642 47.0215 188.632 47.0484 188.627 47.0764C188.622 47.1044 188.623 47.1331 188.63 47.1607C188.636 47.1884 188.648 47.2145 188.665 47.2375C188.681 47.2606 188.702 47.2802 188.727 47.2951C188.751 47.3101 188.777 47.3202 188.805 47.3248C188.834 47.3294 188.862 47.3284 188.89 47.3219C190.544 46.9318 192.824 47.0488 194.007 48.1595C194.141 48.2618 194.248 48.3954 194.319 48.5486C194.39 48.7018 194.422 48.87 194.412 49.0384C194.365 49.2655 194.271 49.4802 194.135 49.6684C193.999 49.8566 193.826 50.0141 193.625 50.1307C192.494 48.9776 190.266 48.9351 188.664 49.2587C188.61 49.2725 188.563 49.3064 188.534 49.3535C188.504 49.4007 188.494 49.4573 188.505 49.5119C188.516 49.5664 188.548 49.6146 188.593 49.6465C188.639 49.6784 188.695 49.6915 188.75 49.6832C191.007 49.2243 192.549 49.7325 193.24 50.359C193.384 50.4706 193.5 50.6149 193.577 50.7802C193.654 50.9454 193.691 51.1267 193.685 51.309C193.542 51.7885 193.295 52.2306 192.962 52.6041C192.629 52.9776 192.218 53.2735 191.758 53.4707C191.267 53.7438 190.721 53.902 190.16 53.9336C189.599 53.9652 189.038 53.8693 188.519 53.6531C189.411 53.1082 190.364 52.6728 191.36 52.3566C191.415 52.3516 191.466 52.3261 191.502 52.2851C191.539 52.2442 191.558 52.1909 191.557 52.136C191.556 52.0811 191.534 52.0287 191.496 51.9894C191.458 51.95 191.406 51.9267 191.351 51.924C188.454 52.8771 185.857 54.5726 183.818 56.8417C182.52 53.5807 180.28 50.7803 177.384 48.7974C179.793 46.9613 182.461 45.492 185.301 44.4374C189.107 43.03 192.834 41.4167 196.465 39.6047C196.207 40.269 194.468 42.5729 190.116 44.6761H190.118Z" fill="#005CB2"/>
<path opacity="0.2" d="M222.296 76.8155C226.92 77.0029 229.6 82.1317 227.114 86.0342L151.69 204.435C149.211 208.327 143.449 208.08 141.312 203.99L76.4678 79.9024C74.3305 75.8125 77.4176 70.9415 82.0286 71.1285L222.296 76.8155Z" fill="url(#paint0_linear_23_82)"/>
<defs>
<linearGradient id="paint0_linear_23_82" x1="195.49" y1="6" x2="197.316" y2="212.732" gradientUnits="userSpaceOnUse">
<stop stop-color="#448AFF"/>
<stop offset="0.841822" stop-color="#83B9FF"/>
</linearGradient>
</defs>
</svg>
