<svg width="319" height="323" viewBox="0 0 319 323" fill="none" xmlns="http://www.w3.org/2000/svg">
<rect opacity="0.2" x="70" y="0.465332" width="179" height="322" fill="#FFD740"/>
<path d="M312.188 250.201L283.962 273.99C276.154 271.546 269.268 264.319 268.423 255.719L293.813 233.793L281.466 220.749C279.49 225.929 277.112 233.488 277.459 238.533L277.563 239.464C267.761 242.048 257.453 242.019 247.666 239.38C243.693 231.241 241.72 222.271 241.911 213.217C231.086 210.555 220.788 206.085 211.451 199.995C207.477 197.467 204.549 193.591 203.204 189.078C201.859 184.565 202.187 179.718 204.128 175.427L219.672 141.206C223.575 141.107 227.451 141.876 231.022 143.456C234.592 145.037 237.767 147.39 240.318 150.346L227.044 181.497C234.611 185.923 247.632 192.276 256.118 190.122L253.229 197.967C253.052 198.433 252.983 198.932 253.025 199.428C253.067 199.924 253.221 200.404 253.474 200.832C253.728 201.261 254.074 201.626 254.489 201.903C254.903 202.179 255.374 202.358 255.867 202.427L268.093 204.138C268.808 204.238 269.536 204.101 270.167 203.748C270.797 203.395 271.295 202.846 271.584 202.185L276.064 191.528C286.104 194.252 296.612 203.47 303.393 211.362C308.059 216.772 312.224 222.595 315.835 228.759C317.86 232.187 318.604 236.222 317.937 240.148C317.269 244.073 315.233 247.635 312.188 250.201Z" fill="#B49B92"/>
<path d="M258.625 166.446H233.602C233.518 166.446 233.438 166.413 233.378 166.353C233.319 166.294 233.286 166.213 233.286 166.129C233.286 166.045 233.319 165.965 233.378 165.905C233.438 165.846 233.518 165.813 233.602 165.813H258.632C258.716 165.814 258.796 165.848 258.855 165.908C258.914 165.968 258.946 166.049 258.945 166.133C258.944 166.217 258.91 166.297 258.85 166.356C258.79 166.414 258.709 166.447 258.625 166.446Z" fill="#FFD740"/>
<path d="M299.898 165.813H283.82C283.736 165.813 283.656 165.846 283.596 165.905C283.537 165.965 283.504 166.045 283.504 166.129C283.504 166.213 283.537 166.294 283.596 166.353C283.656 166.413 283.736 166.446 283.82 166.446H299.898C301.769 166.448 303.562 167.192 304.885 168.515C306.207 169.838 306.951 171.631 306.954 173.501V216.083C306.954 216.167 306.987 216.247 307.046 216.307C307.106 216.366 307.186 216.4 307.27 216.4C307.354 216.4 307.435 216.366 307.494 216.307C307.554 216.247 307.587 216.167 307.587 216.083V173.501C307.585 171.463 306.774 169.509 305.333 168.067C303.891 166.626 301.937 165.815 299.898 165.813Z" fill="#FFD740"/>
<path d="M170.544 117.68C167.716 118.111 164.362 118.227 160.918 118.391C174.508 123.612 167.684 122.593 159.006 121.591C171.47 129.436 148.901 120.412 145.364 121.168C144.101 121.83 142.898 122.6 141.768 123.47C141.457 121.179 140.658 118.982 139.425 117.026C138.192 115.07 136.554 113.401 134.622 112.132C147.072 109.762 160.972 93.1772 149.612 109.319C148.611 110.958 148.343 112.031 149.554 112.442C159.918 113.547 171.386 115.815 170.544 117.68Z" fill="#B49B92"/>
<path d="M75.3589 176.058C78.3232 178.723 79.1721 182.056 77.8297 183.114C77.4365 183.375 76.9931 183.552 76.5278 183.634C76.9994 186.103 75.3488 186.597 73.2266 186.373C73.2346 186.661 73.1831 186.947 73.0753 187.214C72.9674 187.482 72.8057 187.724 72.6001 187.925C70.7845 189.584 64.6504 188.715 62.9223 184.34C59.2927 183.594 55.5542 183.548 51.9072 184.203C54.8625 178.66 55.7843 172.257 54.5128 166.106C54.4589 165.793 74.6835 166.537 74.7492 167.886C74.8149 169.235 71.3201 170.013 71.0438 170.076C76.8757 172.348 82.8252 174.306 88.8667 175.942C90.8559 176.368 85.1529 178.728 75.3589 176.058Z" fill="#B49B92"/>
<path d="M197.502 58.0437H115.478C110.244 58.0504 105.226 60.1329 101.526 63.8345C97.8251 67.536 95.7438 72.5542 95.7385 77.7883V90.6679H64.5122C64.4282 90.6679 64.3477 90.7013 64.2883 90.7606C64.2289 90.82 64.1956 90.9006 64.1956 90.9845C64.1956 91.0685 64.2289 91.1491 64.2883 91.2084C64.3477 91.2678 64.4282 91.3012 64.5122 91.3012H117.479C119.349 91.3034 121.142 92.0475 122.465 93.3702C123.787 94.6929 124.531 96.4862 124.533 98.3566V114.399C124.533 114.483 124.566 114.564 124.625 114.623C124.685 114.682 124.765 114.716 124.849 114.716C124.933 114.716 125.014 114.682 125.073 114.623C125.133 114.564 125.166 114.483 125.166 114.399V98.3566C125.164 96.3184 124.353 94.3643 122.912 92.9229C121.471 91.4815 119.517 90.6706 117.479 90.6679H105.004V79.6629C105.02 77.9198 105.384 76.1974 106.075 74.5969C106.766 72.9963 107.769 71.5497 109.026 70.3419C110.283 69.134 111.768 68.1892 113.395 67.5628C115.022 66.9365 116.757 66.6411 118.5 66.6941H195.088C196.83 66.6418 198.565 66.9377 200.19 67.5644C201.816 68.1912 203.301 69.1362 204.557 70.344C205.813 71.5519 206.815 72.9983 207.505 74.5985C208.195 76.1987 208.558 77.9204 208.574 79.6629C208.586 171.058 208.436 165.173 208.825 165.256C208.896 165.271 208.97 165.261 209.034 165.229C209.099 165.197 209.15 165.143 209.18 165.077C217.549 146.719 217.248 147.419 217.248 147.249V77.7883C217.242 72.5534 215.159 67.5346 211.457 63.8331C207.756 60.1315 202.737 58.0495 197.502 58.0437Z" fill="#FFD740"/>
<path d="M45.8152 90.666H13.8478C11.8094 90.6682 9.85502 91.479 8.4136 92.9204C6.97218 94.3619 6.16141 96.3162 6.15918 98.3547V142.572C6.15918 142.656 6.19254 142.736 6.25192 142.796C6.3113 142.855 6.39184 142.888 6.47582 142.888C6.5598 142.888 6.64034 142.855 6.69972 142.796C6.7591 142.736 6.79246 142.656 6.79246 142.572V98.3547C6.79469 96.4842 7.53874 94.6909 8.8614 93.3682C10.1841 92.0456 11.9773 91.3015 13.8478 91.2993H45.8152C45.8992 91.2993 45.9797 91.2659 46.0391 91.2066C46.0985 91.1472 46.1318 91.0666 46.1318 90.9827C46.1318 90.8987 46.0985 90.8181 46.0391 90.7588C45.9797 90.6994 45.8992 90.666 45.8152 90.666Z" fill="#FFD740"/>
<path d="M272.34 251.958H196.27C194.4 251.956 192.607 251.212 191.284 249.89C189.961 248.568 189.217 246.775 189.215 244.904C189.215 180.151 189.257 180.415 189.2 180.247L182.631 160.059L203.309 166.429C203.477 166.485 204.22 166.444 208.353 166.444C208.434 166.439 208.509 166.403 208.563 166.344C208.618 166.285 208.649 166.207 208.649 166.127C208.649 166.047 208.618 165.969 208.563 165.91C208.509 165.851 208.434 165.815 208.353 165.809H203.454L182.232 159.275C182.177 159.257 182.117 159.255 182.061 159.269C182.004 159.283 181.953 159.313 181.912 159.354C181.871 159.396 181.842 159.447 181.829 159.504C181.816 159.561 181.818 159.62 181.836 159.675L188.573 180.392V244.899C188.576 246.937 189.386 248.891 190.827 250.332C192.268 251.773 194.222 252.584 196.26 252.586H208.566V263.183C208.561 266.759 207.138 270.187 204.61 272.715C202.081 275.243 198.653 276.665 195.078 276.669H118.5C114.922 276.665 111.492 275.243 108.962 272.713C106.432 270.184 105.008 266.754 105.004 263.177V177.448H110.314C131.292 183.897 131.428 183.978 131.596 183.978C131.646 183.977 131.696 183.965 131.74 183.942C131.785 183.92 131.823 183.887 131.853 183.846C131.882 183.806 131.901 183.759 131.909 183.709C131.917 183.66 131.913 183.609 131.898 183.562L125.161 162.857V139.222C125.161 139.138 125.127 139.057 125.068 138.998C125.009 138.938 124.928 138.905 124.844 138.905C124.76 138.905 124.68 138.938 124.62 138.998C124.561 139.057 124.528 139.138 124.528 139.222C124.528 164.29 124.453 163.044 124.612 163.214L131.1 183.174L110.412 176.816C110.243 176.779 109.293 176.816 86.8657 176.816C86.7855 176.822 86.7105 176.858 86.6558 176.917C86.601 176.976 86.5706 177.053 86.5706 177.134C86.5706 177.214 86.601 177.291 86.6558 177.35C86.7105 177.409 86.7855 177.445 86.8657 177.451H95.7368V265.594C95.7426 270.827 97.8241 275.845 101.525 279.545C105.225 283.246 110.243 285.327 115.476 285.333H197.5C202.733 285.328 207.751 283.247 211.452 279.548C215.153 275.848 217.237 270.832 217.245 265.599V252.6H272.34C272.425 252.6 272.507 252.566 272.567 252.506C272.627 252.445 272.661 252.364 272.661 252.279C272.661 252.194 272.627 252.112 272.567 252.052C272.507 251.992 272.425 251.958 272.34 251.958Z" fill="#FFD740"/>
<path d="M49.3439 279.201C38.8992 264.872 34.109 247.192 35.8911 229.55C37.6732 211.908 45.9021 195.543 59.0014 183.592C59.0639 183.538 59.145 183.511 59.2275 183.515C59.31 183.52 59.3874 183.557 59.443 183.618C59.4986 183.68 59.5281 183.76 59.5253 183.843C59.5224 183.925 59.4873 184.003 59.4275 184.06C52.2961 190.577 46.5607 198.473 42.5683 207.27C38.5759 216.068 36.4095 225.583 36.2001 235.241C35.9908 244.9 37.7428 254.5 41.3502 263.462C44.9576 272.424 50.3454 280.561 57.1877 287.381C64.0301 294.201 72.1847 299.562 81.1584 303.14C90.1321 306.718 99.7383 308.438 109.396 308.197C119.054 307.956 128.562 305.758 137.346 301.737C146.13 297.716 154.007 291.954 160.5 284.801C160.557 284.739 160.636 284.702 160.72 284.698C160.804 284.694 160.886 284.723 160.948 284.779C161.011 284.836 161.048 284.915 161.052 284.999C161.056 285.083 161.027 285.165 160.97 285.227C153.775 293.154 144.903 299.379 135.001 303.448C125.099 307.517 114.414 309.329 103.724 308.752C93.0342 308.175 82.6069 305.223 73.2003 300.111C63.7937 295 55.6442 287.857 49.3439 279.201Z" fill="#FFD740"/>
<path d="M138.502 299.579L108.859 298.819C108.55 298.79 108.239 298.834 107.951 298.949C107.664 299.064 107.408 299.246 107.204 299.48C107.001 299.714 106.857 299.993 106.784 300.294C106.71 300.595 106.71 300.91 106.782 301.211C108.537 308.453 108.028 306.38 108.15 306.735C108.169 306.783 108.199 306.825 108.239 306.859C108.278 306.892 108.325 306.915 108.375 306.926C108.712 306.971 111.117 307.003 111.875 307.003C115.336 307.003 119.298 306.803 124.487 306.37C119.585 308.313 114.496 309.749 109.3 310.653C108.993 310.877 108.982 310.484 111.901 318.995C111.975 319.292 112.119 319.566 112.32 319.797C112.521 320.028 112.773 320.208 113.057 320.323C113.34 320.438 113.647 320.484 113.952 320.458C114.256 320.432 114.551 320.335 114.811 320.174C123.78 315.73 132.048 309.995 139.352 303.151C139.69 302.932 139.951 302.614 140.101 302.24C140.251 301.867 140.281 301.456 140.188 301.065C140.094 300.673 139.882 300.32 139.581 300.054C139.279 299.788 138.902 299.622 138.502 299.579ZM138.973 302.659C131.691 309.482 123.447 315.201 114.506 319.633C114.329 319.747 114.126 319.816 113.917 319.835C113.707 319.855 113.495 319.823 113.3 319.743C113.105 319.664 112.932 319.539 112.795 319.378C112.659 319.218 112.563 319.027 112.515 318.821L109.891 311.173C115.691 310.086 121.364 308.406 126.82 306.159L126.858 306.139C126.919 306.102 126.966 306.045 126.991 305.979C127.016 305.912 127.017 305.838 126.995 305.771C126.973 305.703 126.929 305.644 126.869 305.605C126.81 305.565 126.739 305.547 126.668 305.553C120.701 306.195 114.698 306.45 108.697 306.316L107.402 301.071C107.353 300.867 107.354 300.654 107.405 300.45C107.455 300.246 107.554 300.057 107.692 299.899C107.831 299.741 108.005 299.618 108.201 299.541C108.396 299.465 108.608 299.436 108.817 299.457L138.45 300.217C138.723 300.249 138.98 300.366 139.184 300.551C139.388 300.736 139.529 300.981 139.587 301.25C139.644 301.52 139.616 301.801 139.506 302.053C139.396 302.306 139.21 302.518 138.973 302.659Z" fill="#FFD740"/>
<path d="M55.0501 103.5C54.2931 103.15 53.5644 102.742 52.8707 102.279C52.8554 103.684 53.3813 105.041 54.3394 106.069C54.6493 108.09 57.2026 108.179 58.7841 108.427C54.9659 114.055 47.8583 114.412 38.5376 111.228C41.4492 109.548 43.9411 107.229 45.8254 104.445C49.012 99.8066 49.8003 95.1462 49.2849 94.6359C44.382 89.7768 48.7105 85.2478 50.9809 88.7409C52.0656 90.4067 52.7174 90.3898 53.0711 89.4349C54.5549 84.4377 61.5531 77.5406 64.007 88.0605L64.5662 91.429C66.2707 106.87 58.8835 105.284 55.0501 103.5Z" fill="#B49B92"/>
<path d="M151.89 20.5434C151.454 20.5434 151.027 20.4139 150.664 20.1714C150.301 19.9289 150.018 19.5842 149.851 19.181C149.684 18.7777 149.641 18.334 149.726 17.9059C149.811 17.4779 150.022 17.0848 150.33 16.7763C150.639 16.4678 151.032 16.2577 151.461 16.1728C151.889 16.0879 152.332 16.1318 152.735 16.2991C153.139 16.4663 153.483 16.7494 153.725 17.1124C153.968 17.4755 154.097 17.9022 154.096 18.3387C154.096 18.9236 153.863 19.4843 153.45 19.8977C153.036 20.3112 152.475 20.5434 151.89 20.5434ZM151.89 16.7673C151.579 16.7676 151.276 16.86 151.017 17.0329C150.759 17.2058 150.558 17.4513 150.439 17.7385C150.321 18.0257 150.29 18.3416 150.351 18.6463C150.411 18.951 150.561 19.2308 150.781 19.4504C151.001 19.67 151.281 19.8195 151.586 19.88C151.89 19.9405 152.206 19.9093 152.493 19.7903C152.78 19.6713 153.026 19.4699 153.198 19.2115C153.371 18.9532 153.463 18.6494 153.463 18.3387C153.463 17.9218 153.297 17.5221 153.002 17.2274C152.707 16.9328 152.307 16.7673 151.89 16.7673Z" fill="#FFD740"/>
<path d="M160.103 20.5434C159.666 20.5437 159.239 20.4146 158.876 20.1722C158.513 19.9299 158.23 19.5854 158.063 19.1821C157.896 18.7789 157.852 18.3351 157.937 17.907C158.022 17.4788 158.232 17.0855 158.541 16.7769C158.849 16.4682 159.243 16.258 159.671 16.1729C160.099 16.0878 160.543 16.1317 160.946 16.2989C161.349 16.4661 161.694 16.7492 161.936 17.1122C162.178 17.4753 162.308 17.9022 162.307 18.3387C162.306 18.9231 162.074 19.4834 161.661 19.8967C161.247 20.3099 160.687 20.5425 160.103 20.5434ZM160.103 16.7673C159.792 16.7673 159.488 16.8594 159.23 17.0321C158.971 17.2048 158.77 17.4502 158.651 17.7373C158.532 18.0245 158.501 18.3404 158.561 18.6453C158.622 18.9501 158.772 19.2301 158.991 19.4498C159.211 19.6696 159.491 19.8193 159.796 19.8799C160.101 19.9405 160.417 19.9094 160.704 19.7905C160.991 19.6715 161.237 19.4701 161.409 19.2117C161.582 18.9533 161.674 18.6495 161.674 18.3387C161.674 17.9221 161.508 17.5226 161.213 17.228C160.919 16.9334 160.519 16.7677 160.103 16.7673Z" fill="#FFD740"/>
<path d="M168.314 20.5434C167.877 20.5437 167.45 20.4146 167.087 20.1722C166.724 19.9299 166.441 19.5854 166.274 19.1821C166.107 18.7789 166.063 18.3351 166.148 17.907C166.233 17.4788 166.443 17.0855 166.752 16.7769C167.06 16.4682 167.454 16.258 167.882 16.1729C168.31 16.0878 168.754 16.1317 169.157 16.2989C169.56 16.4661 169.905 16.7492 170.147 17.1122C170.389 17.4753 170.519 17.9022 170.518 18.3387C170.518 18.9233 170.285 19.4838 169.872 19.8972C169.459 20.3105 168.898 20.5429 168.314 20.5434ZM168.314 16.7673C168.003 16.7673 167.699 16.8594 167.44 17.0321C167.182 17.2048 166.981 17.4502 166.862 17.7373C166.743 18.0245 166.712 18.3404 166.772 18.6453C166.833 18.9501 166.983 19.2301 167.202 19.4498C167.422 19.6696 167.702 19.8193 168.007 19.8799C168.312 19.9405 168.628 19.9094 168.915 19.7905C169.202 19.6715 169.447 19.4701 169.62 19.2117C169.793 18.9533 169.885 18.6495 169.885 18.3387C169.885 17.9221 169.719 17.5226 169.424 17.228C169.13 16.9334 168.73 16.7677 168.314 16.7673Z" fill="#FFD740"/>
<path d="M273.309 104.977C273.309 103.995 272.918 103.052 272.224 102.357C271.529 101.662 270.586 101.272 269.603 101.272H257.106C256.124 101.272 255.181 101.662 254.486 102.357C253.791 103.052 253.401 103.995 253.401 104.977V117.476C253.401 118.459 253.791 119.401 254.486 120.096C255.181 120.791 256.124 121.182 257.106 121.182H269.609C270.591 121.182 271.534 120.791 272.229 120.096C272.924 119.401 273.314 118.459 273.314 117.476L273.309 104.977ZM269.603 120.543H257.101C256.288 120.542 255.508 120.219 254.933 119.644C254.358 119.069 254.035 118.289 254.034 117.476V104.974C254.035 104.16 254.359 103.38 254.934 102.805C255.509 102.23 256.289 101.906 257.103 101.905H269.603C270.417 101.906 271.196 102.229 271.771 102.804C272.346 103.378 272.67 104.158 272.672 104.971V117.476C272.671 118.289 272.348 119.068 271.774 119.643C271.199 120.218 270.42 120.542 269.607 120.543H269.603Z" fill="#FFD740"/>
<path d="M263.356 107.515C262.623 107.515 261.907 107.733 261.298 108.14C260.688 108.547 260.213 109.126 259.933 109.803C259.652 110.48 259.579 111.225 259.722 111.944C259.865 112.662 260.218 113.323 260.736 113.841C261.254 114.359 261.915 114.712 262.633 114.855C263.352 114.998 264.097 114.925 264.774 114.644C265.451 114.364 266.03 113.889 266.437 113.279C266.844 112.67 267.062 111.954 267.062 111.221C267.062 110.238 266.671 109.296 265.976 108.601C265.281 107.906 264.339 107.515 263.356 107.515ZM263.356 114.3C262.748 114.3 262.153 114.119 261.648 113.781C261.142 113.443 260.748 112.963 260.515 112.401C260.282 111.839 260.221 111.221 260.34 110.624C260.459 110.028 260.751 109.48 261.182 109.049C261.612 108.619 262.16 108.326 262.756 108.208C263.353 108.089 263.971 108.15 264.533 108.383C265.095 108.616 265.575 109.01 265.913 109.515C266.251 110.021 266.432 110.616 266.432 111.224C266.431 112.04 266.106 112.821 265.53 113.398C264.953 113.974 264.172 114.299 263.356 114.3Z" fill="#FFD740"/>
<path d="M268.029 105.497C268.04 105.799 268.168 106.084 268.385 106.293C268.602 106.502 268.892 106.619 269.193 106.619C269.495 106.619 269.785 106.502 270.002 106.293C270.219 106.084 270.347 105.799 270.358 105.497C270.347 105.196 270.219 104.911 270.002 104.702C269.785 104.493 269.495 104.376 269.193 104.376C268.892 104.376 268.602 104.493 268.385 104.702C268.168 104.911 268.04 105.196 268.029 105.497Z" fill="#FFD740"/>
<path d="M233.233 271.742C232.624 271.742 232.028 271.561 231.521 271.222C231.014 270.883 230.619 270.402 230.386 269.839C230.152 269.276 230.091 268.656 230.21 268.058C230.329 267.46 230.623 266.911 231.054 266.48C231.485 266.049 232.034 265.755 232.632 265.636C233.23 265.517 233.85 265.578 234.413 265.812C234.976 266.045 235.457 266.44 235.796 266.947C236.135 267.454 236.316 268.05 236.316 268.659C236.315 269.477 235.99 270.26 235.412 270.838C234.834 271.416 234.051 271.741 233.233 271.742ZM233.233 266.212C232.749 266.212 232.275 266.355 231.872 266.624C231.469 266.893 231.155 267.276 230.969 267.723C230.784 268.171 230.735 268.663 230.83 269.138C230.924 269.614 231.157 270.05 231.5 270.393C231.843 270.735 232.279 270.969 232.754 271.063C233.23 271.157 233.722 271.109 234.17 270.923C234.617 270.738 235 270.423 235.269 270.021C235.538 269.618 235.681 269.144 235.681 268.659C235.679 268.011 235.421 267.389 234.962 266.93C234.504 266.472 233.882 266.213 233.233 266.212Z" fill="#FFD740"/>
<path d="M84.8263 66.3687H78.2425V59.7816C78.2457 59.7384 78.2399 59.695 78.2255 59.6542C78.2112 59.6133 78.1886 59.5759 78.1591 59.5441C78.1296 59.5124 78.0939 59.4871 78.0542 59.4698C78.0145 59.4525 77.9717 59.4436 77.9284 59.4436C77.8851 59.4436 77.8423 59.4525 77.8026 59.4698C77.7629 59.4871 77.7272 59.5124 77.6977 59.5441C77.6682 59.5759 77.6456 59.6133 77.6312 59.6542C77.6169 59.695 77.6111 59.7384 77.6143 59.7816V66.362H71.0271C70.9436 66.362 70.8635 66.3952 70.8044 66.4542C70.7453 66.5133 70.7122 66.5934 70.7122 66.677C70.7122 66.7605 70.7453 66.8406 70.8044 66.8997C70.8635 66.9587 70.9436 66.9919 71.0271 66.9919H77.6109V73.5791C77.6167 73.6584 77.6523 73.7326 77.7106 73.7868C77.7689 73.8409 77.8455 73.871 77.925 73.871C78.0046 73.871 78.0812 73.8409 78.1394 73.7868C78.1977 73.7326 78.2333 73.6584 78.2391 73.5791V66.9936H84.8263C84.9023 66.9839 84.9722 66.9468 85.0229 66.8893C85.0735 66.8318 85.1014 66.7578 85.1014 66.6812C85.1014 66.6045 85.0735 66.5305 85.0229 66.473C84.9722 66.4155 84.9023 66.3784 84.8263 66.3687Z" fill="#FFD740"/>
<path d="M160.103 0.465332C144.73 0.465332 135.383 16.0077 143.561 27.8548L140.563 35.7843C140.542 35.842 140.538 35.9046 140.551 35.9647C140.565 36.0247 140.595 36.0795 140.639 36.1224C140.684 36.1653 140.739 36.1944 140.8 36.2061C140.86 36.2179 140.923 36.2118 140.98 36.1886L148.884 32.9615C161.662 41.1689 179.659 32.9379 179.66 18.3387C179.662 8.48243 170.887 0.465332 160.103 0.465332ZM149.091 32.3417C149.06 32.3149 149.022 32.2975 148.981 32.2915C148.941 32.2855 148.899 32.2913 148.862 32.308C148.473 32.4057 147.137 32.9918 141.412 35.3279C143.555 29.662 144.084 28.3315 144.201 27.9492C144.254 27.7807 144.289 27.7942 144.175 27.6258C136.152 16.23 145.133 1.09693 160.103 1.09693C170.545 1.09693 179.027 8.83276 179.027 18.3387C179.032 32.4512 161.474 40.4397 149.091 32.3417Z" fill="#FFD740"/>
<path d="M316.111 228.599C310.944 219.705 304.573 211.568 297.178 204.418C301.697 195.473 302.465 187.973 299.459 182.12C295.341 174.101 285.279 171.782 283.261 171.391C286.555 159.759 280.036 153.913 272.455 154.717C267.57 155.222 262.528 158.308 259.178 164.401C255.978 170.229 255.135 174.478 256.702 177.033C257.447 177.984 258.423 178.727 259.538 179.192C260.653 179.656 261.869 179.827 263.068 179.686C262.9 188.833 256.198 191.459 247.295 189.701C240.276 188.003 233.575 185.19 227.448 181.369C238.689 154.991 240.398 151.079 240.61 150.418C240.659 150.269 240.631 150.287 240.61 150.25C240.28 149.825 239.925 149.42 239.548 149.037C241.116 145.741 248.723 131.892 248.252 130.519C247.733 129.047 242.808 133.269 241.616 134.303C243.561 125.864 242.795 118.19 241.85 116.272C241.513 115.581 241.057 115.733 240.893 116.209C240.012 118.781 238.94 124.939 238.199 128.791C237.673 125.808 235.354 123.443 233.257 125.035C233.021 124.781 232.725 124.59 232.395 124.481C232.066 124.372 231.715 124.348 231.374 124.412C231.003 124.513 230.657 124.693 230.36 124.937C230.062 125.182 229.82 125.487 229.649 125.832C229.257 125.633 228.807 125.579 228.379 125.68C226.171 126.243 225.565 129.128 225.011 131.513C224.282 134.864 222.997 138.069 221.211 140.997L219.675 140.897C219.597 140.897 219.552 140.818 219.375 141.128C218.813 142.122 216.477 147.479 203.838 175.303C201.89 179.667 201.57 184.584 202.935 189.163C204.301 193.742 207.261 197.68 211.281 200.264C220.52 206.42 230.788 210.87 241.597 213.402C241.234 220.337 242.626 228.941 247.314 239.386L242.074 252.161C242.058 252.2 242.05 252.241 242.05 252.283C242.05 252.324 242.059 252.366 242.075 252.404C242.091 252.442 242.114 252.477 242.144 252.507C242.173 252.536 242.208 252.559 242.247 252.575C242.285 252.591 242.326 252.599 242.368 252.599C242.41 252.599 242.451 252.59 242.489 252.574C242.528 252.558 242.562 252.535 242.592 252.505C242.621 252.476 242.644 252.441 242.66 252.402L247.848 239.755C257.572 242.318 267.792 242.335 277.524 239.804C279.308 240.684 280.92 241.876 282.284 243.324C271.336 252.773 268.844 254.883 268.273 255.434C268.066 255.633 268.104 255.628 268.104 255.693C268.293 257.652 268.783 259.57 269.558 261.379C266.915 263.956 263.873 266.089 260.55 267.697C256.621 269.622 256.314 270.49 256.486 271.03C256.897 272.317 260.493 271.51 261.686 271.268C263.757 270.848 267.225 270.148 267.81 270.894C267.926 271.044 267.902 271.295 267.742 271.642C264.818 275.539 265.81 275.01 261.483 279.18C260.53 280.097 257.778 282.84 254.886 285.336C253.022 286.95 252.282 288.051 252.624 288.705C252.732 288.868 252.891 288.99 253.077 289.052C253.262 289.113 253.463 289.109 253.647 289.042C255.72 288.332 257.695 287.359 259.521 286.147C258.979 287.587 257.414 291.851 258.654 292.473C259.833 293.052 262.068 289.778 262.809 288.67C271.321 276.038 275.37 274.591 278.537 271.827C280.213 272.885 282.023 273.716 283.918 274.298C284.164 274.32 283.276 274.971 312.394 250.442C315.504 247.834 317.585 244.205 318.266 240.203C318.947 236.202 318.183 232.089 316.111 228.599ZM263.365 182.743C265.049 180.776 265.834 179.88 266.179 179.452C266.624 178.886 266.39 178.684 265.829 178.778C257.274 180.294 253.392 176.223 259.732 164.693C260.861 162.465 262.435 160.492 264.357 158.895C268.438 156.307 270.974 162.72 270.525 167.062C270.494 167.284 270.525 167.51 270.615 167.716C270.704 167.921 270.847 168.098 271.03 168.228C271.488 168.455 272.158 168.228 273.209 167.514C276.292 165.41 278.078 170.665 272.216 173.072C270.725 173.682 269.538 180.08 271.013 187.334C271.636 190.386 273.125 190.927 275.806 191.772L271.291 202.06C271.027 202.656 270.576 203.149 270.007 203.467C269.438 203.785 268.781 203.909 268.135 203.821L255.91 202.112C255.465 202.049 255.039 201.887 254.665 201.638C254.29 201.388 253.977 201.058 253.748 200.671C253.519 200.283 253.38 199.85 253.341 199.401C253.303 198.953 253.366 198.502 253.525 198.081L256.485 190.295C258.246 189.85 259.837 188.896 261.06 187.553C262.283 186.21 263.085 184.538 263.365 182.743ZM234.335 125.195C235.719 124.829 238.187 127.098 237.621 131.607C237.474 132.766 237.077 133.325 236.75 133.367C236.423 133.409 235.847 132.953 235.278 131.556C235.526 129.409 234.962 127.246 233.696 125.493C233.89 125.357 234.106 125.256 234.335 125.195ZM231.539 125.016C233.001 124.627 234.934 127.88 234.653 131.442C234.625 131.504 234.619 131.574 234.635 131.641C234.611 131.87 234.581 132.102 234.542 132.338C234.326 133.623 233.774 134.342 233.363 134.359C232.991 134.367 232.455 133.825 232.031 132.249C232.198 131.162 232.119 130.051 231.798 129C231.477 127.948 230.924 126.982 230.178 126.174C230.307 125.894 230.496 125.645 230.731 125.445C230.966 125.245 231.242 125.099 231.539 125.016ZM225.634 131.647C226.1 129.626 226.693 126.763 228.538 126.286C229.792 125.965 230.852 127.79 231.204 129.193C231.467 130.243 231.77 133.583 230.685 133.572C230.514 133.548 230.35 133.487 230.205 133.394C230.06 133.3 229.936 133.177 229.843 133.032C229.184 132.006 228.808 130.824 228.753 129.606C228.742 129.525 228.7 129.451 228.636 129.4C228.572 129.349 228.491 129.325 228.409 129.333C228.327 129.341 228.252 129.38 228.199 129.442C228.146 129.505 228.118 129.585 228.123 129.667C228.171 130.192 228.255 130.714 228.376 131.228C227.856 131.146 227.325 131.169 226.815 131.295C226.738 131.321 226.674 131.374 226.636 131.445C226.598 131.516 226.588 131.598 226.608 131.676C226.628 131.754 226.678 131.821 226.746 131.864C226.814 131.907 226.896 131.922 226.975 131.907C227.505 131.761 228.068 131.778 228.588 131.957C229.499 134.613 231.227 134.632 231.788 133.473C232.817 135.905 234.594 135.22 235.126 132.687C236.28 134.738 237.91 134.356 238.252 131.695C239.076 128.07 240.343 120.107 241.412 116.705C242.677 122.716 242.482 128.943 240.843 134.863C239.553 135.09 234.161 136.286 234.572 140.368C234.583 140.45 234.625 140.524 234.689 140.576C234.754 140.627 234.836 140.651 234.917 140.643C234.999 140.635 235.075 140.595 235.128 140.532C235.181 140.469 235.208 140.388 235.202 140.306C234.808 136.375 241.131 135.455 241.195 135.447C241.258 135.439 241.316 135.412 241.363 135.37C243.207 133.525 245.337 131.989 247.669 130.822C247.516 132.624 240.509 145.644 239.095 148.546C234.508 143.987 228.384 141.308 221.923 141.034C223.666 138.129 224.919 134.958 225.634 131.647ZM277.86 239.248C277.159 234.229 279.428 226.785 281.551 221.237L293.36 233.764L282.778 242.903C281.372 241.398 279.706 240.16 277.86 239.248ZM253.487 288.429C253.082 288.537 253.128 288.301 253.333 287.935C253.872 287.129 254.538 286.414 255.304 285.82C258.383 283.164 263.345 278.263 263.794 277.794C262.363 280.164 261.069 282.615 259.92 285.134C257.926 286.503 255.764 287.609 253.487 288.425V288.429ZM262.283 288.314C260.084 291.583 259.083 291.969 258.939 291.903C258.507 291.59 259.129 288.744 260.454 285.503C261.123 283.87 261.921 282.293 262.841 280.787C264.95 276.57 267.551 272.617 270.589 269.011C270.641 268.945 270.666 268.862 270.657 268.778C270.648 268.695 270.606 268.618 270.541 268.565C270.475 268.513 270.391 268.488 270.308 268.497C270.224 268.506 270.148 268.548 270.095 268.613C269.477 269.381 268.926 270.08 268.431 270.722C267.714 269.018 262.578 270.528 259.772 270.985C258.123 271.253 257.146 271.03 257.077 270.835C257.077 270.835 256.917 270.173 260.816 268.263C264.126 266.653 267.165 264.538 269.824 261.993C271.621 265.836 274.439 269.112 277.969 271.465C274.885 274.109 270.747 275.75 262.283 288.306V288.314ZM311.986 249.962L283.896 273.632C279.956 272.391 276.446 270.064 273.768 266.918C271.091 263.772 269.356 259.935 268.761 255.847L294.025 234.03C294.057 234.002 294.084 233.968 294.103 233.93C294.121 233.891 294.132 233.85 294.134 233.807C294.136 233.764 294.129 233.721 294.115 233.681C294.1 233.641 294.077 233.605 294.047 233.574L279.089 217.703C279.031 217.642 278.952 217.606 278.868 217.604C278.784 217.601 278.702 217.632 278.641 217.69C278.58 217.747 278.544 217.827 278.542 217.911C278.539 217.995 278.57 218.076 278.628 218.138L281.068 220.728C278.904 226.34 276.534 233.992 277.216 239.23C267.595 241.701 257.5 241.659 247.9 239.108C238.825 218.897 242.236 205.701 246.701 198.193C246.74 198.121 246.75 198.036 246.728 197.957C246.707 197.878 246.655 197.81 246.585 197.769C246.514 197.727 246.43 197.714 246.35 197.733C246.27 197.751 246.201 197.8 246.157 197.869C243.499 202.406 241.954 207.509 241.65 212.758C230.945 210.236 220.778 205.823 211.626 199.725C207.736 197.224 204.87 193.411 203.548 188.979C202.226 184.546 202.535 179.787 204.419 175.563L219.872 141.541L222.949 141.741C229.535 142.286 235.643 145.4 239.952 150.41C229.828 174.167 227.305 179.811 226.826 181.22C226.641 181.769 226.781 181.7 226.882 181.771C234.621 186.298 246.974 192.409 255.74 190.489L252.937 197.861C252.744 198.371 252.667 198.917 252.714 199.461C252.76 200.004 252.929 200.53 253.207 200.999C253.484 201.468 253.864 201.869 254.318 202.171C254.772 202.474 255.288 202.67 255.828 202.745C269.159 204.61 268.19 204.49 268.549 204.49C269.253 204.489 269.943 204.283 270.533 203.898C271.123 203.514 271.589 202.966 271.875 202.322L276.423 191.971C292.592 197.096 306.908 214.269 315.569 228.927C317.563 232.288 318.297 236.248 317.641 240.101C316.985 243.953 314.981 247.447 311.986 249.958V249.962Z" fill="#FFD740"/>
<path d="M149.606 112.122C149.503 112.093 149.408 112.043 149.325 111.976C149.242 111.908 149.174 111.825 149.125 111.73C148.956 111.334 149.207 110.598 149.879 109.5C154.156 103.419 154.417 102.594 153.991 102.163C153.564 101.732 152.71 102.257 149.857 104.201C146.24 106.667 140.762 110.392 135.506 111.637C135.226 111.674 134.949 111.725 134.675 111.79C133.502 111.014 132.258 110.35 130.96 109.806C130.909 109.784 130.853 109.776 130.798 109.783C130.743 109.789 130.691 109.81 130.647 109.843C123.158 115.42 112.056 122.927 101.596 127.104C94.8671 122.087 87.7634 117.593 80.3477 113.661C70.766 108.986 57.8763 108.226 56.2813 107.671C55.8813 107.579 55.5156 107.375 55.2272 107.083C54.9388 106.791 54.7395 106.423 54.6526 106.022C54.6044 105.279 54.7868 104.54 55.1747 103.905C57.4906 104.934 60.2494 105.5 62.3059 104.022C64.7464 102.271 65.6138 98.0197 64.8778 91.3703C64.1317 86.8699 64.6689 89.7214 62.156 77.3505C62.0903 76.7748 61.845 76.2345 61.455 75.8061C61.0649 75.3777 60.5499 75.083 59.983 74.9637C59.416 74.8445 58.8259 74.9067 58.2964 75.1416C57.7668 75.3765 57.3246 75.7722 57.0325 76.2725C56.806 75.8044 56.4522 75.4096 56.0116 75.1333C55.571 74.857 55.0615 74.7104 54.5415 74.7104C54.0214 74.7104 53.5119 74.857 53.0713 75.1333C52.6307 75.4096 52.2769 75.8044 52.0504 76.2725C51.7765 75.8033 51.3699 75.4256 50.8817 75.1869C50.3936 74.9483 49.8458 74.8593 49.3072 74.9314C48.7686 75.0034 48.2634 75.2331 47.8552 75.5917C47.4469 75.9502 47.1538 76.4215 47.0128 76.9462C46.5916 76.4832 46.0259 76.1766 45.4079 76.0765C44.79 75.9765 44.1564 76.0889 43.6106 76.3954C43.0649 76.7019 42.6391 77.1844 42.403 77.7641C42.1668 78.3439 42.1341 78.9865 42.3103 79.5872C43.5713 83.3541 44.6394 87.1829 45.5104 91.0587C46.8258 97.41 46.8427 101.986 45.5559 104.292C42.6034 108.697 38.1164 111.845 32.9694 113.123C15.4632 117.522 5.98244 139.65 1.11155 157.439C-0.079024 161.829 0.455522 166.509 2.60554 170.518C4.75555 174.526 8.35804 177.56 12.674 178.997C25.1185 183.173 38.1296 185.415 51.2538 185.647C51.3089 185.647 51.3632 185.633 51.4115 185.607C51.4598 185.58 51.5006 185.542 51.53 185.495C51.7287 185.174 51.9207 184.847 52.1043 184.518C55.6087 183.891 59.1994 183.924 62.6916 184.616C64.8441 189.669 73.0431 190.439 73.5231 186.72C75.8103 186.843 77.1729 186.147 76.8916 183.884C77.2994 183.784 77.685 183.609 78.0285 183.368C78.3174 183.104 78.5351 182.771 78.6617 182.4C78.7882 182.03 78.8196 181.633 78.7527 181.248C78.4764 179.512 77.6595 177.908 76.4184 176.663C78.882 177.278 81.4095 177.602 83.9487 177.626C85.8291 177.809 87.7225 177.45 89.4057 176.592C89.7122 176.277 89.6567 175.794 88.9341 175.634C83.2314 174.105 77.6152 172.269 72.11 170.135C73.3446 169.771 75.1265 169.038 75.0693 167.875C75.0474 167.408 73.833 167.032 72.0039 166.749L70.8586 158.449C72.6644 151.644 73.78 144.674 74.1884 137.645C79.8019 142.006 86.0544 145.474 92.7254 147.928C95.3959 148.962 98.2454 149.454 101.108 149.376C103.971 149.299 106.789 148.652 109.4 147.475C121.063 142.156 128.206 138.235 142.243 127.72C142.281 127.691 142.313 127.653 142.334 127.61C142.356 127.567 142.368 127.519 142.369 127.471C142.386 126.181 142.299 124.892 142.11 123.615C143.171 122.784 144.312 122.06 145.515 121.453C147.829 121.055 159.523 125.13 162.136 125.13C162.641 125.13 162.894 125.005 163 124.764C163.168 124.384 163.067 123.878 160.325 122.061C161.639 122.202 165.615 122.719 167.379 122.719C168.431 122.719 168.837 122.551 168.923 122.214C169.051 121.694 168.628 121.084 162.429 118.644C165.158 118.566 167.881 118.351 170.589 117.998C170.641 117.99 170.69 117.969 170.732 117.938C170.774 117.906 170.808 117.864 170.83 117.817C172.211 114.751 152.941 112.469 149.606 112.122ZM153.48 102.69C152.27 104.947 150.891 107.109 149.354 109.158C148.156 111.117 148.431 111.73 148.562 112.021C145.137 111.653 141.695 111.468 138.251 111.469C145.347 108.851 151.767 103.263 153.477 102.683L153.48 102.69ZM46.1067 104.595C49.2478 100.005 50.2196 95.1211 49.5122 94.4087C45.1332 90.0683 48.473 86.0733 50.5093 88.6131C50.9203 89.1184 51.6041 90.449 52.4563 90.3951C52.9987 90.3614 53.2715 89.8292 53.4433 89.3138C54.3343 86.5566 57.2043 82.7788 59.8284 82.8614C61.5716 82.9136 62.9106 84.7292 63.7022 88.1129L64.2563 91.4562C64.9603 97.8446 64.1822 101.899 61.9421 103.509C59.953 104.935 57.1723 104.135 55.1916 103.214C54.4935 102.899 53.8231 102.526 53.1873 102.099C52.7932 101.845 52.5641 102.028 52.5591 102.267C52.5412 103.727 53.074 105.141 54.0513 106.225C54.3343 107.66 55.7356 108.482 58.2233 108.668C54.7284 113.352 48.5286 114.162 39.3022 111.138C42.0151 109.473 44.3362 107.241 46.1067 104.595ZM88.8179 176.254C87.8815 176.853 82.9701 177.792 75.5122 175.772C74.7456 175.096 73.9048 174.508 73.006 174.02C72.9694 174.001 72.9293 173.988 72.8879 173.984C72.8465 173.98 72.8047 173.984 72.7648 173.996C72.7249 174.007 72.6878 174.027 72.6555 174.053C72.6232 174.08 72.5963 174.112 72.5766 174.148C72.5568 174.185 72.5444 174.225 72.5401 174.267C72.5358 174.308 72.5397 174.35 72.5516 174.39C72.5635 174.43 72.5831 174.467 72.6094 174.499C72.6356 174.531 72.668 174.558 72.7046 174.578C75.327 176.005 77.8955 178.684 78.1144 181.296C78.1699 181.515 78.1782 181.742 78.1386 181.964C78.0991 182.185 78.0126 182.396 77.885 182.582C77.7574 182.767 77.5917 182.923 77.3988 183.039C77.206 183.155 76.9906 183.229 76.767 183.255C75.8228 180.464 73.8091 178.162 71.1685 176.855C71.0953 176.82 71.0117 176.815 70.9348 176.84C70.8578 176.866 70.7935 176.919 70.7549 176.99C70.7163 177.062 70.7064 177.145 70.7273 177.223C70.7481 177.301 70.7981 177.368 70.867 177.411C72.2235 178.042 73.417 178.975 74.3556 180.14C75.2941 181.305 75.9526 182.67 76.2802 184.129C76.334 184.411 76.3177 184.701 76.2328 184.975C76.1479 185.249 75.9971 185.497 75.7935 185.699C75.0999 186.051 74.3164 186.186 73.545 186.087C73.3766 183.457 70.7744 181.012 68.4063 179.624C68.3704 179.603 68.3306 179.589 68.2893 179.583C68.248 179.578 68.206 179.58 68.1657 179.59C68.1253 179.601 68.0874 179.619 68.0542 179.644C68.0209 179.669 67.9929 179.701 67.9718 179.737C67.9507 179.773 67.9368 179.813 67.9311 179.854C67.9253 179.895 67.9277 179.937 67.9382 179.978C67.9487 180.018 67.967 180.056 67.9921 180.089C68.0173 180.122 68.0487 180.15 68.0846 180.171C71.3875 182.107 72.7399 184.449 72.9016 185.997C72.9572 186.3 72.9404 186.612 72.8526 186.907C72.7648 187.202 72.6085 187.472 72.3963 187.695C70.7458 189.211 65.3308 188.369 63.4697 184.78C65.1546 185.132 66.7979 185.661 68.3726 186.356C68.4367 186.41 68.5198 186.437 68.6035 186.43C68.6872 186.423 68.7647 186.383 68.819 186.319C68.8732 186.255 68.8998 186.172 68.8929 186.088C68.8859 186.004 68.846 185.927 68.7819 185.873C66.9181 185.059 64.9739 184.443 62.9813 184.035C59.5247 183.349 55.9748 183.272 52.4917 183.808C55.1926 178.451 56.0391 172.349 54.8985 166.46C59.9463 166.909 64.9066 168.061 69.6358 169.882C75.9063 172.361 82.3103 174.488 88.8179 176.254ZM71.0708 169.744C67.4742 168.245 63.7247 167.143 59.889 166.458C62.2335 166.546 73.4288 167.096 74.4292 167.955C74.377 168.698 72.4957 169.429 71.0708 169.744ZM54.7739 165.746C54.7267 165.485 54.6762 165.219 54.6223 164.954C54.6088 164.886 54.5733 164.824 54.5213 164.778C54.4692 164.732 54.4035 164.705 54.3343 164.7C47.2306 164.119 40.1754 163.05 33.2187 161.5C33.996 160.611 34.9048 159.846 35.9135 159.233C47.188 161.085 59.2726 161.538 70.2725 158.815L71.3487 166.64C65.8433 166.058 60.3116 165.76 54.7756 165.746H54.7739ZM25.3734 159.607C27.0798 154.878 29.1989 150.308 31.7062 145.951L35.4756 158.763C34.3552 159.458 33.3571 160.333 32.5214 161.353C28.8665 160.543 26.2694 159.849 25.3734 159.607ZM109.135 146.894C106.601 148.037 103.865 148.665 101.087 148.741C98.3078 148.817 95.5417 148.339 92.9494 147.335C87.7772 145.413 82.8479 142.891 78.2626 139.821L73.9307 125.674C73.8448 125.399 73.3833 125.254 73.3176 125.95C73.1121 128.183 75.4684 138.045 70.2859 158.173C60.593 160.6 49.0945 160.754 36.0954 158.633L34.0187 151.559C34.3842 144.61 34.5728 142.23 34.5526 141.391C34.5375 140.731 34.1012 140.84 33.9783 141.036C30.1263 146.857 26.9964 153.126 24.6576 159.703C24.6416 159.744 24.6344 159.787 24.6364 159.831C24.6384 159.875 24.6497 159.918 24.6693 159.958C24.689 159.997 24.7167 160.032 24.7507 160.06C24.7846 160.088 24.824 160.108 24.8664 160.12C34.4212 162.711 44.1874 164.449 54.0496 165.311C55.641 172.009 54.5793 179.064 51.087 184.997C38.1046 184.582 25.2436 182.358 12.8761 178.388C8.7163 177.002 5.24395 174.077 3.17038 170.214C1.09681 166.35 0.578969 161.84 1.72294 157.607C5.67422 143.18 15.0084 118.297 33.1193 113.732C35.0227 113.257 36.8539 112.529 38.5645 111.568C46.0376 114.094 54.3966 115.223 58.9323 108.762C65.6172 109.646 73.8111 111.179 80.0682 114.231C87.4975 118.178 94.6146 122.686 101.357 127.717C101.401 127.749 101.452 127.77 101.506 127.777C101.56 127.785 101.615 127.778 101.665 127.759C112.169 123.595 123.32 116.078 130.877 110.461C138.12 113.594 141.773 119.26 141.739 127.304C127.831 137.714 120.73 141.607 109.135 146.894ZM162.366 124.493C161.11 124.778 152.513 121.978 148.277 121.124C151.827 121.165 155.371 121.426 158.888 121.904C160.184 122.569 161.362 123.442 162.373 124.49L162.366 124.493ZM147.705 120.508C151.995 119.338 156.419 118.734 160.866 118.711C166.365 120.828 167.871 121.687 168.224 122.032C166.461 122.507 153.822 120.201 147.705 120.508ZM144.975 120.97C143.934 121.545 142.939 122.197 141.997 122.922C141.28 118.646 138.906 114.826 135.389 112.291C142.238 111.164 167.896 114.564 170.166 117.279C170.199 117.317 170.226 117.359 170.247 117.404C163.395 118.399 151.25 117.599 144.976 120.97H144.975Z" fill="#FFD740"/>
<path d="M47.9258 171.125C48.2772 171.125 48.6205 171.02 48.9125 170.825C49.2045 170.629 49.432 170.352 49.5662 170.027C49.7005 169.702 49.7354 169.345 49.6667 169C49.5979 168.656 49.4285 168.339 49.18 168.091C48.9314 167.843 48.6148 167.674 48.2702 167.605C47.9255 167.537 47.5683 167.572 47.2437 167.707C46.9192 167.841 46.6417 168.069 46.4466 168.361C46.2514 168.653 46.1472 168.997 46.1472 169.348C46.147 169.582 46.1929 169.813 46.2822 170.029C46.3715 170.245 46.5025 170.441 46.6678 170.606C46.833 170.771 47.0292 170.902 47.245 170.991C47.4609 171.08 47.6923 171.126 47.9258 171.125Z" fill="#FFD740"/>
<path d="M21.961 173.761C21.6095 173.761 21.2659 173.865 20.9736 174.061C20.6814 174.256 20.4536 174.534 20.3192 174.858C20.1847 175.183 20.1496 175.54 20.2183 175.885C20.287 176.23 20.4565 176.546 20.7051 176.795C20.9538 177.043 21.2706 177.212 21.6154 177.281C21.9602 177.349 22.3175 177.314 22.6421 177.179C22.9668 177.044 23.2442 176.816 23.4392 176.524C23.6343 176.231 23.7382 175.888 23.7379 175.536C23.7379 175.303 23.6919 175.072 23.6026 174.856C23.5133 174.641 23.3824 174.445 23.2173 174.28C23.0523 174.115 22.8564 173.985 22.6408 173.896C22.4253 173.807 22.1942 173.761 21.961 173.761Z" fill="#FFD740"/>
<path d="M9.3123 149.822C8.96086 149.822 8.61732 149.926 8.32511 150.122C8.0329 150.317 7.80515 150.594 7.67066 150.919C7.53617 151.244 7.50098 151.601 7.56954 151.946C7.63811 152.291 7.80734 152.607 8.05584 152.856C8.30435 153.104 8.62096 153.273 8.96564 153.342C9.31033 153.41 9.6676 153.375 9.99229 153.241C10.317 153.106 10.5945 152.879 10.7897 152.586C10.985 152.294 11.0892 151.951 11.0892 151.599C11.0892 151.128 10.902 150.676 10.5688 150.343C10.2355 150.009 9.78356 149.822 9.3123 149.822Z" fill="#FFD740"/>
<path d="M30.8672 134.649C30.5158 134.649 30.1722 134.753 29.88 134.948C29.5878 135.144 29.3601 135.421 29.2256 135.746C29.0911 136.071 29.0559 136.428 29.1245 136.772C29.193 137.117 29.3623 137.434 29.6108 137.682C29.8593 137.931 30.1759 138.1 30.5206 138.169C30.8653 138.237 31.2225 138.202 31.5472 138.067C31.8719 137.933 32.1494 137.705 32.3447 137.413C32.5399 137.121 32.6441 136.777 32.6441 136.426C32.6441 135.955 32.4569 135.503 32.1237 135.169C31.7905 134.836 31.3385 134.649 30.8672 134.649Z" fill="#FFD740"/>
<path d="M39.1355 113.884C38.7844 113.884 38.4412 113.988 38.1492 114.183C37.8572 114.378 37.6294 114.655 37.4947 114.979C37.36 115.303 37.3243 115.66 37.3922 116.004C37.4601 116.349 37.6285 116.665 37.8761 116.914C38.1238 117.163 38.4396 117.333 38.7837 117.402C39.1279 117.472 39.4849 117.438 39.8097 117.305C40.1345 117.172 40.4126 116.945 40.6089 116.654C40.8051 116.363 40.9108 116.02 40.9124 115.669C40.9135 115.435 40.8684 115.203 40.7796 114.987C40.6908 114.77 40.5601 114.573 40.395 114.407C40.2299 114.241 40.0336 114.11 39.8175 114.02C39.6013 113.93 39.3696 113.884 39.1355 113.884Z" fill="#FFD740"/>
<path d="M57.0342 131.838C56.6828 131.838 56.3392 131.942 56.047 132.137C55.7548 132.332 55.5271 132.61 55.3926 132.935C55.2581 133.259 55.2229 133.617 55.2915 133.961C55.36 134.306 55.5293 134.622 55.7778 134.871C56.0263 135.12 56.3429 135.289 56.6876 135.357C57.0323 135.426 57.3895 135.391 57.7142 135.256C58.0389 135.122 58.3164 134.894 58.5117 134.602C58.7069 134.31 58.8111 133.966 58.8111 133.615C58.8111 133.381 58.7652 133.15 58.6759 132.935C58.5866 132.719 58.4557 132.523 58.2907 132.358C58.1257 132.193 57.9298 132.062 57.7142 131.973C57.4986 131.884 57.2676 131.838 57.0342 131.838Z" fill="#FFD740"/>
<path d="M42.5091 148.047C42.1579 148.048 41.8147 148.153 41.5232 148.349C41.2316 148.545 41.0046 148.823 40.871 149.148C40.7373 149.473 40.7029 149.83 40.7722 150.174C40.8415 150.519 41.0113 150.835 41.2601 151.083C41.509 151.331 41.8258 151.499 42.1704 151.567C42.5151 151.635 42.8722 151.6 43.1965 151.465C43.5209 151.33 43.798 151.102 43.9928 150.809C44.1876 150.517 44.2914 150.174 44.2911 149.822C44.2911 149.589 44.245 149.357 44.1553 149.141C44.0657 148.926 43.9343 148.73 43.7688 148.565C43.6032 148.4 43.4067 148.269 43.1906 148.18C42.9744 148.092 42.7428 148.046 42.5091 148.047Z" fill="#FFD740"/>
<path d="M83.1973 134.649C82.8459 134.649 82.5023 134.753 82.2101 134.948C81.9179 135.144 81.6902 135.421 81.5557 135.746C81.4212 136.071 81.386 136.428 81.4546 136.772C81.5231 137.117 81.6923 137.434 81.9409 137.682C82.1894 137.931 82.506 138.1 82.8506 138.169C83.1953 138.237 83.5526 138.202 83.8773 138.067C84.202 137.933 84.4795 137.705 84.6747 137.413C84.87 137.121 84.9742 136.777 84.9742 136.426C84.9742 135.955 84.787 135.503 84.4538 135.169C84.1205 134.836 83.6686 134.649 83.1973 134.649Z" fill="#FFD740"/>
<path d="M100.421 129.721C100.069 129.721 99.726 129.825 99.4339 130.02C99.1417 130.215 98.914 130.492 98.7794 130.817C98.6448 131.141 98.6094 131.498 98.6777 131.843C98.746 132.188 98.9149 132.504 99.1631 132.753C99.4112 133.002 99.7275 133.171 100.072 133.24C100.416 133.309 100.774 133.274 101.098 133.14C101.423 133.006 101.701 132.779 101.897 132.487C102.092 132.195 102.197 131.852 102.198 131.501C102.198 131.267 102.152 131.036 102.063 130.82C101.974 130.604 101.843 130.408 101.678 130.242C101.513 130.077 101.317 129.946 101.101 129.856C100.886 129.767 100.654 129.721 100.421 129.721Z" fill="#FFD740"/>
<path d="M122.104 133.608C121.753 133.608 121.409 133.712 121.117 133.908C120.825 134.103 120.597 134.38 120.462 134.705C120.328 135.03 120.293 135.387 120.361 135.732C120.43 136.076 120.599 136.393 120.848 136.642C121.096 136.89 121.413 137.059 121.757 137.128C122.102 137.196 122.459 137.161 122.784 137.027C123.109 136.892 123.386 136.664 123.581 136.372C123.777 136.08 123.881 135.736 123.881 135.385C123.881 135.152 123.835 134.921 123.746 134.705C123.656 134.489 123.525 134.294 123.36 134.129C123.195 133.964 123 133.833 122.784 133.743C122.568 133.654 122.337 133.608 122.104 133.608Z" fill="#FFD740"/>
<path d="M131.593 114.337C131.242 114.337 130.898 114.441 130.606 114.637C130.314 114.832 130.087 115.11 129.953 115.435C129.818 115.759 129.783 116.117 129.852 116.461C129.921 116.806 130.09 117.122 130.339 117.371C130.587 117.619 130.904 117.788 131.249 117.856C131.593 117.925 131.951 117.89 132.275 117.755C132.6 117.62 132.877 117.393 133.072 117.101C133.268 116.808 133.372 116.465 133.372 116.114C133.372 115.88 133.326 115.649 133.236 115.433C133.147 115.217 133.016 115.022 132.851 114.857C132.685 114.691 132.489 114.561 132.274 114.471C132.058 114.382 131.827 114.336 131.593 114.337Z" fill="#FFD740"/>
<path d="M65.7957 151.599C65.4444 151.6 65.101 151.704 64.809 151.9C64.517 152.095 64.2895 152.373 64.1553 152.697C64.0211 153.022 63.9861 153.379 64.0549 153.724C64.1236 154.069 64.293 154.385 64.5415 154.633C64.7901 154.882 65.1067 155.051 65.4514 155.119C65.796 155.188 66.1532 155.152 66.4778 155.018C66.8024 154.883 67.0798 154.655 67.275 154.363C67.4701 154.071 67.5743 153.728 67.5743 153.376C67.5743 153.143 67.5283 152.912 67.4389 152.696C67.3495 152.48 67.2185 152.284 67.0533 152.119C66.8881 151.954 66.692 151.823 66.4762 151.734C66.2605 151.645 66.0292 151.599 65.7957 151.599Z" fill="#FFD740"/>
<path d="M69.3497 113.223C68.9981 113.224 68.6545 113.328 68.3624 113.524C68.0703 113.72 67.8428 113.998 67.7088 114.323C67.5747 114.648 67.54 115.005 67.6092 115.35C67.6783 115.695 67.8482 116.011 68.0973 116.259C68.3464 116.507 68.6635 116.676 69.0084 116.744C69.3534 116.812 69.7107 116.776 70.0352 116.64C70.3597 116.505 70.6368 116.276 70.8314 115.984C71.0259 115.691 71.1293 115.347 71.1283 114.995C71.1278 114.762 71.0815 114.531 70.9918 114.316C70.9022 114.101 70.7711 113.905 70.6059 113.741C70.4408 113.576 70.2448 113.446 70.0293 113.357C69.8137 113.268 69.5828 113.223 69.3497 113.223Z" fill="#FFD740"/>
</svg>
