<svg width="369" height="335" viewBox="0 0 369 335" fill="none" xmlns="http://www.w3.org/2000/svg">
<path d="M324.982 247.029C326.976 248.278 329.044 249.406 331.174 250.405C331.508 250.405 331.029 251.054 337.717 238.979C337.763 238.894 337.774 238.795 337.747 238.703C337.72 238.61 337.658 238.532 337.574 238.486C331.062 234.879 331.491 235.063 331.282 235.123C331.073 235.183 331.475 234.543 324.839 246.534C324.793 246.619 324.782 246.718 324.809 246.811C324.836 246.903 324.898 246.982 324.982 247.029ZM331.523 235.965L336.905 238.946L331.033 249.55L325.651 246.569L331.523 235.965Z" fill="url(#paint0_linear_90_344)"/>
<path d="M317.263 242.742C319.255 243.996 321.323 245.125 323.456 246.12C323.789 246.12 323.309 246.771 329.997 234.694C330.044 234.61 330.055 234.511 330.029 234.418C330.002 234.326 329.94 234.248 329.856 234.201L323.839 230.869C323.797 230.845 323.751 230.831 323.704 230.825C323.657 230.82 323.609 230.824 323.563 230.837C323.517 230.85 323.475 230.872 323.437 230.902C323.4 230.931 323.369 230.968 323.346 231.01L317.12 242.249C317.074 242.333 317.063 242.433 317.09 242.525C317.116 242.617 317.179 242.695 317.263 242.742Z" fill="url(#paint1_linear_90_344)"/>
<path d="M309.543 238.468C311.535 239.721 313.604 240.849 315.736 241.845C316.069 241.845 315.615 242.51 322.278 230.42C322.324 230.336 322.335 230.237 322.309 230.144C322.282 230.052 322.221 229.973 322.137 229.926C315.584 226.298 316.051 226.505 315.843 226.561C315.634 226.617 316.026 226.01 309.402 237.974C309.379 238.016 309.364 238.062 309.358 238.109C309.353 238.156 309.357 238.205 309.37 238.25C309.383 238.296 309.405 238.339 309.435 238.377C309.464 238.414 309.501 238.445 309.543 238.468ZM316.084 227.405L321.466 230.386L315.593 240.988L310.213 238.009L316.084 227.405Z" fill="url(#paint2_linear_90_344)"/>
<path d="M353.486 204.959C353.484 204.862 353.443 204.771 353.373 204.704C353.303 204.638 353.21 204.601 353.114 204.603L283.098 206.118C276.58 200.226 268.995 195.636 260.751 192.595C260.662 192.569 260.567 192.578 260.484 192.62C260.402 192.662 260.338 192.733 260.306 192.82C260.274 192.907 260.277 193.002 260.312 193.088C260.348 193.173 260.415 193.241 260.5 193.279C272.12 197.557 282.364 204.903 290.145 214.537C297.925 224.17 302.951 235.731 304.688 247.991C306.425 260.251 304.809 272.753 300.011 284.168C295.213 295.584 287.413 305.487 277.439 312.825C267.465 320.163 255.69 324.663 243.363 325.846C231.037 327.028 218.621 324.851 207.433 319.543C196.246 314.236 186.705 305.997 179.823 295.703C172.942 285.408 168.978 273.441 168.352 261.075C168.349 261.027 168.338 260.98 168.317 260.937C168.297 260.894 168.268 260.855 168.232 260.823C168.197 260.791 168.156 260.766 168.111 260.75C168.066 260.734 168.018 260.727 167.97 260.73C167.923 260.732 167.876 260.744 167.833 260.764C167.79 260.785 167.751 260.814 167.719 260.849C167.687 260.885 167.662 260.926 167.646 260.971C167.63 261.016 167.623 261.064 167.625 261.111C168.122 270.921 170.699 280.513 175.186 289.25C179.673 297.988 185.967 305.671 193.65 311.79C201.334 317.909 210.23 322.323 219.751 324.741C229.271 327.158 239.196 327.523 248.868 325.811C258.54 324.099 267.737 320.35 275.849 314.812C283.961 309.273 290.802 302.073 295.918 293.689C301.034 285.305 304.309 275.928 305.524 266.181C306.74 256.434 305.868 246.541 302.967 237.157C333.467 254.049 332.29 253.452 332.485 253.452C332.795 253.452 332.099 254.543 341.007 238.451C341.053 238.367 341.065 238.267 341.038 238.175C341.012 238.082 340.95 238.004 340.866 237.956L314.058 223.11C356.092 222.202 353.568 222.338 353.753 222.144C353.938 221.951 353.855 222.88 353.486 204.959ZM297.031 223.481L305.214 223.305L300.821 231.236C299.718 228.575 298.452 225.986 297.031 223.481ZM301.173 232.103L306.054 223.286L307.464 223.257L301.744 233.587C301.559 233.088 301.377 232.596 301.173 232.103ZM308.305 223.238C308.656 223.238 307.975 222.913 313.747 226.11L307.874 236.712L302.494 233.733L308.305 223.238ZM340.193 238.422L332.341 252.598L302.643 236.15C302.438 235.528 302.224 234.909 302.001 234.292L307.841 237.526C307.926 237.572 308.025 237.583 308.118 237.556C308.211 237.529 308.289 237.467 308.336 237.383L314.558 226.145C314.581 226.104 314.596 226.058 314.602 226.01C314.607 225.963 314.603 225.915 314.59 225.869C314.577 225.823 314.555 225.78 314.525 225.742C314.496 225.705 314.459 225.674 314.417 225.651L309.995 223.201L312.611 223.145L340.193 238.422ZM296.617 222.765C293.169 216.858 288.874 211.489 283.867 206.829L352.764 205.34L353.114 221.544L296.617 222.765Z" fill="url(#paint3_linear_90_344)"/>
<path d="M350.531 206.705C343.507 206.798 343.586 206.771 343.401 206.964C343.215 207.157 343.302 206.557 343.578 220.068C343.58 220.163 343.619 220.253 343.687 220.32C343.755 220.386 343.846 220.423 343.941 220.423L350.824 220.276C350.921 220.274 351.013 220.233 351.079 220.163C351.146 220.093 351.182 220 351.18 219.904L350.902 207.061C350.897 206.965 350.856 206.876 350.787 206.809C350.718 206.743 350.626 206.706 350.531 206.705Z" fill="url(#paint4_linear_90_344)"/>
<path d="M341.969 206.997C341.776 206.804 341.957 206.883 334.833 207.043C334.785 207.044 334.738 207.055 334.694 207.074C334.65 207.093 334.611 207.121 334.578 207.155C334.545 207.19 334.519 207.23 334.502 207.275C334.484 207.319 334.476 207.367 334.477 207.414L334.755 220.259C334.757 220.354 334.796 220.444 334.864 220.511C334.932 220.577 335.024 220.615 335.119 220.615L342.002 220.466C342.049 220.465 342.096 220.454 342.14 220.435C342.184 220.416 342.223 220.388 342.256 220.354C342.289 220.32 342.315 220.279 342.332 220.234C342.35 220.19 342.358 220.143 342.357 220.095C342.079 206.576 342.162 207.179 341.969 206.997Z" fill="url(#paint5_linear_90_344)"/>
<path d="M333.146 207.186C332.953 206.993 333.218 207.09 326.01 207.235C325.963 207.236 325.916 207.246 325.872 207.265C325.828 207.284 325.789 207.312 325.756 207.346C325.723 207.381 325.697 207.421 325.68 207.466C325.662 207.51 325.654 207.558 325.655 207.606L325.933 220.448C325.935 220.543 325.974 220.634 326.042 220.7C326.11 220.767 326.201 220.804 326.296 220.804L333.181 220.657C333.277 220.654 333.369 220.614 333.435 220.545C333.502 220.475 333.538 220.382 333.537 220.286C333.253 206.783 333.34 207.372 333.146 207.186ZM326.652 220.072L326.391 207.953L332.54 207.82L332.803 219.938L326.652 220.072Z" fill="url(#paint6_linear_90_344)"/>
<path d="M324.065 207.277C317.042 207.428 317.124 207.341 316.934 207.536C316.745 207.731 316.805 207.113 317.11 220.641C317.113 220.736 317.152 220.826 317.22 220.893C317.287 220.959 317.378 220.996 317.473 220.997L324.358 220.846C324.454 220.844 324.546 220.804 324.612 220.735C324.679 220.666 324.715 220.573 324.714 220.477L324.436 207.633C324.428 207.538 324.386 207.45 324.318 207.384C324.249 207.319 324.159 207.281 324.065 207.277ZM317.831 220.261L317.568 208.144L323.717 208.011L323.98 220.128L317.831 220.261Z" fill="url(#paint7_linear_90_344)"/>
<path d="M315.501 207.567C315.308 207.374 315.501 207.455 308.367 207.615C308.271 207.618 308.179 207.658 308.113 207.728C308.046 207.797 308.01 207.89 308.011 207.986L308.289 220.831C308.291 220.926 308.331 221.016 308.399 221.083C308.466 221.149 308.558 221.186 308.653 221.186L315.536 221.038C315.632 221.036 315.724 220.995 315.791 220.926C315.858 220.856 315.895 220.763 315.893 220.667C315.613 207.163 315.696 207.754 315.501 207.567ZM309.008 220.452L308.745 208.334L314.896 208.203L315.157 220.319L309.008 220.452Z" fill="url(#paint8_linear_90_344)"/>
<path d="M233.089 231.937C232.896 231.937 232.859 231.883 220.007 227.107C219.917 227.074 219.843 227.006 219.803 226.918C219.763 226.83 219.759 226.73 219.792 226.64C219.826 226.549 219.894 226.476 219.982 226.436C220.07 226.396 220.17 226.392 220.26 226.425L233.217 231.238C233.294 231.269 233.358 231.326 233.398 231.399C233.438 231.472 233.452 231.557 233.437 231.639C233.422 231.721 233.379 231.795 233.316 231.85C233.253 231.904 233.173 231.935 233.089 231.937Z" fill="url(#paint9_linear_90_344)"/>
<path d="M179.402 211.249C115.134 187.426 119.461 188.925 119.251 189.033C119.04 189.141 119.299 188.594 116.419 196.351C116.188 195.896 115.832 195.517 115.393 195.257L95.4738 183.394C94.8838 183.044 94.1821 182.933 93.513 183.085L65.1326 186.813C65.1652 186.721 65.1619 186.62 65.1232 186.531C65.0845 186.441 65.0133 186.37 64.9239 186.33L63.6683 185.863L111.174 144.278C111.798 144.851 112.617 145.164 113.464 145.151C114.311 145.138 115.121 144.801 115.728 144.21C116.334 143.618 116.691 142.817 116.725 141.971C116.759 141.124 116.467 140.297 115.91 139.659C115.353 139.021 114.573 138.62 113.729 138.54C112.886 138.46 112.044 138.705 111.376 139.226C110.708 139.748 110.266 140.505 110.139 141.342C110.012 142.18 110.211 143.034 110.695 143.73L62.8897 185.569C60.2702 184.603 59.2521 184.202 58.8194 184.059C58.5161 183.96 58.3731 183.927 58.2398 184.252C58.0466 184.683 57.5676 186.035 55.9216 190.451C55.8885 190.541 55.8924 190.641 55.9326 190.729C55.9727 190.816 56.0459 190.885 56.1361 190.918L56.592 191.087L6.4418 234.974C5.80065 234.419 4.97144 234.131 4.12462 234.169C3.2778 234.207 2.47771 234.568 1.88882 235.178C1.29993 235.788 0.966982 236.6 0.958421 237.448C0.949861 238.295 1.26634 239.114 1.84279 239.735C2.41925 240.357 3.21188 240.734 4.05776 240.789C4.90365 240.844 5.7385 240.573 6.39072 240.032C7.04293 239.49 7.46295 238.72 7.56443 237.878C7.66592 237.036 7.44115 236.188 6.93635 235.507L57.357 191.376C61.6476 192.968 62.2831 193.252 62.4783 193.252C62.5524 193.252 62.6247 193.229 62.6858 193.187C62.7468 193.145 62.7937 193.086 62.8202 193.016L62.8356 192.97L81.8487 214.5C82.2634 215.055 82.8754 215.43 83.5583 215.547L106.377 219.548C106.874 219.636 107.387 219.583 107.855 219.394L105.042 226.966C105.025 227.011 105.017 227.059 105.019 227.106C105.02 227.154 105.031 227.201 105.051 227.244C105.071 227.288 105.099 227.327 105.134 227.36C105.169 227.392 105.21 227.417 105.255 227.434C151.609 244.66 150.266 244.198 150.459 244.198C150.544 244.198 150.627 244.168 150.692 244.114C150.757 244.059 150.801 243.984 150.817 243.9C150.832 243.816 150.817 243.73 150.775 243.656C150.733 243.582 150.666 243.525 150.587 243.495L105.846 226.881C105.846 226.881 108.956 218.94 112.851 208.446C159.309 225.699 158.679 225.514 158.872 225.514C158.957 225.512 159.039 225.482 159.103 225.427C159.168 225.372 159.211 225.297 159.226 225.214C159.241 225.13 159.227 225.044 159.186 224.97C159.144 224.897 159.079 224.839 159 224.808L113.102 207.764C116.822 197.732 119.608 189.821 119.608 189.821L179.141 211.933C179.232 211.967 179.333 211.965 179.421 211.925C179.51 211.885 179.579 211.812 179.613 211.721C179.648 211.631 179.645 211.53 179.606 211.441C179.566 211.353 179.493 211.284 179.402 211.249ZM63.0346 190.356L60.5831 189.373C60.5071 189.344 60.4235 189.341 60.3456 189.364C60.2676 189.388 60.1998 189.437 60.1529 189.504C60.1061 189.57 60.0828 189.651 60.0869 189.732C60.091 189.813 60.1222 189.891 60.1755 189.953L62.3005 192.35L62.2735 192.423L56.7291 190.364L58.7827 184.824L64.327 186.883L64.3135 186.92C62.428 187.167 61.6978 187.244 61.3887 187.306C61.3049 187.309 61.2249 187.342 61.1622 187.397C61.0995 187.453 61.0581 187.529 61.0449 187.612C61.0317 187.695 61.0475 187.779 61.0898 187.852C61.132 187.924 61.1981 187.98 61.2767 188.009L63.5948 188.828L63.0346 190.356ZM96.3644 201.841C96.3099 202.049 96.2126 202.243 96.0788 202.411C95.9449 202.579 95.7775 202.718 95.5872 202.818C95.3968 202.918 95.1878 202.977 94.9733 202.991C94.7589 203.005 94.5438 202.975 94.3418 202.902L63.7108 190.619L64.2903 189.058L95.3154 199.971C95.6885 200.101 96.0012 200.363 96.1944 200.707C96.3877 201.052 96.4481 201.455 96.3644 201.841Z" fill="url(#paint10_linear_90_344)"/>
<path d="M286.116 254.81C286.023 254.607 286.682 254.904 274.096 250.231C275.3 246.994 275.296 247.14 275.207 246.938C275.118 246.735 276.863 247.351 248.911 237.06C248.821 237.027 248.721 237.03 248.633 237.07C248.545 237.111 248.477 237.184 248.444 237.275C248.41 237.365 248.414 237.465 248.454 237.553C248.494 237.64 248.568 237.708 248.658 237.742L274.409 247.305L267.764 265.187L236.503 253.577C236.413 253.544 236.313 253.547 236.225 253.588C236.137 253.628 236.069 253.701 236.036 253.792C236.002 253.882 236.006 253.982 236.046 254.07C236.086 254.157 236.16 254.226 236.25 254.259L267.509 265.869L260.645 284.355L172.409 251.595C172.318 251.562 172.218 251.565 172.131 251.606C172.043 251.646 171.975 251.719 171.941 251.81C171.908 251.9 171.912 252 171.952 252.088C171.992 252.175 172.065 252.244 172.156 252.277C262.565 285.794 260.659 285.193 260.852 285.193C260.926 285.194 260.999 285.171 261.06 285.128C261.121 285.086 261.168 285.026 261.194 284.956L262.378 281.764C273.072 285.734 274.125 286.173 274.32 286.173C274.395 286.173 274.467 286.151 274.528 286.109C274.59 286.067 274.636 286.007 274.662 285.937C286.899 253.114 286.205 255.018 286.116 254.81Z" fill="url(#paint11_linear_90_344)"/>
<path d="M234.019 253.44L232.417 252.845C232.327 252.812 232.253 252.744 232.213 252.656C232.173 252.568 232.169 252.468 232.203 252.378C232.236 252.287 232.304 252.214 232.392 252.174C232.48 252.133 232.58 252.13 232.67 252.163L234.272 252.758C234.362 252.792 234.435 252.86 234.476 252.948C234.516 253.035 234.52 253.135 234.486 253.226C234.453 253.316 234.384 253.39 234.297 253.43C234.209 253.47 234.109 253.474 234.019 253.44Z" fill="url(#paint12_linear_90_344)"/>
<path d="M229.95 251.93L227.149 250.888C227.065 250.851 226.998 250.783 226.962 250.698C226.926 250.613 226.924 250.517 226.956 250.43C226.988 250.344 227.051 250.273 227.134 250.231C227.217 250.19 227.312 250.182 227.4 250.208L230.203 251.248C230.294 251.281 230.367 251.349 230.407 251.437C230.448 251.525 230.451 251.625 230.418 251.715C230.384 251.806 230.316 251.879 230.228 251.919C230.141 251.959 230.041 251.963 229.95 251.93Z" fill="url(#paint13_linear_90_344)"/>
<path d="M226.724 250.699C226.53 250.699 227.784 251.133 186.795 235.895C186.704 235.862 186.631 235.794 186.591 235.706C186.551 235.618 186.547 235.518 186.58 235.428C186.614 235.337 186.682 235.264 186.77 235.224C186.857 235.183 186.957 235.18 187.048 235.213L226.843 249.996C226.923 250.025 226.989 250.082 227.031 250.155C227.073 250.228 227.088 250.313 227.074 250.397C227.06 250.48 227.017 250.556 226.953 250.611C226.889 250.666 226.808 250.697 226.724 250.699Z" fill="url(#paint14_linear_90_344)"/>
<path d="M260.626 192.937C259.892 190.863 251.14 172.276 248.262 167.039C244.157 159.561 240.784 159.269 237.504 156.188C237.484 156.161 237.466 156.131 237.45 156.101C234.606 155.834 231.854 154.953 229.382 153.52C229.045 153.715 228.685 153.868 228.31 153.976C229.189 155.419 226.815 157.322 224.877 157.614C226.479 157.463 225.793 160.255 223.39 160.674C222.864 160.689 218.721 160.815 216.812 160.85C214.511 166.502 210.91 161.74 210.91 152.9C210.863 150.367 211.232 147.843 212.004 145.43C212.583 143.807 213.356 142.743 214.212 142.532L188.538 144.638C185.985 144.848 183.574 145.901 181.686 147.633C179.798 149.364 178.54 151.675 178.11 154.201C177.68 156.726 178.103 159.323 179.312 161.581C180.521 163.84 182.448 165.632 184.788 166.674L201.829 174.297L199.735 184.511L231.65 199.594L240.84 179.708V191.568L244.897 198.862L234.562 227.239C239.676 230.941 245.777 233.036 252.087 233.254L260.794 206.626C262.247 202.169 262.188 197.357 260.626 192.937Z" fill="#FFD740"/>
<path d="M367.65 157.139C361.94 157.318 358.633 150.628 351.703 154.048C347.772 152.762 343.752 151.765 339.676 151.065C333.907 150.104 328.08 149.523 322.235 149.326C313.656 149.133 313.436 150.485 313.362 150.928C313.289 151.37 313.067 152.73 321.26 155.276C326.862 156.956 332.57 158.264 338.345 159.194C342.437 159.819 346.569 160.157 350.708 160.208C355.719 164.972 363.414 162.971 367.946 157.749C367.995 157.695 368.027 157.628 368.038 157.556C368.048 157.483 368.037 157.409 368.005 157.344C367.973 157.278 367.922 157.223 367.859 157.187C367.796 157.15 367.723 157.133 367.65 157.139ZM321.48 154.575C315.476 152.709 314.015 151.446 314.083 151.036C314.15 150.626 315.935 149.894 322.224 150.045C328.422 150.259 334.598 150.904 340.707 151.977L339.614 158.651C333.478 157.715 327.415 156.353 321.468 154.575H321.48ZM340.334 158.75L341.422 152.106C344.769 152.783 348.076 153.644 351.328 154.685L350.546 159.468C347.13 159.416 343.72 159.174 340.331 158.744L340.334 158.75Z" fill="url(#paint15_linear_90_344)"/>
<path d="M330.428 85.9721C328.647 79.7121 324.641 74.3183 319.162 70.8048C313.684 67.2914 307.11 65.9004 300.678 66.8934C295.46 67.6604 290.71 70.3324 287.346 74.3941C283.981 78.4557 282.24 83.6194 282.457 88.8892L273.721 95.3801C273.664 95.4223 273.621 95.4801 273.597 95.5466C273.572 95.613 273.568 95.6851 273.584 95.7541C273.6 95.8231 273.635 95.8859 273.687 95.9347C273.738 95.9836 273.802 96.0164 273.872 96.0292L284.648 98.0209C292.86 115.97 317.927 119.058 327.874 103.546C329.512 100.961 330.586 98.0597 331.026 95.0315C331.466 92.0033 331.262 88.9163 330.428 85.9721ZM327.264 103.152C317.514 118.351 293.032 114.936 285.233 97.5496C285.069 97.2617 285.733 97.48 274.824 95.4651C283.597 88.9452 283.168 89.3973 283.187 89.0515C282.928 83.9266 284.59 78.8893 287.847 74.924C291.104 70.9587 295.722 68.3502 300.8 67.6082C307.053 66.6456 313.442 67.9987 318.768 71.4134C324.094 74.8282 327.99 80.0697 329.725 86.1537C330.533 89.0008 330.732 91.9863 330.308 94.9154C329.884 97.8444 328.846 100.651 327.264 103.152Z" fill="url(#paint16_linear_90_344)"/>
<path d="M304.661 92.639C305.902 88.8951 310.942 88.1494 312.122 84.5253C312.303 84.0355 312.38 83.5134 312.347 82.9923C312.315 82.4712 312.174 81.9626 311.934 81.499C311.694 81.0354 311.36 80.627 310.953 80.2998C310.546 79.9727 310.075 79.734 309.571 79.5991C309.067 79.4642 308.54 79.4359 308.024 79.5162C307.508 79.5965 307.014 79.7835 306.575 80.0653C306.135 80.3471 305.76 80.7175 305.471 81.1529C305.183 81.5882 304.989 82.0788 304.901 82.5935C304.892 82.6498 304.871 82.7037 304.841 82.7522C304.811 82.8006 304.771 82.8426 304.725 82.8758C304.678 82.909 304.626 82.9327 304.57 82.9456C304.515 82.9585 304.457 82.9603 304.401 82.9509C304.344 82.9415 304.29 82.9211 304.242 82.8909C304.194 82.8607 304.152 82.8212 304.118 82.7747C304.085 82.7283 304.061 82.6757 304.049 82.6201C304.036 82.5645 304.034 82.5069 304.043 82.4505C304.151 81.8172 304.39 81.2134 304.744 80.6774C305.098 80.1415 305.56 79.6852 306.1 79.3377C306.641 78.9903 307.247 78.7592 307.882 78.6594C308.516 78.5595 309.165 78.593 309.786 78.7577C310.407 78.9224 310.987 79.2147 311.488 79.6159C311.99 80.0172 312.402 80.5186 312.699 81.0882C312.996 81.6578 313.172 82.283 313.214 82.924C313.256 83.5651 313.163 84.2078 312.943 84.8112C311.66 88.7637 306.601 89.5616 305.486 92.9249C305.468 92.9791 305.438 93.029 305.4 93.0718C305.362 93.1147 305.316 93.1496 305.264 93.1747C305.213 93.1997 305.157 93.2143 305.1 93.2177C305.042 93.2211 304.985 93.2132 304.931 93.1944C304.877 93.1756 304.827 93.1464 304.784 93.1083C304.741 93.0702 304.706 93.0241 304.681 92.9725C304.656 92.9209 304.642 92.8649 304.638 92.8077C304.635 92.7505 304.643 92.6931 304.661 92.639Z" fill="url(#paint17_linear_90_344)"/>
<path d="M304.082 96.1684C303.895 96.0959 303.695 96.0614 303.495 96.0668C303.294 96.0723 303.097 96.1176 302.914 96.2002C302.731 96.2827 302.566 96.4008 302.429 96.5476C302.293 96.6945 302.186 96.867 302.117 97.0553C302.048 97.2436 302.016 97.4438 302.025 97.6443C302.034 97.8448 302.082 98.0416 302.167 98.2231C302.253 98.4047 302.374 98.5674 302.523 98.7019C302.672 98.8363 302.846 98.9398 303.035 99.0062C303.222 99.0787 303.422 99.1132 303.623 99.1078C303.823 99.1023 304.021 99.057 304.204 98.9744C304.387 98.8919 304.551 98.7738 304.688 98.627C304.825 98.4801 304.931 98.3076 305.001 98.1193C305.07 97.931 305.101 97.7308 305.093 97.5303C305.084 97.3298 305.036 97.1331 304.95 96.9515C304.865 96.7699 304.744 96.6072 304.595 96.4727C304.446 96.3383 304.272 96.2348 304.082 96.1684Z" fill="url(#paint18_linear_90_344)"/>
<path d="M234.718 89.7585L223.552 88.2324C223.458 88.2198 223.372 88.171 223.314 88.0962C223.255 88.0215 223.228 87.9268 223.239 87.8325C223.863 82.1008 223.766 82.3828 223.959 82.2302C224.153 82.0776 223.536 82.0621 235.357 83.6771C235.451 83.6902 235.536 83.7392 235.594 83.8139C235.652 83.8886 235.679 83.983 235.668 84.077L235.089 89.434C235.079 89.525 235.036 89.6091 234.967 89.6693C234.898 89.7296 234.809 89.7614 234.718 89.7585ZM224 87.562L234.397 88.9858L234.903 84.3494L224.504 82.9276L224 87.562Z" fill="url(#paint19_linear_90_344)"/>
<path d="M232.892 54.4563C231.347 54.2098 229.765 54.3455 228.285 54.8513C226.804 55.3572 225.47 56.2179 224.399 57.3583C223.328 58.4986 222.552 59.884 222.14 61.3932C221.727 62.9025 221.691 64.4897 222.033 66.0163C224.276 72.8164 224.468 72.9709 224.286 79.9583V80.0086C224.293 80.0665 224.315 80.1218 224.349 80.1696C224.382 80.2174 224.427 80.2563 224.479 80.2829C224.583 80.3331 235.371 81.8283 235.52 81.7742L235.57 81.7511C235.647 81.7087 235.707 81.6402 235.738 81.5579L235.753 81.5018C236.912 75.2157 237.438 74.6748 240.917 68.6108C241.391 67.6538 241.685 66.6179 241.784 65.5546C242.022 62.9146 241.229 60.285 239.571 58.2163C237.914 56.1477 235.521 54.8003 232.892 54.4563ZM240.285 68.2534C236.748 74.0779 236.229 74.9259 235.106 81.0266L230.423 80.3833L231.836 67.4285C234.478 67.7898 234.849 67.8535 235.133 67.8535C235.76 67.8604 236.366 67.6347 236.836 67.22C237.306 66.8053 237.605 66.2312 237.675 65.6087C237.737 64.9148 237.529 64.2237 237.094 63.6795C236.659 63.1354 236.03 62.7801 235.34 62.6878L234.308 62.5487C233.97 62.496 233.625 62.5121 233.293 62.5961C232.961 62.6801 232.65 62.8303 232.378 63.0376C232.106 63.2449 231.878 63.5051 231.709 63.8025C231.54 64.0999 231.432 64.4284 231.393 64.7684L231.2 66.6075L228.275 66.2076C227.906 66.1696 227.556 66.0242 227.269 65.7893C226.981 65.5543 226.769 65.2402 226.658 64.8859C226.548 64.5316 226.543 64.1526 226.646 63.7959C226.749 63.4391 226.954 63.1204 227.236 62.8791C227.436 62.7245 227.665 62.612 227.909 62.5483C228.153 62.4845 228.408 62.4709 228.658 62.5081L230.989 62.823C231.084 62.8265 231.176 62.7931 231.246 62.7298C231.316 62.6666 231.359 62.5785 231.365 62.4843C231.371 62.39 231.341 62.297 231.28 62.225C231.218 62.153 231.132 62.1077 231.038 62.0986L228.756 61.7876C228.41 61.7365 228.057 61.7563 227.719 61.8456C227.38 61.9349 227.064 62.092 226.788 62.3072C226.394 62.6368 226.105 63.0747 225.958 63.5667C225.811 64.0586 225.811 64.583 225.959 65.0749C226.107 65.5667 226.396 66.0043 226.79 66.3334C227.184 66.6625 227.666 66.8686 228.177 66.9262L231.123 67.33L229.711 80.2867L225.028 79.6454C225.44 75.2524 224.761 70.8256 223.052 66.7582C222.547 65.3156 222.427 63.7665 222.703 62.2633C222.978 60.7601 223.641 59.3546 224.624 58.1851C225.608 57.0156 226.88 56.1223 228.313 55.5931C229.747 55.064 231.294 54.9172 232.801 55.1672C234.255 55.3442 235.647 55.8582 236.866 56.6682C238.086 57.4782 239.1 58.5618 239.826 59.8328C240.553 61.1037 240.973 62.5268 241.053 63.9887C241.133 65.4507 240.87 66.911 240.285 68.2534ZM231.913 66.7079L232.116 64.8515C232.141 64.6139 232.215 64.384 232.332 64.1757C232.449 63.9675 232.608 63.7853 232.798 63.6402C233.582 63.0278 234.393 63.2925 235.253 63.4084C235.622 63.4462 235.972 63.5915 236.259 63.8264C236.547 64.0612 236.759 64.3752 236.869 64.7295C236.98 65.0837 236.984 65.4626 236.881 65.8191C236.778 66.1756 236.573 66.4941 236.29 66.735C236.091 66.8906 235.862 67.004 235.618 67.0681C235.373 67.1322 235.118 67.1457 234.869 67.1078L231.913 66.7079Z" fill="url(#paint20_linear_90_344)"/>
<path d="M185.561 100.706L180.687 101.566C179.566 101.762 178.413 101.507 177.48 100.855C176.547 100.203 175.911 99.2086 175.71 98.0885L174.843 93.2067C174.824 93.1142 174.769 93.0329 174.691 92.98C174.612 92.9271 174.517 92.9068 174.423 92.9234C174.33 92.94 174.248 92.9922 174.192 93.0689C174.137 93.1456 174.114 93.2408 174.128 93.3342L174.988 98.2082C175.184 99.3289 174.928 100.482 174.277 101.414C173.625 102.347 172.63 102.984 171.51 103.185L166.636 104.044C166.545 104.064 166.465 104.119 166.413 104.197C166.36 104.275 166.34 104.37 166.357 104.462C166.373 104.554 166.424 104.637 166.5 104.692C166.575 104.747 166.669 104.771 166.762 104.759L171.636 103.899C172.191 103.801 172.76 103.813 173.311 103.934C173.861 104.056 174.382 104.284 174.844 104.607C175.306 104.93 175.7 105.341 176.004 105.816C176.307 106.291 176.514 106.822 176.612 107.377L177.472 112.251C177.48 112.298 177.498 112.343 177.523 112.383C177.549 112.423 177.582 112.458 177.621 112.486C177.66 112.513 177.705 112.533 177.751 112.543C177.798 112.553 177.846 112.554 177.893 112.546C177.94 112.538 177.985 112.521 178.026 112.495C178.066 112.469 178.101 112.436 178.128 112.397C178.156 112.358 178.175 112.314 178.185 112.267C178.196 112.22 178.197 112.172 178.189 112.125L177.329 107.251C177.132 106.13 177.388 104.977 178.039 104.044C178.691 103.111 179.686 102.474 180.806 102.273L185.68 101.415C185.764 101.388 185.834 101.333 185.88 101.258C185.925 101.183 185.942 101.095 185.928 101.009C185.913 100.922 185.868 100.844 185.801 100.789C185.733 100.733 185.648 100.704 185.561 100.706ZM176.647 105.472C176.288 104.899 175.817 104.403 175.263 104.015C174.709 103.628 174.083 103.355 173.421 103.214C173.994 102.855 174.489 102.384 174.877 101.83C175.265 101.276 175.537 100.649 175.677 99.9874C176.036 100.561 176.506 101.057 177.059 101.445C177.613 101.834 178.238 102.107 178.9 102.25C178.328 102.609 177.834 103.079 177.447 103.632C177.06 104.186 176.788 104.811 176.647 105.472Z" fill="url(#paint21_linear_90_344)"/>
<path d="M260.968 192.812C260.226 190.708 251.438 172.06 248.585 166.862C244.397 159.233 241 158.993 237.767 155.912C237.32 155.13 237.07 154.252 237.036 153.353C237.002 152.453 237.187 151.559 237.573 150.746C238.113 149.514 238.803 148.354 239.629 147.292C243.902 142.708 252.506 150.064 252.572 150.134C253.618 151.241 255.016 151.951 256.527 152.143C256.754 152.163 256.984 152.132 257.198 152.053C257.413 151.975 257.608 151.85 257.769 151.687C257.929 151.525 258.053 151.329 258.13 151.114C258.206 150.898 258.235 150.669 258.213 150.441C257.958 148.823 257.113 147.357 255.843 146.324C258.207 146.711 259.2 143.828 255.754 140.639C258.507 141.412 259.635 138.491 256.167 135.133C255.808 134.788 255.42 134.473 255.008 134.192C242.424 123.639 234.77 131.874 234.285 132.427C231.848 134.684 229.925 137.439 228.648 140.506C226.847 140.929 225.142 141.692 223.626 142.752C221.534 143.68 219.318 144.295 217.048 144.578C216.766 143.935 215.85 142.101 214.577 142.144C214.384 142.144 214.994 142.109 188.497 144.28C186.086 144.491 183.796 145.426 181.927 146.964C180.058 148.501 178.699 150.569 178.029 152.894C175.34 152.682 172.652 153.312 170.338 154.699C133.116 176.836 134.8 175.723 134.719 176.011C134.714 176.249 134.754 176.486 134.835 176.71C131.109 177.355 125.547 177.9 122.63 178.431C110.481 180.659 108.485 181.936 108.141 182.892C106.14 188.39 124.822 188.347 131.839 192.97C133.854 194.392 136.089 195.474 138.455 196.171C140.694 196.238 142.899 195.608 144.765 194.369C145.46 195.103 145.51 195.205 145.717 195.205C145.924 195.205 144.691 195.806 171.669 181.306L184.309 209.574L172.312 213.465C169.122 214.505 166.185 216.202 163.69 218.445C161.194 220.688 159.196 223.429 157.824 226.491C139.336 267.763 140.437 265.095 140.669 265.406C140.783 265.522 141.635 266.179 141.753 266.275C138.021 273.199 133.446 281.03 131.128 286.26C125.638 298.612 125.63 301.166 126.236 302.01C129.94 307.156 141.314 290.346 149.818 286.861C151.878 286.072 153.735 284.832 155.253 283.231C157.273 280.737 158.874 277.931 159.995 274.924C160.528 275.055 161.069 275.155 161.614 275.223C161.927 275.144 160.648 277.605 179.416 237.603C186.894 235.878 199.383 233.204 212.228 230.826C229.67 227.594 231.878 201.329 231.992 199.753L237.89 186.989L244.507 198.895C236.25 221.563 234.511 226.172 234.256 227.169C234.171 227.503 234.256 227.43 234.311 227.496C234.434 227.604 235.072 228.035 235.207 228.126C233.903 230.781 231.99 233.091 229.624 234.868C226.315 237.28 224.899 238.944 225.413 239.805C226.234 241.19 231.307 238.839 232.773 238.159C231.241 241.613 229.32 244.881 227.049 247.9C226.172 249.136 225.986 250.175 226.552 250.676C227.878 251.856 230.88 248.487 232.072 247.152C231.283 248.785 230.408 250.375 229.45 251.914C228.641 253.104 228.511 254.101 229.104 254.58C229.991 255.297 231.475 254.194 232.29 253.332C233.35 252.173 234.34 250.953 235.255 249.677C234.701 251.058 234.197 252.188 233.915 252.758C232.506 255.612 234.676 256.915 236.911 253.83C237.709 252.696 238.444 251.518 239.113 250.303C238.993 250.736 238.875 251.114 238.75 251.462C238.097 253.282 238.57 253.834 238.91 254C239.814 254.445 240.983 252.942 241.53 252.086C245.097 246.143 248.219 239.944 250.87 233.54C251.009 233.55 252.029 233.633 252.159 233.608C252.526 233.508 251.952 234.889 261.147 206.734C262.615 202.199 262.552 197.308 260.968 192.812ZM234.772 132.975C234.965 132.865 239.165 128.59 241.939 130.611C244.59 132.543 242.615 137.703 242.809 137.139C242.411 138.298 243.195 138.601 244.404 138.477C245.077 138.41 245.733 138.327 246.108 138.925C246.728 139.916 245.795 141.763 243.417 141.398C243.353 141.388 243.287 141.395 243.226 141.418C243.165 141.441 243.111 141.479 243.069 141.53C242.104 142.76 239.158 146.674 238.97 146.939C237.054 149.601 235.423 152.649 236.785 155.632C234.435 155.337 232.156 154.625 230.057 153.528C230.655 153.147 231.158 152.635 231.529 152.031C231.899 151.426 232.127 150.745 232.195 150.039C234.233 149.392 238.232 146.991 239.013 144.97C239.086 144.815 239.126 144.647 239.13 144.475C239.134 144.304 239.103 144.134 239.038 143.975C238.365 142.584 234.05 144.733 232.137 145.244C231.171 145.503 230.248 145.71 229.352 145.865C228.884 145.065 228.665 144.144 228.724 143.22C229.365 142.418 230.269 141.118 229.396 140.608C230.633 137.715 232.465 135.115 234.772 132.975ZM228.011 144.041C228.045 144.723 228.233 145.389 228.561 145.988C227.651 146.117 226.735 146.199 225.816 146.232C226.753 145.37 227.47 144.642 228.021 144.041H228.011ZM223.993 143.378C227.582 141.242 228.843 141.12 229.015 141.236C229.015 141.236 229.261 142.142 224.719 146.259C223.861 146.259 222.946 146.224 221.991 146.152C221.895 146.145 221.8 146.177 221.727 146.239C221.654 146.302 221.609 146.392 221.602 146.488C221.595 146.584 221.626 146.679 221.689 146.752C221.752 146.825 221.841 146.87 221.937 146.877C225.424 147.199 228.94 146.885 232.315 145.951C233.453 145.648 237.931 143.792 238.373 144.298C238.408 144.438 238.391 144.585 238.325 144.713C236.838 146.872 234.677 148.477 232.18 149.274C230.537 149.704 228.869 150.031 227.186 150.254C227.093 150.273 227.012 150.328 226.959 150.406C226.906 150.484 226.886 150.58 226.903 150.673C226.919 150.766 226.971 150.849 227.048 150.904C227.125 150.959 227.22 150.982 227.313 150.968C228.279 150.798 230.047 150.565 231.448 150.24C231.321 150.872 231.053 151.468 230.663 151.981C230.274 152.495 229.773 152.914 229.199 153.207C228.233 153.76 228.053 153.667 224.644 154.067C224.551 154.077 224.465 154.122 224.404 154.193C224.343 154.264 224.313 154.356 224.318 154.45C224.324 154.543 224.365 154.631 224.434 154.694C224.502 154.758 224.593 154.793 224.686 154.792L227.64 154.448H227.675C227.706 154.447 227.737 154.443 227.767 154.436L227.804 154.424L228.106 154.39C228.571 155.539 226.423 156.901 225.069 157.206C224.876 157.251 222.725 157.539 222.557 157.539C222.465 157.541 222.377 157.578 222.311 157.642C222.245 157.707 222.206 157.795 222.202 157.887C222.198 157.98 222.23 158.07 222.291 158.14C222.351 158.21 222.436 158.254 222.528 158.263C222.793 158.275 224.653 157.993 225.159 157.95C225.768 158.412 224.966 160.023 223.367 160.309C222.895 160.322 214.057 160.502 212.442 160.535C210.931 155.746 210.863 150.618 212.249 145.791C213.826 145.758 215.398 145.606 216.953 145.339C219.377 144.989 221.746 144.33 224.002 143.378H223.993ZM200.15 184.308L204.22 164.47L214.741 163.635C215.62 163.504 216.422 162.67 217.059 161.205C218.649 161.172 221.416 161.093 222.754 161.051C217.659 170.022 213.946 179.711 211.743 189.79L200.15 184.308ZM193.922 171.16L201.415 174.514L199.601 183.363L193.922 171.16ZM188.569 145.005L212.9 143.009C209.749 146.655 209.772 159.828 213.138 163.033L187.176 165.088C187.086 165.097 187.003 165.14 186.942 165.207C186.882 165.274 186.848 165.361 186.848 165.451C186.848 165.542 186.882 165.629 186.942 165.696C187.003 165.763 187.086 165.805 187.176 165.815L203.017 166.659L201.553 173.783C182.551 165.283 188.66 168.013 184.925 166.348C182.659 165.338 180.793 163.603 179.622 161.416C178.45 159.228 178.041 156.713 178.457 154.267C178.873 151.821 180.091 149.583 181.919 147.906C183.748 146.229 186.082 145.208 188.555 145.005H188.569ZM212.083 230.113C211.063 230.307 179.321 236.471 178.856 237.085C178.738 237.279 179.435 235.812 161.32 274.46C154.004 273.015 147.157 269.787 141.386 265.062L158.483 226.789C159.815 223.82 161.754 221.163 164.174 218.987C166.595 216.812 169.443 215.166 172.537 214.157L203.253 204.2C203.337 204.173 203.409 204.117 203.454 204.041C203.5 203.965 203.516 203.875 203.501 203.788C203.485 203.701 203.438 203.623 203.368 203.568C203.299 203.513 203.211 203.486 203.123 203.491L182.812 204.436L172.307 180.96L174.596 179.729C174.681 179.684 174.744 179.606 174.771 179.514C174.799 179.421 174.789 179.322 174.743 179.237C174.697 179.152 174.619 179.089 174.527 179.061C174.434 179.034 174.335 179.044 174.25 179.09L145.785 194.39C140.755 189.409 137.191 183.141 135.482 176.271L170.723 155.325C172.871 154.037 175.362 153.438 177.861 153.609C177.282 156.282 177.641 159.073 178.876 161.513C180.112 163.953 182.149 165.894 184.645 167.01L192.91 170.708C199.634 185.148 199.321 184.617 199.52 184.81C199.713 184.93 198.201 184.196 231.245 199.813C231.071 202.038 228.741 227.03 212.085 230.113H212.083ZM245.208 198.688L241.203 191.477V179.712C241.203 179.63 241.174 179.55 241.122 179.486C241.071 179.422 240.999 179.378 240.918 179.36C240.838 179.342 240.754 179.352 240.68 179.388C240.606 179.425 240.547 179.485 240.512 179.559L231.477 199.119L212.427 190.115C214.641 179.891 218.42 170.069 223.631 160.998C225.563 160.583 226.529 158.727 225.926 157.714C227.265 157.229 228.956 156.045 228.907 154.649V154.6C228.9 154.463 228.872 154.327 228.826 154.197C229.013 154.125 229.196 154.043 229.375 153.951C231.809 155.305 234.492 156.154 237.262 156.447C240.622 159.604 243.89 159.812 247.955 167.215C250.831 172.458 259.573 191.029 260.292 193.057C261.82 197.406 261.876 202.136 260.452 206.52L251.832 232.884C245.785 232.612 239.943 230.608 235.002 227.111C245.857 197.278 245.335 198.914 245.21 198.688H245.208ZM240.912 251.702C239.996 253.137 239.331 253.405 239.227 253.355C239.175 253.33 238.997 252.921 239.432 251.713C239.834 250.585 240.487 247.882 240.51 247.687C241.06 246.603 241.51 245.659 241.783 245.048C241.821 244.961 241.824 244.861 241.789 244.772C241.755 244.683 241.686 244.61 241.599 244.571C241.512 244.532 241.412 244.529 241.323 244.562C241.233 244.596 241.16 244.664 241.12 244.751C240.402 246.364 235.85 255.762 234.324 254.843C234.131 254.731 234.034 254.151 234.562 253.081C235.428 251.235 236.194 249.344 236.855 247.415C237.836 246.001 238.661 244.747 239.074 244.082C239.121 244.001 239.134 243.905 239.111 243.814C239.089 243.723 239.032 243.645 238.952 243.595C238.873 243.545 238.778 243.528 238.686 243.546C238.594 243.565 238.513 243.619 238.46 243.696C236.45 246.903 234.206 249.956 231.745 252.832C230.654 253.971 229.782 254.211 229.541 254.016C229.377 253.883 229.363 253.305 230.032 252.322C231.495 249.921 232.806 247.431 233.957 244.867C234.683 243.938 235.218 243.184 235.483 242.805C235.51 242.766 235.529 242.722 235.539 242.675C235.55 242.628 235.55 242.58 235.542 242.533C235.533 242.486 235.515 242.441 235.489 242.401C235.463 242.361 235.43 242.326 235.39 242.299C235.351 242.272 235.307 242.253 235.26 242.243C235.213 242.233 235.165 242.232 235.118 242.241C235.071 242.249 235.026 242.267 234.986 242.293C234.946 242.319 234.911 242.353 234.884 242.392C233.203 244.818 231.275 247.063 229.129 249.09C227.901 250.204 227.172 250.272 227.014 250.133C226.013 249.242 231.334 245.004 234.581 235.428C234.596 235.383 234.603 235.335 234.6 235.287C234.596 235.24 234.584 235.193 234.563 235.15C234.542 235.108 234.513 235.069 234.477 235.038C234.441 235.007 234.399 234.982 234.354 234.967C234.309 234.952 234.261 234.945 234.214 234.949C234.166 234.952 234.119 234.964 234.077 234.985C234.034 235.006 233.996 235.036 233.964 235.071C233.933 235.107 233.909 235.149 233.893 235.194C233.66 235.884 233.412 236.546 233.157 237.186C233.122 237.19 233.087 237.201 233.055 237.217C227.646 239.79 226.129 239.62 226.017 239.434C225.924 239.28 226.336 238.15 230.032 235.455C232.47 233.629 234.445 231.256 235.798 228.527C240.102 231.291 245.003 232.987 250.094 233.477C247.48 239.767 244.411 245.858 240.912 251.702Z" fill="url(#paint22_linear_90_344)"/>
<path d="M207.491 225.149C207.504 225.494 207.65 225.82 207.899 226.06C208.148 226.299 208.48 226.433 208.825 226.433C209.17 226.433 209.502 226.299 209.751 226.06C209.999 225.82 210.146 225.494 210.159 225.149C210.146 224.804 209.999 224.477 209.751 224.238C209.502 223.998 209.17 223.865 208.825 223.865C208.48 223.865 208.148 223.998 207.899 224.238C207.65 224.477 207.504 224.804 207.491 225.149Z" fill="url(#paint23_linear_90_344)"/>
<path d="M219.895 201.302C219.908 201.647 220.054 201.973 220.303 202.213C220.552 202.452 220.884 202.586 221.229 202.586C221.574 202.586 221.906 202.452 222.155 202.213C222.403 201.973 222.55 201.647 222.563 201.302C222.55 200.957 222.403 200.63 222.155 200.391C221.906 200.152 221.574 200.018 221.229 200.018C220.884 200.018 220.552 200.152 220.303 200.391C220.054 200.63 219.908 200.957 219.895 201.302Z" fill="url(#paint24_linear_90_344)"/>
<path d="M187.207 197.187C187.22 197.532 187.366 197.859 187.615 198.098C187.864 198.338 188.195 198.471 188.541 198.471C188.886 198.471 189.218 198.338 189.466 198.098C189.715 197.859 189.861 197.532 189.875 197.187C189.861 196.842 189.715 196.516 189.466 196.276C189.218 196.037 188.886 195.903 188.541 195.903C188.195 195.903 187.864 196.037 187.615 196.276C187.366 196.516 187.22 196.842 187.207 197.187Z" fill="url(#paint25_linear_90_344)"/>
<path d="M189.401 174.415C189.414 174.76 189.561 175.086 189.809 175.326C190.058 175.565 190.39 175.699 190.735 175.699C191.08 175.699 191.412 175.565 191.661 175.326C191.91 175.086 192.056 174.76 192.069 174.415C192.056 174.07 191.91 173.743 191.661 173.504C191.412 173.265 191.08 173.131 190.735 173.131C190.39 173.131 190.058 173.265 189.809 173.504C189.561 173.743 189.414 174.07 189.401 174.415Z" fill="url(#paint26_linear_90_344)"/>
<path d="M169.169 162.579C169.182 162.924 169.329 163.25 169.577 163.49C169.826 163.729 170.158 163.863 170.503 163.863C170.848 163.863 171.18 163.729 171.429 163.49C171.678 163.25 171.824 162.924 171.837 162.579C171.824 162.234 171.678 161.907 171.429 161.668C171.18 161.428 170.848 161.295 170.503 161.295C170.158 161.295 169.826 161.428 169.577 161.668C169.329 161.907 169.182 162.234 169.169 162.579Z" fill="url(#paint27_linear_90_344)"/>
<path d="M139.946 177.002C139.946 177.355 140.087 177.694 140.337 177.944C140.587 178.194 140.926 178.335 141.279 178.335C141.633 178.335 141.972 178.194 142.222 177.944C142.472 177.694 142.612 177.355 142.612 177.002C142.612 176.648 142.472 176.309 142.222 176.059C141.972 175.809 141.633 175.669 141.279 175.669C140.926 175.669 140.587 175.809 140.337 176.059C140.087 176.309 139.946 176.648 139.946 177.002Z" fill="url(#paint28_linear_90_344)"/>
<path d="M160.057 179.712C160.07 180.057 160.216 180.383 160.465 180.623C160.714 180.862 161.046 180.996 161.391 180.996C161.736 180.996 162.068 180.862 162.317 180.623C162.565 180.383 162.712 180.057 162.725 179.712C162.712 179.367 162.565 179.04 162.317 178.801C162.068 178.562 161.736 178.428 161.391 178.428C161.046 178.428 160.714 178.562 160.465 178.801C160.216 179.04 160.07 179.367 160.057 179.712Z" fill="url(#paint29_linear_90_344)"/>
<path d="M170.948 237.655C170.962 238 171.108 238.327 171.357 238.566C171.605 238.806 171.937 238.939 172.282 238.939C172.628 238.939 172.959 238.806 173.208 238.566C173.457 238.327 173.603 238 173.616 237.655C173.603 237.31 173.457 236.984 173.208 236.744C172.959 236.505 172.628 236.371 172.282 236.371C171.937 236.371 171.605 236.505 171.357 236.744C171.108 236.984 170.962 237.31 170.948 237.655Z" fill="url(#paint30_linear_90_344)"/>
<path d="M185.588 213.822C185.588 214.176 185.728 214.515 185.978 214.765C186.228 215.015 186.567 215.155 186.921 215.155C187.274 215.155 187.613 215.015 187.863 214.765C188.113 214.515 188.254 214.176 188.254 213.822C188.254 213.469 188.113 213.13 187.863 212.88C187.613 212.63 187.274 212.489 186.921 212.489C186.567 212.489 186.228 212.63 185.978 212.88C185.728 213.13 185.588 213.469 185.588 213.822Z" fill="url(#paint31_linear_90_344)"/>
<path d="M147.336 255.243C147.349 255.588 147.495 255.914 147.744 256.154C147.993 256.393 148.324 256.527 148.67 256.527C149.015 256.527 149.347 256.393 149.595 256.154C149.844 255.914 149.99 255.588 150.004 255.243C149.99 254.898 149.844 254.571 149.595 254.332C149.347 254.092 149.015 253.958 148.67 253.958C148.324 253.958 147.993 254.092 147.744 254.332C147.495 254.571 147.349 254.898 147.336 255.243Z" fill="url(#paint32_linear_90_344)"/>
<path d="M133.38 252.642L127.428 249.938L130.132 243.984C130.172 243.896 130.175 243.796 130.141 243.706C130.107 243.616 130.039 243.543 129.951 243.503C129.863 243.463 129.763 243.46 129.673 243.494C129.583 243.528 129.51 243.597 129.47 243.684L126.765 249.636L120.813 246.932C120.726 246.894 120.628 246.893 120.539 246.927C120.451 246.961 120.379 247.029 120.34 247.115C120.301 247.201 120.296 247.3 120.329 247.389C120.361 247.478 120.427 247.551 120.512 247.593L126.464 250.297L123.759 256.249C123.722 256.336 123.72 256.435 123.754 256.523C123.789 256.612 123.856 256.683 123.942 256.723C124.029 256.762 124.127 256.766 124.216 256.734C124.306 256.702 124.379 256.636 124.42 256.55L127.125 250.597C132.934 253.235 133.034 253.334 133.227 253.334C133.309 253.332 133.387 253.302 133.449 253.25C133.512 253.198 133.556 253.127 133.573 253.048C133.591 252.968 133.581 252.885 133.546 252.812C133.511 252.738 133.453 252.679 133.38 252.642Z" fill="url(#paint33_linear_90_344)"/>
<path opacity="0.2" d="M135 49.0082C137.761 49.0082 140 46.7696 140 44.0082C140 41.2468 137.761 39.0082 135 39.0082C132.239 39.0082 130 41.2468 130 44.0082C130 46.7696 132.239 49.0082 135 49.0082Z" fill="#FF5E51"/>
<path opacity="0.2" d="M151 49.0082C153.761 49.0082 156 46.7696 156 44.0082C156 41.2468 153.761 39.0082 151 39.0082C148.239 39.0082 146 41.2468 146 44.0082C146 46.7696 148.239 49.0082 151 49.0082Z" fill="#FF5E51"/>
<path d="M140 34.5082H146" stroke="#FF5E51" stroke-width="2" stroke-linecap="round" stroke-linejoin="round"/>
<path d="M155.7 42.2957L150.237 29.8832C149.673 29.3252 148.912 29.0122 148.119 29.0122C147.325 29.0122 146.564 29.3252 146 29.8832V44.0082" stroke="#FF5E51" stroke-width="2" stroke-linecap="round" stroke-linejoin="round"/>
<path d="M140 44.0082V29.8832C139.436 29.3252 138.675 29.0122 137.881 29.0122C137.088 29.0122 136.327 29.3252 135.763 29.8832L130.3 42.2957" stroke="#FF5E51" stroke-width="2" stroke-linecap="round" stroke-linejoin="round"/>
<path d="M135 49.0082C137.761 49.0082 140 46.7696 140 44.0082C140 41.2468 137.761 39.0082 135 39.0082C132.239 39.0082 130 41.2468 130 44.0082C130 46.7696 132.239 49.0082 135 49.0082Z" stroke="#FF5E51" stroke-width="2" stroke-linecap="round" stroke-linejoin="round"/>
<path d="M151 49.0082C153.761 49.0082 156 46.7696 156 44.0082C156 41.2468 153.761 39.0082 151 39.0082C148.239 39.0082 146 41.2468 146 44.0082C146 46.7696 148.239 49.0082 151 49.0082Z" stroke="#FF5E51" stroke-width="2" stroke-linecap="round" stroke-linejoin="round"/>
<path opacity="0.2" d="M222.712 27.378C222.619 27.4724 222.508 27.5475 222.386 27.5987C222.264 27.6499 222.133 27.6763 222 27.6763C221.867 27.6763 221.736 27.6499 221.614 27.5987C221.491 27.5475 221.38 27.4724 221.287 27.378L218.712 24.803C218.618 24.7099 218.543 24.599 218.492 24.4767C218.44 24.3544 218.414 24.2231 218.414 24.0905C218.414 23.9578 218.44 23.8266 218.492 23.7042C218.543 23.5819 218.618 23.471 218.712 23.378L232 10.0905L236 14.0905L222.712 27.378Z" fill="#83B9FF"/>
<path d="M241 16.0905V22.0905" stroke="#83B9FF" stroke-width="2" stroke-linecap="round" stroke-linejoin="round"/>
<path d="M238 19.0905H244" stroke="#83B9FF" stroke-width="2" stroke-linecap="round" stroke-linejoin="round"/>
<path d="M224.5 5.09045V10.0905" stroke="#83B9FF" stroke-width="2" stroke-linecap="round" stroke-linejoin="round"/>
<path d="M222 7.59045H227" stroke="#83B9FF" stroke-width="2" stroke-linecap="round" stroke-linejoin="round"/>
<path d="M235 23.0905V27.0905" stroke="#83B9FF" stroke-width="2" stroke-linecap="round" stroke-linejoin="round"/>
<path d="M233 25.0905H237" stroke="#83B9FF" stroke-width="2" stroke-linecap="round" stroke-linejoin="round"/>
<path d="M237.303 4.79442L218.715 23.3825C218.325 23.773 218.325 24.4062 218.715 24.7967L221.301 27.3821C221.691 27.7726 222.324 27.7726 222.715 27.3821L241.303 8.794C241.693 8.40347 241.693 7.77031 241.303 7.37978L238.717 4.79442C238.327 4.4039 237.694 4.4039 237.303 4.79442Z" stroke="#83B9FF" stroke-width="2" stroke-linecap="round" stroke-linejoin="round"/>
<path d="M232 10.0905L236 14.0905" stroke="#83B9FF" stroke-width="2" stroke-linecap="round" stroke-linejoin="round"/>
<path opacity="0.2" d="M62 87.0905V76.0905C62 75.56 62.2107 75.0513 62.5858 74.6762C62.9609 74.3012 63.4696 74.0905 64 74.0905H84C84.5304 74.0905 85.0391 74.3012 85.4142 74.6762C85.7893 75.0513 86 75.56 86 76.0905V87.0905H62Z" fill="#FFD740"/>
<path d="M64 92.0905H84C85.1046 92.0905 86 91.195 86 90.0905V76.0905C86 74.9859 85.1046 74.0905 84 74.0905H64C62.8954 74.0905 62 74.9859 62 76.0905V90.0905C62 91.195 62.8954 92.0905 64 92.0905Z" stroke="#FFD740" stroke-width="2" stroke-linecap="round" stroke-linejoin="round"/>
<path d="M78 96.0905H70" stroke="#FFD740" stroke-width="2" stroke-linecap="round" stroke-linejoin="round"/>
<path d="M62 87.0905H86" stroke="#FFD740" stroke-width="2" stroke-linecap="round" stroke-linejoin="round"/>
<path d="M74 92.0905V96.0905" stroke="#FFD740" stroke-width="2" stroke-linecap="round" stroke-linejoin="round"/>
<path opacity="0.2" d="M49.7625 285.166C48.3375 289.403 42.6875 289.403 42.6875 289.403C42.6875 289.403 42.6875 283.753 46.925 282.328L49.7625 285.166Z" fill="#1DE9B6"/>
<path opacity="0.2" d="M61.075 276.678V284.753C61.0712 285.017 60.9634 285.268 60.775 285.453L56.7375 289.503C56.6094 289.631 56.449 289.722 56.2733 289.766C56.0977 289.81 55.9134 289.805 55.7402 289.752C55.567 289.7 55.4113 289.601 55.2897 289.467C55.1682 289.333 55.0853 289.168 55.05 288.99L54 283.753L61.075 276.678Z" fill="#1DE9B6"/>
<path opacity="0.2" d="M55.4124 271.016H47.3374C47.0736 271.019 46.822 271.127 46.6374 271.316L42.5874 275.353C42.4595 275.481 42.3687 275.642 42.3248 275.817C42.2809 275.993 42.2855 276.177 42.3381 276.35C42.3907 276.524 42.4893 276.679 42.6235 276.801C42.7577 276.922 42.9223 277.005 43.0999 277.041L48.3374 278.091L55.4124 271.016Z" fill="#1DE9B6"/>
<path d="M49.7625 285.166C48.3375 289.403 42.6875 289.403 42.6875 289.403C42.6875 289.403 42.6875 283.753 46.925 282.328" stroke="#1DE9B6" stroke-width="2" stroke-linecap="round" stroke-linejoin="round"/>
<path d="M62.4874 275.265L53.9999 283.753L48.3374 278.09L56.8249 269.603C60.0374 266.39 63.2499 266.428 64.6249 266.628C64.8371 266.656 65.034 266.754 65.1854 266.905C65.3368 267.056 65.4341 267.253 65.4624 267.465C65.6624 268.84 65.6999 272.053 62.4874 275.265Z" stroke="#1DE9B6" stroke-width="2" stroke-linecap="round" stroke-linejoin="round"/>
<path d="M61.075 276.678V284.753C61.0712 285.017 60.9634 285.268 60.775 285.453L56.7375 289.503C56.6094 289.631 56.449 289.722 56.2733 289.766C56.0977 289.81 55.9134 289.805 55.7402 289.752C55.567 289.7 55.4113 289.601 55.2897 289.467C55.1682 289.333 55.0853 289.168 55.05 288.99L54 283.753" stroke="#1DE9B6" stroke-width="2" stroke-linecap="round" stroke-linejoin="round"/>
<path d="M55.4124 271.016H47.3374C47.0736 271.019 46.822 271.127 46.6374 271.316L42.5874 275.353C42.4595 275.481 42.3687 275.642 42.3248 275.817C42.2809 275.993 42.2855 276.177 42.3381 276.35C42.3907 276.524 42.4893 276.679 42.6235 276.801C42.7577 276.922 42.9223 277.005 43.0999 277.041L48.3374 278.091" stroke="#1DE9B6" stroke-width="2" stroke-linecap="round" stroke-linejoin="round"/>
<path opacity="0.2" d="M253.363 311.715C254.019 313.247 254.179 314.945 253.822 316.573C253.465 318.2 252.607 319.675 251.37 320.791C250.133 321.907 248.578 322.608 246.922 322.796C245.267 322.985 243.594 322.65 242.138 321.84L235.125 329.965C234.561 330.529 233.797 330.846 233 330.846C232.203 330.846 231.439 330.529 230.875 329.965C230.311 329.402 229.995 328.637 229.995 327.84C229.995 327.043 230.311 326.279 230.875 325.715L239 318.703C238.19 317.247 237.856 315.574 238.044 313.918C238.232 312.263 238.933 310.708 240.049 309.47C241.165 308.233 242.64 307.376 244.268 307.019C245.895 306.661 247.593 306.822 249.125 307.478L243.875 312.715L244.588 316.253L248.125 316.965L253.363 311.715Z" fill="#B49B92"/>
<path d="M253.363 311.715C254.019 313.247 254.179 314.945 253.822 316.573C253.465 318.2 252.607 319.675 251.37 320.791C250.133 321.907 248.578 322.608 246.922 322.796C245.267 322.985 243.594 322.65 242.138 321.84V321.84L235.125 329.965C234.561 330.529 233.797 330.846 233 330.846C232.203 330.846 231.439 330.529 230.875 329.965C230.311 329.402 229.995 328.637 229.995 327.84C229.995 327.043 230.311 326.279 230.875 325.715L239 318.703C238.19 317.247 237.856 315.574 238.044 313.918C238.232 312.263 238.933 310.708 240.049 309.47C241.165 308.233 242.64 307.376 244.268 307.019C245.895 306.661 247.593 306.822 249.125 307.478L243.875 312.715L244.588 316.253L248.125 316.965L253.363 311.715Z" stroke="#B49B92" stroke-width="2" stroke-linecap="round" stroke-linejoin="round"/>
<defs>
<linearGradient id="paint0_linear_90_344" x1="324.794" y1="235.1" x2="341.2" y2="241.276" gradientUnits="userSpaceOnUse">
<stop stop-color="#448AFF"/>
<stop offset="0.841822" stop-color="#83B9FF"/>
</linearGradient>
<linearGradient id="paint1_linear_90_344" x1="317.075" y1="230.823" x2="333.479" y2="237" gradientUnits="userSpaceOnUse">
<stop stop-color="#448AFF"/>
<stop offset="0.841822" stop-color="#83B9FF"/>
</linearGradient>
<linearGradient id="paint2_linear_90_344" x1="309.356" y1="226.539" x2="325.762" y2="232.713" gradientUnits="userSpaceOnUse">
<stop stop-color="#448AFF"/>
<stop offset="0.841822" stop-color="#83B9FF"/>
</linearGradient>
<linearGradient id="paint3_linear_90_344" x1="167.625" y1="192.581" x2="362.566" y2="312.727" gradientUnits="userSpaceOnUse">
<stop stop-color="#448AFF"/>
<stop offset="0.841822" stop-color="#83B9FF"/>
</linearGradient>
<linearGradient id="paint4_linear_90_344" x1="343.302" y1="206.705" x2="353.985" y2="209.432" gradientUnits="userSpaceOnUse">
<stop stop-color="#448AFF"/>
<stop offset="0.841822" stop-color="#83B9FF"/>
</linearGradient>
<linearGradient id="paint5_linear_90_344" x1="334.477" y1="206.884" x2="345.164" y2="209.61" gradientUnits="userSpaceOnUse">
<stop stop-color="#448AFF"/>
<stop offset="0.841822" stop-color="#83B9FF"/>
</linearGradient>
<linearGradient id="paint6_linear_90_344" x1="325.655" y1="207.078" x2="336.344" y2="209.806" gradientUnits="userSpaceOnUse">
<stop stop-color="#448AFF"/>
<stop offset="0.841822" stop-color="#83B9FF"/>
</linearGradient>
<linearGradient id="paint7_linear_90_344" x1="316.826" y1="207.277" x2="327.521" y2="210.01" gradientUnits="userSpaceOnUse">
<stop stop-color="#448AFF"/>
<stop offset="0.841822" stop-color="#83B9FF"/>
</linearGradient>
<linearGradient id="paint8_linear_90_344" x1="308.011" y1="207.454" x2="318.701" y2="210.181" gradientUnits="userSpaceOnUse">
<stop stop-color="#448AFF"/>
<stop offset="0.841822" stop-color="#83B9FF"/>
</linearGradient>
<linearGradient id="paint9_linear_90_344" x1="219.77" y1="226.403" x2="228.724" y2="236.235" gradientUnits="userSpaceOnUse">
<stop stop-color="#448AFF"/>
<stop offset="0.841822" stop-color="#83B9FF"/>
</linearGradient>
<linearGradient id="paint10_linear_90_344" x1="0.958252" y1="138.525" x2="165.901" y2="262.478" gradientUnits="userSpaceOnUse">
<stop stop-color="#448AFF"/>
<stop offset="0.841822" stop-color="#83B9FF"/>
</linearGradient>
<linearGradient id="paint11_linear_90_344" x1="171.919" y1="237.037" x2="251.721" y2="319.495" gradientUnits="userSpaceOnUse">
<stop stop-color="#448AFF"/>
<stop offset="0.841822" stop-color="#83B9FF"/>
</linearGradient>
<linearGradient id="paint12_linear_90_344" x1="232.18" y1="252.141" x2="234.266" y2="253.773" gradientUnits="userSpaceOnUse">
<stop stop-color="#448AFF"/>
<stop offset="0.841822" stop-color="#83B9FF"/>
</linearGradient>
<linearGradient id="paint13_linear_90_344" x1="226.933" y1="250.193" x2="229.771" y2="252.708" gradientUnits="userSpaceOnUse">
<stop stop-color="#448AFF"/>
<stop offset="0.841822" stop-color="#83B9FF"/>
</linearGradient>
<linearGradient id="paint14_linear_90_344" x1="186.558" y1="235.191" x2="211.482" y2="264.132" gradientUnits="userSpaceOnUse">
<stop stop-color="#448AFF"/>
<stop offset="0.841822" stop-color="#83B9FF"/>
</linearGradient>
<linearGradient id="paint15_linear_90_344" x1="313.344" y1="149.308" x2="332.172" y2="182.969" gradientUnits="userSpaceOnUse">
<stop stop-color="#448AFF"/>
<stop offset="0.841822" stop-color="#83B9FF"/>
</linearGradient>
<linearGradient id="paint16_linear_90_344" x1="273.574" y1="66.5808" x2="337.759" y2="101.62" gradientUnits="userSpaceOnUse">
<stop stop-color="#448AFF"/>
<stop offset="0.841822" stop-color="#83B9FF"/>
</linearGradient>
<linearGradient id="paint17_linear_90_344" x1="304.037" y1="78.6031" x2="316.346" y2="82.0414" gradientUnits="userSpaceOnUse">
<stop stop-color="#448AFF"/>
<stop offset="0.841822" stop-color="#83B9FF"/>
</linearGradient>
<linearGradient id="paint18_linear_90_344" x1="302.023" y1="96.0663" x2="305.716" y2="97.7228" gradientUnits="userSpaceOnUse">
<stop stop-color="#448AFF"/>
<stop offset="0.841822" stop-color="#83B9FF"/>
</linearGradient>
<linearGradient id="paint19_linear_90_344" x1="223.237" y1="82.1647" x2="234.979" y2="90.7093" gradientUnits="userSpaceOnUse">
<stop stop-color="#448AFF"/>
<stop offset="0.841822" stop-color="#83B9FF"/>
</linearGradient>
<linearGradient id="paint20_linear_90_344" x1="221.801" y1="54.3367" x2="247.972" y2="62.8253" gradientUnits="userSpaceOnUse">
<stop stop-color="#448AFF"/>
<stop offset="0.841822" stop-color="#83B9FF"/>
</linearGradient>
<linearGradient id="paint21_linear_90_344" x1="166.351" y1="92.9177" x2="189.991" y2="103.396" gradientUnits="userSpaceOnUse">
<stop stop-color="#448AFF"/>
<stop offset="0.841822" stop-color="#83B9FF"/>
</linearGradient>
<linearGradient id="paint22_linear_90_344" x1="107.992" y1="128.847" x2="300.863" y2="204.761" gradientUnits="userSpaceOnUse">
<stop stop-color="#448AFF"/>
<stop offset="0.841822" stop-color="#83B9FF"/>
</linearGradient>
<linearGradient id="paint23_linear_90_344" x1="207.491" y1="223.865" x2="210.667" y2="225.331" gradientUnits="userSpaceOnUse">
<stop stop-color="#448AFF"/>
<stop offset="0.841822" stop-color="#83B9FF"/>
</linearGradient>
<linearGradient id="paint24_linear_90_344" x1="219.895" y1="200.018" x2="223.071" y2="201.484" gradientUnits="userSpaceOnUse">
<stop stop-color="#448AFF"/>
<stop offset="0.841822" stop-color="#83B9FF"/>
</linearGradient>
<linearGradient id="paint25_linear_90_344" x1="187.207" y1="195.903" x2="190.383" y2="197.37" gradientUnits="userSpaceOnUse">
<stop stop-color="#448AFF"/>
<stop offset="0.841822" stop-color="#83B9FF"/>
</linearGradient>
<linearGradient id="paint26_linear_90_344" x1="189.401" y1="173.131" x2="192.578" y2="174.597" gradientUnits="userSpaceOnUse">
<stop stop-color="#448AFF"/>
<stop offset="0.841822" stop-color="#83B9FF"/>
</linearGradient>
<linearGradient id="paint27_linear_90_344" x1="169.169" y1="161.295" x2="172.346" y2="162.761" gradientUnits="userSpaceOnUse">
<stop stop-color="#448AFF"/>
<stop offset="0.841822" stop-color="#83B9FF"/>
</linearGradient>
<linearGradient id="paint28_linear_90_344" x1="139.946" y1="175.669" x2="143.162" y2="177.098" gradientUnits="userSpaceOnUse">
<stop stop-color="#448AFF"/>
<stop offset="0.841822" stop-color="#83B9FF"/>
</linearGradient>
<linearGradient id="paint29_linear_90_344" x1="160.057" y1="178.428" x2="163.233" y2="179.894" gradientUnits="userSpaceOnUse">
<stop stop-color="#448AFF"/>
<stop offset="0.841822" stop-color="#83B9FF"/>
</linearGradient>
<linearGradient id="paint30_linear_90_344" x1="170.948" y1="236.371" x2="174.125" y2="237.838" gradientUnits="userSpaceOnUse">
<stop stop-color="#448AFF"/>
<stop offset="0.841822" stop-color="#83B9FF"/>
</linearGradient>
<linearGradient id="paint31_linear_90_344" x1="185.588" y1="212.489" x2="188.803" y2="213.918" gradientUnits="userSpaceOnUse">
<stop stop-color="#448AFF"/>
<stop offset="0.841822" stop-color="#83B9FF"/>
</linearGradient>
<linearGradient id="paint32_linear_90_344" x1="147.336" y1="253.958" x2="150.512" y2="255.425" gradientUnits="userSpaceOnUse">
<stop stop-color="#448AFF"/>
<stop offset="0.841822" stop-color="#83B9FF"/>
</linearGradient>
<linearGradient id="paint33_linear_90_344" x1="120.307" y1="243.471" x2="136.323" y2="250.583" gradientUnits="userSpaceOnUse">
<stop stop-color="#448AFF"/>
<stop offset="0.841822" stop-color="#83B9FF"/>
</linearGradient>
</defs>
</svg>
