<svg width="415" height="321" viewBox="0 0 415 321" fill="none" xmlns="http://www.w3.org/2000/svg">
<circle opacity="0.2" cx="221.243" cy="129.937" r="100.499" fill="#83B9FF"/>
<circle opacity="0.1" cx="151.255" cy="251.156" r="69.309" fill="#83B9FF"/>
<path d="M259.847 169.679H228.315C236.782 169.185 245.173 167.806 253.353 165.566C254.623 165.224 255.834 164.693 256.945 163.989C258.057 165.808 259.027 167.711 259.847 169.679Z" fill="#E6E7E8"/>
<path d="M84.6124 169.165C87.719 155.046 107.6 156.726 107.798 156.747C107.903 156.762 107.998 156.816 108.063 156.899C108.129 156.982 108.16 157.086 108.15 157.191C108.14 157.296 108.09 157.394 108.01 157.463C107.931 157.532 107.827 157.567 107.722 157.562C107.528 157.545 88.3638 155.933 85.4119 169.344C85.3882 169.45 85.3234 169.542 85.2317 169.6C85.14 169.658 85.0289 169.678 84.9228 169.654C84.8168 169.63 84.7245 169.566 84.6663 169.474C84.6081 169.382 84.5887 169.271 84.6124 169.165Z" fill="#0063D2"/>
<path d="M101.777 147.232C97.7317 145.633 100.673 149.53 104.023 152.584C101.601 152.296 99.1603 152.199 96.723 152.292C96.0695 152.41 95.3593 153.316 99.383 154.447C104.751 155.859 109.951 157.847 114.892 160.377L115.48 154.247C108.016 151.136 104.398 148.267 101.777 147.232Z" fill="#E6E7E8"/>
<path d="M114.569 163.773L114.172 167.895C113.334 167.783 112.491 167.716 111.645 167.695C104.495 167.57 107.022 165.821 109.504 165.115C110.774 164.751 112.9 164.324 114.569 163.773Z" fill="#E6E7E8"/>
<path d="M115.636 153.87C105.939 149.827 100.986 145.047 99.5978 146.798C98.6959 147.929 101.796 151.007 102.831 152.027C100.782 151.744 98.7072 151.699 96.6481 151.894C96.4352 151.913 96.2352 152.004 96.0811 152.152C95.927 152.3 95.8281 152.497 95.8007 152.709C95.6983 154.796 102.704 154.974 113.105 159.8C113.571 160.085 114.091 160.397 114.688 160.739C114.783 160.793 114.895 160.807 115 160.778C115.105 160.75 115.194 160.681 115.248 160.586C115.302 160.492 115.317 160.38 115.288 160.275C115.259 160.17 115.19 160.08 115.096 160.026C113.682 159.241 112.326 158.357 111.037 157.382C108.699 155.811 106.45 154.111 104.301 152.29C102.465 150.622 100.097 147.984 100.23 147.323C100.406 147.214 101.463 147.387 104.46 149.084C107.954 151.172 111.583 153.026 115.322 154.632C115.423 154.674 115.537 154.674 115.638 154.632C115.739 154.589 115.819 154.509 115.86 154.408C115.902 154.307 115.902 154.193 115.86 154.092C115.818 153.992 115.737 153.911 115.636 153.87ZM96.6111 152.781C96.6628 152.736 96.7265 152.708 96.7941 152.7C99.143 152.526 101.504 152.616 103.833 152.97C105.764 154.615 107.792 156.143 109.907 157.545C106.528 156.123 103.047 154.958 99.4932 154.059C96.8725 153.317 96.635 152.776 96.6132 152.776L96.6111 152.781Z" fill="#000001"/>
<path d="M114.173 168.304C113.33 168.193 112.482 168.126 111.633 168.104C107.304 168.03 106.637 167.379 106.555 166.753C106.411 165.664 108.687 164.921 109.387 164.721C110.894 164.285 112.72 163.952 114.441 163.383C114.544 163.349 114.657 163.357 114.754 163.407C114.851 163.456 114.925 163.541 114.959 163.645C114.993 163.748 114.985 163.861 114.936 163.958C114.887 164.055 114.801 164.129 114.698 164.163C112.955 164.734 110.949 165.13 109.611 165.509C108.193 165.912 107.409 166.466 107.367 166.662C107.367 166.662 107.74 167.217 111.648 167.285C112.51 167.306 113.371 167.374 114.225 167.49C114.327 167.505 114.419 167.557 114.484 167.637C114.549 167.717 114.581 167.818 114.575 167.921C114.568 168.024 114.523 168.12 114.449 168.191C114.374 168.262 114.276 168.303 114.173 168.304Z" fill="#000001"/>
<path d="M262.142 176.881H158.776L120.78 255.798C122.571 257.375 124.471 258.822 126.466 260.129L120.78 272.178C128.965 274.426 137.588 274.548 145.833 272.533L147.929 267.614C150.028 267.822 152.137 267.913 154.247 267.887L169.06 240.86L164.634 263.244C166.651 264.244 168.726 265.121 170.849 265.871L169.148 272.533C176.603 274.67 184.509 274.67 191.965 272.533L192.645 269.394C194.661 269.385 196.688 269.296 198.727 269.126L215.112 202.782L220.059 203.538L254.569 200.76L256.38 199.261C263.706 192.586 263.841 183.901 262.142 176.881Z" fill="#E6E7E8"/>
<path d="M208.933 169.67C206.724 169.919 204.94 167.204 201.853 164.623C199.605 162.749 198.699 161.462 197.01 162.64C187.8 169.078 185.318 168.23 186.671 166.768C188.797 164.488 190.181 162.769 191.442 161.17C180.46 165.745 178.763 163.577 180.615 162.59C183.539 161.039 186.896 159.357 189.749 157.717C177.26 161.329 173.611 158.961 175.655 158.307C179.68 157.022 184.02 155.806 188.015 154.427C176.944 155.909 177.661 154.12 181.567 153.048C185.896 151.865 194.856 149.251 195.662 149.251C196.516 149.321 197.358 149.495 198.169 149.769C194.854 142.169 197.021 141.709 198.148 143.646C199.74 146.29 201.654 148.727 203.844 150.902C204.356 151.466 204.923 151.977 205.537 152.427L210.565 154.294L211.306 158.128C212.099 164.226 211.044 169.433 208.933 169.67Z" fill="#E6E7E8"/>
<path d="M228.631 85.3835C227.847 85.7365 225.396 93.6793 227.828 97.9666C223.826 99.2628 219.397 100.032 215.909 97.6486C216.936 96.5692 217.724 95.2849 218.22 93.8797L222.179 90.1763C221.102 90.4858 219.99 90.6572 218.87 90.686C208.114 90.8429 218.375 74.6653 218.575 74.6653C223.865 67.2714 227.431 75.1445 227.091 79.7652C227.159 80.6867 227.601 80.9394 229.089 79.8479C232.128 77.6259 234.33 82.826 228.631 85.3835Z" fill="#E6E7E8"/>
<path d="M123.328 119.963C121.543 120.103 119.758 119.701 118.205 118.811C116.652 117.92 115.404 116.582 114.623 114.971C113.842 113.36 113.565 111.551 113.828 109.78C114.092 108.009 114.883 106.359 116.098 105.045C117.314 103.731 118.897 102.813 120.642 102.413C122.387 102.013 124.212 102.148 125.879 102.8C127.546 103.453 128.977 104.593 129.986 106.072C130.995 107.551 131.535 109.3 131.534 111.09C131.617 113.353 130.8 115.557 129.262 117.22C127.725 118.883 125.591 119.869 123.328 119.963ZM123.328 103.034C121.706 102.893 120.079 103.246 118.66 104.046C117.242 104.846 116.098 106.055 115.378 107.516C114.659 108.977 114.397 110.621 114.628 112.233C114.859 113.845 115.571 115.35 116.671 116.551C117.771 117.751 119.208 118.591 120.794 118.961C122.38 119.331 124.041 119.214 125.558 118.624C127.076 118.034 128.381 117 129.301 115.656C130.221 114.313 130.714 112.723 130.715 111.094C130.801 109.047 130.071 107.048 128.687 105.537C127.302 104.026 125.375 103.124 123.328 103.03V103.034Z" fill="#0063D2"/>
<path d="M124.002 100.786C123.671 100.786 123.268 100.764 123.301 100.337C123.323 99.5034 123.519 98.6836 123.876 97.9302C124.234 97.1768 124.745 96.5066 125.377 95.9623C126.008 95.4181 126.747 95.012 127.545 94.77C128.343 94.5281 129.183 94.4556 130.011 94.5574C130.118 94.5652 130.219 94.6154 130.29 94.697C130.361 94.7787 130.397 94.8851 130.39 94.9931C130.235 96.6503 129.499 98.1997 128.313 99.3675C127.079 100.316 125.559 100.816 124.002 100.786ZM129.509 95.3721C128.199 95.2966 126.911 95.7332 125.917 96.5896C124.923 97.4461 124.3 98.6554 124.181 99.9623C125.491 100.038 126.779 99.6012 127.773 98.7447C128.768 97.8883 129.39 96.679 129.509 95.3721Z" fill="#0063D2"/>
<path d="M139.15 40.0054H114.532C114.479 40.0054 114.425 39.9948 114.376 39.9742C114.326 39.9536 114.281 39.9235 114.243 39.8854C114.205 39.8474 114.175 39.8023 114.154 39.7526C114.133 39.7029 114.123 39.6496 114.123 39.5958V14.9787C114.123 14.87 114.166 14.7659 114.243 14.689C114.32 14.6122 114.424 14.5691 114.532 14.5691H139.15C139.258 14.5691 139.362 14.6122 139.439 14.689C139.516 14.7659 139.559 14.87 139.559 14.9787V39.5958C139.559 39.6496 139.549 39.7029 139.528 39.7526C139.507 39.8023 139.477 39.8474 139.439 39.8854C139.401 39.9235 139.356 39.9536 139.306 39.9742C139.257 39.9948 139.203 40.0054 139.15 40.0054ZM114.951 39.1863H138.738V15.3969H114.951V39.1863Z" fill="#0063D2"/>
<path d="M134.966 0.465344C134.392 0.466763 133.833 0.656293 133.377 1.00495C132.92 1.35361 132.59 1.84222 132.438 2.39606C132.285 2.9499 132.318 3.5385 132.531 4.07187C132.745 4.60523 133.127 5.054 133.62 5.34957L126.474 20.4183C126.428 20.5166 126.422 20.6292 126.459 20.7316C126.495 20.8339 126.571 20.9175 126.669 20.9641C126.767 21.0106 126.88 21.0162 126.982 20.9796C127.085 20.943 127.168 20.8673 127.215 20.7691L134.382 5.65238C134.743 5.73584 135.118 5.74201 135.481 5.67048C135.845 5.59896 136.189 5.45136 136.492 5.23738C136.794 5.0234 137.048 4.74786 137.236 4.42887C137.425 4.10988 137.543 3.75465 137.585 3.38649C137.626 3.01832 137.589 2.64556 137.477 2.29267C137.364 1.93977 137.178 1.61472 136.93 1.33885C136.683 1.06299 136.38 0.842562 136.042 0.692018C135.703 0.541474 135.337 0.46422 134.966 0.465344Z" fill="#0063D2"/>
<path d="M55.9804 216.626H46.9919V207.622C46.996 207.567 46.9886 207.511 46.9701 207.458C46.9516 207.406 46.9225 207.357 46.8846 207.317C46.8467 207.276 46.8008 207.243 46.7497 207.221C46.6986 207.199 46.6435 207.187 46.5878 207.187C46.5321 207.187 46.477 207.199 46.4259 207.221C46.3748 207.243 46.3289 207.276 46.291 207.317C46.253 207.357 46.2239 207.406 46.2055 207.458C46.187 207.511 46.1796 207.567 46.1837 207.622V216.613H37.1799C37.073 216.613 36.9705 216.655 36.8949 216.731C36.8193 216.806 36.7769 216.909 36.7769 217.016C36.7769 217.123 36.8193 217.225 36.8949 217.301C36.9705 217.376 37.073 217.419 37.1799 217.419H46.1706V226.423C46.1706 226.53 46.2131 226.632 46.2886 226.708C46.3642 226.783 46.4667 226.826 46.5736 226.826C46.6805 226.826 46.783 226.783 46.8586 226.708C46.9342 226.632 46.9767 226.53 46.9767 226.423V217.432H55.9826C56.0355 217.432 56.0879 217.421 56.1368 217.401C56.1856 217.381 56.23 217.351 56.2673 217.313C56.3046 217.276 56.3342 217.231 56.3543 217.182C56.3744 217.133 56.3847 217.081 56.3846 217.028C56.3844 216.975 56.3738 216.923 56.3535 216.874C56.3331 216.825 56.3033 216.781 56.2657 216.743C56.2282 216.706 56.1837 216.676 56.1348 216.656C56.0858 216.636 56.0334 216.626 55.9804 216.626Z" fill="#0063D2"/>
<path d="M348.821 206.073C348.737 205.11 348.891 204.14 349.271 203.251C349.651 202.362 350.245 201.58 350.999 200.975C351.753 200.369 352.645 199.96 353.596 199.781C354.546 199.603 355.526 199.662 356.449 199.952C357.371 200.243 358.207 200.757 358.884 201.448C359.56 202.139 360.056 202.986 360.327 203.915C360.598 204.843 360.636 205.824 360.437 206.77C360.238 207.717 359.809 208.6 359.188 209.341C358.441 210.233 357.445 210.883 356.328 211.209C355.211 211.535 354.022 211.522 352.912 211.172C351.802 210.822 350.821 210.151 350.093 209.244C349.364 208.336 348.922 207.233 348.821 206.073ZM354.685 200.496C353.834 200.495 352.996 200.709 352.249 201.118C351.502 201.527 350.87 202.118 350.412 202.836C349.954 203.554 349.685 204.375 349.629 205.225C349.572 206.074 349.731 206.925 350.091 207.696C350.45 208.468 350.999 209.137 351.685 209.641C352.372 210.145 353.174 210.467 354.018 210.578C354.862 210.69 355.721 210.587 356.514 210.278C357.308 209.97 358.011 209.466 358.559 208.814C359.174 208.075 359.567 207.176 359.692 206.222C359.816 205.269 359.666 204.299 359.26 203.427C358.854 202.555 358.208 201.817 357.398 201.298C356.588 200.78 355.647 200.502 354.685 200.498V200.496Z" fill="#0063D2"/>
<path d="M224.71 109.77C224.695 109.387 224.533 109.024 224.256 108.758C223.98 108.492 223.611 108.344 223.228 108.344C222.844 108.344 222.475 108.492 222.199 108.758C221.922 109.024 221.76 109.387 221.745 109.77C221.76 110.154 221.922 110.516 222.199 110.782C222.475 111.048 222.844 111.197 223.228 111.197C223.611 111.197 223.98 111.048 224.256 110.782C224.533 110.516 224.695 110.154 224.71 109.77Z" fill="#000001"/>
<path d="M210.415 123.521C210.415 123.128 210.259 122.751 209.982 122.473C209.704 122.196 209.327 122.04 208.934 122.04C208.541 122.04 208.164 122.196 207.887 122.473C207.609 122.751 207.453 123.128 207.453 123.521C207.453 123.914 207.609 124.291 207.887 124.568C208.164 124.846 208.541 125.002 208.934 125.002C209.327 125.002 209.704 124.846 209.982 124.568C210.259 124.291 210.415 123.914 210.415 123.521Z" fill="#000001"/>
<path d="M221.531 139.104C221.531 138.71 221.375 138.333 221.097 138.055C220.819 137.777 220.441 137.62 220.048 137.62C219.654 137.62 219.277 137.777 218.999 138.055C218.721 138.333 218.564 138.71 218.564 139.104C218.564 139.497 218.721 139.875 218.999 140.153C219.277 140.431 219.654 140.587 220.048 140.587C220.441 140.587 220.819 140.431 221.097 140.153C221.375 139.875 221.531 139.497 221.531 139.104Z" fill="#000001"/>
<path d="M414.106 289.292H195.172C195.27 283.579 194.329 277.895 192.394 272.518L193.015 269.805C195.012 269.813 197.007 269.695 198.989 269.452C199.163 269.283 197.878 274.289 215.423 203.254L220.092 203.956L228.285 203.302C228.379 203.295 228.468 203.256 228.536 203.191C228.605 203.127 228.649 203.04 228.661 202.947C228.673 202.854 228.653 202.759 228.604 202.679C228.554 202.599 228.479 202.538 228.39 202.507L216.286 198.237C216.232 198.218 216.174 198.21 216.117 198.215C216.06 198.219 216.004 198.235 215.954 198.262C215.903 198.289 215.859 198.327 215.823 198.372C215.788 198.417 215.762 198.469 215.748 198.524C215.486 199.588 198.538 268.237 198.403 268.755C194.733 269.049 191.047 269.072 187.375 268.823L202.483 197.041C202.693 196.038 203.1 195.087 203.68 194.243C204.26 193.398 205.002 192.678 205.863 192.122C206.724 191.566 207.686 191.187 208.694 191.006C209.703 190.825 210.737 190.846 211.737 191.067C234.071 196.013 253.946 192.891 251.604 170.104H259.566C264.242 181.282 264.163 192.978 254.495 200.302L254.451 200.339L255.913 200.222C265.167 192.521 264.941 180.665 260.216 169.537C259.433 167.673 258.524 165.865 257.495 164.126C259.628 162.694 261.3 160.673 262.305 158.309C263.311 155.944 263.608 153.338 263.159 150.809C261.048 138.814 255.721 116.9 249.147 110.846C243.745 106.235 237.582 102.6 230.934 100.104C230.096 99.8023 229.347 99.2938 228.758 98.6253C228.168 97.9568 227.758 97.1502 227.564 96.2804C227.505 95.226 227.222 84.5273 239.546 82.2682C240.199 82.1222 240.796 81.7928 241.269 81.3188C241.741 80.8448 242.068 80.2459 242.211 79.5925C242.355 78.939 242.309 78.2582 242.078 77.63C241.848 77.0018 241.443 76.4524 240.912 76.0463C240.242 75.5427 239.428 75.2691 238.59 75.2664C238.863 74.6389 238.954 73.9469 238.853 73.2699C238.751 72.5929 238.46 71.9583 238.014 71.439C237.568 70.9197 236.985 70.5367 236.331 70.3339C235.677 70.1312 234.979 70.117 234.317 70.2929C234.438 69.6719 234.396 69.0303 234.195 68.4305C233.994 67.8306 233.641 67.293 233.171 66.8698C232.701 66.4466 232.129 66.1522 231.512 66.0153C230.894 65.8783 230.252 65.9035 229.647 66.0884C229.76 65.2663 229.59 64.4301 229.166 63.7169C228.742 63.0038 228.088 62.4558 227.311 62.1629C226.535 61.87 225.682 61.8495 224.892 62.1048C224.103 62.36 223.423 62.8759 222.965 63.5678C221.466 68.0141 219.481 72.2814 217.046 76.2925C213.365 82.7409 210.964 90.8885 218.41 91.1064C218.202 93.3678 217.279 95.5041 215.774 97.2048C214.27 98.9055 212.262 100.082 210.042 100.563C196.536 104.384 187.473 131.374 179.707 143.317L135.677 150.456C135.623 150.464 135.572 150.483 135.527 150.512C135.481 150.54 135.441 150.577 135.41 150.621C135.346 150.71 135.32 150.82 135.338 150.927C135.355 151.035 135.415 151.131 135.504 151.194C135.592 151.258 135.702 151.284 135.81 151.266L140.04 150.578C143.648 156.219 144.912 163.046 143.561 169.605C143.541 169.712 143.565 169.822 143.627 169.911C143.689 170 143.784 170.061 143.891 170.081C143.998 170.1 144.108 170.076 144.197 170.014C144.286 169.952 144.347 169.858 144.367 169.751C145.696 163.108 144.464 156.208 140.918 150.436C178.123 144.391 179.892 144.14 180.112 144.06C180.935 143.746 186.944 131.744 187.32 130.988C193.379 118.954 200.921 103.975 210.282 101.328C211.892 100.893 213.41 100.171 214.763 99.1952L213.238 102.613C213.204 102.691 213.195 102.777 213.212 102.859C213.229 102.942 213.27 103.018 213.331 103.076C213.393 103.134 213.47 103.172 213.554 103.185C213.637 103.198 213.722 103.184 213.798 103.147L219.996 100.008C215.541 111.772 213.319 127.085 213.203 146.726C208.957 147.007 205.964 147.131 206.184 147.138C205.389 147.151 204.337 147.691 203.646 150.063C203.167 149.558 202.675 149.018 202.178 148.447C200.196 139.794 200.063 130.819 201.79 122.111C201.811 122.004 201.79 121.894 201.729 121.803C201.669 121.713 201.575 121.65 201.469 121.628C201.362 121.607 201.251 121.629 201.161 121.689C201.07 121.749 201.008 121.843 200.986 121.95C199.354 130.238 199.365 138.766 201.017 147.051C200.094 145.909 199.254 144.702 198.503 143.441C197.954 142.498 197.196 142.066 196.607 142.352C195.557 142.883 195.865 145.29 197.468 149.157C195.021 148.517 196.422 148.552 181.458 152.643C180.068 153.024 178.439 153.66 178.567 154.521C178.659 155.131 179.502 155.403 181.351 155.403C185.007 155.403 186.569 154.401 175.532 157.908C173.243 158.634 174.94 161.723 186.608 158.958C185.536 159.531 181.38 161.708 180.421 162.226C178.482 163.257 178.961 166.516 190.15 162.132C189.131 163.394 187.959 164.782 186.373 166.489C185.654 167.265 185.978 167.762 186.096 167.897C187.052 168.986 191.325 167.11 197.244 162.976C198.352 162.2 198.943 162.633 200.618 164.1C198.931 166.263 196.661 167.899 194.075 168.817C191.489 169.734 188.696 169.894 186.022 169.278C185.915 169.259 185.805 169.284 185.716 169.346C185.626 169.409 185.566 169.504 185.547 169.611C185.528 169.718 185.553 169.829 185.615 169.918C185.678 170.007 185.773 170.067 185.88 170.086C188.692 170.722 191.627 170.549 194.345 169.585C197.062 168.621 199.45 166.906 201.232 164.64C204.607 167.537 206.472 170.086 208.639 170.086H250.757C251.528 177.402 250.003 182.97 246.206 186.665C238.062 194.59 221.216 192.314 211.898 190.251C210.792 190.005 209.648 189.982 208.532 190.181C207.417 190.381 206.352 190.801 205.4 191.415C204.447 192.029 203.626 192.827 202.984 193.761C202.342 194.694 201.892 195.747 201.659 196.856L186.53 268.747C179.081 268.207 171.802 266.261 165.078 263.013C191.002 131.919 171.138 232.344 178.961 192.784C179.77 188.635 181.804 184.824 184.801 181.843C187.798 178.862 191.62 176.848 195.773 176.062C195.88 176.041 195.974 175.979 196.035 175.889C196.096 175.799 196.119 175.688 196.099 175.581C196.078 175.475 196.016 175.38 195.926 175.319C195.836 175.258 195.725 175.235 195.618 175.256C191.305 176.072 187.335 178.164 184.223 181.26C181.11 184.356 178.997 188.314 178.158 192.623L175.193 207.615L140.472 265.878C133.366 264.033 126.794 260.543 121.285 255.691L159.137 177.064C159.184 176.966 159.19 176.853 159.154 176.751C159.118 176.648 159.043 176.564 158.945 176.517C158.847 176.47 158.735 176.464 158.632 176.5C158.53 176.536 158.446 176.611 158.398 176.709C118.56 259.649 120.203 255.693 120.458 256.055C122.188 257.598 124.027 259.013 125.963 260.29L120.481 271.836C110.742 275.182 102.16 281.238 95.7423 289.292H1.00753C0.704718 289.292 -0.0337982 290.381 1.09685 290.445C6.20764 290.771 51.2026 290.314 414.101 290.314C414.644 290.307 414.648 289.292 414.106 289.292ZM256.817 164.557C257.716 166.08 258.521 167.655 259.229 169.276H251.506C251.4 168.404 251.26 167.507 251.088 166.583C253.092 166.215 255.024 165.529 256.811 164.551L256.817 164.557ZM227.342 98.5547L226.751 103.395L221.933 99.5786C223.772 99.467 225.589 99.1229 227.342 98.5547ZM214.739 88.3506C213.253 85.0828 216.567 78.6845 218.127 76.079C219.229 74.2382 221.316 71.5041 223.37 72.1381C225.281 72.735 226.344 75.7675 226.614 77.8022C226.832 79.5058 226.501 79.9807 226.915 80.6081C227.351 81.2617 228.176 80.9349 228.847 80.5101C229.379 80.1746 229.913 79.6191 230.71 79.7346C232.257 79.9524 232.503 83.0524 228.749 84.8867L228.47 85.0175C227.298 85.549 225.185 93.3764 227.248 97.7291C223.763 98.8183 219.669 99.4719 216.547 97.5701C217.43 96.5542 218.119 95.3845 218.578 94.1193C222.858 90.1086 222.652 90.3918 222.573 90.052C222.29 89.3571 221.702 90.211 218.948 90.2698C217.188 90.2742 215.48 89.9736 214.739 88.3506ZM216.088 98.2563C217.077 98.8536 218.173 99.2545 219.314 99.437L214.452 101.901L216.088 98.2563ZM220.933 99.8313C227.25 104.842 226.852 104.578 227.07 104.578C227.17 104.579 227.266 104.542 227.341 104.476C227.416 104.41 227.465 104.318 227.477 104.219L228.102 99.0928C228.78 99.9052 229.668 100.516 230.668 100.86C237.214 103.318 243.281 106.896 248.6 111.434C254.183 116.573 259.647 135.513 262.359 150.935C262.899 154.017 262.262 157.19 260.575 159.826C258.888 162.462 256.274 164.368 253.249 165.169C245.099 167.398 236.739 168.772 228.305 169.269H220.212C221.92 160.08 221.061 152.673 217.652 147.24C226.063 146.708 234.428 145.593 242.685 143.903C242.791 143.88 242.884 143.815 242.943 143.724C243.002 143.632 243.022 143.521 242.999 143.415C242.976 143.308 242.911 143.216 242.82 143.157C242.728 143.098 242.617 143.078 242.511 143.101C241.069 143.417 239.633 143.702 238.228 143.955C237.648 137.766 236.576 131.633 235.023 125.614L234.997 125.546C234.964 125.473 234.91 125.412 234.841 125.369C234.773 125.327 234.694 125.305 234.613 125.308C234.533 125.311 234.455 125.337 234.39 125.384C234.324 125.43 234.274 125.495 234.246 125.57C234.18 125.788 234.217 124.673 234.217 144.628C227.741 145.611 220.527 146.242 214.016 146.68C214.131 126.902 216.397 111.563 220.933 99.8313ZM216.719 147.31C220.229 152.623 221.122 160.008 219.375 169.269H210.332C211.789 167.526 212.343 163.052 211.702 158.046L210.955 154.183C210.502 151.836 209.416 149.657 207.814 147.883C210.999 147.704 213.957 147.515 216.719 147.31ZM196.978 143.09C197.045 143.055 197.413 143.216 197.795 143.853C199.429 146.532 201.378 149.006 203.6 151.222C202.032 150.628 200.097 149.935 198.479 149.451C196.407 144.654 196.773 143.195 196.978 143.09ZM201.736 163.989C202.308 163.213 202.796 162.379 203.193 161.501C203.234 161.4 203.233 161.287 203.19 161.187C203.148 161.087 203.067 161.008 202.967 160.967C202.866 160.926 202.753 160.927 202.653 160.97C202.553 161.012 202.474 161.093 202.433 161.193C202.076 161.989 201.638 162.746 201.126 163.453C199.524 162.05 198.459 161.132 196.769 162.307C189.58 167.317 187 167.563 186.734 167.418C186.758 167.052 187.089 167.309 193.141 159.675C193.209 159.59 193.241 159.482 193.229 159.374C193.217 159.266 193.162 159.167 193.077 159.099C192.992 159.031 192.884 159 192.776 159.012C192.668 159.024 192.569 159.078 192.501 159.163L191.194 160.832C183.024 164.215 180.554 163.642 180.382 163.333C180.397 163.091 181.308 162.679 183.728 161.416C186.423 160.004 189.784 158.25 192.174 156.756C192.266 156.698 192.332 156.606 192.356 156.5C192.38 156.394 192.362 156.283 192.304 156.191C192.246 156.098 192.154 156.033 192.048 156.009C191.942 155.984 191.831 156.003 191.738 156.061C191.085 156.47 190.359 156.897 189.588 157.335C179.92 160.128 176.208 159.194 175.602 158.773C175.659 158.743 188.619 154.826 191.505 153.556C191.6 153.509 191.674 153.428 191.71 153.329C191.746 153.229 191.743 153.12 191.7 153.023C191.658 152.926 191.58 152.85 191.482 152.809C191.384 152.769 191.275 152.768 191.176 152.806C190.37 153.159 189.233 153.577 187.924 154.026C185.128 154.52 182.279 154.643 179.452 154.39C180.124 153.932 180.88 153.61 181.676 153.442C185.597 152.373 194.921 149.669 195.662 149.66C197.747 149.66 204.239 152.449 210.208 154.595L210.901 158.174C211.506 162.917 211.001 167.28 209.674 168.788C209.564 168.933 209.422 169.052 209.26 169.135C209.098 169.219 208.92 169.266 208.737 169.271C206.986 169.363 205.254 166.986 201.736 163.989ZM237.049 169.269C241.503 168.673 245.921 167.84 250.286 166.773C250.445 167.627 250.574 168.459 250.678 169.269H237.049ZM148.362 284.859C148.63 284.641 145.051 284.717 194.244 284.717C194.411 286.158 194.454 287.611 194.372 289.059C187.031 289.072 154.906 289.277 143.129 289.277C144.728 287.839 146.569 286.277 148.362 284.859ZM126.662 260.754C130.92 263.484 135.593 265.505 140.498 266.74C140.539 266.76 140.583 266.771 140.628 266.773C142.84 267.325 145.086 267.726 147.351 267.973L145.532 272.204C137.579 274.129 129.269 274.03 121.364 271.914L126.662 260.754ZM171.104 266.418C177.889 268.714 185.009 269.863 192.172 269.818L191.621 272.226C184.433 274.228 176.837 274.239 169.644 272.256L171.104 266.418ZM164.365 263.551C166.297 264.533 168.288 265.391 170.328 266.122L168.803 272.206C161.551 274.823 154.787 278.633 148.791 283.48C148.345 279.755 147.499 276.089 146.266 272.546L148.201 268.05C150.264 268.24 152.336 268.313 154.407 268.267C154.667 268.154 154.37 268.507 168.187 243.158C163.973 264.481 164.089 263.3 164.365 263.551ZM174.74 210.01L168.722 240.461L154.002 267.474C149.729 267.524 145.465 267.057 141.304 266.082L174.74 210.01ZM101.025 284.717H147.225C145.818 285.852 143.162 288.061 141.907 289.292H96.788C98.1058 287.682 99.5209 286.154 101.025 284.717Z" fill="#000001"/>
<path d="M282.213 101.806L229.382 99.2131C229.867 99.61 230.421 99.915 231.016 100.113L282.171 102.625C283.15 102.674 284.107 102.934 284.975 103.387C285.844 103.84 286.605 104.476 287.205 105.251C287.805 106.026 288.23 106.921 288.452 107.875C288.674 108.83 288.686 109.821 288.489 110.781L281.082 146.681L262.103 145.271C262.162 145.552 262.218 145.831 262.275 146.106L280.914 147.489L270.098 199.871L257.339 198.921C256.893 199.357 256.421 199.786 255.922 200.207L220.077 203.124L215.622 202.444C215.555 202.712 215.489 202.978 215.424 203.244L219.65 203.897V212.293L213.367 211.583L213.167 212.387L219.628 213.114L214.707 289.676C214.704 289.782 214.742 289.885 214.814 289.964C214.885 290.042 214.985 290.09 215.09 290.097C215.196 290.103 215.301 290.069 215.382 290C215.463 289.931 215.514 289.834 215.524 289.728L220.445 213.182C220.753 213.182 216.742 213.352 265.323 209.409C266.469 209.311 267.547 208.82 268.373 208.019L280.03 289.761C280.038 289.814 280.056 289.866 280.083 289.912C280.111 289.958 280.147 289.999 280.19 290.031C280.234 290.063 280.283 290.087 280.335 290.1C280.387 290.113 280.442 290.116 280.495 290.109C280.548 290.101 280.6 290.083 280.646 290.055C280.692 290.028 280.733 289.991 280.765 289.948C280.797 289.905 280.821 289.856 280.834 289.803C280.847 289.751 280.85 289.697 280.842 289.643L269.079 207.167C269.832 206.023 268.353 212.254 289.297 110.955C289.519 109.879 289.504 108.767 289.256 107.696C289.007 106.626 288.53 105.622 287.857 104.753C287.185 103.884 286.332 103.17 285.357 102.662C284.383 102.153 283.31 101.861 282.213 101.806ZM268.935 205.464C268.72 206.3 268.25 207.05 267.591 207.609C266.932 208.168 266.116 208.508 265.255 208.583C265.255 208.583 220.565 212.354 220.463 212.354V203.915C220.463 203.915 264.802 200.309 264.904 200.309L269.915 200.68L268.935 205.464Z" fill="#0063D2"/>
<path d="M371.305 169.27H349.87V165.174C349.87 164.901 349.761 164.639 349.569 164.446C349.376 164.253 349.115 164.143 348.842 164.141H332.235C332.652 163.756 332.955 163.262 333.109 162.715C333.263 162.168 333.262 161.59 333.108 161.043C332.954 160.496 332.651 160.003 332.233 159.617C331.816 159.232 331.3 158.969 330.743 158.859L355.998 100.013C357.029 99.9438 357.995 99.4829 358.697 98.7245C359.399 97.9662 359.783 96.9679 359.772 95.9346C359.761 94.9014 359.355 93.9116 358.637 93.1686C357.919 92.4255 356.944 91.9856 355.911 91.939L319.003 50.5277C319.43 49.8432 319.571 49.0185 319.397 48.2308C319.222 47.4431 318.745 46.7554 318.069 46.3154C317.393 45.8754 316.571 45.7183 315.78 45.8778C314.989 46.0373 314.293 46.5007 313.84 47.1685L307.862 44.1817L315.968 36.0058C316.363 35.6078 316.675 35.136 316.888 34.6173C317.1 34.0987 317.208 33.5432 317.206 32.9828C317.203 32.4223 317.091 31.8678 316.874 31.3509C316.658 30.834 316.341 30.3648 315.943 29.9702C315.545 29.5755 315.073 29.2631 314.555 29.0508C314.036 28.8385 313.481 28.7304 312.92 28.7327C312.36 28.735 311.805 28.8477 311.288 29.0643C310.771 29.281 310.302 29.5973 309.908 29.9952L301.274 38.7093L280.833 44.2797C280.403 44.3969 280.011 44.6254 279.696 44.9422C279.382 45.259 279.157 45.6531 279.043 46.0846C278.93 46.5162 278.932 46.97 279.05 47.4004C279.167 47.8309 279.396 48.2227 279.713 48.5366L285.267 54.0417C284.572 55.0846 284.262 56.3363 284.388 57.5828C284.515 58.8293 285.071 59.9931 285.961 60.8751C286.85 61.7572 288.019 62.3027 289.266 62.4185C290.514 62.5342 291.763 62.2129 292.8 61.5096L297.81 66.481C298.127 66.7953 298.52 67.0207 298.952 67.1345C299.383 67.2483 299.836 67.2464 300.267 67.1291C300.697 67.0118 301.089 66.7833 301.402 66.4664C301.716 66.1495 301.941 65.7556 302.054 65.3242L307.437 44.8919L313.478 47.907C313.269 48.5513 313.278 49.2464 313.503 49.8852C313.729 50.524 314.158 51.0709 314.725 51.4414C315.292 51.8119 315.965 51.9855 316.641 51.9353C317.316 51.8851 317.957 51.614 318.463 51.1638L354.883 92.0197C353.956 92.2158 353.127 92.7314 352.541 93.4764C351.954 94.2214 351.649 95.1486 351.676 96.0961C351.704 97.0436 352.064 97.9512 352.692 98.6606C353.321 99.3701 354.179 99.8362 355.116 99.9778L329.867 158.811C329.274 158.865 328.71 159.09 328.242 159.459C327.775 159.827 327.424 160.323 327.232 160.887C327.04 161.45 327.015 162.057 327.161 162.634C327.307 163.212 327.616 163.734 328.052 164.139H311.446C311.173 164.141 310.912 164.251 310.719 164.444C310.526 164.637 310.418 164.899 310.417 165.172V169.268H305.026C305.405 168.834 305.614 168.277 305.614 167.701V163.026C307.21 162.915 308.704 162.203 309.795 161.033C310.886 159.863 311.493 158.323 311.493 156.724C311.493 155.124 310.886 153.584 309.795 152.414C308.704 151.245 307.21 150.532 305.614 150.421V145.744C305.614 145.108 305.361 144.499 304.912 144.049C304.462 143.6 303.853 143.348 303.217 143.348H288.336C287.7 143.348 287.091 143.6 286.642 144.049C286.192 144.499 285.94 145.108 285.94 145.744V167.706C285.939 168.281 286.148 168.837 286.528 169.27H148.543C148.354 168.748 148.008 168.297 147.554 167.978C147.1 167.658 146.558 167.487 146.003 167.485H140.646C139.891 167.48 139.164 167.199 138.603 166.695C138.041 166.191 137.683 165.499 137.596 164.749L135.352 143.088H164.878C166.9 143.088 168.839 142.285 170.269 140.855C171.699 139.425 172.502 137.486 172.502 135.464V83.2555C172.502 81.2333 171.699 79.2939 170.269 77.864C168.839 76.434 166.9 75.6307 164.878 75.6307H90.7319C88.7097 75.6307 86.7703 76.434 85.3403 77.864C83.9104 79.2939 83.1071 81.2333 83.1071 83.2555V135.474C83.1071 137.497 83.9104 139.436 85.3403 140.866C86.7703 142.296 88.7097 143.099 90.7319 143.099H116.14L113.628 169.27H50.1832C49.119 169.27 48.0983 169.692 47.3457 170.445C46.5932 171.198 46.1704 172.218 46.1704 173.283C46.1704 174.347 46.5932 175.367 47.3457 176.12C48.0983 176.873 49.119 177.295 50.1832 177.295H93.6685C72.0097 297.218 73.4367 289.107 73.4367 289.707C73.4367 289.815 73.4798 289.919 73.5566 289.996C73.6334 290.073 73.7376 290.116 73.8462 290.116H81.1072C81.2033 290.116 81.2964 290.082 81.3701 290.021C81.4437 289.959 81.4934 289.873 81.5102 289.778L101.821 177.295H319.672L339.984 289.768C340.001 289.862 340.051 289.948 340.124 290.01C340.198 290.071 340.291 290.105 340.387 290.105H347.646C347.755 290.105 347.859 290.062 347.936 289.985C348.012 289.908 348.056 289.804 348.056 289.696C348.056 289.11 349.419 296.863 327.826 177.295H371.311C372.375 177.295 373.396 176.873 374.149 176.12C374.901 175.367 375.324 174.347 375.324 173.283C375.324 172.218 374.901 171.198 374.149 170.445C373.396 169.692 372.375 169.27 371.311 169.27H371.305ZM288.173 61.3375C287.535 61.1034 286.958 60.7304 286.483 60.2456C286.008 59.7608 285.647 59.1764 285.425 58.5346C285.204 57.8929 285.128 57.2099 285.204 56.5353C285.279 55.8607 285.504 55.2113 285.861 54.6342L292.205 60.9214C291.61 61.2959 290.937 61.5283 290.237 61.6005C289.538 61.6726 288.832 61.5826 288.173 61.3375ZM306.614 44.0423L301.854 39.6352C301.781 39.5596 301.74 39.4594 301.739 39.3547C301.738 39.25 301.777 39.1488 301.847 39.0717C301.918 38.9945 302.016 38.9472 302.12 38.9394C302.224 38.9316 302.328 38.9638 302.409 39.0295L307.169 43.4388C307.236 43.5143 307.273 43.6119 307.273 43.7129C307.272 43.8138 307.234 43.9111 307.167 43.9859C307.099 44.0607 307.006 44.1079 306.905 44.1183C306.805 44.1287 306.704 44.1016 306.622 44.0423H306.614ZM316.417 51.1377C315.969 51.1381 315.531 51.0057 315.159 50.7571C314.786 50.5086 314.496 50.1551 314.324 49.7414C314.153 49.3277 314.108 48.8724 314.195 48.4332C314.282 47.9939 314.498 47.5904 314.814 47.2737C315.131 46.957 315.535 46.7414 315.974 46.6541C316.413 46.5669 316.868 46.6119 317.282 46.7835C317.696 46.9551 318.049 47.2455 318.298 47.6181C318.546 47.9906 318.679 48.4285 318.678 48.8764C318.678 49.1739 318.619 49.4684 318.504 49.7431C318.39 50.0178 318.222 50.2672 318.012 50.4772C317.801 50.6872 317.551 50.8536 317.276 50.9669C317.001 51.0802 316.706 51.1383 316.408 51.1377H316.417ZM352.506 95.9802C352.506 95.3421 352.695 94.7182 353.049 94.1873C353.403 93.6565 353.907 93.2427 354.496 92.9981C355.085 92.7535 355.734 92.6891 356.36 92.8132C356.986 92.9373 357.561 93.2442 358.013 93.6951C358.464 94.146 358.772 94.7207 358.897 95.3464C359.022 95.9722 358.958 96.621 358.714 97.2107C358.47 97.8004 358.057 98.3046 357.527 98.6594C356.997 99.0143 356.373 99.204 355.735 99.2044C355.31 99.2055 354.89 99.123 354.498 98.9615C354.105 98.8001 353.748 98.5629 353.448 98.2634C353.147 97.964 352.908 97.6082 352.745 97.2164C352.582 96.8246 352.498 96.4045 352.498 95.9802H352.506ZM305.627 151.243C307.01 151.346 308.303 151.968 309.246 152.985C310.19 154.001 310.714 155.337 310.714 156.724C310.714 158.111 310.19 159.446 309.246 160.463C308.303 161.479 307.01 162.102 305.627 162.205V151.243ZM90.7319 142.269C88.9324 142.268 87.2066 141.554 85.9324 140.283C84.6581 139.013 83.9391 137.289 83.9327 135.49V83.2555C83.9325 82.3623 84.1081 81.4779 84.4496 80.6526C84.7912 79.8273 85.2919 79.0774 85.9233 78.4456C86.5546 77.8138 87.3042 77.3126 88.1293 76.9706C88.9544 76.6285 89.8387 76.4523 90.7319 76.452H162.161C163.962 76.4543 165.689 77.1709 166.963 78.4447C168.237 79.7185 168.953 81.4454 168.956 83.2468V135.477C168.953 137.278 168.236 139.004 166.962 140.277C165.689 141.551 163.962 142.267 162.161 142.269H90.7319ZM114.456 169.27L116.968 143.088H131.825L134.69 169.27H114.456ZM327.889 161.88C327.889 161.433 328.022 160.996 328.27 160.624C328.519 160.252 328.872 159.962 329.285 159.791C329.698 159.62 330.153 159.575 330.592 159.662C331.03 159.75 331.433 159.965 331.749 160.281C332.066 160.597 332.281 161 332.368 161.439C332.455 161.878 332.411 162.332 332.24 162.746C332.068 163.159 331.779 163.512 331.407 163.76C331.035 164.009 330.598 164.141 330.15 164.141C329.55 164.141 328.975 163.903 328.55 163.479C328.125 163.055 327.886 162.48 327.885 161.88H327.889ZM349.055 169.27H311.241V165.174C311.241 164.843 308.977 164.956 348.84 164.956C348.898 164.956 348.953 164.979 348.994 165.02C349.035 165.061 349.058 165.116 349.058 165.174L349.055 169.27Z" fill="#83B9FF"/>
</svg>
